<?xml version="1.0" encoding="iso-8859-1"?>
<!-- Generator: Adobe Illustrator 16.0.0, SVG Export Plug-In . SVG Version: 6.00 Build 0)  -->
<!DOCTYPE svg PUBLIC "-//W3C//DTD SVG 1.1//EN" "http://www.w3.org/Graphics/SVG/1.1/DTD/svg11.dtd">
<svg class="algo-icon"  version="1.1" id="Capa_1" xmlns="http://www.w3.org/2000/svg" xmlns:xlink="http://www.w3.org/1999/xlink" x="0px" y="0px"
	 width="50px" height="50px" viewBox="0 0 50 50" style="enable-background:new 0 0 50 50;" xml:space="preserve">

	<g>
		<path style="fill:#C0C;" d="M24.998,0.003C11.209,0.003,0,11.215,0,24.997c0,13.788,11.209,25,24.998,25c13.779,0,25.002-11.212,25.002-25
			C50,11.215,38.777,0.003,24.998,0.003z M42.951,34.724l-1.667-0.97l-0.548,0.974l1.684,0.979c-1.684,2.738-3.979,5.025-6.72,6.716
			l-0.972-1.69l-0.969,0.556l0.961,1.67c-2.75,1.499-5.841,2.416-9.156,2.508v-1.981H24.44v1.981
			c-3.321-0.092-6.419-1.009-9.164-2.508l0.971-1.67l-0.976-0.556l-0.973,1.693c-2.743-1.686-5.04-3.98-6.726-6.716l1.697-0.981
			l-0.56-0.967l-1.676,0.963c-1.493-2.75-2.414-5.839-2.51-9.154h1.992v-1.125h-1.99c0.096-3.321,1.017-6.417,2.51-9.166
			l1.676,0.968l0.56-0.973l-1.697-0.979c1.686-2.738,3.968-5.025,6.706-6.716l0.987,1.694l0.968-0.559l-0.963-1.67
			c2.75-1.497,5.848-2.416,9.164-2.508v1.979h1.116l0.007-1.979c3.317,0.092,6.414,1.011,9.164,2.508l-0.97,1.67l0.976,0.559
			L35.7,7.575c2.739,1.688,5.036,3.976,6.72,6.716l-1.697,0.982l0.562,0.966l1.667-0.966c1.501,2.753,2.414,5.844,2.517,9.158
			h-1.984v1.127h1.984C45.365,28.878,44.452,31.972,42.951,34.724z"/>
		<path style="fill:#C0C;" d="M26.417,22.85V9.117h-2.834V22.85c-0.292,0.192-0.541,0.441-0.733,0.733l-8.599,0.002v2.833l8.599-0.001
			c0.47,0.723,1.273,1.176,2.15,1.176c1.43,0,2.593-1.162,2.593-2.593C27.593,24.123,27.139,23.319,26.417,22.85z"/>
	</g>

</svg>
