<?xml version="1.0" encoding="iso-8859-1"?>
<!-- Generator: Adobe Illustrator 18.1.1, SVG Export Plug-In . SVG Version: 6.00 Build 0)  -->
<svg version="1.1" class="algo-icon" xmlns="http://www.w3.org/2000/svg" xmlns:xlink="http://www.w3.org/1999/xlink" x="0px" y="0px"
	 viewBox="0 0 458.135 458.135" style="enable-background:new 0 0 458.135 458.135;" xml:space="preserve">
<g>
	<path style="fill:#06C;" d="M259.915,68.597V39.285h30.32c4.495,0,8.129-3.642,8.129-8.129V8.129
		c0-4.487-3.633-8.129-8.129-8.129H162.519c-4.487,0-8.129,3.642-8.129,8.129v23.028c0,4.487,3.642,8.129,8.129,8.129h35.709v29.304
		C104.643,83.391,33.079,164.4,33.079,262.147c0,108.24,87.748,195.988,195.988,195.988s195.988-87.748,195.988-195.988
		C425.055,164.4,353.508,83.391,259.915,68.597z M229.067,420.207c-87.155,0-158.06-70.906-158.06-158.06
		s70.906-158.06,158.06-158.06c87.163,0,158.06,70.906,158.06,158.06C387.127,349.309,316.23,420.207,229.067,420.207z"/>
	<path style="fill:#06C;" d="M226.377,120.368v141.779h141.779C368.155,183.844,304.679,120.368,226.377,120.368z"/>
	<path style="fill:#06C;" d="M226.377,356.471h25.321v41.992h-25.321V356.471z M94.905,242.24h42.171v31.612H94.905
		C94.905,273.852,94.905,242.24,94.905,242.24z M327.057,318.006l23.069,13.323c2.048-3.674,3.942-7.454,5.674-11.315
		l-22.427-12.957L327.057,318.006z M285.138,355.162l15.973,27.45c3.601-2.235,7.096-4.617,10.478-7.161l-15.526-26.645
		L285.138,355.162z M170.615,382.693l-10.925-6.365l16.03-27.515l10.933,6.357L170.615,382.693z M117.121,333.971l-6.316-10.949
		l27.637-15.965l6.316,10.957L117.121,333.971z M138.417,209.043l-27.629-15.965l6.324-10.949l27.629,15.965L138.417,209.043z
		 M175.703,167.286l-16.03-27.515l10.933-6.365l16.03,27.515L175.703,167.286z M59.091,77.506
		c-16.485,15.233-17.493,40.952-2.26,57.437l59.696-55.177C101.286,63.281,75.575,62.273,59.091,77.506z"/>
</g>
</svg>
