<svg width="14" height="13" viewBox="0 0 14 13" fill="none" xmlns="http://www.w3.org/2000/svg">
<path fill-rule="evenodd" clip-rule="evenodd" d="M13.6501 6.49961C13.6501 10.0342 10.7847 12.8996 7.2501 12.8996C3.71548 12.8996 0.850098 10.0342 0.850098 6.49961C0.850098 2.96499 3.71548 0.0996094 7.2501 0.0996094C10.7847 0.0996094 13.6501 2.96499 13.6501 6.49961ZM8.0501 9.69961C8.0501 10.1414 7.69193 10.4996 7.2501 10.4996C6.80827 10.4996 6.4501 10.1414 6.4501 9.69961C6.4501 9.25778 6.80827 8.89961 7.2501 8.89961C7.69193 8.89961 8.0501 9.25778 8.0501 9.69961ZM7.2501 2.49961C6.80827 2.49961 6.4501 2.85778 6.4501 3.29961V6.49961C6.4501 6.94144 6.80827 7.29961 7.2501 7.29961C7.69193 7.29961 8.0501 6.94144 8.0501 6.49961V3.29961C8.0501 2.85778 7.69193 2.49961 7.2501 2.49961Z" fill="#F97066"/>
</svg>
