<svg width="16" height="15" viewBox="0 0 16 15" fill="none" xmlns="http://www.w3.org/2000/svg">
<path d="M7.04917 1.42731C7.34852 0.506 8.65193 0.506001 8.95129 1.42731L10.0209 4.71911C10.1547 5.13113 10.5387 5.41009 10.9719 5.41009H14.4331C15.4018 5.41009 15.8046 6.64971 15.0209 7.21911L12.2207 9.25355C11.8702 9.50819 11.7236 9.95956 11.8575 10.3716L12.927 13.6634C13.2264 14.5847 12.1719 15.3508 11.3882 14.7814L8.58801 12.747C8.23753 12.4923 7.76293 12.4923 7.41244 12.747L4.61227 14.7814C3.82856 15.3508 2.77408 14.5847 3.07343 13.6634L4.143 10.3716C4.27688 9.95956 4.13022 9.50819 3.77973 9.25355L0.979561 7.21911C0.195848 6.64971 0.598623 5.41009 1.56735 5.41009H5.02855C5.46177 5.41009 5.84573 5.13113 5.9796 4.71911L7.04917 1.42731Z" fill="#184376"/>
</svg>
