<svg class="algo-icon" viewBox="0 0 100 100" xmlns="http://www.w3.org/2000/svg">
 <!-- Created with Method Draw - http://github.com/duopixel/Method-Draw/ -->

 <g>
  <title>Layer 1</title>
  <g transform="matrix(0.1470900647159965,0,0,0.250098969754025,0,-69.96670990419625) " id="svg_28">
   <g id="svg_29">
    <rect id="svg_30" height="384" width="42.667" y="291.00896" x="40.914057"/>
   </g>
  </g>
  <g transform="matrix(0.20164272384989385,0,0,0.1470900647159965,-0.6598667414956054,0) " id="svg_31">
   <g id="svg_32">
    <rect x="12.436568" id="svg_33" height="42.667" width="469.333" y="601.449683"/>
   </g>
  </g>
  <g transform="matrix(0.1470900647159965,0,0,0.1470900647159965,0,0) " id="svg_34"/>
  <g transform="matrix(0.1470900647159965,0,0,0.1470900647159965,0,0) " id="svg_35"/>
  <g transform="matrix(0.1470900647159965,0,0,0.1470900647159965,0,0) " id="svg_36"/>
  <g transform="matrix(0.1470900647159965,0,0,0.1470900647159965,0,0) " id="svg_37"/>
  <g transform="matrix(0.1470900647159965,0,0,0.1470900647159965,0,0) " id="svg_38"/>
  <g transform="matrix(0.1470900647159965,0,0,0.1470900647159965,0,0) " id="svg_39"/>
  <g transform="matrix(0.1470900647159965,0,0,0.1470900647159965,0,0) " id="svg_40"/>
  <g transform="matrix(0.1470900647159965,0,0,0.1470900647159965,0,0) " id="svg_41"/>
  <g transform="matrix(0.1470900647159965,0,0,0.1470900647159965,0,0) " id="svg_42"/>
  <g transform="matrix(0.1470900647159965,0,0,0.1470900647159965,0,0) " id="svg_43"/>
  <g transform="matrix(0.1470900647159965,0,0,0.1470900647159965,0,0) " id="svg_44"/>
  <g transform="matrix(0.1470900647159965,0,0,0.1470900647159965,0,0) " id="svg_45"/>
  <g transform="matrix(0.1470900647159965,0,0,0.1470900647159965,0,0) " id="svg_46"/>
  <g transform="matrix(0.1470900647159965,0,0,0.1470900647159965,0,0) " id="svg_47"/>
  <g transform="matrix(0.1470900647159965,0,0,0.1470900647159965,0,0) " id="svg_48"/>
  <g stroke="null" id="svg_50">
   <g stroke="null" transform="matrix(0.2307952832671214,0,0,0.3180963641266968,-19.535024964237635,-48.40732496985737) " id="svg_13">
    <g stroke="null" id="svg_14">
     <rect stroke="null" id="svg_15" height="106.667" width="42.667" y="299.239464" x="169.113701"/>
    </g>
   </g>
   <g stroke="null" transform="matrix(0.2307952832671214,0,0,0.3180963641266968,-19.535024964237635,-48.40732496985737) " id="svg_16">
    <g stroke="null" id="svg_17">
     <rect stroke="null" id="svg_18" height="64" width="42.667" y="341.906464" x="361.113701"/>
    </g>
   </g>
   <g stroke="null" transform="matrix(0.2307952832671214,0,0,0.3180963641266968,-19.535024964237635,-48.40732496985737) " id="svg_19">
    <g stroke="null" id="svg_20">
     <rect stroke="null" id="svg_21" height="85.333" width="42.667" y="320.572464" x="425.113701"/>
    </g>
   </g>
   <g stroke="null" transform="matrix(0.2307952832671214,0,0,0.3180963641266968,-19.535024964237635,-48.40732496985737) " id="svg_22">
    <g stroke="null" id="svg_23">
     <rect stroke="null" id="svg_24" height="170.667" width="42.667" y="235.239464" x="297.113701"/>
    </g>
   </g>
   <g stroke="null" transform="matrix(0.2307952832671214,0,0,0.3180963641266968,-19.535024964237635,-48.40732496985737) " id="svg_25">
    <g stroke="null" id="svg_26">
     <rect stroke="null" id="svg_27" height="213.333" width="42.667" y="192.572464" x="233.113701"/>
    </g>
   </g>
  </g>
 </g>
</svg>