<svg class="algo-icon" viewBox="0 0 100 100" xmlns="http://www.w3.org/2000/svg">
 <g>
  <title>Layer 1</title>
  <g id="svg_21"/>
  <text stroke="null" transform="matrix(1.554612159729004,0,0,1.554612159729004,-30.67698508501053,-27.947253361344337) " xml:space="preserve" text-anchor="start" font-family="Helvetica, Arial, sans-serif" font-size="24" id="svg_80" y="71.205329" x="51.481899" fill-opacity="null" stroke-opacity="null" stroke-width="0">C</text>
  <g stroke="null" id="svg_102">
   <g stroke="null" transform="matrix(0.11400001017905846,0,0,0.11400001017905846,-56.743504304670026,-59.70023580774091) " id="svg_85">
    <path stroke="null" id="svg_86" d="m1343.51641,900.561647c-7.707,-7.883 -17.246,-11.945 -28.525,-11.945l-151.588,0l0,-50.088c0,-10.282 -7.961,-18.576 -18.243,-18.576l-1.996,0l-1.988,0l-184.096,0l-1.989,0l-1.996,0c-10.282,0 -18.576,8.294 -18.576,18.576l0,50.087l-151.253,0c-11.28,0 -20.819,4.062 -28.533,11.945c-7.543,7.707 -11.605,17.246 -11.605,28.193l0,400.037c0,10.948 3.892,20.649 11.605,28.526c7.551,7.713 17.252,11.612 28.533,11.612l531.724,0c11.279,0 20.981,-3.899 28.525,-11.612c7.714,-7.884 11.613,-17.578 11.613,-28.526l0,-400.037c0,-10.947 -4.062,-20.486 -11.612,-28.192zm-372.177,-43.79l155.57,0l0,31.844l-155.57,0l0,-31.844zm-97.854,475.338l-90.219,0c-1.663,0 -3.651,-1.988 -3.651,-3.319l0,-400.037c0,-2.321 1.323,-3.319 3.651,-3.319l90.219,0l0,406.675zm314.459,0l-276.975,0l0,-406.674l276.975,0l0,406.674zm130.365,-3.319c0,2.321 -0.998,3.319 -3.318,3.319l-90.227,0l0,-406.674l90.227,0c2.32,0 3.318,0.998 3.318,3.319l0,400.036z"/>
   </g>
   <g stroke="null" transform="matrix(0.11400001017905846,0,0,0.11400001017905846,-56.743504304670026,-59.70023580774091) " id="svg_87"/>
   <g stroke="null" transform="matrix(0.11400001017905846,0,0,0.11400001017905846,-56.743504304670026,-59.70023580774091) " id="svg_88"/>
   <g stroke="null" transform="matrix(0.11400001017905846,0,0,0.11400001017905846,-56.743504304670026,-59.70023580774091) " id="svg_89"/>
   <g stroke="null" transform="matrix(0.11400001017905846,0,0,0.11400001017905846,-56.743504304670026,-59.70023580774091) " id="svg_90"/>
   <g stroke="null" transform="matrix(0.11400001017905846,0,0,0.11400001017905846,-56.743504304670026,-59.70023580774091) " id="svg_91"/>
   <g stroke="null" transform="matrix(0.11400001017905846,0,0,0.11400001017905846,-56.743504304670026,-59.70023580774091) " id="svg_92"/>
   <g stroke="null" transform="matrix(0.11400001017905846,0,0,0.11400001017905846,-56.743504304670026,-59.70023580774091) " id="svg_93"/>
   <g stroke="null" transform="matrix(0.11400001017905846,0,0,0.11400001017905846,-56.743504304670026,-59.70023580774091) " id="svg_94"/>
   <g stroke="null" transform="matrix(0.11400001017905846,0,0,0.11400001017905846,-56.743504304670026,-59.70023580774091) " id="svg_95"/>
   <g stroke="null" transform="matrix(0.11400001017905846,0,0,0.11400001017905846,-56.743504304670026,-59.70023580774091) " id="svg_96"/>
   <g stroke="null" transform="matrix(0.11400001017905846,0,0,0.11400001017905846,-56.743504304670026,-59.70023580774091) " id="svg_97"/>
   <g stroke="null" transform="matrix(0.11400001017905846,0,0,0.11400001017905846,-56.743504304670026,-59.70023580774091) " id="svg_98"/>
   <g stroke="null" transform="matrix(0.11400001017905846,0,0,0.11400001017905846,-56.743504304670026,-59.70023580774091) " id="svg_99"/>
   <g stroke="null" transform="matrix(0.11400001017905846,0,0,0.11400001017905846,-56.743504304670026,-59.70023580774091) " id="svg_100"/>
   <g stroke="null" transform="matrix(0.11400001017905846,0,0,0.11400001017905846,-56.743504304670026,-59.70023580774091) " id="svg_101"/>
  </g>
  <g stroke="null" id="svg_126">
   <g stroke="null" transform="matrix(0.07350556381542941,0,0,0.07350556381542941,-0.7661297063873462,-0.6035190895764231) " id="svg_109">
    <g stroke="null" id="svg_107">
     <path stroke="null" id="svg_110" d="m527.147555,157.716875l-102,0l0,-51l-51,-51l-102,0l-51,51l0,51l-102,0c-28.05,0 -51,22.95 -51,51l0,280.5c0,28.05 22.95,51 51,51l408,0c28.05,0 51,-22.95 51,-51l0,-280.5c0,-28.05 -22.95,-51 -51,-51zm-153,0l-102,0l0,-51l102,0l0,51z"/>
    </g>
   </g>
   <g stroke="null" transform="matrix(0.07350556381542941,0,0,0.07350556381542941,-0.7661297063873462,-0.6035190895764231) " id="svg_111"/>
   <g stroke="null" transform="matrix(0.07350556381542941,0,0,0.07350556381542941,-0.7661297063873462,-0.6035190895764231) " id="svg_112"/>
   <g stroke="null" transform="matrix(0.07350556381542941,0,0,0.07350556381542941,-0.7661297063873462,-0.6035190895764231) " id="svg_113"/>
   <g stroke="null" transform="matrix(0.07350556381542941,0,0,0.07350556381542941,-0.7661297063873462,-0.6035190895764231) " id="svg_114"/>
   <g stroke="null" transform="matrix(0.07350556381542941,0,0,0.07350556381542941,-0.7661297063873462,-0.6035190895764231) " id="svg_115"/>
   <g stroke="null" transform="matrix(0.07350556381542941,0,0,0.07350556381542941,-0.7661297063873462,-0.6035190895764231) " id="svg_116"/>
   <g stroke="null" transform="matrix(0.07350556381542941,0,0,0.07350556381542941,-0.7661297063873462,-0.6035190895764231) " id="svg_117"/>
   <g stroke="null" transform="matrix(0.07350556381542941,0,0,0.07350556381542941,-0.7661297063873462,-0.6035190895764231) " id="svg_118"/>
   <g stroke="null" transform="matrix(0.07350556381542941,0,0,0.07350556381542941,-0.7661297063873462,-0.6035190895764231) " id="svg_119"/>
   <g stroke="null" transform="matrix(0.07350556381542941,0,0,0.07350556381542941,-0.7661297063873462,-0.6035190895764231) " id="svg_120"/>
   <g stroke="null" transform="matrix(0.07350556381542941,0,0,0.07350556381542941,-0.7661297063873462,-0.6035190895764231) " id="svg_121"/>
   <g stroke="null" transform="matrix(0.07350556381542941,0,0,0.07350556381542941,-0.7661297063873462,-0.6035190895764231) " id="svg_122"/>
   <g stroke="null" transform="matrix(0.07350556381542941,0,0,0.07350556381542941,-0.7661297063873462,-0.6035190895764231) " id="svg_123"/>
   <g stroke="null" transform="matrix(0.07350556381542941,0,0,0.07350556381542941,-0.7661297063873462,-0.6035190895764231) " id="svg_124"/>
   <g stroke="null" transform="matrix(0.07350556381542941,0,0,0.07350556381542941,-0.7661297063873462,-0.6035190895764231) " id="svg_125"/>
  </g>
 </g>
</svg>