<svg class="algo-icon" viewBox="0 0 100 100" xmlns="http://www.w3.org/2000/svg">
 <!-- Created with Method Draw - http://github.com/duopixel/Method-Draw/ -->
 <g>
  <title>Layer 1</title>
  <path d="m96.13898,36.33032l0,-13.35057l0,-1.46239c0,-7.65033 -6.7519,-13.88296 -15.1414,-14.09826l0,0.00177l0,3.38695l0,0.00319l0,3.40503l0,0.00674l0,1.93449c0,4.96532 -4.03922,9.00454 -9.00348,9.00454c-4.96461,0 -9.00383,-4.03922 -9.00383,-9.00454l0,-1.97989l0,-3.39014l0,-3.39013l-25.53065,0l0,3.39013l0,3.39014l0,1.97989c0,4.96532 -4.03922,9.00454 -9.00419,9.00454c-4.96461,0 -9.00348,-4.03922 -9.00348,-9.00454l0,-1.9054l0,-0.01171l0,-3.41603l0,-0.00319l0,-3.38659l0,-0.00355c-8.25082,0.34937 -14.8502,6.5249 -14.8502,14.08478l0,1.46239l0,13.35057l0,47.02245c0,8.58991 6.99061,15.58228 15.58122,15.58228l60.37408,0c8.58955,0 15.58051,-6.99237 15.58051,-15.58228l0,-47.02067l0.00142,0zm-6.78063,47.02244c0,4.85359 -3.94806,8.80024 -8.8013,8.80024l-60.3723,0c-4.85289,0 -8.8006,-3.94665 -8.8006,-8.80024l0,-47.02244l77.9742,0l0,47.02244z" id="svg_123" stroke="null"/>
  <path d="m24.53822,4.83766l0,2.55909l0,3.39014l0,3.39014l0,1.97988c0,2.16504 1.75395,3.91898 3.91898,3.91898c2.16433,0 3.91898,-1.75394 3.91898,-3.91898l0,-1.97988l0,-3.39014l0,-3.39014l0,-2.55909c0.00036,-2.16504 -1.7543,-3.91898 -3.91862,-3.91898c-2.16539,0.00177 -3.91934,1.75572 -3.91934,3.91898z" id="svg_124" stroke="null"/>
  <path d="m71.99517,0.92045c-2.16504,0 -3.91969,1.75395 -3.91969,3.91898l0,2.5591l0,3.39013l0,3.39014l0,1.97989c0,2.16503 1.7543,3.91898 3.91969,3.91898s3.92004,-1.75395 3.92004,-3.91898l0,-1.98166l0,-3.39014l0,-3.39014l0,-2.55909c-0.00319,-2.16326 -1.75607,-3.91721 -3.92004,-3.91721z" id="svg_125" stroke="null"/>
  <text  stroke-width="0" stroke-opacity="null" fill-opacity="null" x="24.716319" y="55.167506" id="svg_126" font-size="24" font-family="Helvetica, Arial, sans-serif" text-anchor="start" xml:space="preserve" transform="matrix(2.1078903584856334,0,0,2.035648053710966,-18.03892461802611,-29.928079900793) " stroke="null">E</text>
 </g>
</svg>