<svg class="algo-icon" viewBox="0 0 100 100" xmlns="http://www.w3.org/2000/svg">

 <g>
  <title>Layer 1</title>
  <path stroke="null" d="m83.558296,1.296626l-68.814856,0c-1.447932,0 -2.626285,1.178367 -2.626285,2.633995l0,92.774897c0,1.447932 1.178353,2.633995 2.626285,2.633995l51.324256,0c0.75476,0 1.463322,-0.323473 1.963936,-0.877993l17.4906,-19.577769c0.438997,-0.485209 0.670059,-1.109056 0.670059,-1.748292l0,-73.197142c0,-1.455627 -1.186076,-2.64169 -2.633995,-2.64169zm-5.660759,68.522191l-15.688401,-0.007695c-0.007709,0 -0.007709,0 -0.007709,0c-0.777874,0 -1.509535,0.308069 -2.064056,0.847185s-0.854894,1.293891 -0.847199,2.071765l0.053922,19.639385l-39.309579,0l0,-84.472462l57.870717,0l-0.007709,61.921822l0,0l0.000014,0z"  id="svg_5"/>
  <g stroke="null" id="svg_41">
   <g stroke="null" transform="matrix(0.09616679177636171,0,0,0.09616679177636171,-31.077587710837648,-30.21910197638811) " id="svg_6">
    <g stroke="null" id="svg_22">
     <path stroke="null" id="svg_23" d="m716.515664,582.435809l-107.5,0c-8.7,0 -15.7,7 -15.7,15.7l0,310.6c0,8.7 7,15.7 15.7,15.7l107.5,0c8.7,0 15.7,-7 15.7,-15.7l0,-310.6c0.1,-8.7 -7,-15.7 -15.7,-15.7zm-15.7,310.6l-76.1,0l0,-279.2l76.1,0l0,279.2z"/>
     <path stroke="null" id="svg_24" d="m1061.415664,664.835809l-107.5,0c-8.7,0 -15.7,7 -15.7,15.7l0,228.2c0,8.7 7,15.7 15.7,15.7l107.5,0c8.7,0 15.7,-7 15.7,-15.7l0,-228.2c0,-8.7 -7,-15.7 -15.7,-15.7zm-91.8,31.4l24.4,0l-24.4,24.4l0,-24.4zm0,49.4l49.3,-49.3l24.9,0l-74.2,74.2l0,-24.9l0,0zm76.1,147.4l-24.5,0l24.5,-24.5l0,24.5zm0,-49.4l-49.4,49.4l-24.9,0l74.2,-74.2l0,24.8l0.1,0zm0,-49.7l-76.1,76.1l0,-24.9l76.1,-76.1l0,24.9zm0,-49.8l-76.1,76.1l0,-24.9l76.1,-76.1l0,24.9z"/>
     <path stroke="null" id="svg_25" d="m889.015664,456.235809l-107.6,0c-8.7,0 -15.7,7 -15.7,15.7l0,436.8c0,8.7 7,15.7 15.7,15.7l107.5,0c8.7,0 15.7,-7 15.7,-15.7l0,-436.8c0.1,-8.7 -6.9,-15.7 -15.6,-15.7z"/>
    </g>
   </g>
   <g stroke="null" transform="matrix(0.09616679177636171,0,0,0.09616679177636171,-31.077587710837648,-30.21910197638811) " id="svg_26"/>
   <g stroke="null" transform="matrix(0.09616679177636171,0,0,0.09616679177636171,-31.077587710837648,-30.21910197638811) " id="svg_27"/>
   <g stroke="null" transform="matrix(0.09616679177636171,0,0,0.09616679177636171,-31.077587710837648,-30.21910197638811) " id="svg_28"/>
   <g stroke="null" transform="matrix(0.09616679177636171,0,0,0.09616679177636171,-31.077587710837648,-30.21910197638811) " id="svg_29"/>
   <g stroke="null" transform="matrix(0.09616679177636171,0,0,0.09616679177636171,-31.077587710837648,-30.21910197638811) " id="svg_30"/>
   <g stroke="null" transform="matrix(0.09616679177636171,0,0,0.09616679177636171,-31.077587710837648,-30.21910197638811) " id="svg_31"/>
   <g stroke="null" transform="matrix(0.09616679177636171,0,0,0.09616679177636171,-31.077587710837648,-30.21910197638811) " id="svg_32"/>
   <g stroke="null" transform="matrix(0.09616679177636171,0,0,0.09616679177636171,-31.077587710837648,-30.21910197638811) " id="svg_33"/>
   <g stroke="null" transform="matrix(0.09616679177636171,0,0,0.09616679177636171,-31.077587710837648,-30.21910197638811) " id="svg_34"/>
   <g stroke="null" transform="matrix(0.09616679177636171,0,0,0.09616679177636171,-31.077587710837648,-30.21910197638811) " id="svg_35"/>
   <g stroke="null" transform="matrix(0.09616679177636171,0,0,0.09616679177636171,-31.077587710837648,-30.21910197638811) " id="svg_36"/>
   <g stroke="null" transform="matrix(0.09616679177636171,0,0,0.09616679177636171,-31.077587710837648,-30.21910197638811) " id="svg_37"/>
   <g stroke="null" transform="matrix(0.09616679177636171,0,0,0.09616679177636171,-31.077587710837648,-30.21910197638811) " id="svg_38"/>
   <g stroke="null" transform="matrix(0.09616679177636171,0,0,0.09616679177636171,-31.077587710837648,-30.21910197638811) " id="svg_39"/>
   <g stroke="null" transform="matrix(0.09616679177636171,0,0,0.09616679177636171,-31.077587710837648,-30.21910197638811) " id="svg_40"/>
  </g>
 </g>
</svg>