
<svg version="1.1" id="Capa_1" xmlns="http://www.w3.org/2000/svg" xmlns:xlink="http://www.w3.org/1999/xlink"      class="algo-icon" 
	 viewBox="0 0 61.242 61.242" style="enable-background:new 0 0 61.242 61.242;" xml:space="preserve">
<g>
	<path d="M58.636,49.947H9.389l11.102-14.925c0.345-0.463,0.978-0.602,1.484-0.324l4.325,2.368
		c2.112,1.156,4.758,0.492,6.075-1.523l10.804-16.552c0.228-0.349,0.69-0.454,1.046-0.238l0.881,0.535
		c0.352,0.213,0.788,0.23,1.155,0.045s0.612-0.545,0.65-0.955l0.993-10.706c0.042-0.454-0.179-0.893-0.568-1.129
		s-0.881-0.23-1.264,0.017l-9.039,5.823c-0.346,0.222-0.552,0.607-0.547,1.018c0.006,0.411,0.223,0.79,0.574,1.003l0.713,0.433
		c0.179,0.108,0.306,0.285,0.353,0.488c0.046,0.204,0.008,0.417-0.106,0.593l-9.382,14.37c-0.331,0.506-0.995,0.673-1.524,0.383
		l-4.202-2.301c-2.017-1.104-4.54-0.553-5.913,1.292L5.212,45.511V8.687c0-1.438-1.167-2.606-2.606-2.606
		C1.168,6.081,0,7.249,0,8.687v43.869c0,1.438,1.167,2.604,2.606,2.604h56.03c1.438,0,2.606-1.167,2.606-2.606
		S60.075,49.947,58.636,49.947z"/>
</g>
</svg>
