<svg class="algo-icon" viewBox="0 0 100 100"  xmlns="http://www.w3.org/2000/svg">
  <g>
    <title>Layer 1</title>
    <g stroke="null" id="svg_1">
      <path stroke="null" id="svg_2" fill="#010002" d="m88.560811,80.458723c3.355846,0 6.832145,2.641153 7.745989,5.859681l1.318569,4.652733c0.910632,3.218528 -1.092918,5.854863 -4.436719,5.838802l-54.513421,-0.029712c-3.355846,0 -5.368229,-2.64838 -4.509794,-5.878953l1.247099,-4.561991c0.872889,-3.238604 4.334734,-5.879757 7.669702,-5.879757l45.478576,0l0,-0.000803zm7.871261,-6.22024l0,-38.95961c0,-1.413326 -1.143509,-2.555229 -2.557638,-2.555229l-55.939596,0c-1.405296,0 -2.554426,1.1411 -2.554426,2.555229l0,38.960413c0,1.40128 1.149933,2.553623 2.555229,2.553623l55.943611,0c1.409311,-0.000803 2.55282,-1.153145 2.55282,-2.554426zm-55.947626,-36.4092l50.841986,0l0,33.855577l-50.841986,0l0,-33.855577z"/>
    </g>
    <g stroke="null" id="svg_19">
      <path stroke="null" id="svg_18" d="m99.922077,394.095684l33.063978,33.063671l-83.694059,83.694059l-33.045232,-33.063671l83.675313,-83.694059zm58.153143,-7.974199l-14.745262,-14.745262c-5.698535,-5.698535 -14.951777,-5.698535 -20.669673,0l-14.124487,14.124487l33.063978,33.063978l16.475443,-16.475443c4.419799,-4.420106 4.419799,-11.547961 0,-15.96776zm-159.131497,138.14191c-0.601722,2.708056 1.843273,5.134612 4.551637,4.476037l36.844255,-8.933328l-33.045232,-33.063671l-8.35066,37.520962z"/>
    </g>
    <g stroke="null" id="svg_21">
      <path stroke="null" id="svg_20" d="m51.085312,14.603728l15.540283,15.540138l-39.336747,39.336747l-15.531472,-15.540138l39.327936,-39.336747zm27.332351,-3.747925l-6.930368,-6.930368c-2.678348,-2.678348 -7.027432,-2.678348 -9.714879,0l-6.6386,6.6386l15.540283,15.540283l7.743564,-7.743564c2.077334,-2.077478 2.077334,-5.427616 0,-7.50495zm-74.792828,64.927587c-0.282813,1.272804 0.86635,2.413301 2.139299,2.103766l17.317037,-4.198722l-15.531472,-15.540138l-3.924864,17.635094z"/>
    </g>
  </g>
</svg>