<?xml version="1.0" encoding="iso-8859-1"?>
<!-- Generator: Adobe Illustrator 16.0.0, SVG Export Plug-In . SVG Version: 6.00 Build 0)  -->
<!DOCTYPE svg PUBLIC "-//W3C//DTD SVG 1.1//EN" "http://www.w3.org/Graphics/SVG/1.1/DTD/svg11.dtd">
<svg version="1.1" id="Capa_1" xmlns="http://www.w3.org/2000/svg" xmlns:xlink="http://www.w3.org/1999/xlink" x="0px" y="0px"
	 class="algo-icon" viewBox="0 0 342.679 342.679" style="enable-background:new 0 0 342.679 342.679;"
	 xml:space="preserve">
<g>
	<g>
		<polygon points="270.162,12.585 248.34,37.323 276.442,44.975 		"/>
		<polygon points="279.823,71.242 232.377,58.319 210.255,139.525 261.228,139.525 		"/>
		<path d="M82.246,98.463c-2.468,0-5.255-0.134-8.245-0.379l8.559,41.441h24.559l-9.065-43.859
			C93.087,98.062,87.068,98.463,82.246,98.463z"/>
		<rect x="149.875" width="48.537" height="139.525"/>
		<path d="M64.949,145.589v158.055c0,21.559,17.476,39.034,39.036,39.034h146.386c21.558,0,39.039-17.471,39.039-39.034V145.589
			H64.949z"/>
		<path d="M79.35,92.317c0.989,0.039,1.983,0.076,2.9,0.076c6.637,0,11.356-1.01,14.468-3.045
			c11.842-7.744-0.675-31.2-30.755-78.732c0-0.005-33.365,77.846,8.09,81.388C75.928,92.162,77.67,92.265,79.35,92.317z"/>
	</g>
</g>
<g>
</g>
<g>
</g>
<g>
</g>
<g>
</g>
<g>
</g>
<g>
</g>
<g>
</g>
<g>
</g>
<g>
</g>
<g>
</g>
<g>
</g>
<g>
</g>
<g>
</g>
<g>
</g>
<g>
</g>
</svg>
