<svg class="algo-icon" viewBox="0 0 100 100"  xmlns="http://www.w3.org/2000/svg">
  <!-- Created with Method Draw - http://github.com/duopixel/Method-Draw/ -->
  <g>
    <title>Layer 1</title>
    <g stroke="null" id="svg_19">
      <path stroke="null" id="svg_18" d="m99.922077,394.095684l33.063978,33.063671l-83.694059,83.694059l-33.045232,-33.063671l83.675313,-83.694059zm58.153143,-7.974199l-14.745262,-14.745262c-5.698535,-5.698535 -14.951777,-5.698535 -20.669673,0l-14.124487,14.124487l33.063978,33.063978l16.475443,-16.475443c4.419799,-4.420106 4.419799,-11.547961 0,-15.96776zm-159.131497,138.14191c-0.601722,2.708056 1.843273,5.134612 4.551637,4.476037l36.844255,-8.933328l-33.045232,-33.063671l-8.35066,37.520962z"/>
    </g>
    <line stroke="#000" stroke-linecap="null" stroke-linejoin="null" id="svg_24" y2="94.166662" x2="0.982882" y1="94.166662" x1="98.796292" fill-opacity="null" stroke-opacity="null" stroke-width="10" fill="none"/>
    <path transform="rotate(-90 27.618864059448246,28.747678756713867) " id="svg_30" d="m25.55643,40.433896l7.193401,-7.217956l-13.908091,0l-13.90806,0l0,-4.468257l0,-4.468262l13.748507,0c7.561668,0 13.748496,-0.226473 13.748496,-0.503274c0,-0.276795 -3.010276,-3.524877 -6.689495,-7.217955l-6.689516,-6.714689l6.183157,0l6.183134,0l9.443047,9.461142l9.443042,9.461138l-9.461157,9.443035l-9.461154,9.443035l-6.509361,0l-6.509376,0l7.193421,-7.21796l0.000003,0.000002z" stroke-opacity="null" stroke-width="6" stroke="null" fill="#005fbf"/>
    <path transform="rotate(90 27.622426986694332,59.69734954833985) " id="svg_31" d="m25.559991,71.383567l7.193401,-7.217956l-13.908091,0l-13.90806,0l0,-4.468257l0,-4.468262l13.748507,0c7.561668,0 13.748496,-0.226472 13.748496,-0.503274c0,-0.276795 -3.010276,-3.524876 -6.689495,-7.217954l-6.689516,-6.714689l6.183157,0l6.183134,0l9.443047,9.461142l9.443042,9.461138l-9.461157,9.443035l-9.461153,9.443035l-6.509361,0l-6.509376,0l7.193422,-7.217959l0.000003,0.000001z" stroke-opacity="null" stroke-width="6" stroke="null" fill="#005fbf"/>
    <line stroke="#005fbf" stroke-linecap="null" stroke-linejoin="null" id="svg_33" y2="79.051226" x2="55.297058" y1="79.051226" x1="93.481593" stroke-width="6" fill="none"/>
    <line stroke="#005fbf" stroke-linecap="null" stroke-linejoin="null" id="svg_34" y2="9.345107" x2="55.297058" y1="9.345107" x1="93.481593" stroke-width="6" fill="none"/>
    <line stroke="#000" stroke-linecap="null" stroke-linejoin="null" id="svg_25" y2="88.076079" x2="95.648149" y1="1.574081" x1="95.648149" fill-opacity="null" stroke-opacity="null" stroke-width="6" fill="none"/>
  </g>
</svg>