<svg class="algo-icon"  viewBox="0 0 100 100" xmlns="http://www.w3.org/2000/svg">
  <g stroke="null" id="svg_3">
    <path stroke="null" id="svg_4" fill="#ff7f00" d="m96.015627,85.762106l-40.507667,-75.900596c-1.010041,-1.897549 -2.989407,-3.08851 -5.143739,-3.08851l-0.005762,0c-2.154332,0 -4.127744,1.1852 -5.143739,3.082748l-40.688587,75.900404c-0.969133,1.821685 -0.9167,4.00521 0.13425,5.756793c1.056712,1.757345 2.960214,2.837488 5.00949,2.837488l81.190301,0c2.055229,0 3.952586,-1.074381 5.00949,-2.837488c1.056712,-1.757345 1.109336,-3.94087 0.145965,-5.75084zm-45.657168,-3.088702c-3.222952,0 -5.838419,-2.615659 -5.838419,-5.838419c0,-3.22276 2.615659,-5.838419 5.838419,-5.838419c3.216998,0 5.838419,2.615659 5.838419,5.838419c0,3.22276 -2.615467,5.838419 -5.838419,5.838419zm5.844373,-23.260526c0,3.228713 -2.621421,5.838419 -5.838419,5.838419c-3.222952,0 -5.838419,-2.609897 -5.838419,-5.838419l0,-23.354059c0,-3.222952 2.615659,-5.838419 5.838419,-5.838419c3.216998,0 5.838419,2.615659 5.838419,5.838419l0,23.354059z"/>
  </g>
</svg>