<svg width="88" height="88" viewBox="0 0 88 88" fill="none" xmlns="http://www.w3.org/2000/svg">
<rect width="88" height="88" rx="8" fill="#F8F9FC"/>
<path d="M48.9244 46.8513C48.9244 44.4755 46.9915 42.5426 44.6157 42.5426H43.3845C42.6128 42.5426 41.985 41.9149 41.985 41.1432C41.985 40.3715 42.6128 39.7437 43.3845 39.7437H44.6157C45.1797 39.7437 45.686 40.0794 45.9058 40.5988C46.2187 41.3387 47.0725 41.6847 47.8121 41.3719C48.552 41.0589 48.8981 40.2054 48.5852 39.4655C48.0204 38.1302 46.8399 37.1896 45.4547 36.9162V35.814C45.4547 35.0106 44.8034 34.3594 44 34.3594C43.1966 34.3594 42.5454 35.0106 42.5454 35.814V36.9165C40.5698 37.308 39.0757 39.0543 39.0757 41.1432C39.0757 43.519 41.0086 45.4518 43.3844 45.4518H44.6156C45.3873 45.4518 46.0151 46.0797 46.0151 46.8513C46.0151 47.6229 45.3873 48.2508 44.6156 48.2508H43.3844C42.8029 48.2508 42.2907 47.9008 42.0797 47.3594C41.7877 46.611 40.9444 46.2408 40.1959 46.5327C39.4474 46.8247 39.0774 47.668 39.3692 48.4165C39.9153 49.8166 41.1149 50.8006 42.5455 51.0794V52.1805C42.5455 52.9839 43.1967 53.6352 44.0001 53.6352C44.8035 53.6352 45.4548 52.9839 45.4548 52.1805V51.0779C47.4303 50.6864 48.9244 48.9401 48.9244 46.8513Z" fill="white"/>
<path d="M47.0482 38.4417C47.3611 39.1816 47.0151 40.0351 46.2751 40.348C46.1315 40.4088 45.9836 40.4446 45.8362 40.4577C45.8618 40.5033 45.8851 40.5507 45.9058 40.5996C46.2187 41.3395 47.0726 41.6855 47.8121 41.3727C48.5521 41.0597 48.8981 40.2062 48.5852 39.4663C48.1224 38.3722 47.2463 37.5431 46.1829 37.1289C46.5425 37.5025 46.838 37.9448 47.0482 38.4417Z" fill="#D3D0D0"/>
<path d="M46.1768 42.8398C46.9258 43.6154 47.3872 44.6704 47.3872 45.8312C47.3872 47.6298 46.2793 49.1746 44.7102 49.8189C44.236 50.0136 43.9176 50.4644 43.9176 50.9769V51.1603C43.9176 51.9147 43.3433 52.535 42.6079 52.6077C42.7976 53.2333 43.3974 53.6806 44.0945 53.6367C44.8667 53.5879 45.4547 52.9199 45.4547 52.1462V51.0825C47.4303 50.691 48.9243 48.9447 48.9243 46.8559C48.9243 45.0304 47.7832 43.4665 46.1768 42.8398Z" fill="#D3D0D0"/>
<path d="M44 71.7583C28.6953 71.7583 16.2439 59.307 16.2439 44.0022C16.2439 28.6975 28.6953 16.2461 44 16.2461C59.3048 16.2461 71.7561 28.6975 71.7561 44.0022C71.7561 59.307 59.3048 71.7583 44 71.7583ZM44 21.7972C31.7568 21.7972 21.795 31.7589 21.795 44.0022C21.795 56.2455 31.7568 66.2072 44 66.2072C56.2432 66.2072 66.205 56.2454 66.205 44.0022C66.205 31.759 56.2432 21.7972 44 21.7972Z" fill="#CFD8DC"/>
<path d="M57.8781 44.0031C57.8781 51.6666 51.6662 57.8813 44 57.8813C36.3337 57.8813 30.1218 51.6666 30.1218 44.0031C30.1218 36.3397 36.3337 30.125 44 30.125C51.6662 30.125 57.8781 36.3397 57.8781 44.0031Z" fill="#2980BA"/>
<path d="M43.9999 24.5734C42.4651 24.5734 41.2244 23.33 41.2244 21.7979V13.471C41.2244 11.9387 42.4651 10.6953 43.9999 10.6953C45.5348 10.6953 46.7755 11.9387 46.7755 13.4709V21.7977C46.7755 23.3299 45.5348 24.5734 43.9999 24.5734Z" fill="#607D8B"/>
<path d="M43.9999 77.3077C42.4651 77.3077 41.2244 76.0642 41.2244 74.5321V66.2053C41.2244 64.6731 42.4651 63.4297 43.9999 63.4297C45.5348 63.4297 46.7755 64.6731 46.7755 66.2053V74.5321C46.7755 76.0642 45.5348 77.3077 43.9999 77.3077Z" fill="#607D8B"/>
<path d="M21.795 46.7816H13.4682C11.9333 46.7816 10.6926 45.5382 10.6926 44.006C10.6926 42.4739 11.9333 41.2305 13.4682 41.2305H21.795C23.3299 41.2305 24.5706 42.4739 24.5706 44.006C24.5706 45.5382 23.3301 46.7816 21.795 46.7816Z" fill="#607D8B"/>
<path d="M21.9672 46.7742C21.9089 46.777 21.8533 46.7798 21.795 46.7798H16.3826C17.6899 59.8724 28.1345 70.3171 41.2243 71.6216V66.2091C41.2243 66.1508 41.227 66.0953 41.2299 66.037C31.196 64.7824 23.2218 56.8081 21.9672 46.7742ZM41.2244 16.3867C28.1318 17.6913 17.6872 28.1359 16.3826 41.2286H21.795C21.8533 41.2286 21.9089 41.2313 21.9672 41.2342C23.2218 31.2003 31.196 23.2259 41.2299 21.9714C41.2271 21.9131 41.2243 21.8576 41.2243 21.7993V16.3867H41.2244Z" fill="#B4BCC0"/>
<path d="M44 30.125C36.3337 30.125 30.1218 36.3396 30.1218 44.0031C30.1218 51.6667 36.3337 57.8813 44 57.8813V30.125Z" fill="#285680"/>
<path d="M43.9999 10.6953C42.4651 10.6953 41.2244 11.9387 41.2244 13.4709V16.3853V21.7977C41.2244 21.856 41.2271 21.9116 41.23 21.9699C41.3188 23.4215 42.5234 24.5734 44.0001 24.5734V10.6953L43.9999 10.6953Z" fill="#546D79"/>
<path d="M44.0001 63.4297C42.5235 63.4297 41.3188 64.5815 41.23 66.0333C41.2272 66.0915 41.2244 66.1471 41.2244 66.2054V71.6178V74.5322C41.2244 76.0644 42.4651 77.3078 43.9999 77.3078V63.4297H44.0001Z" fill="#546D79"/>
<path d="M21.795 41.2305H16.3826H13.4682C11.9333 41.2305 10.6926 42.4739 10.6926 44.006C10.6926 45.5382 11.9333 46.7816 13.4682 46.7816H16.3826H21.795C21.8533 46.7816 21.9089 46.7789 21.9672 46.776C23.4216 46.6872 24.5708 45.4798 24.5708 44.0059C24.5708 42.5321 23.4216 41.3247 21.9672 41.2358C21.9089 41.2332 21.8533 41.2305 21.795 41.2305Z" fill="#546D79"/>
<path d="M74.5319 46.7816H66.205C64.6701 46.7816 63.4294 45.5382 63.4294 44.006C63.4294 42.4739 64.6701 41.2305 66.205 41.2305H74.5319C76.0667 41.2305 77.3074 42.4739 77.3074 44.006C77.3074 45.5382 76.0667 46.7816 74.5319 46.7816Z" fill="#607D8B"/>
<path d="M49.8634 47.3974C49.8634 44.5686 47.5619 42.2671 44.7332 42.2671H43.2672C42.3483 42.2671 41.6008 41.5196 41.6008 40.6008C41.6008 39.682 42.3483 38.9344 43.2672 38.9344H44.7332C45.4047 38.9344 46.0075 39.3341 46.2692 39.9526C46.6418 40.8337 47.6584 41.2456 48.539 40.8731C49.4201 40.5005 49.8321 39.4842 49.4595 38.6033C48.787 37.0133 47.3814 35.8933 45.7321 35.5678V34.2555C45.7321 33.2988 44.9567 32.5234 44 32.5234C43.0434 32.5234 42.268 33.2988 42.268 34.2555V35.5682C39.9158 36.0344 38.1367 38.1136 38.1367 40.6008C38.1367 43.4297 40.4382 45.731 43.267 45.731H44.733C45.6519 45.731 46.3993 46.4786 46.3993 47.3974C46.3993 48.3161 45.6519 49.0637 44.733 49.0637H43.267C42.5747 49.0637 41.9648 48.647 41.7135 48.0024C41.3659 47.1113 40.3618 46.6704 39.4706 47.0181C38.5793 47.3657 38.1387 48.3698 38.4862 49.261C39.1364 50.9281 40.5648 52.0997 42.2681 52.4317V53.7428C42.2681 54.6994 43.0435 55.4748 44.0002 55.4748C44.9568 55.4748 45.7322 54.6994 45.7322 53.7428V52.4299C48.0844 51.9637 49.8634 49.8845 49.8634 47.3974Z" fill="#CFD8DC"/>
<path d="M47.6297 37.3834C48.0023 38.2644 47.5902 39.2807 46.7092 39.6533C46.5382 39.7256 46.362 39.7683 46.1865 39.7838C46.2171 39.8382 46.2448 39.8945 46.2694 39.9528C46.642 40.8339 47.6587 41.2458 48.5393 40.8733C49.4203 40.5007 49.8324 39.4844 49.4598 38.6035C48.9087 37.3007 47.8655 36.3135 46.5994 35.8203C47.0275 36.2652 47.3794 36.7917 47.6297 37.3834Z" fill="#B4BCC0"/>
<path d="M46.5919 42.6211C47.4837 43.5445 48.0332 44.8007 48.0332 46.1828C48.0332 48.3244 46.714 50.1637 44.8457 50.931C44.2811 51.1627 43.902 51.6995 43.902 52.3098V52.5281C43.902 53.4264 43.2181 54.165 42.3425 54.2516C42.5684 54.9964 43.2826 55.529 44.1126 55.4767C45.032 55.4186 45.7322 54.6232 45.7322 53.702V52.4355C48.0845 51.9693 49.8634 49.89 49.8634 47.403C49.8634 45.2293 48.5047 43.3672 46.5919 42.6211Z" fill="#B4BCC0"/>
</svg>
