<svg width="16" height="18" viewBox="0 0 16 18" fill="none" xmlns="http://www.w3.org/2000/svg">
<path d="M10.4999 13.1667H14.6666L13.4958 11.9959C13.1783 11.6784 12.9999 11.2477 12.9999 10.7987V8.16667C12.9999 5.98964 11.6086 4.13757 9.66659 3.45118V3.16667C9.66659 2.24619 8.92039 1.5 7.99992 1.5C7.07944 1.5 6.33325 2.24619 6.33325 3.16667V3.45118C4.39126 4.13757 2.99992 5.98964 2.99992 8.16667V10.7987C2.99992 11.2477 2.82154 11.6784 2.50403 11.9959L1.33325 13.1667H5.49992M10.4999 13.1667V14C10.4999 15.3807 9.38063 16.5 7.99992 16.5C6.61921 16.5 5.49992 15.3807 5.49992 14V13.1667M10.4999 13.1667H5.49992" stroke="#436691" stroke-width="1.5" stroke-linecap="round" stroke-linejoin="round"/>
</svg>
