<svg width="88" height="88" viewBox="0 0 88 88" fill="none" xmlns="http://www.w3.org/2000/svg">
<rect width="88" height="88" rx="8" fill="#F8F9FC"/>
<path d="M67.8906 25.1865C61.5386 18.8371 52.9873 15.29 44 15.29V24.4784C50.5834 24.4784 56.7988 27.0895 61.3937 31.6834L67.8906 25.1865Z" fill="#184376"/>
<path d="M20.1089 25.186L26.6062 31.6834C31.2264 27.0632 37.4562 24.4784 44 24.4784V15.29C35.4894 15.29 27.2139 18.3351 20.1089 25.186Z" fill="#15BA8B"/>
<path d="M20.1089 25.186L26.6062 31.6834C31.2264 27.0632 37.4562 24.4784 44 24.4784V15.29C35.4894 15.29 27.2139 18.3351 20.1089 25.186Z" fill="#436691"/>
<path d="M10.2218 48.3519C10.2146 48.6937 10.4878 48.9761 10.8295 48.9761H18.8056C19.1323 48.9761 19.4029 48.7174 19.4122 48.3906C19.5813 42.3061 22.0011 36.2886 26.6064 31.6829L20.109 25.1855C14.0014 31.2932 10.4089 39.5311 10.2218 48.3519Z" fill="#2980BA"/>
<path d="M24.2941 24.9289C30.0497 19.3789 36.5661 16.3019 43.3552 15.2979C35.0719 15.4484 27.0345 18.5089 20.1089 25.1866L22.1752 27.2529C22.8437 26.4494 23.5503 25.6732 24.2941 24.9289Z" fill="#13365E"/>
<path d="M14.9147 48.9761C14.5688 48.9761 14.2926 48.6906 14.3003 48.3452C14.4663 40.5032 17.2964 33.1183 22.1753 27.2518L20.109 25.1855C14.0014 31.2932 10.4089 39.5311 10.2218 48.3519C10.2146 48.6937 10.4878 48.9761 10.8295 48.9761H18.8056H14.9147Z" fill="#184376"/>
<path d="M67.8909 25.1855L61.3936 31.6829C65.7081 35.9979 68.4094 41.902 68.5877 48.3896C68.597 48.7169 68.8671 48.9761 69.1944 48.9761H77.1704C77.5122 48.9761 77.7853 48.6942 77.7781 48.3519C77.5941 39.7481 74.1429 31.4355 67.8909 25.1855Z" fill="#13365E"/>
<path d="M49.1006 47.7466L52.7062 36.0803C52.8553 35.5971 52.4027 35.1444 51.9199 35.2936L40.2532 38.8991C35.1638 40.4722 33.5735 46.8932 37.3402 50.6596C41.107 54.4263 47.5276 52.8359 49.1006 47.7466Z" fill="#95A5A5"/>
<path d="M40.3199 50.6596C36.5531 46.8932 38.1439 40.4722 43.2332 38.8991L52.7296 35.9643C52.7808 35.5282 52.3639 35.1565 51.9199 35.2935L40.2532 38.8991C35.1638 40.4722 33.5735 46.8932 37.3402 50.6596C39.1603 52.4797 41.5999 53.0487 43.8128 52.5768C42.5535 52.3057 41.3393 51.6794 40.3199 50.6596Z" fill="#788181"/>
<path d="M46.0806 58.1426L41.1846 76.3321H38.833L43.7291 58.1426H46.0806Z" fill="#95A5A5"/>
<path d="M26.6064 74.2297V59.0371H32.3037C33.4708 59.0371 34.45 59.2547 35.2413 59.6899C36.0375 60.1251 36.6384 60.7235 37.0439 61.4851C37.4544 62.2418 37.6596 63.1023 37.6596 64.0667C37.6596 65.0409 37.4544 65.9064 37.0439 66.6631C36.6335 67.4197 36.0276 68.0157 35.2265 68.4509C34.4253 68.8811 33.4387 69.0963 32.2666 69.0963H28.4907V66.8337H31.8957C32.5781 66.8337 33.137 66.715 33.5722 66.4776C34.0074 66.2402 34.3288 65.9138 34.5366 65.4984C34.7492 65.083 34.8555 64.6057 34.8555 64.0667C34.8555 63.5276 34.7492 63.0529 34.5366 62.6424C34.3288 62.2319 34.0049 61.9129 33.5648 61.6854C33.1296 61.453 32.5682 61.3368 31.8808 61.3368H29.3586V74.2297H26.6064Z" fill="#2980BA"/>
<path d="M49.4209 74.2297V59.0371H59.302V61.3442H52.1731V65.4687H58.7902V67.7758H52.1731V71.9226H59.3614V74.2297H49.4209Z" fill="#018C81"/>
</svg>
