<svg width="88" height="88" viewBox="0 0 88 88" fill="none" xmlns="http://www.w3.org/2000/svg">
<rect width="88" height="88" rx="8" fill="#F8F9FC"/>
<path d="M22.4185 80.5078H19.4611V71.7805H22.4782C23.3447 71.7805 24.089 71.9553 24.7111 72.3047C25.3361 72.6513 25.8163 73.1499 26.1515 73.8004C26.4867 74.451 26.6543 75.2294 26.6543 76.1357C26.6543 77.0447 26.4853 77.826 26.1472 78.4794C25.812 79.1328 25.3276 79.6342 24.6941 79.9837C24.0634 80.3331 23.3049 80.5078 22.4185 80.5078ZM21.0421 79.1399H22.3418C22.9498 79.1399 23.4569 79.0291 23.8631 78.8075C24.2694 78.5831 24.5748 78.2493 24.7793 77.8061C24.9839 77.3601 25.0861 76.8033 25.0861 76.1357C25.0861 75.468 24.9839 74.9141 24.7793 74.4737C24.5748 74.0305 24.2722 73.6996 23.8716 73.4808C23.4739 73.2592 22.9796 73.1484 22.3887 73.1484H21.0421V79.1399ZM29.7374 71.7805V80.5078H28.1564V71.7805H29.7374ZM32.617 71.7805L34.8883 78.6499H34.9778L37.2449 71.7805H38.9835L35.9068 80.5078H33.9551L30.8827 71.7805H32.617ZM40.133 80.5078V71.7805H45.8091V73.1058H41.714V75.4751H45.5151V76.8004H41.714V79.1825H45.8432V80.5078H40.133ZM47.4221 80.5078V71.7805H50.6948C51.3653 71.7805 51.9278 71.897 52.3823 72.13C52.8397 72.3629 53.1849 72.6896 53.4178 73.1101C53.6536 73.5277 53.7715 74.0149 53.7715 74.5717C53.7715 75.1314 53.6522 75.6172 53.4136 76.0291C53.1778 76.4382 52.8297 76.755 52.3695 76.9794C51.9093 77.201 51.3439 77.3118 50.6735 77.3118H48.3425V75.9993H50.4604C50.8525 75.9993 51.1735 75.9453 51.4235 75.8374C51.6735 75.7266 51.8582 75.5661 51.9775 75.3558C52.0996 75.1428 52.1607 74.8814 52.1607 74.5717C52.1607 74.2621 52.0996 73.9979 51.9775 73.7791C51.8553 73.5575 51.6692 73.3899 51.4192 73.2763C51.1692 73.1598 50.8468 73.1016 50.4519 73.1016H49.003V80.5078H47.4221ZM51.9306 76.5533L54.0911 80.5078H52.3269L50.2047 76.5533H51.9306ZM61.0734 74.5675C61.0023 74.3374 60.9043 74.1314 60.7793 73.9496C60.6572 73.7649 60.5094 73.6072 60.3361 73.4766C60.1657 73.3459 59.9697 73.2479 59.7481 73.1825C59.5265 73.1143 59.285 73.0803 59.0236 73.0803C58.5549 73.0803 58.1373 73.1982 57.7708 73.4339C57.4043 73.6697 57.116 74.0163 56.9057 74.4737C56.6984 74.9283 56.5947 75.4822 56.5947 76.1357C56.5947 76.7947 56.6984 77.353 56.9057 77.8104C57.1131 78.2678 57.4015 78.6158 57.7708 78.8544C58.1401 79.0902 58.5691 79.2081 59.0577 79.2081C59.5009 79.2081 59.8844 79.1229 60.2083 78.9524C60.535 78.782 60.7864 78.5405 60.9626 78.228C61.1387 77.9126 61.2268 77.5433 61.2268 77.12L61.5847 77.1754H59.2154V75.9396H62.7566V76.9879C62.7566 77.7351 62.5975 78.3814 62.2793 78.9268C61.9611 79.4723 61.5236 79.8928 60.9668 80.1882C60.41 80.4808 59.7708 80.6271 59.0492 80.6271C58.2452 80.6271 57.5393 80.4467 56.9313 80.0859C56.3262 79.7223 55.8532 79.2067 55.5123 78.5391C55.1742 77.8686 55.0052 77.0732 55.0052 76.1527C55.0052 75.4482 55.1046 74.8189 55.3035 74.2649C55.5052 73.7109 55.7864 73.2408 56.1472 72.8544C56.508 72.4652 56.9313 72.1697 57.4171 71.968C57.9029 71.7635 58.4313 71.6612 59.0023 71.6612C59.4853 71.6612 59.9356 71.7322 60.3532 71.8743C60.7708 72.0135 61.1415 72.2124 61.4654 72.4709C61.7921 72.7294 62.0606 73.0362 62.2708 73.3913C62.481 73.7464 62.6188 74.1385 62.6841 74.5675H61.0734ZM64.2854 80.5078V71.7805H69.9615V73.1058H65.8663V75.4751H69.6675V76.8004H65.8663V79.1825H69.9956V80.5078H64.2854Z" fill="#018C81"/>
<path d="M13.4292 28.3281H16.9559V35.3816H13.4292V28.3281Z" fill="#95A5A5"/>
<path d="M16.9559 33.6182V35.3816H13.4292V28.3281H15.1926V31.8549C15.1926 32.8306 15.9802 33.6182 16.9559 33.6182Z" fill="#788181"/>
<path d="M55.3918 22.8633H58.9186V29.9168H55.3918V22.8633Z" fill="#95A5A5"/>
<path d="M58.9186 28.1534V29.9168H55.3918V22.8633H57.1552V26.39C57.1552 27.3657 57.9429 28.1534 58.9186 28.1534Z" fill="#788181"/>
<path d="M18.0461 31.0625H21.5729V39.8973H18.0461V31.0625Z" fill="#2980BA"/>
<path d="M21.5729 38.3074V40.7224H18.0461V31.0625H19.8095V35.8925C19.8095 37.2287 20.5971 38.3074 21.5729 38.3074Z" fill="#285680"/>
<path d="M60.0088 25.5898H63.5355V34.4246H60.0088V25.5898Z" fill="#2980BA"/>
<path d="M63.5355 32.8348V35.2497H60.0088V25.5898H61.7722V30.4198C61.7722 31.7561 62.5598 32.8348 63.5355 32.8348Z" fill="#285680"/>
<path d="M22.6626 35.8516H26.1893V42.905H22.6626V35.8516Z" fill="#95A5A5"/>
<path d="M26.1893 41.1417V42.905H22.6626V35.8516H24.426V39.3783C24.426 40.354 25.2136 41.1417 26.1893 41.1417Z" fill="#788181"/>
<path d="M64.6255 30.3789H68.1522V37.4324H64.6255V30.3789Z" fill="#95A5A5"/>
<path d="M68.1522 35.669V37.4324H64.6255V30.3789H66.3889V33.9056C66.3889 34.8814 67.1765 35.669 68.1522 35.669Z" fill="#788181"/>
<path d="M33.6603 33.2881C33.3358 33.2881 33.0725 33.0253 33.0725 32.7003V27.9979C33.0725 27.6729 33.3358 27.4102 33.6603 27.4102C33.9848 27.4102 34.2481 27.6729 34.2481 27.9979V32.7003C34.2481 33.0253 33.9848 33.2881 33.6603 33.2881Z" fill="#788181"/>
<path d="M31.8967 27.4102H35.4235V34.7087H31.8967V27.4102Z" fill="#95A5A5"/>
<path d="M35.4235 32.8841V34.7087H31.8967V27.4102H33.6601V31.0594C33.6601 32.0691 34.4477 32.8841 35.4235 32.8841Z" fill="#788181"/>
<path d="M41.1301 19.4609H44.6569V26.5144H41.1301V19.4609Z" fill="#95A5A5"/>
<path d="M44.6569 24.751V26.5144H41.1301V19.4609H42.8935V22.9877C42.8935 23.9634 43.6811 24.751 44.6569 24.751Z" fill="#788181"/>
<path d="M50.3643 19.668H53.891V26.7214H50.3643V19.668Z" fill="#95A5A5"/>
<path d="M53.891 24.9581V26.7214H50.3643V19.668H52.1276V23.1947C52.1276 24.1704 52.9153 24.9581 53.891 24.9581Z" fill="#788181"/>
<path d="M27.2798 32.5H30.8065V39.5535H27.2798V32.5Z" fill="#2980BA"/>
<path d="M30.8065 38.9922V41.1562H27.2798V32.5H29.0432V36.8281C29.0432 38.0256 29.8308 38.9922 30.8065 38.9922Z" fill="#285680"/>
<path d="M69.2422 27.0273H72.7689V34.0808H69.2422V27.0273Z" fill="#2980BA"/>
<path d="M72.7689 33.5195V35.6836H69.2422V27.0273H71.0056V31.3555C71.0056 32.5529 71.7932 33.5195 72.7689 33.5195Z" fill="#285680"/>
<path d="M36.5134 20.4844H40.0402V35.8474H36.5134V20.4844Z" fill="#2980BA"/>
<path d="M40.0402 32.1276V36.0087H36.5134V20.4844H38.2768V28.2465C38.2768 30.3941 39.0644 32.1276 40.0402 32.1276Z" fill="#285680"/>
<path d="M45.7471 12.9609H49.2738V25.0398H45.7471V12.9609Z" fill="#2980BA"/>
<path d="M49.2738 22.0201V25.0398H45.7471V12.9609H47.5104V19.0004C47.5104 20.6713 48.2981 22.0201 49.2738 22.0201Z" fill="#285680"/>
<g clip-path="url(#clip0_793_71170)">
<g style="mix-blend-mode:multiply" opacity="0.1">
<path d="M70.5679 63.3804L70.8977 63.5381V73.5989H17.8052V53.801L18.1344 55.1902L18.4643 55.6651L18.7942 54.871L19.124 53.2322L19.4539 52.793L19.7837 53.7729L20.1136 55.9354L20.4434 58.434L20.7733 57.7507L21.1032 59.6823L21.433 61.6966L21.7629 58.2219L22.0927 54.9874L22.4226 55.8979L22.7524 56.9679L23.0823 56.7464L23.4121 56.3259L23.742 57.3846L24.0719 59.902L24.4017 59.7499L24.7316 59.3557L25.0614 61.2761L25.3913 58.1355L25.7211 56.7708L26.051 57.4785L26.3809 60.3581L26.7107 59.5847L27.0406 58.4659L27.3704 57.0036L27.7003 56.3559L28.0301 58.4884L28.36 55.8303L28.6899 56.0556L29.0197 57.807L29.3496 57.1932L29.6794 57.1687L30.0093 57.9647L30.3391 56.2771L30.669 56.722L30.9988 58.907L31.3287 60.0953L31.6586 58.5785L31.9884 57.1838L32.3183 60.0259L32.6481 61.216L32.978 61.1334L33.3078 57.471L33.6377 58.633L33.9676 59.1774L34.2974 62.8605L34.6273 64.9836L34.9571 58.8301L35.287 57.6474L35.6168 60.2755L35.9467 58.3852L36.2766 59.9977L36.6064 60.8349L36.9363 61.6628L37.2661 61.4075L37.596 57.4147L37.9258 58.7982L38.2557 58.3326L38.5855 58.1599L38.9154 58.939L39.2453 57.0373L39.5751 57.6981L39.905 58.1242L40.2348 57.6944L40.5647 58.6517L40.8808 58.2951L41.2107 57.7882L41.5405 57.8408L41.8704 59.0234L42.2002 57.6212L42.5301 59.2074L42.8599 58.3964L43.1898 58.8714L43.5197 57.3583L43.8495 56.8721L44.1794 59.6992L44.5092 59.4308L44.8391 59.5866L45.1689 58.2763L45.4988 59.2449L45.8286 58.5185L46.1585 59.9151L46.4884 59.7574L46.8182 61.1879L47.1481 60.8819L47.4779 61.171L47.8078 58.1918L48.1376 57.9947L48.4675 60.5853L48.7974 58.6611L49.1272 61.4826L49.4571 59.1154L49.7869 58.4509L50.1168 59.3144L50.4466 59.3651L50.7765 59.7368L51.1064 61.5746L51.4362 65.6556L51.7661 64.6945L52.0959 58.1074L52.4258 61.1766L52.7556 58.9164L53.0855 60.2887L53.4153 58.7756L53.7452 59.7462L54.0751 61.8393L54.4049 62.485L54.7348 62.4324L55.0646 62.3499L55.3945 61.1541L55.7243 63.1777L56.0542 60.4614L56.3841 62.7948L56.7139 60.9551L57.0438 59.733L57.3736 65.2971L57.7035 67.0016L58.0333 67.5066L58.3632 65.9128L58.6931 64.3003L59.0229 62.3179L59.3528 64.1783L59.6826 63.6545L60.0125 64.3528L60.3423 63.035L60.6722 63.9887L61.0021 61.1372L61.3319 60.4783L61.6618 63.5438L61.9916 66.9547L62.3215 62.3236L62.6513 63.6977L62.9812 62.3555L63.3111 60.818L63.6409 65.5317L63.9708 64.4899L64.3006 62.6258L64.6305 65.4792L64.9603 65.7908L65.2902 66.5173L65.62 67.0016L65.9499 62.592L66.2798 63.1683L66.6096 66.6581L66.9395 63.8554L67.2693 63.0951L67.5992 65.4172L67.929 66.2169L68.2589 62.027L68.5888 63.6188L68.9186 64.0074L69.2485 63.1627L69.5783 63.4555L69.9082 65.5017L70.238 65.3046L70.5679 63.3804Z" fill="url(#paint0_linear_793_71170)"/>
</g>
<path d="M70.8977 63.5381L70.5679 63.3804L70.238 65.3046L69.9082 65.5017L69.5783 63.4555L69.2485 63.1627L68.9186 64.0074L68.5888 63.6188L68.2589 62.027L67.929 66.2169L67.5992 65.4172L67.2693 63.0951L66.9395 63.8554L66.6096 66.6581L66.2798 63.1683L65.9499 62.592L65.62 67.0016L65.2902 66.5173L64.9603 65.7908L64.6305 65.4792L64.3006 62.6258L63.9708 64.4899L63.6409 65.5317L63.311 60.818L62.9812 62.3555L62.6513 63.6977L62.3215 62.3236L61.9916 66.9547L61.6618 63.5438L61.3319 60.4783L61.0021 61.1372L60.6722 63.9887L60.3423 63.035L60.0125 64.3528L59.6826 63.6545L59.3528 64.1783L59.0229 62.3179L58.6931 64.3003L58.3632 65.9128L58.0333 67.5066L57.7035 67.0016L57.3736 65.2971L57.0438 59.733L56.7139 60.9551L56.3841 62.7948L56.0542 60.4614L55.7243 63.1777L55.3945 61.1541L55.0646 62.3499L54.7348 62.4325L54.4049 62.485L54.0751 61.8393L53.7452 59.7462L53.4153 58.7756L53.0855 60.2887L52.7556 58.9164L52.4258 61.1766L52.0959 58.1074L51.7661 64.6945L51.4362 65.6556L51.1064 61.5746L50.7765 59.7368L50.4466 59.3651L50.1168 59.3144L49.7869 58.4509L49.4571 59.1154L49.1272 61.4826L48.7974 58.6611L48.4675 60.5853L48.1376 57.9947L47.8078 58.1918L47.4779 61.171L47.1481 60.8819L46.8182 61.1879L46.4884 59.7574L46.1585 59.9151L45.8286 58.5185L45.4988 59.2449L45.1689 58.2763L44.8391 59.5866L44.5092 59.4308L44.1794 59.6992L43.8495 56.8721L43.5197 57.3583L43.1898 58.8714L42.8599 58.3964L42.5301 59.2074L42.2002 57.6212L41.8704 59.0234L41.5405 57.8408L41.2107 57.7882L40.8808 58.2951L40.5647 58.6517L40.2348 57.6944L39.905 58.1242L39.5751 57.6981L39.2453 57.0373L38.9154 58.939L38.5855 58.1599L38.2557 58.3326L37.9258 58.7982L37.596 57.4147L37.2661 61.4075L36.9363 61.6628L36.6064 60.8349L36.2766 59.9977L35.9467 58.3852L35.6168 60.2755L35.287 57.6474L34.9571 58.8301L34.6273 64.9836L34.2974 62.8605L33.9676 59.1774L33.6377 58.633L33.3078 57.471L32.978 61.1334L32.6481 61.216L32.3183 60.0259L31.9884 57.1838L31.6586 58.5785L31.3287 60.0953L30.9988 58.907L30.669 56.722L30.3391 56.2771L30.0093 57.9647L29.6794 57.1687L29.3496 57.1932L29.0197 57.807L28.6899 56.0556L28.36 55.8303L28.0301 58.4884L27.7003 56.3559L27.3704 57.0036L27.0406 58.4659L26.7107 59.5847L26.3809 60.3581L26.051 57.4785L25.7211 56.7708L25.3913 58.1355L25.0614 61.2761L24.7316 59.3557L24.4017 59.7499L24.0719 59.902L23.742 57.3846L23.4121 56.3259L23.0823 56.7464L22.7524 56.9679L22.4226 55.8979L22.0927 54.9874L21.7629 58.2219L21.433 61.6966L21.1032 59.6823L20.7733 57.7507L20.4434 58.434L20.1136 55.9354L19.7837 53.7729L19.4539 52.793L19.124 53.2322L18.7942 54.871L18.4643 55.6651L18.1344 55.1902L17.8052 53.801" stroke="#2980BA" stroke-width="0.374633" stroke-linecap="round" stroke-linejoin="round"/>
</g>
<line x1="12.449" y1="48.9104" x2="75.5508" y2="48.9104" stroke="#285680" stroke-width="0.679166" stroke-linecap="round"/>
<path d="M11.5085 27.1838L51.678 9.10883" stroke="#36D39F" stroke-width="0.8" stroke-linecap="round"/>
<path d="M17.5337 51.5938L40.3994 56.2299" stroke="#36D39F" stroke-width="0.8" stroke-linecap="round"/>
<defs>
<linearGradient id="paint0_linear_793_71170" x1="44.3515" y1="52.793" x2="44.3515" y2="72.6726" gradientUnits="userSpaceOnUse">
<stop stop-color="#285680"/>
<stop offset="1" stop-color="#285680" stop-opacity="0"/>
</linearGradient>
<clipPath id="clip0_793_71170">
<rect width="54" height="15" fill="white" transform="translate(17.4204 52)"/>
</clipPath>
</defs>
</svg>
