<svg width="88" height="88" viewBox="0 0 88 88" fill="none" xmlns="http://www.w3.org/2000/svg">
<rect width="88" height="88" rx="8" fill="#F8F9FC"/>
<g clip-path="url(#clip0_1102_70408)">
<path fill-rule="evenodd" clip-rule="evenodd" d="M33.1108 23.6805C30.2905 23.6384 28.0321 25.2311 27.1528 27.6077L26.5966 29.1302L27.1528 30.5095C30.4085 30.5208 33.6641 28.3353 33.3748 23.9334C33.358 23.6467 33.3974 23.6861 33.1108 23.6805Z" fill="#2980BA"/>
<path fill-rule="evenodd" clip-rule="evenodd" d="M33.1108 33.2666C30.2906 33.2216 28.0321 34.8144 27.1528 37.1908L26.4422 38.8819L27.1528 40.0955C30.4085 40.1039 33.6641 37.9212 33.3749 33.5193C33.358 33.2329 33.3974 33.2693 33.1108 33.2666Z" fill="#2980BA"/>
<path fill-rule="evenodd" clip-rule="evenodd" d="M33.1107 42.8603C30.2904 42.8154 28.032 44.4081 27.1527 46.7846L26.1133 48.161L27.1527 49.6891C30.4084 49.6976 33.664 47.5149 33.3747 43.113C33.3579 42.8265 33.3973 42.8631 33.1107 42.8603Z" fill="#2980BA"/>
<path fill-rule="evenodd" clip-rule="evenodd" d="M31.6949 23.8015C31.6247 27.0038 29.5741 28.8916 27.1527 29.4759V30.5097C30.4084 30.5209 33.664 28.3354 33.3748 23.9335C33.3579 23.647 33.3973 23.6863 33.1107 23.6808C32.6192 23.6723 32.1472 23.7144 31.6949 23.8015Z" fill="#285680"/>
<path fill-rule="evenodd" clip-rule="evenodd" d="M33.1107 33.2667C32.6192 33.2582 32.1472 33.3004 31.6949 33.3875C31.6247 36.5871 29.5741 38.4748 27.1527 39.0619V40.0957C30.4084 40.1042 33.664 37.9215 33.3748 33.5196C33.3579 33.233 33.3973 33.2695 33.1107 33.2667Z" fill="#285680"/>
<path fill-rule="evenodd" clip-rule="evenodd" d="M33.1107 42.8604C32.6192 42.852 32.1472 42.8941 31.6949 42.9813C31.6247 46.1808 29.5741 48.0685 27.1527 48.6557V49.6895C30.4084 49.6979 33.664 47.5152 33.3748 43.1133C33.3579 42.8267 33.3973 42.8632 33.1107 42.8604Z" fill="#285680"/>
<path fill-rule="evenodd" clip-rule="evenodd" d="M20.9308 23.9334C20.6415 28.3353 23.8971 30.5208 27.1529 30.5095V27.6077C26.2737 25.2311 24.0152 23.6384 21.1949 23.6805C20.9083 23.6862 20.9477 23.6468 20.9308 23.9334Z" fill="#2980BA"/>
<path fill-rule="evenodd" clip-rule="evenodd" d="M27.1529 37.1908C26.2737 34.8143 24.0152 33.2215 21.1949 33.2666C20.9084 33.2693 20.9477 33.2329 20.9309 33.5193C20.6415 37.9212 23.8972 40.1039 27.1529 40.0955V37.1908Z" fill="#2980BA"/>
<path fill-rule="evenodd" clip-rule="evenodd" d="M27.1529 46.7846C26.2737 44.408 24.0152 42.8153 21.1949 42.8603C20.9083 42.8631 20.9477 42.8266 20.9308 43.1131C20.6415 47.515 23.8971 49.6977 27.1529 49.6892V46.7846Z" fill="#2980BA"/>
<path fill-rule="evenodd" clip-rule="evenodd" d="M27.1529 39.0615C24.6107 38.5615 22.3972 36.6569 22.3185 33.3366C21.9562 33.286 21.5798 33.2608 21.1949 33.2664C20.9084 33.2692 20.9477 33.2327 20.9309 33.5192C20.6415 37.9211 23.8972 40.1038 27.1529 40.0953V39.0615Z" fill="#285680"/>
<path fill-rule="evenodd" clip-rule="evenodd" d="M22.3185 42.9312C21.9562 42.8778 21.5798 42.8525 21.1949 42.861C20.9083 42.8638 20.9477 42.8273 20.9308 43.1138C20.6415 47.5157 23.8971 49.6984 27.1529 49.6899V48.6561C24.6107 48.1533 22.3971 46.2516 22.3185 42.9312Z" fill="#285680"/>
<path fill-rule="evenodd" clip-rule="evenodd" d="M27.1529 29.4756C24.6107 28.9756 22.3972 27.071 22.3185 23.7535C21.9562 23.7001 21.5798 23.6748 21.1949 23.6805C20.9083 23.686 20.9477 23.6468 20.9308 23.9333C20.6415 28.3351 23.8971 30.5206 27.1529 30.5094V29.4756Z" fill="#285680"/>
<path d="M27.1529 56.728C26.7425 56.728 26.4098 56.361 26.4098 55.9081V21.0308C26.4098 20.5779 26.7425 20.2109 27.1529 20.2109C27.5634 20.2109 27.8961 20.5779 27.8961 21.0308V55.9081C27.8961 56.361 27.5634 56.728 27.1529 56.728Z" fill="#285680"/>
<path fill-rule="evenodd" clip-rule="evenodd" d="M49.9564 23.6805C47.1362 23.6384 44.8805 25.2311 43.9984 27.6077L43.4423 29.1302L43.9984 30.5095C47.2541 30.5208 50.5097 28.3353 50.2233 23.9334C50.2037 23.6467 50.243 23.6861 49.9564 23.6805Z" fill="#2980BA"/>
<path fill-rule="evenodd" clip-rule="evenodd" d="M49.9565 33.2666C47.1362 33.2216 44.8806 34.8144 43.9985 37.1908L43.2906 38.8819L43.9985 40.0955C47.2541 40.1039 50.5098 37.9212 50.2233 33.5193C50.2037 33.2329 50.243 33.2693 49.9565 33.2666Z" fill="#2980BA"/>
<path fill-rule="evenodd" clip-rule="evenodd" d="M49.9565 42.8603C47.1362 42.8154 44.8806 44.4081 43.9985 46.7846L42.9619 48.161L43.9985 49.6891C47.2542 49.6976 50.5098 47.5149 50.2233 43.113C50.2037 42.8265 50.2431 42.8631 49.9565 42.8603Z" fill="#2980BA"/>
<path fill-rule="evenodd" clip-rule="evenodd" d="M48.5435 23.8015C48.4733 27.0038 46.4199 28.8916 43.9985 29.4759V30.5097C47.2542 30.5209 50.5098 28.3354 50.2233 23.9335C50.2037 23.647 50.243 23.6863 49.9565 23.6808C49.4677 23.6723 48.993 23.7144 48.5435 23.8015Z" fill="#285680"/>
<path fill-rule="evenodd" clip-rule="evenodd" d="M49.9567 33.2667C49.468 33.2582 48.9933 33.3004 48.5438 33.3875C48.4735 36.5871 46.4201 38.4748 43.9987 39.0619V40.0957C47.2544 40.1042 50.51 37.9215 50.2236 33.5196C50.204 33.233 50.2433 33.2695 49.9567 33.2667Z" fill="#285680"/>
<path fill-rule="evenodd" clip-rule="evenodd" d="M49.9565 42.8604C49.4677 42.852 48.993 42.8941 48.5435 42.9813C48.4733 46.1808 46.4199 48.0685 43.9985 48.6557V49.6895C47.2542 49.6979 50.5098 47.5152 50.2233 43.1133C50.2037 42.8267 50.2431 42.8632 49.9565 42.8604Z" fill="#285680"/>
<path fill-rule="evenodd" clip-rule="evenodd" d="M37.7766 23.9334C37.49 28.3353 40.7458 30.5208 43.9986 30.5095V27.6077C43.1194 25.2311 40.8609 23.6384 38.0435 23.6805C37.7541 23.6862 37.7962 23.6468 37.7766 23.9334Z" fill="#2980BA"/>
<path fill-rule="evenodd" clip-rule="evenodd" d="M43.9986 37.1908C43.1194 34.8143 40.8609 33.2215 38.0435 33.2666C37.7542 33.2693 37.7963 33.2329 37.7767 33.5193C37.4901 37.9212 40.7459 40.1039 43.9987 40.0955V37.1908H43.9986Z" fill="#2980BA"/>
<path fill-rule="evenodd" clip-rule="evenodd" d="M43.9985 46.7846C43.1193 44.408 40.8608 42.8153 38.0434 42.8603C37.7541 42.8631 37.7962 42.8266 37.7766 43.1131C37.49 47.515 40.7458 49.6977 43.9986 49.6892V46.7846H43.9985Z" fill="#2980BA"/>
<path fill-rule="evenodd" clip-rule="evenodd" d="M43.9985 39.0615C41.4563 38.5615 39.2428 36.6569 39.1641 33.3366C38.8017 33.286 38.4281 33.2608 38.0433 33.2664C37.7539 33.2692 37.796 33.2327 37.7764 33.5192C37.4899 37.9211 40.7456 40.1038 43.9985 40.0953V39.0615Z" fill="#285680"/>
<path fill-rule="evenodd" clip-rule="evenodd" d="M39.1642 42.9312C38.8019 42.8778 38.4283 42.8525 38.0434 42.861C37.7541 42.8638 37.7962 42.8273 37.7766 43.1138C37.49 47.5157 40.7458 49.6984 43.9986 49.6899V48.6561C41.4564 48.1533 39.2428 46.2516 39.1642 42.9312Z" fill="#285680"/>
<path fill-rule="evenodd" clip-rule="evenodd" d="M43.9986 29.4756C41.4564 28.9756 39.2429 27.071 39.1642 23.7535C38.8019 23.7001 38.4283 23.6748 38.0434 23.6805C37.7541 23.686 37.7962 23.6468 37.7766 23.9333C37.49 28.3351 40.7458 30.5206 43.9986 30.5094V29.4756Z" fill="#285680"/>
<path d="M43.9986 56.728C43.5881 56.728 43.2554 56.361 43.2554 55.9081V21.0308C43.2554 20.5779 43.5881 20.2109 43.9986 20.2109C44.409 20.2109 44.7418 20.5779 44.7418 21.0308V55.9081C44.7419 56.361 44.4091 56.728 43.9986 56.728Z" fill="#285680"/>
<path fill-rule="evenodd" clip-rule="evenodd" d="M66.8025 23.6805C63.9851 23.6384 61.7266 25.2311 60.8445 27.6077L60.2884 29.1302L60.8473 30.5095C64.1002 30.5208 67.3558 28.3353 67.0694 23.9334C67.0498 23.6467 67.0919 23.6861 66.8025 23.6805Z" fill="#2980BA"/>
<path fill-rule="evenodd" clip-rule="evenodd" d="M66.8023 33.2666C63.9848 33.2216 61.7264 34.8144 60.8471 37.1908L60.1365 38.8819L60.8471 40.0955C64.1 40.1039 67.3556 37.9212 67.0692 33.5193C67.0495 33.2329 67.0916 33.2693 66.8023 33.2666Z" fill="#2980BA"/>
<path fill-rule="evenodd" clip-rule="evenodd" d="M66.8022 42.8603C63.9848 42.8154 61.7263 44.4081 60.8471 46.7846L59.8078 48.161L60.8471 49.6891C64.1 49.6976 67.3556 47.5149 67.0692 43.113C67.0495 42.8265 67.0916 42.8631 66.8022 42.8603Z" fill="#2980BA"/>
<path fill-rule="evenodd" clip-rule="evenodd" d="M65.3893 23.8015C65.3191 27.0038 63.2657 28.8916 60.8471 29.4759V30.5097C64.1 30.5209 67.3556 28.3354 67.0691 23.9335C67.0495 23.647 67.0917 23.6863 66.8023 23.6808C66.3136 23.6723 65.8416 23.7144 65.3893 23.8015Z" fill="#285680"/>
<path fill-rule="evenodd" clip-rule="evenodd" d="M66.8023 33.2667C66.3136 33.2582 65.8417 33.3004 65.3894 33.3875C65.3191 36.5871 63.2657 38.4748 60.8471 39.0619V40.0957C64.1 40.1042 67.3556 37.9215 67.0692 33.5196C67.0496 33.233 67.0917 33.2695 66.8023 33.2667Z" fill="#285680"/>
<path fill-rule="evenodd" clip-rule="evenodd" d="M66.8023 42.8604C66.3136 42.852 65.8416 42.8941 65.3893 42.9813C65.3191 46.1808 63.2657 48.0685 60.8471 48.6557V49.6895C64.1 49.6979 67.3556 47.5152 67.0691 43.1133C67.0495 42.8267 67.0917 42.8632 66.8023 42.8604Z" fill="#285680"/>
<path fill-rule="evenodd" clip-rule="evenodd" d="M54.6224 23.9334C54.3358 28.3353 57.5916 30.5208 60.8472 30.5095V27.6077C60.8472 27.6077 60.8472 27.6077 60.8444 27.6077C59.9652 25.2311 57.7095 23.6384 54.8893 23.6805C54.5999 23.6862 54.642 23.6468 54.6224 23.9334Z" fill="#2980BA"/>
<path fill-rule="evenodd" clip-rule="evenodd" d="M60.8471 37.1908C59.9651 34.8143 57.7094 33.2215 54.8891 33.2666C54.5998 33.2693 54.6419 33.2329 54.6223 33.5193C54.3357 37.9212 57.5915 40.1039 60.8471 40.0955V37.1908Z" fill="#2980BA"/>
<path fill-rule="evenodd" clip-rule="evenodd" d="M60.8472 46.7846C59.9652 44.408 57.7095 42.8153 54.8892 42.8603C54.5999 42.8631 54.642 42.8266 54.6224 43.1131C54.3358 47.515 57.5915 49.6977 60.8472 49.6892V46.7846Z" fill="#2980BA"/>
<path fill-rule="evenodd" clip-rule="evenodd" d="M60.8471 39.0615C58.305 38.5615 56.0887 36.6569 56.01 33.3366C55.6476 33.286 55.274 33.2608 54.8891 33.2664C54.5998 33.2692 54.6419 33.2327 54.6223 33.5192C54.3357 37.9211 57.5915 40.1038 60.8471 40.0953V39.0615Z" fill="#285680"/>
<path fill-rule="evenodd" clip-rule="evenodd" d="M56.01 42.9312C55.6477 42.8778 55.2741 42.8525 54.8892 42.861C54.5999 42.8638 54.642 42.8273 54.6224 43.1138C54.3358 47.5157 57.5915 49.6984 60.8472 49.6899V48.6561C58.3051 48.1533 56.0887 46.2516 56.01 42.9312Z" fill="#285680"/>
<path fill-rule="evenodd" clip-rule="evenodd" d="M60.8472 29.4756C58.305 28.9756 56.0887 27.071 56.01 23.7535C55.6477 23.7001 55.2741 23.6748 54.8892 23.6805C54.5999 23.686 54.642 23.6468 54.6224 23.9333C54.3358 28.3351 57.5915 30.5206 60.8472 30.5094V29.4756Z" fill="#285680"/>
<path d="M60.847 56.728C60.4366 56.728 60.1038 56.361 60.1038 55.9081V21.0308C60.1038 20.5779 60.4366 20.2109 60.847 20.2109C61.2575 20.2109 61.5902 20.5779 61.5902 21.0308V55.9081C61.5903 56.361 61.2575 56.728 60.847 56.728Z" fill="#285680"/>
<path fill-rule="evenodd" clip-rule="evenodd" d="M60.8471 54.2773H43.9986H27.1529H20.5544C19.914 54.2773 19.3859 54.7971 19.3746 55.4347V55.46V59.9715V59.994C19.3859 60.6317 19.914 61.1514 20.5544 61.1514H67.4428C68.086 61.1514 68.6141 60.6317 68.6254 59.9912V59.9716V55.4601V55.4405C68.6141 54.8001 68.086 54.2775 67.4428 54.2775H60.8471V54.2773Z" fill="#95A5A5"/>
<path d="M38.2492 58.6722C38.0598 58.6722 37.8705 58.6 37.7257 58.4552L37.723 58.4524C37.4326 58.1621 37.4326 57.6916 37.723 57.4012C38.0132 57.1111 38.4837 57.1111 38.7741 57.4012C39.0644 57.6915 39.0657 58.1635 38.7755 58.4537C38.63 58.5992 38.4396 58.6722 38.2492 58.6722Z" fill="#788181"/>
<path d="M56.5747 59.041C56.3052 59.041 56.0459 58.894 55.915 58.6368L55.9121 58.6312C55.726 58.2653 55.8717 57.8178 56.2376 57.6319C56.6033 57.4455 57.0509 57.5914 57.237 57.9573C57.4231 58.3232 57.2787 58.7735 56.9129 58.9594C56.8044 59.0148 56.6886 59.041 56.5747 59.041Z" fill="#788181"/>
<path d="M49.2887 58.5745C49.0993 58.5745 48.91 58.5023 48.7652 58.3575L48.7624 58.3547C48.4721 58.0644 48.4721 57.5939 48.7624 57.3035C49.0527 57.0134 49.5232 57.0134 49.8135 57.3035C50.1039 57.5938 50.1052 58.0659 49.815 58.3561C49.6695 58.5015 49.4791 58.5745 49.2887 58.5745Z" fill="#788181"/>
<path d="M30.8475 58.4574C30.6539 58.4574 30.4607 58.382 30.3152 58.2315L30.3124 58.2286C30.0271 57.9335 30.0351 57.4629 30.3302 57.1776C30.6253 56.8922 31.0958 56.9004 31.3812 57.1954C31.6665 57.4905 31.6599 57.9626 31.3647 58.2479C31.2201 58.3876 31.0335 58.4574 30.8475 58.4574Z" fill="#788181"/>
<path fill-rule="evenodd" clip-rule="evenodd" d="M68.6254 59.9714V55.4599V55.4403C68.6141 54.7999 68.086 54.2773 67.4428 54.2773H64.145C64.7939 54.2773 65.3248 54.8082 65.3248 55.4599V59.9714C65.3248 60.6203 64.7939 61.1512 64.145 61.1512H67.4428C68.086 61.1512 68.6141 60.6315 68.6254 59.991V59.9714Z" fill="#788181"/>
<path fill-rule="evenodd" clip-rule="evenodd" d="M25.1557 18.3762C25.1108 19.7555 25.6361 21.2077 26.9816 22.5196C27.0771 22.6123 27.1135 22.66 27.1529 22.66C27.1922 22.66 27.2287 22.6123 27.3242 22.5196C28.6698 21.2077 29.195 19.7554 29.1501 18.3762C29.195 16.9969 28.6697 15.5447 27.3243 14.2328C27.1332 14.0474 27.1726 14.0474 26.9816 14.2328C25.636 15.5446 25.1108 16.9969 25.1557 18.3762Z" fill="#2980BA"/>
<path fill-rule="evenodd" clip-rule="evenodd" d="M29.1501 18.3762C29.1951 16.9969 28.6697 15.5447 27.3243 14.2328C27.1333 14.0474 27.1726 14.0474 26.9816 14.2328C26.7596 14.4491 26.5602 14.6681 26.3832 14.8901C27.2035 15.9772 27.5322 17.1261 27.4956 18.2301C27.535 19.3818 27.1726 20.5869 26.2681 21.7162C26.476 21.9887 26.7119 22.2555 26.9816 22.5196C27.0771 22.6123 27.1135 22.66 27.1529 22.66C27.1922 22.66 27.2287 22.6123 27.3242 22.5196C28.6698 21.2077 29.1951 19.7554 29.1501 18.3762Z" fill="#285680"/>
<path fill-rule="evenodd" clip-rule="evenodd" d="M42.0014 18.3762C41.9564 19.7555 42.4818 21.2077 43.8272 22.5196C43.9227 22.6123 43.9621 22.66 43.9985 22.66C44.0379 22.66 44.0772 22.6123 44.1727 22.5196C45.5155 21.2077 46.0436 19.7554 45.9958 18.3762C46.0435 16.9969 45.5154 15.5447 44.1727 14.2328C43.9817 14.0474 44.0182 14.0474 43.8272 14.2328C42.4817 15.5446 41.9563 16.9969 42.0014 18.3762Z" fill="#2980BA"/>
<path fill-rule="evenodd" clip-rule="evenodd" d="M45.9959 18.3762C46.0436 16.9969 45.5155 15.5447 44.1729 14.2328C43.9818 14.0474 44.0184 14.0474 43.8273 14.2328C43.6054 14.4491 43.4088 14.6681 43.229 14.8901C44.0493 15.9772 44.3807 17.1261 44.3442 18.2301C44.3807 19.3818 44.0184 20.5869 43.1167 21.7162C43.3218 21.9887 43.5577 22.2555 43.8273 22.5196C43.9229 22.6123 43.9622 22.66 43.9987 22.66C44.038 22.66 44.0773 22.6123 44.1729 22.5196C45.5156 21.2077 46.0437 19.7554 45.9959 18.3762Z" fill="#285680"/>
<path fill-rule="evenodd" clip-rule="evenodd" d="M58.8471 18.3762C58.8022 19.7555 59.3303 21.2077 60.673 22.5196C60.7685 22.6123 60.8078 22.66 60.8472 22.66C60.8837 22.66 60.923 22.6123 61.0185 22.5196C62.3612 21.2077 62.8893 19.7554 62.8443 18.3762C62.8892 16.9969 62.3611 15.5447 61.0185 14.2328C60.8274 14.0474 60.864 14.0474 60.673 14.2328C59.3302 15.5446 58.8021 16.9969 58.8471 18.3762Z" fill="#2980BA"/>
<path fill-rule="evenodd" clip-rule="evenodd" d="M62.8444 18.3762C62.8893 16.9969 62.3612 15.5447 61.0185 14.2328C60.8275 14.0474 60.8641 14.0474 60.673 14.2328C60.4539 14.4491 60.2545 14.6681 60.0775 14.8901C60.8977 15.9772 61.2264 17.1261 61.1899 18.2301C61.2264 19.3818 60.8668 20.5869 59.9623 21.7162C60.1674 21.9887 60.4034 22.2555 60.673 22.5196C60.7685 22.6123 60.8079 22.66 60.8472 22.66C60.8838 22.66 60.923 22.6123 61.0185 22.5196C62.3612 21.2077 62.8893 19.7554 62.8444 18.3762Z" fill="#285680"/>
</g>
<path d="M34.8167 76H30.8736V64.3636H34.8963C36.0516 64.3636 37.044 64.5966 37.8736 65.0625C38.7069 65.5246 39.347 66.1894 39.794 67.0568C40.241 67.9242 40.4645 68.9621 40.4645 70.1705C40.4645 71.3826 40.2391 72.4242 39.7883 73.2955C39.3414 74.1667 38.6955 74.8352 37.8508 75.3011C37.0099 75.767 35.9986 76 34.8167 76ZM32.9815 74.1761H34.7145C35.5251 74.1761 36.2012 74.0284 36.7429 73.733C37.2845 73.4337 37.6917 72.9886 37.9645 72.3977C38.2372 71.803 38.3736 71.0606 38.3736 70.1705C38.3736 69.2803 38.2372 68.5417 37.9645 67.9545C37.6917 67.3636 37.2883 66.9223 36.7542 66.6307C36.2239 66.3352 35.5648 66.1875 34.777 66.1875H32.9815V74.1761ZM44.5753 64.3636V76H42.4673V64.3636H44.5753ZM48.4148 64.3636L51.4432 73.5227H51.5625L54.5852 64.3636H56.9034L52.8011 76H50.1988L46.1023 64.3636H48.4148Z" fill="#018C81"/>
<defs>
<clipPath id="clip0_1102_70408">
<rect width="49.2507" height="49.2507" fill="white" transform="translate(19.3746 13)"/>
</clipPath>
</defs>
</svg>
