<svg width="4" height="16" viewBox="0 0 4 16" fill="none" xmlns="http://www.w3.org/2000/svg">
<path d="M1.99992 2.16665L1.99992 2.17498M1.99992 7.99998L1.99992 8.00831M1.99992 13.8333L1.99992 13.8416M1.99992 2.99998C1.53968 2.99998 1.16659 2.62688 1.16659 2.16665C1.16659 1.70641 1.53968 1.33331 1.99992 1.33331C2.46016 1.33331 2.83325 1.70641 2.83325 2.16665C2.83325 2.62688 2.46016 2.99998 1.99992 2.99998ZM1.99992 8.83331C1.53968 8.83331 1.16659 8.46022 1.16659 7.99998C1.16659 7.53974 1.53968 7.16665 1.99992 7.16665C2.46016 7.16665 2.83325 7.53974 2.83325 7.99998C2.83325 8.46022 2.46016 8.83331 1.99992 8.83331ZM1.99992 14.6666C1.53968 14.6666 1.16658 14.2935 1.16659 13.8333C1.16659 13.3731 1.53968 13 1.99992 13C2.46016 13 2.83325 13.3731 2.83325 13.8333C2.83325 14.2935 2.46016 14.6666 1.99992 14.6666Z" stroke="#436691" stroke-width="1.5" stroke-linecap="round" stroke-linejoin="round"/>
</svg>
