<svg width="88" height="88" viewBox="0 0 88 88" fill="none" xmlns="http://www.w3.org/2000/svg">
<rect width="88" height="88" rx="8" fill="#F8F9FC"/>
<path d="M45.5252 37.5859C45.0124 37.5859 44.5964 38.4117 44.5964 39.4299V73.3277C44.5964 73.7971 44.977 74.1776 45.4464 74.1776H54.4132C54.8826 74.1776 55.2631 73.7971 55.2631 73.3277V38.4359C55.2631 37.9665 54.8826 37.5859 54.4132 37.5859H45.5252Z" fill="#2980BA"/>
<path d="M48.4071 37.5859H45.5252C45.0124 37.5859 44.5964 38.4117 44.5964 39.4299V74.1776H47.4787V39.4299C47.4787 38.4117 47.8942 37.5859 48.4071 37.5859Z" fill="#285680"/>
<path d="M33.8583 60C33.3454 60 32.9294 60.32 32.9294 60.7144V73.3276C32.9294 73.797 33.31 74.1776 33.7794 74.1776H42.7462C43.2156 74.1776 43.5962 73.797 43.5962 73.3276V60.8499C43.5962 60.3805 43.2156 60 42.7462 60H33.8583Z" fill="#2980BA"/>
<path d="M36.7401 60H33.8583C33.3454 60 32.9294 60.32 32.9294 60.7144V74.1776H35.8117V60.7144C35.8117 60.32 36.2273 60 36.7401 60Z" fill="#285680"/>
<path d="M10.5248 61.0352C10.0119 61.0352 9.59595 61.3317 9.59595 61.6974V73.3261C9.59595 73.7956 9.97648 74.1761 10.4459 74.1761H19.4127C19.8821 74.1761 20.2627 73.7956 20.2627 73.3261V61.8851C20.2627 61.4157 19.8821 61.0352 19.4127 61.0352H10.5248Z" fill="#2980BA"/>
<path d="M13.4066 61.0352H10.5248C10.0119 61.0352 9.59595 61.3317 9.59595 61.6974V74.1761H12.4782V61.6974C12.4782 61.3317 12.8938 61.0352 13.4066 61.0352Z" fill="#285680"/>
<path d="M57.1917 29.3672C56.6789 29.3672 56.2629 30.0414 56.2629 30.8726V73.3284C56.2629 73.7978 56.6435 74.1784 57.1129 74.1784H66.0797C66.5491 74.1784 66.9296 73.7978 66.9296 73.3284V30.2171C66.9296 29.7477 66.5491 29.3672 66.0797 29.3672H57.1917Z" fill="#2980BA"/>
<path d="M60.0736 29.3672H57.1917C56.6789 29.3672 56.2629 30.0414 56.2629 30.872V74.1784H59.1452V30.872C59.1452 30.0408 59.5608 29.3672 60.0736 29.3672Z" fill="#285680"/>
<path d="M22.1915 62.9961C21.6787 62.9961 21.2627 63.1643 21.2627 63.3717V73.3259C21.2627 73.7953 21.6432 74.1758 22.1126 74.1758H31.0795C31.5489 74.1758 31.9294 73.7953 31.9294 73.3259V63.846C31.9294 63.3766 31.5489 62.9961 31.0795 62.9961H22.1915Z" fill="#2980BA"/>
<path d="M25.0734 62.9961H22.1915C21.6787 62.9961 21.2627 63.1643 21.2627 63.3715V74.1758H24.1449V63.3715C24.1449 63.1641 24.5605 62.9961 25.0734 62.9961Z" fill="#285680"/>
<path d="M77.4753 22.4844H68.8581C68.3453 22.4844 67.9297 23.0677 67.9297 23.7868V74.1756H77.4753C77.9881 74.1756 78.4041 73.5923 78.4041 72.8732V23.7868C78.4041 23.0677 77.9881 22.4844 77.4753 22.4844Z" fill="#2980BA"/>
<path d="M71.74 22.4844H68.8581C68.3453 22.4844 67.9297 23.0677 67.9297 23.7868V74.1756H70.8115V23.7868C70.8115 23.0677 71.2271 22.4844 71.74 22.4844Z" fill="#285680"/>
<line x1="10.5" y1="22.5" x2="77.5228" y2="22.5" stroke="#018C81" stroke-linecap="round"/>
<line x1="10.5" y1="57.5039" x2="77.5228" y2="57.5039" stroke="#018C81" stroke-linecap="round"/>
<path d="M32.4682 55.2227C32.4682 55.4774 32.6747 55.6839 32.9294 55.6839C33.1842 55.6839 33.3907 55.4774 33.3907 55.2227L32.4682 55.2227ZM32.9294 38.875L30.2662 43.4878L35.5927 43.4878L32.9294 38.875ZM33.3907 55.2227L33.3907 43.0265L32.4682 43.0265L32.4682 55.2227L33.3907 55.2227Z" fill="#788181"/>
</svg>
