<svg width="88" height="88" viewBox="0 0 88 88" fill="none" xmlns="http://www.w3.org/2000/svg">
<rect width="88" height="88" rx="8" fill="#F8F9FC"/>
<path d="M34.9963 39.0625H35.9844V41.0386H34.9963V39.0625Z" fill="#2980BA"/>
<path d="M35.9844 40.5446V41.0386H34.9963V39.0625H35.4904V40.0505C35.4904 40.3239 35.711 40.5446 35.9844 40.5446Z" fill="#285680"/>
<path d="M31.8752 32.7656H32.8631V36.8801H31.8752V32.7656Z" fill="#2980BA"/>
<path d="M32.8631 35.8515V36.8801H31.8752V32.7656H32.3692V34.8229C32.3692 35.392 32.5898 35.8515 32.8631 35.8515Z" fill="#285680"/>
<path d="M36.5571 41.4648H37.545V46.8928H36.5571V41.4648Z" fill="#2980BA"/>
<path d="M37.545 45.5358V46.8928H36.5571V41.4648H37.0511V44.1788C37.0511 44.9297 37.2717 45.5358 37.545 45.5358Z" fill="#285680"/>
<path d="M33.4358 35.6289H34.4236V39.7523H33.4358V35.6289Z" fill="#2980BA"/>
<path d="M34.4236 38.7215V39.7523H33.4358V35.6289H33.9297V37.6906C33.9297 38.261 34.1503 38.7215 34.4236 38.7215Z" fill="#285680"/>
<path d="M68.0874 8.55469H69.0753V20H68.0874V8.55469Z" fill="#2980BA"/>
<path d="M69.0753 17.1387V20H68.0874V8.55469H68.5813V14.2773C68.5813 15.8606 68.8019 17.1387 69.0753 17.1387Z" fill="#285680"/>
<path d="M69.6482 18.0703H70.636V25.3281H69.6482V18.0703Z" fill="#2980BA"/>
<path d="M70.636 23.5137V25.3281H69.6482V18.0703H70.1421V21.6992C70.1421 22.7032 70.3627 23.5137 70.636 23.5137Z" fill="#285680"/>
<path d="M38.1177 43.8711H39.1055V50.5815H38.1177V43.8711Z" fill="#2980BA"/>
<path d="M39.1055 49.3739V51.2082H38.1177V43.8711H38.6116V47.5396C38.6116 48.5546 38.8322 49.3739 39.1055 49.3739Z" fill="#285680"/>
<path d="M40 48.7227H40.9878V52.825H40V48.7227Z" fill="#2980BA"/>
<path d="M40.9878 52.0868V53.2082H40V48.7227H40.4939V50.9654C40.4939 51.5859 40.7145 52.0868 40.9878 52.0868Z" fill="#285680"/>
<path d="M41.5608 50.8711H42.5486V57.5815H41.5608V50.8711Z" fill="#2980BA"/>
<path d="M42.5486 56.3739V58.2082H41.5608V50.8711H42.0547V54.5396C42.0547 55.5546 42.2753 56.3739 42.5486 56.3739Z" fill="#285680"/>
<path d="M43.1196 56.8711H44.1075V63.5815H43.1196V56.8711Z" fill="#2980BA"/>
<path d="M44.1075 62.3739V64.2082H43.1196V56.8711H43.6136V60.5396C43.6136 61.5546 43.8342 62.3739 44.1075 62.3739Z" fill="#285680"/>
<path d="M44.6785 60.3672H45.6663V66.6371H44.6785V60.3672Z" fill="#2980BA"/>
<path d="M45.6663 65.5088V67.2227H44.6785V60.3672H45.1724V63.7949C45.1724 64.7433 45.393 65.5088 45.6663 65.5088Z" fill="#285680"/>
<path d="M71.209 21.1328H72.197V23.6079H71.209V21.1328Z" fill="#2980BA"/>
<path d="M72.197 23.1625V23.8391H71.209V21.1328H71.703V22.486C71.703 22.8603 71.9237 23.1625 72.197 23.1625Z" fill="#285680"/>
<path d="M72.7695 22.8516H73.7576V25.3267H72.7695V22.8516Z" fill="#2980BA"/>
<path d="M73.7576 24.8813V25.5578H72.7695V22.8516H73.2635V24.2047C73.2635 24.5791 73.4842 24.8813 73.7576 24.8813Z" fill="#285680"/>
<path d="M46.239 65.4844H47.2269V74.0191H46.239V65.4844Z" fill="#2980BA"/>
<path d="M47.2269 71.8854V74.0191H46.239V65.4844H46.7329V69.7517C46.7329 70.9324 46.9536 71.8854 47.2269 71.8854Z" fill="#285680"/>
<path d="M47.7996 58.75H48.7874V66.6367H47.7996V58.75Z" fill="#2980BA"/>
<path d="M48.7874 64.665V66.6367H47.7996V58.75H48.2935V62.6934C48.2935 63.7844 48.5141 64.665 48.7874 64.665Z" fill="#285680"/>
<path d="M74.3303 24.8984H75.3184V26.8745H74.3303V24.8984Z" fill="#2980BA"/>
<path d="M75.3184 26.3805V26.8745H74.3303V24.8984H74.8243V25.8865C74.8243 26.1598 75.045 26.3805 75.3184 26.3805Z" fill="#285680"/>
<path d="M75.8906 22.0273H76.8785V29.8514H75.8906V22.0273Z" fill="#2980BA"/>
<path d="M76.8785 27.8954V29.8514H75.8906V22.0273H76.3845V25.9394C76.3845 27.0217 76.6052 27.8954 76.8785 27.8954Z" fill="#285680"/>
<path d="M52.9754 51.9021C52.8846 51.9021 52.8108 51.5765 52.8108 51.1736V45.3457C52.8108 44.9428 52.8846 44.6172 52.9754 44.6172C53.0663 44.6172 53.1401 44.9428 53.1401 45.3457V51.1736C53.1401 51.5765 53.0663 51.9021 52.9754 51.9021Z" fill="#285680"/>
<path d="M52.4814 44.6172H53.4693V53.6628H52.4814V44.6172Z" fill="#2980BA"/>
<path d="M53.4693 51.4014V53.6628H52.4814V44.6172H52.9754V49.14C52.9754 50.3913 53.196 51.4014 53.4693 51.4014Z" fill="#285680"/>
<path d="M54.5362 58.7492C54.4453 58.7492 54.3716 58.4503 54.3716 58.0805V52.7312C54.3716 52.3614 54.4453 52.0625 54.5362 52.0625C54.6271 52.0625 54.7009 52.3614 54.7009 52.7312V58.0805C54.7009 58.4503 54.6271 58.7492 54.5362 58.7492Z" fill="#285680"/>
<path d="M54.0422 52.0625H55.0301V60.3653H54.0422V52.0625Z" fill="#2980BA"/>
<path d="M55.0301 58.2896V60.3653H54.0422V52.0625H54.5362V56.2139C54.5362 57.3625 54.7568 58.2896 55.0301 58.2896Z" fill="#285680"/>
<path d="M58.7239 58.9531H59.7117V63.8999H58.7239V58.9531Z" fill="#2980BA"/>
<path d="M59.7117 62.6632V63.8999H58.7239V58.9531H59.2178V61.4265C59.2178 62.1108 59.4384 62.6632 59.7117 62.6632Z" fill="#285680"/>
<path d="M60.2847 59.5234H61.2727V61.4995H60.2847V59.5234Z" fill="#2980BA"/>
<path d="M61.2727 61.0055V61.4995H60.2847V59.5234H60.7787V60.5115C60.7787 60.7848 60.9993 61.0055 61.2727 61.0055Z" fill="#285680"/>
<path d="M64.9666 25.5625H65.9544V41.4521H64.9666V25.5625Z" fill="#2980BA"/>
<path d="M65.9544 37.4797V41.4521H64.9666V25.5625H65.4605V33.5073C65.4605 35.7053 65.6811 37.4797 65.9544 37.4797Z" fill="#285680"/>
<path d="M66.5271 17.8008H67.5149V30.6133H66.5271V17.8008Z" fill="#2980BA"/>
<path d="M67.5149 27.4101V30.6133H66.5271V17.8008H67.021V24.207C67.021 25.9794 67.2416 27.4101 67.5149 27.4101Z" fill="#285680"/>
<path d="M49.3601 51.1445H50.348V58.6596H49.3601V51.1445Z" fill="#2980BA"/>
<path d="M50.348 58.0615V60.3672H49.3601V51.1445H49.854V55.7559C49.854 57.0317 50.0747 58.0615 50.348 58.0615Z" fill="#285680"/>
<path d="M50.9209 41.0117H51.9087V50.552H50.9209V41.0117Z" fill="#2980BA"/>
<path d="M51.9087 49.7928V52.7198H50.9209V41.0117H51.4148V46.8657C51.4148 48.4854 51.6354 49.7928 51.9087 49.7928Z" fill="#285680"/>
<path d="M77.4514 24.9766H78.4393V31.3234H77.4514V24.9766Z" fill="#2980BA"/>
<path d="M78.4393 30.8184V32.7656H77.4514V24.9766H77.9453V28.8711C77.9453 29.9486 78.166 30.8184 78.4393 30.8184Z" fill="#285680"/>
<path d="M55.6025 58.1367H56.5904V62.4399H55.6025V58.1367Z" fill="#2980BA"/>
<path d="M56.5904 61.398V62.4851H55.6025V58.1367H56.0965V60.3109C56.0965 60.9124 56.3171 61.398 56.5904 61.398Z" fill="#285680"/>
<path d="M57.1633 56.9922H58.1514V59.8711H57.1633V56.9922Z" fill="#2980BA"/>
<path d="M58.1514 59.174V59.9013H57.1633V56.9922H57.6573V58.4467C57.6573 58.8492 57.878 59.174 58.1514 59.174Z" fill="#285680"/>
<path d="M61.8452 51.1602H62.8331V58.8701H61.8452V51.1602Z" fill="#2980BA"/>
<path d="M62.8331 56.9426V58.8701H61.8452V51.1602H62.3391V55.0151C62.3391 56.0816 62.5598 56.9426 62.8331 56.9426Z" fill="#285680"/>
<path d="M63.4058 39.7852H64.3936V53.6612H63.4058V39.7852Z" fill="#2980BA"/>
<path d="M64.3936 50.1922V53.6612H63.4058V39.7852H63.8997V46.7232C63.8997 48.6427 64.1203 50.1922 64.3936 50.1922Z" fill="#285680"/>
<line x1="11.3148" y1="8.70252" x2="78.7665" y2="8.70252" stroke="#95A5A5" stroke-width="0.423077" stroke-linecap="round"/>
<line x1="11.3148" y1="31.7885" x2="78.7665" y2="31.7885" stroke="#95A5A5" stroke-width="0.423077" stroke-linecap="round"/>
<line x1="11.3148" y1="40.6869" x2="78.7665" y2="40.6869" stroke="#95A5A5" stroke-width="0.423077" stroke-linecap="round"/>
<line x1="11.3148" y1="48.5111" x2="78.7665" y2="48.5111" stroke="#95A5A5" stroke-width="0.423077" stroke-linecap="round"/>
<line x1="11.3148" y1="56.5424" x2="78.7665" y2="56.5424" stroke="#95A5A5" stroke-width="0.423077" stroke-linecap="round"/>
<line x1="11.3148" y1="73.7181" x2="78.7665" y2="73.7181" stroke="#95A5A5" stroke-width="0.423077" stroke-linecap="round"/>
<path d="M12.8965 10.1911V14.5547H12.106V10.9602H12.0805L11.0599 11.6122V10.8878L12.1444 10.1911H12.8965ZM15.7974 14.6378C15.4466 14.6378 15.1454 14.549 14.894 14.3714C14.644 14.1925 14.4515 13.9347 14.3166 13.598C14.1831 13.2599 14.1163 12.853 14.1163 12.3771C14.1177 11.9013 14.1852 11.4964 14.3187 11.1626C14.4537 10.8274 14.6461 10.5717 14.8961 10.3956C15.1476 10.2195 15.448 10.1314 15.7974 10.1314C16.1468 10.1314 16.4473 10.2195 16.6987 10.3956C16.9501 10.5717 17.1426 10.8274 17.2761 11.1626C17.411 11.4979 17.4785 11.9027 17.4785 12.3771C17.4785 12.8544 17.411 13.2621 17.2761 13.6001C17.1426 13.9368 16.9501 14.1939 16.6987 14.3714C16.4487 14.549 16.1483 14.6378 15.7974 14.6378ZM15.7974 13.9709C16.0701 13.9709 16.2853 13.8366 16.443 13.5682C16.6021 13.2983 16.6816 12.9013 16.6816 12.3771C16.6816 12.0305 16.6454 11.7393 16.573 11.5036C16.5005 11.2678 16.3983 11.0902 16.2662 10.9709C16.1341 10.8501 15.9778 10.7898 15.7974 10.7898C15.5261 10.7898 15.3116 10.9247 15.1539 11.1946C14.9963 11.4631 14.9167 11.8572 14.9153 12.3771C14.9139 12.7251 14.9487 13.0178 15.0197 13.255C15.0922 13.4922 15.1944 13.6712 15.3265 13.7919C15.4586 13.9112 15.6156 13.9709 15.7974 13.9709ZM19.9794 14.6378C19.6285 14.6378 19.3274 14.549 19.076 14.3714C18.826 14.1925 18.6335 13.9347 18.4985 13.598C18.365 13.2599 18.2983 12.853 18.2983 12.3771C18.2997 11.9013 18.3671 11.4964 18.5007 11.1626C18.6356 10.8274 18.8281 10.5717 19.0781 10.3956C19.3295 10.2195 19.6299 10.1314 19.9794 10.1314C20.3288 10.1314 20.6292 10.2195 20.8806 10.3956C21.1321 10.5717 21.3245 10.8274 21.4581 11.1626C21.593 11.4979 21.6605 11.9027 21.6605 12.3771C21.6605 12.8544 21.593 13.2621 21.4581 13.6001C21.3245 13.9368 21.1321 14.1939 20.8806 14.3714C20.6306 14.549 20.3302 14.6378 19.9794 14.6378ZM19.9794 13.9709C20.2521 13.9709 20.4673 13.8366 20.625 13.5682C20.7841 13.2983 20.8636 12.9013 20.8636 12.3771C20.8636 12.0305 20.8274 11.7393 20.7549 11.5036C20.6825 11.2678 20.5802 11.0902 20.4481 10.9709C20.316 10.8501 20.1598 10.7898 19.9794 10.7898C19.7081 10.7898 19.4936 10.9247 19.3359 11.1946C19.1782 11.4631 19.0987 11.8572 19.0973 12.3771C19.0958 12.7251 19.1306 13.0178 19.2017 13.255C19.2741 13.4922 19.3764 13.6712 19.5085 13.7919C19.6406 13.9112 19.7975 13.9709 19.9794 13.9709ZM24.8815 13.7365V13.5064C24.8815 13.3374 24.917 13.1818 24.988 13.0398C25.0605 12.8977 25.1656 12.7834 25.3034 12.6967C25.4411 12.6101 25.608 12.5668 25.8041 12.5668C26.0058 12.5668 26.1748 12.6101 26.3112 12.6967C26.4475 12.782 26.5505 12.8956 26.6201 13.0376C26.6911 13.1797 26.7267 13.3359 26.7267 13.5064V13.7365C26.7267 13.9055 26.6911 14.0611 26.6201 14.2031C26.5491 14.3452 26.4447 14.4595 26.3069 14.5462C26.1705 14.6328 26.0029 14.6761 25.8041 14.6761C25.6052 14.6761 25.4369 14.6328 25.2991 14.5462C25.1613 14.4595 25.0569 14.3452 24.9859 14.2031C24.9163 14.0611 24.8815 13.9055 24.8815 13.7365ZM25.4376 13.5064V13.7365C25.4376 13.8487 25.4646 13.9517 25.5186 14.0455C25.5725 14.1392 25.6677 14.1861 25.8041 14.1861C25.9419 14.1861 26.0363 14.1399 26.0875 14.0476C26.14 13.9538 26.1663 13.8501 26.1663 13.7365V13.5064C26.1663 13.3928 26.1414 13.2891 26.0917 13.1953C26.042 13.1001 25.9461 13.0526 25.8041 13.0526C25.6705 13.0526 25.5761 13.1001 25.5207 13.1953C25.4653 13.2891 25.4376 13.3928 25.4376 13.5064ZM22.6634 11.2393V11.0092C22.6634 10.8388 22.6997 10.6825 22.7721 10.5405C22.8446 10.3984 22.9497 10.2848 23.0875 10.1996C23.2252 10.1129 23.3921 10.0696 23.5882 10.0696C23.7884 10.0696 23.9568 10.1129 24.0931 10.1996C24.2309 10.2848 24.3346 10.3984 24.4042 10.5405C24.4738 10.6825 24.5086 10.8388 24.5086 11.0092V11.2393C24.5086 11.4098 24.4731 11.5661 24.4021 11.7081C24.3325 11.8487 24.2288 11.9616 24.091 12.0469C23.9532 12.1321 23.7856 12.1747 23.5882 12.1747C23.3879 12.1747 23.2188 12.1321 23.0811 12.0469C22.9447 11.9616 22.841 11.848 22.77 11.706C22.699 11.5639 22.6634 11.4084 22.6634 11.2393ZM23.2238 11.0092V11.2393C23.2238 11.353 23.2501 11.4567 23.3027 11.5504C23.3566 11.6428 23.4518 11.6889 23.5882 11.6889C23.7245 11.6889 23.8183 11.6428 23.8694 11.5504C23.922 11.4567 23.9482 11.353 23.9482 11.2393V11.0092C23.9482 10.8956 23.9234 10.7919 23.8737 10.6982C23.824 10.603 23.7288 10.5554 23.5882 10.5554C23.4532 10.5554 23.3588 10.603 23.3048 10.6982C23.2508 10.7933 23.2238 10.897 23.2238 11.0092ZM22.9063 14.5547L25.9063 10.1911H26.439L23.439 14.5547H22.9063Z" fill="#018C81"/>
<path d="M11.2815 38L13.1373 34.3267V34.2969H10.9832V33.6364H13.9555V34.3118L12.1018 38H11.2815ZM16.2864 38.0597C15.9696 38.0597 15.6884 38.0064 15.4427 37.8999C15.1983 37.7933 15.0066 37.6477 14.8674 37.4631C14.7296 37.277 14.6614 37.0661 14.6628 36.8303C14.6614 36.647 14.7012 36.4787 14.7821 36.3253C14.8631 36.1719 14.9725 36.044 15.1103 35.9418C15.2495 35.8381 15.4043 35.772 15.5748 35.7436V35.7138C15.3503 35.6641 15.1685 35.5497 15.0293 35.3707C14.8915 35.1903 14.8233 34.9822 14.8248 34.7464C14.8233 34.522 14.8858 34.3217 15.0123 34.1456C15.1387 33.9695 15.312 33.831 15.5321 33.7301C15.7523 33.6278 16.0037 33.5767 16.2864 33.5767C16.5662 33.5767 16.8155 33.6278 17.0343 33.7301C17.2544 33.831 17.4277 33.9695 17.5542 34.1456C17.682 34.3217 17.7459 34.522 17.7459 34.7464C17.7459 34.9822 17.6756 35.1903 17.535 35.3707C17.3958 35.5497 17.2161 35.6641 16.9959 35.7138V35.7436C17.1664 35.772 17.3198 35.8381 17.4561 35.9418C17.5939 36.044 17.7033 36.1719 17.7843 36.3253C17.8667 36.4787 17.9078 36.647 17.9078 36.8303C17.9078 37.0661 17.8382 37.277 17.699 37.4631C17.5598 37.6477 17.3681 37.7933 17.1238 37.8999C16.8809 38.0064 16.6017 38.0597 16.2864 38.0597ZM16.2864 37.4503C16.4498 37.4503 16.5918 37.4226 16.7125 37.3672C16.8333 37.3104 16.927 37.2308 16.9938 37.1286C17.0605 37.0263 17.0946 36.9084 17.0961 36.7749C17.0946 36.6357 17.0584 36.5128 16.9874 36.4062C16.9178 36.2983 16.8219 36.2138 16.6998 36.1527C16.579 36.0916 16.4412 36.0611 16.2864 36.0611C16.1302 36.0611 15.9909 36.0916 15.8688 36.1527C15.7466 36.2138 15.65 36.2983 15.579 36.4062C15.5094 36.5128 15.4753 36.6357 15.4767 36.7749C15.4753 36.9084 15.508 37.0263 15.5748 37.1286C15.6415 37.2294 15.7353 37.3082 15.856 37.3651C15.9782 37.4219 16.1216 37.4503 16.2864 37.4503ZM16.2864 35.4624C16.4199 35.4624 16.5378 35.4354 16.6401 35.3814C16.7438 35.3274 16.8255 35.2521 16.8851 35.1555C16.9448 35.0589 16.9753 34.9474 16.9767 34.821C16.9753 34.696 16.9455 34.5866 16.8873 34.4929C16.829 34.3977 16.748 34.3246 16.6444 34.2734C16.5407 34.2209 16.4213 34.1946 16.2864 34.1946C16.1486 34.1946 16.0272 34.2209 15.9221 34.2734C15.8184 34.3246 15.7374 34.3977 15.6792 34.4929C15.6223 34.5866 15.5946 34.696 15.5961 34.821C15.5946 34.9474 15.623 35.0589 15.6813 35.1555C15.7409 35.2507 15.8226 35.326 15.9263 35.3814C16.0314 35.4354 16.1515 35.4624 16.2864 35.4624ZM19.1431 38.0469C19.0138 38.0469 18.903 38.0014 18.8107 37.9105C18.7184 37.8196 18.6729 37.7088 18.6743 37.5781C18.6729 37.4503 18.7184 37.3409 18.8107 37.25C18.903 37.1591 19.0138 37.1136 19.1431 37.1136C19.2681 37.1136 19.3767 37.1591 19.4691 37.25C19.5628 37.3409 19.6104 37.4503 19.6118 37.5781C19.6104 37.6648 19.5877 37.7436 19.5436 37.8146C19.501 37.8857 19.4442 37.9425 19.3732 37.9851C19.3036 38.0263 19.2269 38.0469 19.1431 38.0469ZM22.0077 38.0597C21.7989 38.0582 21.5951 38.022 21.3962 37.951C21.1974 37.8786 21.0184 37.7614 20.8593 37.5994C20.7002 37.4361 20.5738 37.2195 20.48 36.9496C20.3863 36.6783 20.3401 36.3423 20.3415 35.9418C20.3415 35.5682 20.3813 35.2351 20.4609 34.9425C20.5404 34.6499 20.6547 34.4027 20.8039 34.201C20.953 33.9979 21.1327 33.843 21.343 33.7365C21.5546 33.63 21.7911 33.5767 22.0525 33.5767C22.3266 33.5767 22.5695 33.6307 22.7812 33.7386C22.9942 33.8466 23.1661 33.9943 23.2968 34.1818C23.4275 34.3679 23.5084 34.5781 23.5397 34.8125H22.762C22.7222 34.6449 22.6405 34.5114 22.517 34.4119C22.3948 34.3111 22.24 34.2607 22.0525 34.2607C21.7499 34.2607 21.517 34.392 21.3536 34.6548C21.1917 34.9176 21.11 35.2784 21.1086 35.7372H21.1384C21.208 35.6122 21.2982 35.505 21.409 35.4155C21.5198 35.326 21.6448 35.2571 21.784 35.2088C21.9246 35.1591 22.0731 35.1342 22.2293 35.1342C22.485 35.1342 22.7144 35.1953 22.9175 35.3175C23.1221 35.4396 23.284 35.608 23.4033 35.8224C23.5226 36.0355 23.5816 36.2798 23.5802 36.5554C23.5816 36.8423 23.5163 37.1001 23.3841 37.3288C23.252 37.5561 23.0681 37.7351 22.8323 37.8658C22.5965 37.9964 22.3216 38.0611 22.0077 38.0597ZM22.0035 37.4205C22.1583 37.4205 22.2968 37.3828 22.419 37.3075C22.5411 37.2322 22.6377 37.1307 22.7087 37.0028C22.7797 36.875 22.8145 36.7315 22.8131 36.5724C22.8145 36.4162 22.7805 36.2749 22.7109 36.1484C22.6427 36.022 22.5482 35.9219 22.4275 35.848C22.3067 35.7741 22.169 35.7372 22.0141 35.7372C21.8991 35.7372 21.7918 35.7592 21.6924 35.8033C21.593 35.8473 21.5063 35.9084 21.4324 35.9865C21.3586 36.0632 21.3003 36.1527 21.2577 36.255C21.2165 36.3558 21.1952 36.4638 21.1938 36.5788C21.1952 36.7308 21.2307 36.8707 21.3003 36.9986C21.3699 37.1264 21.4658 37.2287 21.588 37.3054C21.7101 37.3821 21.8486 37.4205 22.0035 37.4205ZM26.8134 37.1818V36.9517C26.8134 36.7827 26.849 36.6271 26.92 36.4851C26.9924 36.343 27.0975 36.2287 27.2353 36.142C27.3731 36.0554 27.54 36.0121 27.736 36.0121C27.9377 36.0121 28.1068 36.0554 28.2431 36.142C28.3795 36.2273 28.4825 36.3409 28.5521 36.483C28.6231 36.625 28.6586 36.7812 28.6586 36.9517V37.1818C28.6586 37.3509 28.6231 37.5064 28.5521 37.6484C28.4811 37.7905 28.3766 37.9048 28.2389 37.9915C28.1025 38.0781 27.9349 38.1214 27.736 38.1214C27.5372 38.1214 27.3688 38.0781 27.2311 37.9915C27.0933 37.9048 26.9889 37.7905 26.9178 37.6484C26.8482 37.5064 26.8134 37.3509 26.8134 37.1818ZM27.3695 36.9517V37.1818C27.3695 37.294 27.3965 37.397 27.4505 37.4908C27.5045 37.5845 27.5997 37.6314 27.736 37.6314C27.8738 37.6314 27.9683 37.5852 28.0194 37.4929C28.072 37.3991 28.0982 37.2955 28.0982 37.1818V36.9517C28.0982 36.8381 28.0734 36.7344 28.0237 36.6406C27.974 36.5455 27.8781 36.4979 27.736 36.4979C27.6025 36.4979 27.508 36.5455 27.4526 36.6406C27.3972 36.7344 27.3695 36.8381 27.3695 36.9517ZM24.5954 34.6847V34.4545C24.5954 34.2841 24.6316 34.1278 24.7041 33.9858C24.7765 33.8437 24.8816 33.7301 25.0194 33.6449C25.1572 33.5582 25.3241 33.5149 25.5201 33.5149C25.7204 33.5149 25.8887 33.5582 26.0251 33.6449C26.1629 33.7301 26.2666 33.8437 26.3362 33.9858C26.4058 34.1278 26.4406 34.2841 26.4406 34.4545V34.6847C26.4406 34.8551 26.4051 35.0114 26.334 35.1534C26.2644 35.294 26.1607 35.407 26.023 35.4922C25.8852 35.5774 25.7176 35.62 25.5201 35.62C25.3198 35.62 25.1508 35.5774 25.013 35.4922C24.8766 35.407 24.773 35.2933 24.7019 35.1513C24.6309 35.0092 24.5954 34.8537 24.5954 34.6847ZM25.1558 34.4545V34.6847C25.1558 34.7983 25.182 34.902 25.2346 34.9957C25.2886 35.0881 25.3838 35.1342 25.5201 35.1342C25.6565 35.1342 25.7502 35.0881 25.8014 34.9957C25.8539 34.902 25.8802 34.7983 25.8802 34.6847V34.4545C25.8802 34.3409 25.8553 34.2372 25.8056 34.1435C25.7559 34.0483 25.6607 34.0007 25.5201 34.0007C25.3852 34.0007 25.2907 34.0483 25.2367 34.1435C25.1828 34.2386 25.1558 34.3423 25.1558 34.4545ZM24.8383 38L27.8383 33.6364H28.371L25.371 38H24.8383Z" fill="#018C81"/>
<path d="M12.7197 46.7823C12.5109 46.7809 12.307 46.7447 12.1082 46.6737C11.9093 46.6012 11.7303 46.484 11.5712 46.3221C11.4122 46.1587 11.2857 45.9421 11.192 45.6722C11.0982 45.4009 11.0521 45.065 11.0535 44.6644C11.0535 44.2908 11.0933 43.9577 11.1728 43.6651C11.2524 43.3725 11.3667 43.1254 11.5158 42.9237C11.665 42.7205 11.8447 42.5657 12.0549 42.4592C12.2666 42.3526 12.5031 42.2994 12.7644 42.2994C13.0386 42.2994 13.2815 42.3533 13.4931 42.4613C13.7062 42.5692 13.8781 42.717 14.0087 42.9045C14.1394 43.0906 14.2204 43.3008 14.2516 43.5352H13.4739C13.4342 43.3675 13.3525 43.234 13.2289 43.1346C13.1068 43.0337 12.9519 42.9833 12.7644 42.9833C12.4619 42.9833 12.2289 43.1147 12.0656 43.3775C11.9036 43.6403 11.822 44.0011 11.8205 44.4599H11.8504C11.92 44.3349 12.0102 44.2276 12.121 44.1381C12.2318 44.0487 12.3568 43.9798 12.496 43.9315C12.6366 43.8817 12.785 43.8569 12.9413 43.8569C13.197 43.8569 13.4264 43.918 13.6295 44.0401C13.834 44.1623 13.996 44.3306 14.1153 44.5451C14.2346 44.7582 14.2935 45.0025 14.2921 45.2781C14.2935 45.565 14.2282 45.8228 14.0961 46.0515C13.964 46.2788 13.7801 46.4577 13.5443 46.5884C13.3085 46.7191 13.0336 46.7837 12.7197 46.7823ZM12.7154 46.1431C12.8703 46.1431 13.0087 46.1055 13.1309 46.0302C13.2531 45.9549 13.3497 45.8533 13.4207 45.7255C13.4917 45.5977 13.5265 45.4542 13.5251 45.2951C13.5265 45.1388 13.4924 44.9975 13.4228 44.8711C13.3546 44.7447 13.2602 44.6445 13.1394 44.5707C13.0187 44.4968 12.8809 44.4599 12.7261 44.4599C12.611 44.4599 12.5038 44.4819 12.4043 44.5259C12.3049 44.57 12.2183 44.631 12.1444 44.7092C12.0705 44.7859 12.0123 44.8754 11.9697 44.9776C11.9285 45.0785 11.9072 45.1864 11.9058 45.3015C11.9072 45.4535 11.9427 45.5934 12.0123 45.7212C12.0819 45.8491 12.1778 45.9513 12.2999 46.0281C12.4221 46.1048 12.5606 46.1431 12.7154 46.1431ZM16.9672 42.359V46.7227H16.1767V43.1282H16.1511L15.1305 43.7802V43.0558L16.215 42.359H16.9672ZM18.4985 46.7695C18.3693 46.7695 18.2585 46.7241 18.1662 46.6332C18.0738 46.5423 18.0284 46.4315 18.0298 46.3008C18.0284 46.1729 18.0738 46.0636 18.1662 45.9727C18.2585 45.8817 18.3693 45.8363 18.4985 45.8363C18.6235 45.8363 18.7322 45.8817 18.8245 45.9727C18.9183 46.0636 18.9659 46.1729 18.9673 46.3008C18.9659 46.3874 18.9431 46.4663 18.8991 46.5373C18.8565 46.6083 18.7997 46.6651 18.7287 46.7077C18.6591 46.7489 18.5823 46.7695 18.4985 46.7695ZM21.3222 46.7823C21.0054 46.7823 20.7242 46.729 20.4784 46.6225C20.2341 46.516 20.0424 46.3704 19.9031 46.1857C19.7654 45.9996 19.6972 45.7887 19.6986 45.5529C19.6972 45.3697 19.737 45.2013 19.8179 45.0479C19.8989 44.8945 20.0083 44.7667 20.146 44.6644C20.2853 44.5607 20.4401 44.4947 20.6105 44.4663V44.4364C20.3861 44.3867 20.2043 44.2724 20.0651 44.0934C19.9273 43.913 19.8591 43.7049 19.8605 43.4691C19.8591 43.2447 19.9216 43.0444 20.048 42.8683C20.1745 42.6921 20.3478 42.5536 20.5679 42.4528C20.7881 42.3505 21.0395 42.2994 21.3222 42.2994C21.602 42.2994 21.8513 42.3505 22.0701 42.4528C22.2902 42.5536 22.4635 42.6921 22.5899 42.8683C22.7178 43.0444 22.7817 43.2447 22.7817 43.4691C22.7817 43.7049 22.7114 43.913 22.5708 44.0934C22.4316 44.2724 22.2519 44.3867 22.0317 44.4364V44.4663C22.2022 44.4947 22.3556 44.5607 22.4919 44.6644C22.6297 44.7667 22.7391 44.8945 22.8201 45.0479C22.9024 45.2013 22.9436 45.3697 22.9436 45.5529C22.9436 45.7887 22.874 45.9996 22.7348 46.1857C22.5956 46.3704 22.4039 46.516 22.1595 46.6225C21.9166 46.729 21.6375 46.7823 21.3222 46.7823ZM21.3222 46.1729C21.4855 46.1729 21.6276 46.1452 21.7483 46.0898C21.8691 46.033 21.9628 45.9535 22.0296 45.8512C22.0963 45.7489 22.1304 45.631 22.1318 45.4975C22.1304 45.3583 22.0942 45.2354 22.0232 45.1289C21.9536 45.021 21.8577 44.9364 21.7355 44.8754C21.6148 44.8143 21.477 44.7837 21.3222 44.7837C21.1659 44.7837 21.0267 44.8143 20.9046 44.8754C20.7824 44.9364 20.6858 45.021 20.6148 45.1289C20.5452 45.2354 20.5111 45.3583 20.5125 45.4975C20.5111 45.631 20.5438 45.7489 20.6105 45.8512C20.6773 45.9521 20.771 46.0309 20.8918 46.0877C21.0139 46.1445 21.1574 46.1729 21.3222 46.1729ZM21.3222 44.185C21.4557 44.185 21.5736 44.158 21.6759 44.104C21.7796 44.0501 21.8612 43.9748 21.9209 43.8782C21.9806 43.7816 22.0111 43.6701 22.0125 43.5437C22.0111 43.4187 21.9813 43.3093 21.923 43.2156C21.8648 43.1204 21.7838 43.0472 21.6801 42.9961C21.5764 42.9435 21.4571 42.9173 21.3222 42.9173C21.1844 42.9173 21.0629 42.9435 20.9578 42.9961C20.8541 43.0472 20.7732 43.1204 20.7149 43.2156C20.6581 43.3093 20.6304 43.4187 20.6318 43.5437C20.6304 43.6701 20.6588 43.7816 20.7171 43.8782C20.7767 43.9734 20.8584 44.0487 20.9621 44.104C21.0672 44.158 21.1872 44.185 21.3222 44.185ZM26.1572 45.9045V45.6744C26.1572 45.5053 26.1927 45.3498 26.2637 45.2077C26.3362 45.0657 26.4413 44.9513 26.5791 44.8647C26.7168 44.7781 26.8838 44.7347 27.0798 44.7347C27.2815 44.7347 27.4505 44.7781 27.5869 44.8647C27.7232 44.9499 27.8262 45.0636 27.8958 45.2056C27.9668 45.3477 28.0024 45.5039 28.0024 45.6744V45.9045C28.0024 46.0735 27.9668 46.229 27.8958 46.3711C27.8248 46.5131 27.7204 46.6275 27.5826 46.7141C27.4463 46.8008 27.2786 46.8441 27.0798 46.8441C26.8809 46.8441 26.7126 46.8008 26.5748 46.7141C26.437 46.6275 26.3326 46.5131 26.2616 46.3711C26.192 46.229 26.1572 46.0735 26.1572 45.9045ZM26.7133 45.6744V45.9045C26.7133 46.0167 26.7403 46.1197 26.7943 46.2134C26.8482 46.3072 26.9434 46.354 27.0798 46.354C27.2176 46.354 27.312 46.3079 27.3632 46.2156C27.4157 46.1218 27.442 46.0181 27.442 45.9045V45.6744C27.442 45.5607 27.4171 45.457 27.3674 45.3633C27.3177 45.2681 27.2218 45.2205 27.0798 45.2205C26.9463 45.2205 26.8518 45.2681 26.7964 45.3633C26.741 45.457 26.7133 45.5607 26.7133 45.6744ZM23.9391 43.4073V43.1772C23.9391 43.0067 23.9754 42.8505 24.0478 42.7085C24.1203 42.5664 24.2254 42.4528 24.3632 42.3675C24.5009 42.2809 24.6678 42.2376 24.8639 42.2376C25.0641 42.2376 25.2325 42.2809 25.3688 42.3675C25.5066 42.4528 25.6103 42.5664 25.6799 42.7085C25.7495 42.8505 25.7843 43.0067 25.7843 43.1772V43.4073C25.7843 43.5778 25.7488 43.734 25.6778 43.8761C25.6082 44.0167 25.5045 44.1296 25.3667 44.2148C25.2289 44.3001 25.0613 44.3427 24.8639 44.3427C24.6636 44.3427 24.4945 44.3001 24.3568 44.2148C24.2204 44.1296 24.1167 44.016 24.0457 43.8739C23.9747 43.7319 23.9391 43.5763 23.9391 43.4073ZM24.4995 43.1772V43.4073C24.4995 43.521 24.5258 43.6246 24.5784 43.7184C24.6323 43.8107 24.7275 43.8569 24.8639 43.8569C25.0002 43.8569 25.094 43.8107 25.1451 43.7184C25.1977 43.6246 25.224 43.521 25.224 43.4073V43.1772C25.224 43.0636 25.1991 42.9599 25.1494 42.8661C25.0997 42.771 25.0045 42.7234 24.8639 42.7234C24.7289 42.7234 24.6345 42.771 24.5805 42.8661C24.5265 42.9613 24.4995 43.065 24.4995 43.1772ZM24.182 46.7227L27.182 42.359H27.7147L24.7147 46.7227H24.182Z" fill="#018C81"/>
<path d="M12.6877 54.6768C12.3809 54.6768 12.1082 54.6243 11.8695 54.5192C11.6323 54.4141 11.4448 54.2678 11.307 54.0803C11.1693 53.8928 11.0961 53.6761 11.0876 53.4304H11.8887C11.8958 53.5483 11.9349 53.6513 12.0059 53.7393C12.0769 53.826 12.1714 53.8935 12.2893 53.9418C12.4072 53.9901 12.5393 54.0142 12.6856 54.0142C12.8418 54.0142 12.9803 53.9872 13.1011 53.9332C13.2218 53.8778 13.3163 53.8011 13.3845 53.7031C13.4526 53.6051 13.486 53.4922 13.4846 53.3643C13.486 53.2322 13.4519 53.1158 13.3823 53.0149C13.3127 52.9141 13.2119 52.8352 13.0798 52.7784C12.9491 52.7216 12.7914 52.6932 12.6068 52.6932H12.2211V52.0838H12.6068C12.7587 52.0838 12.8916 52.0575 13.0052 52.005C13.1203 51.9524 13.2104 51.8786 13.2758 51.7834C13.3411 51.6868 13.3731 51.5753 13.3717 51.4489C13.3731 51.3253 13.3454 51.218 13.2886 51.1271C13.2332 51.0348 13.1543 50.9631 13.0521 50.9119C12.9512 50.8608 12.8326 50.8352 12.6962 50.8352C12.5627 50.8352 12.4391 50.8594 12.3255 50.9077C12.2119 50.956 12.1203 51.0249 12.0506 51.1143C11.981 51.2024 11.9441 51.3075 11.9399 51.4297H11.1792C11.1849 51.1854 11.2552 50.9709 11.3901 50.7862C11.5265 50.6001 11.7083 50.4553 11.9356 50.3516C12.1629 50.2464 12.4178 50.1939 12.7005 50.1939C12.9917 50.1939 13.2445 50.2486 13.459 50.358C13.6749 50.4659 13.8418 50.6115 13.9597 50.7947C14.0776 50.978 14.1366 51.1804 14.1366 51.402C14.138 51.6477 14.0656 51.8537 13.9193 52.0199C13.7744 52.1861 13.584 52.2947 13.3482 52.3459V52.38C13.6551 52.4226 13.8901 52.5362 14.0535 52.7209C14.2183 52.9041 14.2999 53.1321 14.2985 53.4048C14.2985 53.6491 14.2289 53.8679 14.0897 54.0611C13.9519 54.2528 13.7616 54.4034 13.5187 54.5128C13.2772 54.6222 13.0002 54.6768 12.6877 54.6768ZM16.761 54.6768C16.4442 54.6768 16.163 54.6236 15.9173 54.517C15.6729 54.4105 15.4812 54.2649 15.342 54.0803C15.2042 53.8942 15.136 53.6832 15.1374 53.4474C15.136 53.2642 15.1758 53.0959 15.2567 52.9425C15.3377 52.7891 15.4471 52.6612 15.5849 52.5589C15.7241 52.4553 15.8789 52.3892 16.0494 52.3608V52.331C15.8249 52.2812 15.6431 52.1669 15.5039 51.9879C15.3661 51.8075 15.2979 51.5994 15.2994 51.3636C15.2979 51.1392 15.3604 50.9389 15.4869 50.7628C15.6133 50.5866 15.7866 50.4482 16.0067 50.3473C16.2269 50.245 16.4783 50.1939 16.761 50.1939C17.0408 50.1939 17.2901 50.245 17.5089 50.3473C17.7291 50.4482 17.9023 50.5866 18.0288 50.7628C18.1566 50.9389 18.2205 51.1392 18.2205 51.3636C18.2205 51.5994 18.1502 51.8075 18.0096 51.9879C17.8704 52.1669 17.6907 52.2812 17.4705 52.331V52.3608C17.641 52.3892 17.7944 52.4553 17.9308 52.5589C18.0685 52.6612 18.1779 52.7891 18.2589 52.9425C18.3413 53.0959 18.3825 53.2642 18.3825 53.4474C18.3825 53.6832 18.3129 53.8942 18.1737 54.0803C18.0344 54.2649 17.8427 54.4105 17.5984 54.517C17.3555 54.6236 17.0764 54.6768 16.761 54.6768ZM16.761 54.0675C16.9244 54.0675 17.0664 54.0398 17.1871 53.9844C17.3079 53.9276 17.4016 53.848 17.4684 53.7457C17.5352 53.6435 17.5692 53.5256 17.5707 53.392C17.5692 53.2528 17.533 53.13 17.462 53.0234C17.3924 52.9155 17.2965 52.831 17.1744 52.7699C17.0536 52.7088 16.9158 52.6783 16.761 52.6783C16.6048 52.6783 16.4656 52.7088 16.3434 52.7699C16.2212 52.831 16.1246 52.9155 16.0536 53.0234C15.984 53.13 15.9499 53.2528 15.9514 53.392C15.9499 53.5256 15.9826 53.6435 16.0494 53.7457C16.1161 53.8466 16.2099 53.9254 16.3306 53.9822C16.4528 54.0391 16.5962 54.0675 16.761 54.0675ZM16.761 52.0795C16.8945 52.0795 17.0124 52.0526 17.1147 51.9986C17.2184 51.9446 17.3001 51.8693 17.3597 51.7727C17.4194 51.6761 17.4499 51.5646 17.4514 51.4382C17.4499 51.3132 17.4201 51.2038 17.3619 51.1101C17.3036 51.0149 17.2227 50.9418 17.119 50.8906C17.0153 50.8381 16.896 50.8118 16.761 50.8118C16.6232 50.8118 16.5018 50.8381 16.3967 50.8906C16.293 50.9418 16.212 51.0149 16.1538 51.1101C16.0969 51.2038 16.0692 51.3132 16.0707 51.4382C16.0692 51.5646 16.0977 51.6761 16.1559 51.7727C16.2156 51.8679 16.2972 51.9432 16.4009 51.9986C16.506 52.0526 16.6261 52.0795 16.761 52.0795ZM19.6177 54.6641C19.4884 54.6641 19.3776 54.6186 19.2853 54.5277C19.193 54.4368 19.1475 54.326 19.1489 54.1953C19.1475 54.0675 19.193 53.9581 19.2853 53.8672C19.3776 53.7763 19.4884 53.7308 19.6177 53.7308C19.7427 53.7308 19.8513 53.7763 19.9437 53.8672C20.0374 53.9581 20.085 54.0675 20.0864 54.1953C20.085 54.282 20.0623 54.3608 20.0182 54.4318C19.9756 54.5028 19.9188 54.5597 19.8478 54.6023C19.7782 54.6435 19.7015 54.6641 19.6177 54.6641ZM21.0542 54.6172V54.0462L22.5692 52.5611C22.7141 52.4148 22.8348 52.2848 22.9314 52.1712C23.028 52.0575 23.1004 51.9474 23.1487 51.8409C23.197 51.7344 23.2212 51.6207 23.2212 51.5C23.2212 51.3622 23.1899 51.2443 23.1274 51.1463C23.0649 51.0469 22.979 50.9702 22.8696 50.9162C22.7602 50.8622 22.6359 50.8352 22.4967 50.8352C22.3533 50.8352 22.2275 50.8651 22.1196 50.9247C22.0116 50.983 21.9278 51.0661 21.8682 51.174C21.8099 51.282 21.7808 51.4105 21.7808 51.5597H21.0287C21.0287 51.2827 21.0919 51.0419 21.2183 50.8374C21.3447 50.6328 21.5187 50.4744 21.7403 50.3622C21.9633 50.25 22.219 50.1939 22.5074 50.1939C22.8 50.1939 23.0571 50.2486 23.2787 50.358C23.5003 50.4673 23.6721 50.6172 23.7943 50.8075C23.9179 50.9979 23.9797 51.2152 23.9797 51.4595C23.9797 51.6229 23.9484 51.7834 23.8859 51.9411C23.8234 52.0987 23.7133 52.2734 23.5557 52.4652C23.3994 52.657 23.18 52.8892 22.8973 53.1619L22.1452 53.9268V53.9567H24.0457V54.6172H21.0542ZM27.2939 53.799V53.5689C27.2939 53.3999 27.3294 53.2443 27.4004 53.1023C27.4729 52.9602 27.578 52.8459 27.7158 52.7592C27.8536 52.6726 28.0205 52.6293 28.2165 52.6293C28.4182 52.6293 28.5872 52.6726 28.7236 52.7592C28.86 52.8445 28.9629 52.9581 29.0325 53.1001C29.1036 53.2422 29.1391 53.3984 29.1391 53.5689V53.799C29.1391 53.968 29.1036 54.1236 29.0325 54.2656C28.9615 54.4077 28.8571 54.522 28.7193 54.6087C28.583 54.6953 28.4154 54.7386 28.2165 54.7386C28.0176 54.7386 27.8493 54.6953 27.7115 54.6087C27.5737 54.522 27.4693 54.4077 27.3983 54.2656C27.3287 54.1236 27.2939 53.968 27.2939 53.799ZM27.85 53.5689V53.799C27.85 53.9112 27.877 54.0142 27.931 54.108C27.985 54.2017 28.0801 54.2486 28.2165 54.2486C28.3543 54.2486 28.4487 54.2024 28.4999 54.1101C28.5524 54.0163 28.5787 53.9126 28.5787 53.799V53.5689C28.5787 53.4553 28.5539 53.3516 28.5041 53.2578C28.4544 53.1626 28.3585 53.1151 28.2165 53.1151C28.083 53.1151 27.9885 53.1626 27.9331 53.2578C27.8777 53.3516 27.85 53.4553 27.85 53.5689ZM25.0759 51.3018V51.0717C25.0759 50.9013 25.1121 50.745 25.1845 50.603C25.257 50.4609 25.3621 50.3473 25.4999 50.2621C25.6377 50.1754 25.8046 50.1321 26.0006 50.1321C26.2009 50.1321 26.3692 50.1754 26.5056 50.2621C26.6433 50.3473 26.747 50.4609 26.8166 50.603C26.8862 50.745 26.921 50.9013 26.921 51.0717V51.3018C26.921 51.4723 26.8855 51.6286 26.8145 51.7706C26.7449 51.9112 26.6412 52.0241 26.5034 52.1094C26.3656 52.1946 26.198 52.2372 26.0006 52.2372C25.8003 52.2372 25.6313 52.1946 25.4935 52.1094C25.3571 52.0241 25.2534 51.9105 25.1824 51.7685C25.1114 51.6264 25.0759 51.4709 25.0759 51.3018ZM25.6362 51.0717V51.3018C25.6362 51.4155 25.6625 51.5192 25.7151 51.6129C25.7691 51.7053 25.8642 51.7514 26.0006 51.7514C26.1369 51.7514 26.2307 51.7053 26.2818 51.6129C26.3344 51.5192 26.3607 51.4155 26.3607 51.3018V51.0717C26.3607 50.9581 26.3358 50.8544 26.2861 50.7607C26.2364 50.6655 26.1412 50.6179 26.0006 50.6179C25.8656 50.6179 25.7712 50.6655 25.7172 50.7607C25.6632 50.8558 25.6362 50.9595 25.6362 51.0717ZM25.3188 54.6172L28.3188 50.2536H28.8514L25.8514 54.6172H25.3188Z" fill="#018C81"/>
<path d="M11.1217 62.3711V61.8001L12.6366 60.315C12.7815 60.1687 12.9022 60.0387 12.9988 59.9251C13.0954 59.8114 13.1678 59.7013 13.2161 59.5948C13.2644 59.4883 13.2886 59.3746 13.2886 59.2539C13.2886 59.1161 13.2573 58.9982 13.1948 58.9002C13.1323 58.8008 13.0464 58.7241 12.937 58.6701C12.8276 58.6161 12.7033 58.5891 12.5641 58.5891C12.4207 58.5891 12.295 58.619 12.187 58.6786C12.0791 58.7369 11.9953 58.82 11.9356 58.9279C11.8774 59.0359 11.8482 59.1644 11.8482 59.3136H11.0961C11.0961 59.0366 11.1593 58.7958 11.2857 58.5913C11.4122 58.3867 11.5862 58.2283 11.8078 58.1161C12.0308 58.0039 12.2864 57.9478 12.5748 57.9478C12.8674 57.9478 13.1245 58.0025 13.3461 58.1119C13.5677 58.2212 13.7396 58.3711 13.8617 58.5614C13.9853 58.7518 14.0471 58.9691 14.0471 59.2134C14.0471 59.3768 14.0158 59.5373 13.9533 59.695C13.8908 59.8526 13.7808 60.0273 13.6231 60.2191C13.4668 60.4109 13.2474 60.6431 12.9647 60.9158L12.2126 61.6808V61.7106H14.1131V62.3711H11.1217ZM16.5943 62.4308C16.2875 62.4308 16.0147 62.3782 15.7761 62.2731C15.5389 62.168 15.3514 62.0217 15.2136 61.8342C15.0758 61.6467 15.0027 61.43 14.9941 61.1843H15.7953C15.8024 61.3022 15.8414 61.4052 15.9125 61.4933C15.9835 61.5799 16.0779 61.6474 16.1958 61.6957C16.3137 61.744 16.4458 61.7681 16.5922 61.7681C16.7484 61.7681 16.8869 61.7411 17.0076 61.6871C17.1284 61.6317 17.2228 61.555 17.291 61.457C17.3592 61.359 17.3926 61.2461 17.3912 61.1183C17.3926 60.9862 17.3585 60.8697 17.2889 60.7688C17.2193 60.668 17.1184 60.5891 16.9863 60.5323C16.8556 60.4755 16.698 60.4471 16.5133 60.4471H16.1277V59.8377H16.5133C16.6653 59.8377 16.7981 59.8114 16.9118 59.7589C17.0268 59.7063 17.117 59.6325 17.1824 59.5373C17.2477 59.4407 17.2797 59.3292 17.2782 59.2028C17.2797 59.0792 17.252 58.9719 17.1951 58.881C17.1397 58.7887 17.0609 58.717 16.9586 58.6658C16.8578 58.6147 16.7392 58.5891 16.6028 58.5891C16.4693 58.5891 16.3457 58.6133 16.2321 58.6616C16.1184 58.7099 16.0268 58.7788 15.9572 58.8683C15.8876 58.9563 15.8507 59.0614 15.8464 59.1836H15.0858C15.0914 58.9393 15.1618 58.7248 15.2967 58.5401C15.4331 58.354 15.6149 58.2092 15.8422 58.1055C16.0694 58.0004 16.3244 57.9478 16.6071 57.9478C16.8983 57.9478 17.1511 58.0025 17.3656 58.1119C17.5815 58.2198 17.7484 58.3654 17.8663 58.5487C17.9842 58.7319 18.0431 58.9343 18.0431 59.1559C18.0446 59.4016 17.9721 59.6076 17.8258 59.7738C17.6809 59.94 17.4906 60.0487 17.2548 60.0998V60.1339C17.5616 60.1765 17.7967 60.2901 17.9601 60.4748C18.1248 60.658 18.2065 60.886 18.2051 61.1587C18.2051 61.4031 18.1355 61.6218 17.9963 61.815C17.8585 62.0067 17.6681 62.1573 17.4253 62.2667C17.1838 62.3761 16.9068 62.4308 16.5943 62.4308ZM19.4712 62.418C19.3419 62.418 19.2311 62.3725 19.1388 62.2816C19.0465 62.1907 19.001 62.0799 19.0024 61.9492C19.001 61.8214 19.0465 61.712 19.1388 61.6211C19.2311 61.5302 19.3419 61.4847 19.4712 61.4847C19.5962 61.4847 19.7049 61.5302 19.7972 61.6211C19.8909 61.712 19.9385 61.8214 19.9399 61.9492C19.9385 62.0359 19.9158 62.1147 19.8718 62.1857C19.8291 62.2567 19.7723 62.3136 19.7013 62.3562C19.6317 62.3974 19.555 62.418 19.4712 62.418ZM22.3359 62.4308C22.127 62.4293 21.9232 62.3931 21.7243 62.3221C21.5255 62.2496 21.3465 62.1325 21.1874 61.9705C21.0283 61.8072 20.9019 61.5906 20.8082 61.3207C20.7144 61.0494 20.6682 60.7134 20.6697 60.3129C20.6697 59.9393 20.7094 59.6062 20.789 59.3136C20.8685 59.021 20.9829 58.7738 21.132 58.5721C21.2812 58.369 21.4609 58.2141 21.6711 58.1076C21.8827 58.0011 22.1192 57.9478 22.3806 57.9478C22.6547 57.9478 22.8976 58.0018 23.1093 58.1097C23.3224 58.2177 23.4942 58.3654 23.6249 58.5529C23.7556 58.739 23.8366 58.9492 23.8678 59.1836H23.0901C23.0503 59.016 22.9687 58.8825 22.8451 58.783C22.7229 58.6822 22.5681 58.6317 22.3806 58.6317C22.078 58.6317 21.8451 58.7631 21.6817 59.0259C21.5198 59.2887 21.4381 59.6495 21.4367 60.1083H21.4665C21.5361 59.9833 21.6263 59.8761 21.7371 59.7866C21.8479 59.6971 21.9729 59.6282 22.1121 59.5799C22.2528 59.5302 22.4012 59.5053 22.5574 59.5053C22.8131 59.5053 23.0425 59.5664 23.2457 59.6886C23.4502 59.8107 23.6121 59.979 23.7315 60.1935C23.8508 60.4066 23.9097 60.6509 23.9083 60.9265C23.9097 61.2134 23.8444 61.4712 23.7123 61.6999C23.5802 61.9272 23.3962 62.1062 23.1604 62.2369C22.9246 62.3675 22.6498 62.4322 22.3359 62.4308ZM22.3316 61.7915C22.4864 61.7915 22.6249 61.7539 22.7471 61.6786C22.8692 61.6033 22.9658 61.5018 23.0368 61.3739C23.1079 61.2461 23.1427 61.1026 23.1413 60.9435C23.1427 60.7873 23.1086 60.646 23.039 60.5195C22.9708 60.3931 22.8763 60.293 22.7556 60.2191C22.6349 60.1452 22.4971 60.1083 22.3422 60.1083C22.2272 60.1083 22.1199 60.1303 22.0205 60.1744C21.9211 60.2184 21.8344 60.2795 21.7606 60.3576C21.6867 60.4343 21.6285 60.5238 21.5859 60.6261C21.5447 60.7269 21.5234 60.8349 21.5219 60.9499C21.5234 61.1019 21.5589 61.2418 21.6285 61.3697C21.6981 61.4975 21.794 61.5998 21.9161 61.6765C22.0383 61.7532 22.1768 61.7915 22.3316 61.7915ZM27.1416 61.5529V61.3228C27.1416 61.1538 27.1771 60.9982 27.2481 60.8562C27.3205 60.7141 27.4257 60.5998 27.5634 60.5131C27.7012 60.4265 27.8681 60.3832 28.0641 60.3832C28.2659 60.3832 28.4349 60.4265 28.5713 60.5131C28.7076 60.5984 28.8106 60.712 28.8802 60.854C28.9512 60.9961 28.9867 61.1523 28.9867 61.3228V61.5529C28.9867 61.7219 28.9512 61.8775 28.8802 62.0195C28.8092 62.1616 28.7048 62.2759 28.567 62.3626C28.4306 62.4492 28.263 62.4925 28.0641 62.4925C27.8653 62.4925 27.697 62.4492 27.5592 62.3626C27.4214 62.2759 27.317 62.1616 27.246 62.0195C27.1764 61.8775 27.1416 61.7219 27.1416 61.5529ZM27.6977 61.3228V61.5529C27.6977 61.6651 27.7247 61.7681 27.7786 61.8619C27.8326 61.9556 27.9278 62.0025 28.0641 62.0025C28.2019 62.0025 28.2964 61.9563 28.3475 61.864C28.4001 61.7702 28.4264 61.6665 28.4264 61.5529V61.3228C28.4264 61.2092 28.4015 61.1055 28.3518 61.0117C28.3021 60.9165 28.2062 60.869 28.0641 60.869C27.9306 60.869 27.8362 60.9165 27.7808 61.0117C27.7254 61.1055 27.6977 61.2092 27.6977 61.3228ZM24.9235 59.0558V58.8256C24.9235 58.6552 24.9597 58.4989 25.0322 58.3569C25.1046 58.2148 25.2097 58.1012 25.3475 58.016C25.4853 57.9293 25.6522 57.886 25.8482 57.886C26.0485 57.886 26.2168 57.9293 26.3532 58.016C26.491 58.1012 26.5947 58.2148 26.6643 58.3569C26.7339 58.4989 26.7687 58.6552 26.7687 58.8256V59.0558C26.7687 59.2262 26.7332 59.3825 26.6622 59.5245C26.5926 59.6651 26.4889 59.7781 26.3511 59.8633C26.2133 59.9485 26.0457 59.9911 25.8482 59.9911C25.648 59.9911 25.4789 59.9485 25.3411 59.8633C25.2048 59.7781 25.1011 59.6644 25.0301 59.5224C24.959 59.3803 24.9235 59.2248 24.9235 59.0558ZM25.4839 58.8256V59.0558C25.4839 59.1694 25.5102 59.2731 25.5627 59.3668C25.6167 59.4592 25.7119 59.5053 25.8482 59.5053C25.9846 59.5053 26.0784 59.4592 26.1295 59.3668C26.182 59.2731 26.2083 59.1694 26.2083 59.0558V58.8256C26.2083 58.712 26.1835 58.6083 26.1338 58.5146C26.084 58.4194 25.9889 58.3718 25.8482 58.3718C25.7133 58.3718 25.6188 58.4194 25.5649 58.5146C25.5109 58.6097 25.4839 58.7134 25.4839 58.8256ZM25.1664 62.3711L28.1664 58.0075H28.6991L25.6991 62.3711H25.1664Z" fill="#018C81"/>
<path d="M12.7346 80.0128C12.3837 80.0128 12.0826 79.924 11.8312 79.7464C11.5812 79.5675 11.3887 79.3097 11.2538 78.973C11.1203 78.6349 11.0535 78.228 11.0535 77.7521C11.0549 77.2763 11.1224 76.8714 11.2559 76.5376C11.3908 76.2024 11.5833 75.9467 11.8333 75.7706C12.0847 75.5945 12.3852 75.5064 12.7346 75.5064C13.084 75.5064 13.3845 75.5945 13.6359 75.7706C13.8873 75.9467 14.0798 76.2024 14.2133 76.5376C14.3482 76.8729 14.4157 77.2777 14.4157 77.7521C14.4157 78.2294 14.3482 78.6371 14.2133 78.9751C14.0798 79.3118 13.8873 79.5689 13.6359 79.7464C13.3859 79.924 13.0854 80.0128 12.7346 80.0128ZM12.7346 79.3459C13.0073 79.3459 13.2225 79.2116 13.3802 78.9432C13.5393 78.6733 13.6188 78.2763 13.6188 77.7521C13.6188 77.4055 13.5826 77.1143 13.5102 76.8786C13.4377 76.6428 13.3354 76.4652 13.2033 76.3459C13.0712 76.2251 12.915 76.1648 12.7346 76.1648C12.4633 76.1648 12.2488 76.2997 12.0911 76.5696C11.9335 76.8381 11.8539 77.2322 11.8525 77.7521C11.8511 78.1001 11.8859 78.3928 11.9569 78.63C12.0293 78.8672 12.1316 79.0462 12.2637 79.1669C12.3958 79.2862 12.5528 79.3459 12.7346 79.3459ZM17.6367 79.1115V78.8814C17.6367 78.7124 17.6722 78.5568 17.7433 78.4148C17.8157 78.2727 17.9208 78.1584 18.0586 78.0717C18.1964 77.9851 18.3633 77.9418 18.5593 77.9418C18.761 77.9418 18.93 77.9851 19.0664 78.0717C19.2028 78.157 19.3058 78.2706 19.3754 78.4126C19.4464 78.5547 19.4819 78.7109 19.4819 78.8814V79.1115C19.4819 79.2805 19.4464 79.4361 19.3754 79.5781C19.3043 79.7202 19.1999 79.8345 19.0621 79.9212C18.9258 80.0078 18.7582 80.0511 18.5593 80.0511C18.3604 80.0511 18.1921 80.0078 18.0543 79.9212C17.9165 79.8345 17.8121 79.7202 17.7411 79.5781C17.6715 79.4361 17.6367 79.2805 17.6367 79.1115ZM18.1928 78.8814V79.1115C18.1928 79.2237 18.2198 79.3267 18.2738 79.4205C18.3278 79.5142 18.4229 79.5611 18.5593 79.5611C18.6971 79.5611 18.7916 79.5149 18.8427 79.4226C18.8952 79.3288 18.9215 79.2251 18.9215 79.1115V78.8814C18.9215 78.7678 18.8967 78.6641 18.8469 78.5703C18.7972 78.4751 18.7014 78.4276 18.5593 78.4276C18.4258 78.4276 18.3313 78.4751 18.2759 78.5703C18.2205 78.6641 18.1928 78.7678 18.1928 78.8814ZM15.4187 76.6143V76.3842C15.4187 76.2138 15.4549 76.0575 15.5273 75.9155C15.5998 75.7734 15.7049 75.6598 15.8427 75.5746C15.9805 75.4879 16.1474 75.4446 16.3434 75.4446C16.5437 75.4446 16.712 75.4879 16.8484 75.5746C16.9862 75.6598 17.0898 75.7734 17.1594 75.9155C17.229 76.0575 17.2639 76.2138 17.2639 76.3842V76.6143C17.2639 76.7848 17.2283 76.9411 17.1573 77.0831C17.0877 77.2237 16.984 77.3366 16.8462 77.4219C16.7085 77.5071 16.5408 77.5497 16.3434 77.5497C16.1431 77.5497 15.9741 77.5071 15.8363 77.4219C15.6999 77.3366 15.5962 77.223 15.5252 77.081C15.4542 76.9389 15.4187 76.7834 15.4187 76.6143ZM15.979 76.3842V76.6143C15.979 76.728 16.0053 76.8317 16.0579 76.9254C16.1119 77.0178 16.207 77.0639 16.3434 77.0639C16.4798 77.0639 16.5735 77.0178 16.6246 76.9254C16.6772 76.8317 16.7035 76.728 16.7035 76.6143V76.3842C16.7035 76.2706 16.6786 76.1669 16.6289 76.0732C16.5792 75.978 16.484 75.9304 16.3434 75.9304C16.2085 75.9304 16.114 75.978 16.06 76.0732C16.006 76.1683 15.979 76.272 15.979 76.3842ZM15.6616 79.9297L18.6616 75.5661H19.1942L16.1942 79.9297H15.6616Z" fill="#018C81"/>
</svg>
