<svg width="88" height="88" viewBox="0 0 88 88" fill="none" xmlns="http://www.w3.org/2000/svg">
<rect width="88" height="88" rx="8" fill="#F8F9FC"/>
<path d="M27.2626 48.0674V56.869L23.3245 57.9126V48.0674C23.9546 48.1166 24.6142 48.1461 25.2935 48.1461C25.9728 48.1461 26.6325 48.1166 27.2626 48.0674Z" fill="#285680"/>
<path d="M24.7561 50.8516C24.7561 50.2993 25.2038 49.8516 25.7561 49.8516H27.4161V56.5811H24.7561V50.8516Z" fill="#2980BA"/>
<path d="M64.6744 48.0674V56.8789L60.7363 57.9126V48.0674C61.3664 48.1166 62.0261 48.1461 62.7054 48.1461C63.3847 48.1461 64.0443 48.1166 64.6744 48.0674Z" fill="#285680"/>
<path d="M62.0178 50.8516C62.0178 50.2993 62.4655 49.8516 63.0178 49.8516H64.6746V56.5811H62.0178V50.8516Z" fill="#2980BA"/>
<path d="M40.4605 60.8654L40.2886 60.8601L16.941 60.7706C16.7384 60.7684 16.5368 60.7418 16.3406 60.6913C15.2706 60.3971 14.5355 59.416 14.5537 58.3065C14.5636 56.9568 15.655 55.8649 17.0046 55.8544L23.2755 55.8835L27.3495 55.8947L41.2572 55.952C40.6796 56.4617 40.2661 57.1312 40.069 57.8759C39.8005 58.8851 39.9412 59.9594 40.4605 60.8654Z" fill="#2980BA"/>
<path d="M40.4605 60.8654L40.2886 60.8601L16.941 60.7706C16.7384 60.7684 16.5368 60.7418 16.3406 60.6913C15.2706 60.3971 14.5355 59.416 14.5537 58.3065C14.5636 56.9568 15.655 55.8649 17.0046 55.8544L23.2755 55.8835L27.3495 55.8947L41.2572 55.952C40.6796 56.4617 40.2661 57.1312 40.069 57.8759C39.8005 58.8851 39.9412 59.9594 40.4605 60.8654Z" fill="#285680"/>
<path d="M40.4604 60.8652L40.2886 60.86L16.941 60.7705C16.7384 60.7683 16.5367 60.7417 16.3405 60.6911C15.2706 60.397 14.5354 59.4158 14.5537 58.3063C14.5536 57.6466 15.1651 56.7909 17.0411 56.9961L23.2133 56.9964L27.3281 56.9964L40.414 56.9964C40.3867 57.0856 40.3007 57.1325 40.0689 57.8758C39.8004 58.885 39.9411 59.9593 40.4604 60.8652Z" fill="#2980BA"/>
<path d="M70.9959 60.9856L47.2615 60.8944C47.446 60.5895 47.5858 60.2597 47.6768 59.9151C48.0641 58.4841 47.609 56.957 46.5013 55.9716L61.9684 56.0288L66.0399 56.0495L71.0595 56.0695C71.7034 56.0781 72.3173 56.3429 72.7653 56.8054C73.2134 57.2678 73.4586 57.8898 73.4468 58.5336C73.4369 59.8833 72.3456 60.9751 70.9959 60.9856Z" fill="#285680"/>
<path d="M70.9958 60.9854L47.2614 60.8942C47.4459 60.5892 47.5857 60.2594 47.6767 59.9148C48.0641 58.4838 47.6313 58.0146 46.5236 57.0292L62.0431 57.0292L65.9991 57.0292L70.9959 57.0289C71.6398 57.0375 72.5409 56.9503 72.989 57.4128C73.3453 57.7806 73.4586 57.8895 73.4467 58.5333C73.4369 59.883 72.3455 60.9749 70.9958 60.9854Z" fill="#2980BA"/>
<path d="M46.9533 61.5107V69.7414H41.0461V61.7372L41.2135 61.6978C41.9542 62.4339 42.9555 62.8478 43.9997 62.8497C45.1313 62.8503 46.208 62.3622 46.9533 61.5107Z" fill="#285680"/>
<path d="M42.9429 62.3877C42.9429 61.8354 43.3906 61.3877 43.9429 61.3877H46.9532V69.7412H42.9429V62.3877Z" fill="#2980BA"/>
<path d="M35.1387 45.1134V47.0825C35.1387 48.0276 31.7618 49.5832 27.2625 49.9573C26.6324 50.0065 25.9728 50.0361 25.2935 50.0361C24.6142 50.0361 23.9545 50.0065 23.3244 49.9573C18.8251 49.5832 15.4482 48.0276 15.4482 47.0825V45.1134C15.4372 44.5843 15.8545 44.145 16.3835 44.1289H34.2034C34.7325 44.145 35.1498 44.5843 35.1387 45.1134Z" fill="#788181"/>
<path d="M35.1386 45.9256V47.1279C35.1386 47.9171 32.1103 49.6579 28.0754 49.9703C27.5104 50.0114 26.9189 50.0361 26.3097 50.0361C25.7004 50.0361 25.1089 50.0114 24.5439 49.9703C20.509 49.6579 17.4807 48.359 17.4807 47.5698V45.9256C17.4708 45.4838 17.845 45.1169 18.3194 45.1035H34.2999C34.7743 45.1169 35.1485 45.4838 35.1386 45.9256Z" fill="#95A5A5"/>
<path d="M72.5511 45.1134V47.0825C72.5511 48.0276 69.1742 49.5832 64.6749 49.9573C64.0448 50.0065 63.3852 50.0361 62.7058 50.0361C62.0265 50.0361 61.3669 50.0065 60.7368 49.9573C56.2375 49.5832 52.8606 48.0276 52.8606 47.0825V45.1134C52.8495 44.5843 53.2668 44.145 53.7959 44.1289H71.6158C72.1448 44.145 72.5621 44.5843 72.5511 45.1134Z" fill="#788181"/>
<path d="M72.551 45.9256V47.1279C72.551 47.9171 69.5227 49.6579 65.4878 49.9703C64.9227 50.0114 64.3312 50.0361 63.722 50.0361C63.1128 50.0361 62.5213 50.0114 61.9562 49.9703C57.9214 49.6579 54.893 48.359 54.893 47.5698V45.9256C54.8831 45.4838 55.2573 45.1169 55.7318 45.1035H71.7122C72.1867 45.1169 72.5609 45.4838 72.551 45.9256Z" fill="#95A5A5"/>
<path d="M47.938 58.9127C47.933 59.8693 47.5835 60.7921 46.9535 61.5119C46.2082 62.3633 45.1315 62.8514 43.9999 62.8508C42.955 62.8521 41.9526 62.4376 41.2138 61.6988C40.4749 60.96 40.0605 59.9576 40.0618 58.9127C40.0618 56.7378 41.8249 54.9746 43.9999 54.9746C46.1748 54.9746 47.938 56.7378 47.938 58.9127Z" fill="#788181"/>
<path d="M47.938 58.9127C47.9338 59.8693 47.6409 60.7921 47.1128 61.5119C46.4882 62.3633 45.5858 62.8514 44.6374 62.8508C43.7618 62.8521 42.9216 62.4376 42.3024 61.6988C41.6832 60.96 41.3358 59.9576 41.3369 58.9127C41.3369 56.7378 42.8146 54.9746 44.6374 54.9746C46.4603 54.9746 47.938 56.7378 47.938 58.9127Z" fill="#95A5A5"/>
<path d="M54.8294 76.6339H33.1698C32.8174 76.6353 32.4911 76.4482 32.3143 76.1433C32.1375 75.8384 32.1371 75.4623 32.3133 75.1571L32.5791 74.7042C34.3151 71.6591 37.541 69.7686 41.0461 69.7422H46.9532C50.4583 69.7686 53.6842 71.6591 55.4201 74.7042L55.686 75.1571C55.8622 75.4623 55.8618 75.8384 55.685 76.1433C55.5082 76.4482 55.1819 76.6353 54.8294 76.6339Z" fill="#788181"/>
<path d="M55.0487 76.634H38.1949C37.9207 76.6352 37.6668 76.4738 37.5292 76.2108C37.3916 75.9478 37.3913 75.6233 37.5284 75.36L37.7353 74.9693C39.0861 72.3422 41.5962 70.7113 44.3236 70.6885H48.9201C51.6474 70.7113 54.1576 72.3422 55.5084 74.9693L55.7152 75.36C55.8524 75.6233 55.8521 75.9478 55.7145 76.2108C55.5769 76.4738 55.323 76.6352 55.0487 76.634Z" fill="#95A5A5"/>
<path d="M19.0085 39.0004V18.6367H26.6449C28.2093 18.6367 29.5218 18.9284 30.5824 19.5117C31.6496 20.0951 32.455 20.8971 32.9986 21.918C33.5488 22.9322 33.8239 24.0856 33.8239 25.3782C33.8239 26.6841 33.5488 27.8441 32.9986 28.8583C32.4484 29.8725 31.6364 30.6713 30.5625 31.2546C29.4887 31.8313 28.1662 32.1197 26.5952 32.1197H21.5341V29.087H26.098C27.0128 29.087 27.7619 28.9279 28.3452 28.6097C28.9285 28.2915 29.3594 27.854 29.6378 27.2972C29.9228 26.7404 30.0654 26.1007 30.0654 25.3782C30.0654 24.6557 29.9228 24.0193 29.6378 23.4691C29.3594 22.9189 28.9252 22.4914 28.3352 22.1864C27.7519 21.8749 26.9995 21.7191 26.0781 21.7191H22.6975V39.0004H19.0085Z" fill="#2980BA"/>
<path d="M57.0085 39.0004V18.6367H70.2529V21.729H60.6975V27.2575H69.5668V30.3498H60.6975V35.908H70.3324V39.0004H57.0085Z" fill="#018C81"/>
</svg>
