<svg width="14" height="9" viewBox="0 0 14 9" fill="none" xmlns="http://www.w3.org/2000/svg">
<path fill-rule="evenodd" clip-rule="evenodd" d="M8.6001 2.1C8.15827 2.1 7.8001 1.74183 7.8001 1.3C7.8001 0.858172 8.15827 0.5 8.6001 0.5H12.6001C13.0419 0.5 13.4001 0.858172 13.4001 1.3V5.3C13.4001 5.74183 13.0419 6.1 12.6001 6.1C12.1583 6.1 11.8001 5.74183 11.8001 5.3V3.23137L8.36578 6.66569C8.05336 6.97811 7.54683 6.97811 7.23441 6.66569L5.4001 4.83137L1.96578 8.26569C1.65336 8.5781 1.14683 8.5781 0.834412 8.26569C0.521993 7.95327 0.521993 7.44673 0.834412 7.13432L4.83441 3.13431C5.14683 2.8219 5.65336 2.8219 5.96578 3.13431L7.8001 4.96863L10.6687 2.1H8.6001Z" fill="#0EA472"/>
</svg>
