<svg width="88" height="88" viewBox="0 0 88 88" fill="none" xmlns="http://www.w3.org/2000/svg">
<rect width="88" height="88" rx="8" fill="#F8F9FC"/>
<path d="M67.4188 44.7779L43.0236 45.6422L42.1594 21.2469C42.1221 20.1958 41.2675 19.3996 40.2163 19.4369C24.6785 19.9873 12.3896 33.049 12.9401 48.5868C13.4905 64.1246 26.6773 76.4091 42.2151 75.8587C43.4911 75.8134 44.7268 75.6943 45.9589 75.4628C59.6674 73.1359 69.8671 60.8498 69.3619 46.588C69.3246 45.5368 68.47 44.7407 67.4188 44.7779Z" fill="#285680"/>
<path d="M67.4186 44.7783L43.0234 45.6425L42.2149 23.2955C42.2149 19.8447 41.9853 19.4372 40.2161 19.4372C24.6783 19.9877 15.9867 33.0025 16.5372 48.5403C17.0876 64.0781 27.4856 72.9064 43.0234 72.356C44.2993 72.3108 46.995 72.1738 47.9626 72.0095C61.6711 69.6827 69.8669 60.8502 69.3616 46.5884C69.3244 45.5372 68.4698 44.7411 67.4186 44.7783Z" fill="#2980BA"/>
<path d="M74.6924 40.4619L48.2955 41.397C47.2585 41.4337 46.3892 40.6239 46.3525 39.5869L45.4173 13.19C45.3806 12.153 46.1904 11.2837 47.2274 11.247C62.7491 10.6971 75.9526 22.9972 76.5025 38.5188C76.5392 39.5558 75.7294 40.4251 74.6924 40.4619Z" fill="#788181"/>
<path d="M74.6924 40.029L51.0692 40.029C48.9089 40.029 47.7263 39.3189 47.7263 36.8117L46.6206 13.0461C46.5839 12.0092 47.3805 11.6383 48.4175 11.6016C63.9392 11.0517 75.9526 22.5643 76.5024 38.086C76.5392 39.123 75.7294 39.9923 74.6924 40.029Z" fill="#95A5A5"/>
<path d="M28.7691 53.5635C28.7092 53.3695 28.6265 53.1958 28.5212 53.0426C28.4182 52.8869 28.2936 52.7539 28.1475 52.6438C28.0038 52.5336 27.8385 52.451 27.6517 52.3959C27.4649 52.3384 27.2613 52.3096 27.041 52.3096C26.6458 52.3096 26.2937 52.409 25.9847 52.6078C25.6758 52.8066 25.4327 53.0988 25.2554 53.4845C25.0806 53.8677 24.9931 54.3347 24.9931 54.8856C24.9931 55.4413 25.0806 55.9119 25.2554 56.2975C25.4303 56.6831 25.6734 56.9765 25.9847 57.1777C26.2961 57.3765 26.6578 57.4759 27.0697 57.4759C27.4434 57.4759 27.7667 57.4041 28.0397 57.2604C28.3152 57.1167 28.5271 56.9131 28.6756 56.6496C28.8241 56.3837 28.8984 56.0724 28.8984 55.7155L29.2002 55.7622H27.2026V54.7203H30.1882V55.6041C30.1882 56.234 30.054 56.7789 29.7858 57.2388C29.5175 57.6987 29.1487 58.0531 28.6792 58.3022C28.2098 58.5489 27.6709 58.6723 27.0625 58.6723C26.3847 58.6723 25.7895 58.5202 25.277 58.216C24.7668 57.9094 24.368 57.4747 24.0806 56.9119C23.7956 56.3466 23.6531 55.676 23.6531 54.9C23.6531 54.306 23.7369 53.7755 23.9046 53.3084C24.0746 52.8414 24.3117 52.445 24.6159 52.1192C24.9201 51.7911 25.277 51.542 25.6865 51.372C26.0961 51.1995 26.5416 51.1133 27.023 51.1133C27.4302 51.1133 27.8098 51.1732 28.1619 51.2929C28.514 51.4103 28.8265 51.5779 29.0996 51.7959C29.375 52.0138 29.6014 52.2725 29.7786 52.5719C29.9558 52.8713 30.072 53.2018 30.1271 53.5635H28.7691Z" fill="white"/>
<path d="M31.6794 58.5717V51.2139H34.4386C35.0038 51.2139 35.478 51.3121 35.8613 51.5085C36.2469 51.7049 36.5379 51.9803 36.7343 52.3348C36.9331 52.6869 37.0325 53.0976 37.0325 53.5671C37.0325 54.0389 36.9319 54.4485 36.7307 54.7958C36.5319 55.1407 36.2385 55.4077 35.8505 55.5969C35.4625 55.7838 34.9858 55.8772 34.4206 55.8772H32.4554V54.7706H34.241C34.5715 54.7706 34.8421 54.7251 35.0529 54.6341C35.2637 54.5407 35.4194 54.4054 35.5199 54.2281C35.6229 54.0485 35.6744 53.8282 35.6744 53.5671C35.6744 53.306 35.6229 53.0833 35.5199 52.8988C35.417 52.712 35.2601 52.5707 35.0493 52.4749C34.8385 52.3767 34.5667 52.3276 34.2338 52.3276H33.0123V58.5717H31.6794ZM35.4804 55.2377L37.3019 58.5717H35.8146L34.0254 55.2377H35.4804Z" fill="white"/>
<path d="M45.0363 54.8928C45.0363 55.6856 44.8878 56.3646 44.5908 56.9298C44.2962 57.4927 43.8938 57.9238 43.3837 58.2232C42.8759 58.5226 42.2999 58.6723 41.6556 58.6723C41.0113 58.6723 40.4341 58.5226 39.9239 58.2232C39.4162 57.9214 39.0138 57.4891 38.7168 56.9262C38.4222 56.361 38.2749 55.6832 38.2749 54.8928C38.2749 54.1 38.4222 53.4222 38.7168 52.8593C39.0138 52.2941 39.4162 51.8618 39.9239 51.5624C40.4341 51.263 41.0113 51.1133 41.6556 51.1133C42.2999 51.1133 42.8759 51.263 43.3837 51.5624C43.8938 51.8618 44.2962 52.2941 44.5908 52.8593C44.8878 53.4222 45.0363 54.1 45.0363 54.8928ZM43.6962 54.8928C43.6962 54.3347 43.6088 53.8641 43.434 53.4809C43.2615 53.0952 43.022 52.8042 42.7154 52.6078C42.4089 52.409 42.0556 52.3096 41.6556 52.3096C41.2556 52.3096 40.9023 52.409 40.5958 52.6078C40.2892 52.8042 40.0485 53.0952 39.8736 53.4809C39.7012 53.8641 39.615 54.3347 39.615 54.8928C39.615 55.4508 39.7012 55.9227 39.8736 56.3083C40.0485 56.6915 40.2892 56.9825 40.5958 57.1813C40.9023 57.3777 41.2556 57.4759 41.6556 57.4759C42.0556 57.4759 42.4089 57.3777 42.7154 57.1813C43.022 56.9825 43.2615 56.6915 43.434 56.3083C43.6088 55.9227 43.6962 55.4508 43.6962 54.8928Z" fill="white"/>
<path d="M50.4974 53.2366C50.4639 52.9228 50.3226 52.6785 50.0735 52.5036C49.8268 52.3288 49.5059 52.2414 49.1107 52.2414C48.8328 52.2414 48.5945 52.2833 48.3957 52.3671C48.1969 52.451 48.0448 52.5647 47.9395 52.7084C47.8341 52.8521 47.7802 53.0162 47.7778 53.2006C47.7778 53.3539 47.8125 53.4868 47.882 53.5994C47.9538 53.712 48.0508 53.8078 48.173 53.8868C48.2951 53.9635 48.4305 54.0281 48.5789 54.0808C48.7274 54.1335 48.8771 54.1778 49.028 54.2138L49.7178 54.3862C49.9957 54.4509 50.2627 54.5383 50.519 54.6485C50.7777 54.7587 51.0088 54.8976 51.2124 55.0652C51.4184 55.2329 51.5812 55.4353 51.701 55.6724C51.8207 55.9095 51.8806 56.1873 51.8806 56.5059C51.8806 56.937 51.7704 57.3166 51.5501 57.6448C51.3297 57.9705 51.0112 58.2256 50.5944 58.41C50.1801 58.592 49.6783 58.6831 49.0891 58.6831C48.5167 58.6831 48.0197 58.5944 47.5981 58.4172C47.179 58.24 46.8509 57.9813 46.6138 57.6412C46.379 57.3011 46.2521 56.8867 46.2329 56.3981H47.5443C47.5634 56.6544 47.6425 56.8676 47.7814 57.0376C47.9203 57.2077 48.1011 57.3346 48.3239 57.4184C48.549 57.5023 48.8005 57.5442 49.0783 57.5442C49.3681 57.5442 49.622 57.5011 49.84 57.4148C50.0603 57.3262 50.2328 57.2041 50.3573 57.0484C50.4819 56.8903 50.5453 56.7059 50.5477 56.4951C50.5453 56.3035 50.4891 56.1454 50.3789 56.0209C50.2687 55.8939 50.1142 55.7886 49.9154 55.7047C49.719 55.6185 49.4891 55.5419 49.2256 55.4748L48.3885 55.2592C47.7826 55.1036 47.3035 54.8676 46.9515 54.5515C46.6018 54.2329 46.4269 53.8102 46.4269 53.2833C46.4269 52.8497 46.5443 52.4701 46.779 52.1444C47.0161 51.8186 47.3383 51.566 47.7454 51.3863C48.1526 51.2043 48.6137 51.1133 49.1286 51.1133C49.6508 51.1133 50.1082 51.2043 50.501 51.3863C50.8962 51.566 51.2064 51.8162 51.4315 52.1372C51.6567 52.4557 51.7728 52.8222 51.78 53.2366H50.4974Z" fill="white"/>
<path d="M57.2699 53.2366C57.2364 52.9228 57.095 52.6785 56.846 52.5036C56.5993 52.3288 56.2783 52.2414 55.8831 52.2414C55.6053 52.2414 55.367 52.2833 55.1682 52.3671C54.9694 52.451 54.8173 52.5647 54.7119 52.7084C54.6065 52.8521 54.5526 53.0162 54.5502 53.2006C54.5502 53.3539 54.585 53.4868 54.6544 53.5994C54.7263 53.712 54.8233 53.8078 54.9454 53.8868C55.0676 53.9635 55.2029 54.0281 55.3514 54.0808C55.4999 54.1335 55.6496 54.1778 55.8005 54.2138L56.4903 54.3862C56.7681 54.4509 57.0352 54.5383 57.2914 54.6485C57.5501 54.7587 57.7812 54.8976 57.9848 55.0652C58.1908 55.2329 58.3537 55.4353 58.4734 55.6724C58.5932 55.9095 58.6531 56.1873 58.6531 56.5059C58.6531 56.937 58.5429 57.3166 58.3225 57.6448C58.1022 57.9705 57.7836 58.2256 57.3669 58.41C56.9525 58.592 56.4508 58.6831 55.8616 58.6831C55.2891 58.6831 54.7921 58.5944 54.3706 58.4172C53.9515 58.24 53.6233 57.9813 53.3862 57.6412C53.1515 57.3011 53.0245 56.8867 53.0054 56.3981H54.3167C54.3359 56.6544 54.4149 56.8676 54.5538 57.0376C54.6927 57.2077 54.8736 57.3346 55.0963 57.4184C55.3215 57.5023 55.573 57.5442 55.8508 57.5442C56.1406 57.5442 56.3945 57.5011 56.6124 57.4148C56.8328 57.3262 57.0052 57.2041 57.1298 57.0484C57.2543 56.8903 57.3178 56.7059 57.3202 56.4951C57.3178 56.3035 57.2615 56.1454 57.1513 56.0209C57.0412 55.8939 56.8867 55.7886 56.6879 55.7047C56.4915 55.6185 56.2615 55.5419 55.9981 55.4748L55.161 55.2592C54.555 55.1036 54.076 54.8676 53.7239 54.5515C53.3742 54.2329 53.1994 53.8102 53.1994 53.2833C53.1994 52.8497 53.3167 52.4701 53.5515 52.1444C53.7886 51.8186 54.1107 51.566 54.5179 51.3863C54.9251 51.2043 55.3861 51.1133 55.9011 51.1133C56.4232 51.1133 56.8807 51.2043 57.2735 51.3863C57.6687 51.566 57.9788 51.8162 58.204 52.1372C58.4291 52.4557 58.5453 52.8222 58.5525 53.2366H57.2699Z" fill="white"/>
<path d="M58.913 31.1222V30.6125C58.913 30.2381 58.9916 29.8936 59.1489 29.5789C59.3094 29.2643 59.5422 29.011 59.8474 28.8191C60.1526 28.6272 60.5223 28.5312 60.9565 28.5312C61.4033 28.5312 61.7777 28.6272 62.0797 28.8191C62.3818 29.0079 62.6099 29.2596 62.764 29.5742C62.9213 29.8888 63 30.2349 63 30.6125V31.1222C63 31.4966 62.9213 31.8411 62.764 32.1557C62.6067 32.4704 62.3755 32.7237 62.0703 32.9156C61.7682 33.1075 61.397 33.2035 60.9565 33.2035C60.516 33.2035 60.1432 33.1075 59.838 32.9156C59.5328 32.7237 59.3015 32.4704 59.1442 32.1557C58.99 31.8411 58.913 31.4966 58.913 31.1222ZM60.1447 30.6125V31.1222C60.1447 31.3707 60.2045 31.5988 60.3241 31.8065C60.4436 32.0142 60.6544 32.118 60.9565 32.118C61.2617 32.118 61.4709 32.0157 61.5842 31.8112C61.7006 31.6036 61.7588 31.3739 61.7588 31.1222V30.6125C61.7588 30.3608 61.7037 30.1311 61.5936 29.9234C61.4835 29.7126 61.2711 29.6072 60.9565 29.6072C60.6607 29.6072 60.4515 29.7126 60.3288 29.9234C60.2061 30.1311 60.1447 30.3608 60.1447 30.6125ZM54 25.591V25.0813C54 24.7037 54.0802 24.3576 54.2407 24.043C54.4012 23.7284 54.634 23.4767 54.9392 23.2879C55.2444 23.096 55.6141 23 56.0482 23C56.4919 23 56.8647 23.096 57.1668 23.2879C57.4719 23.4767 57.7016 23.7284 57.8558 24.043C58.01 24.3576 58.087 24.7037 58.087 25.0813V25.591C58.087 25.9685 58.0084 26.3146 57.8511 26.6293C57.6969 26.9407 57.4672 27.1909 57.162 27.3797C56.8568 27.5684 56.4856 27.6628 56.0482 27.6628C55.6046 27.6628 55.2302 27.5684 54.925 27.3797C54.623 27.1909 54.3933 26.9392 54.236 26.6245C54.0787 26.3099 54 25.9654 54 25.591ZM55.2412 25.0813V25.591C55.2412 25.8427 55.2994 26.0724 55.4158 26.28C55.5354 26.4845 55.7462 26.5868 56.0482 26.5868C56.3503 26.5868 56.5579 26.4845 56.6712 26.28C56.7876 26.0724 56.8458 25.8427 56.8458 25.591V25.0813C56.8458 24.8296 56.7908 24.5999 56.6807 24.3922C56.5705 24.1814 56.3597 24.076 56.0482 24.076C55.7493 24.076 55.5401 24.1814 55.4206 24.3922C55.301 24.603 55.2412 24.8327 55.2412 25.0813ZM54.538 32.9345L61.183 23.269H62.3629L55.7179 32.9345H54.538Z" fill="white"/>
</svg>
