<svg width="62" height="61" viewBox="0 0 62 61" fill="none" xmlns="http://www.w3.org/2000/svg">
<path d="M12.2206 57.7758V35.6582H2.33777C1.68358 35.6582 1.15332 36.1946 1.15332 36.8564V60.1466C4.40582 59.6598 8.15879 58.9148 12.2206 57.7758V57.7758Z" fill="#2980BA"/>
<path d="M4.89588 36.8564C4.89588 36.1946 5.42613 35.6582 6.08032 35.6582H2.33777C1.68358 35.6582 1.15332 36.1946 1.15332 36.8564V60.1466C2.3373 59.9697 3.58844 59.7578 4.89588 59.5052V36.8564Z" fill="#285680"/>
<path d="M23.1633 53.8681V23.7734H13.2809C12.6267 23.7734 12.0959 24.3098 12.0959 24.9711V57.7771C15.5977 56.7951 19.3285 55.5199 23.1633 53.8681Z" fill="#2980BA"/>
<path d="M15.839 24.9711C15.839 24.3098 16.3692 23.7734 17.0234 23.7734H13.2809C12.6267 23.7734 12.0959 24.3098 12.0959 24.9711V57.7771C13.3173 57.4347 14.567 57.0553 15.839 56.6381V24.9711Z" fill="#285680"/>
<path d="M34.1059 48.0843V11.8857H24.223C23.5688 11.8857 23.0386 12.4217 23.0386 13.0834V53.8665C26.6695 52.3022 30.3936 50.3992 34.1059 48.0843Z" fill="#2980BA"/>
<path d="M26.7811 13.0834C26.7811 12.4217 27.3114 11.8857 27.9656 11.8857H24.223C23.5688 11.8857 23.0386 12.4217 23.0386 13.0834V53.8665C24.2765 53.3329 25.5257 52.7592 26.7811 52.1442V13.0834Z" fill="#285680"/>
<path d="M45.0485 39.7675V1.19769C45.0485 0.536408 44.5183 0 43.8641 0H35.1656C34.5115 0 33.9812 0.536408 33.9812 1.19769V48.0851C37.7186 45.7545 41.4436 43.0072 45.0485 39.7675V39.7675Z" fill="#2980BA"/>
<path d="M37.7238 1.19769C37.7238 0.536408 38.254 0 38.9087 0H35.1656C34.5115 0 33.9812 0.536408 33.9812 1.19769V48.0851C35.2314 47.3056 36.4807 46.4778 37.7238 45.6022V1.19769Z" fill="#285680"/>
<path d="M61.5819 27.2373H49.2303C48.8613 27.2373 48.6731 27.681 48.9295 27.9464L52.2846 31.4174C52.435 31.5735 52.4421 31.8195 52.3002 31.9831C35.4176 51.4655 13.7058 57.6125 0.50235 59.5254C0.213806 59.567 0 59.8148 0 60.1067C0 60.4392 0.275772 60.707 0.608307 60.6951C34.1082 59.5008 54.882 40.3788 57.5011 37.8363C57.6605 37.6816 57.9126 37.6793 58.0763 37.8306L61.2971 40.8192C61.5648 41.068 62 40.8779 62 40.5127V27.6555C62 27.4246 61.8127 27.2373 61.5819 27.2373V27.2373Z" fill="#788181"/>
<path d="M5.44449 60.1067C5.44449 59.8148 5.6583 59.5675 5.94684 59.5254C19.1503 57.6125 40.8621 51.4655 57.7447 31.9831C57.8866 31.8195 57.8795 31.5735 57.7291 31.4179L54.3744 27.9464C54.1176 27.681 54.3058 27.2373 54.6753 27.2373H49.2303C48.8613 27.2373 48.6731 27.681 48.9295 27.9464L52.2846 31.4179C52.435 31.5735 52.4421 31.8195 52.3002 31.9831C35.4176 51.4655 13.7058 57.6125 0.50235 59.5254C0.213806 59.567 0 59.8148 0 60.1067C0 60.4392 0.275772 60.707 0.608307 60.6951C2.27713 60.6355 3.91284 60.5301 5.51781 60.3858C5.47287 60.3025 5.44449 60.2084 5.44449 60.1067V60.1067Z" fill="#018C81"/>
<path d="M5.44449 60.1057C5.44449 59.8139 5.6583 59.5665 5.94684 59.5244C19.1503 57.6115 40.8621 51.4645 57.7447 31.9822C57.8866 31.8185 57.8795 31.5725 57.7291 31.4169L54.3744 27.9454C54.1176 27.68 54.3058 27.2363 54.6753 27.2363H49.2303C48.8613 27.2363 48.6731 27.68 48.9295 27.9454L52.2846 31.4169C52.435 31.5725 52.4421 31.8185 52.3002 31.9822C35.4176 51.4645 13.7058 57.6115 0.50235 59.5244C0.213806 59.566 0 59.8139 0 60.1057C0 60.4383 0.275772 60.706 0.608307 60.6942C2.27713 60.6346 3.91284 60.5291 5.51781 60.3848C5.47287 60.3016 5.44449 60.2074 5.44449 60.1057V60.1057Z" fill="#95A5A5"/>
<path d="M7.38428 54.536L4.6543 45.5879L10.4741 43.8123L10.8886 45.1712L6.68983 46.4522L7.43098 48.8814L11.3283 47.6924L11.7429 49.0512L7.84554 50.2403L8.59069 52.6826L12.8244 51.391L13.239 52.7498L7.38428 54.536Z" fill="#F8F9FC"/>
<path d="M18.0849 50.9792L16.4178 51.6814L15.8219 41.7812L17.7501 40.9691L24.4208 48.3108L22.7537 49.0129L17.5644 43.1291L17.497 43.1575L18.0849 50.9792ZM16.7159 47.5757L21.2626 45.6608L21.7909 46.9153L17.2443 48.8302L16.7159 47.5757Z" fill="#F8F9FC"/>
<path d="M27.92 46.5603L23.0457 38.5752L26.0401 36.7473C26.6535 36.3728 27.2332 36.1652 27.7792 36.1245C28.3278 36.0822 28.8261 36.1883 29.2741 36.4429C29.7231 36.6933 30.1031 37.0733 30.4141 37.5827C30.7266 38.0948 30.8888 38.6059 30.9005 39.1161C30.9133 39.6221 30.7718 40.1063 30.476 40.5687C30.1787 41.0285 29.7233 41.4456 29.1099 41.8201L26.9772 43.122L26.2441 41.9211L28.1819 40.7382C28.5406 40.5192 28.8042 40.2905 28.9726 40.0521C29.1395 39.8111 29.2188 39.5611 29.2105 39.3021C29.2033 39.039 29.1132 38.7657 28.9403 38.4824C28.7673 38.1991 28.5639 37.9914 28.3299 37.8595C28.0944 37.725 27.8305 37.6756 27.5383 37.7112C27.2445 37.7443 26.9169 37.8711 26.5556 38.0916L25.23 38.9009L29.3666 45.6773L27.92 46.5603ZM29.8364 40.4239L34.0219 42.8355L32.4078 43.8208L28.2574 41.3879L29.8364 40.4239Z" fill="#F8F9FC"/>
<path d="M37.9201 28.9633L43.2862 36.6266L42.0514 37.4912L34.7854 34.7998L34.7218 34.8444L38.3769 40.0642L36.9887 41.0363L31.6226 33.373L32.8648 32.5031L40.1298 35.2009L40.1971 35.1537L36.5393 29.9301L37.9201 28.9633Z" fill="#F8F9FC"/>
</svg>
