<svg width="88" height="88" viewBox="0 0 88 88" fill="none" xmlns="http://www.w3.org/2000/svg">
<rect width="88" height="88" rx="8" fill="#F8F9FC"/>
<path d="M27.2206 71.7758V49.6582H17.3378C16.6836 49.6582 16.1533 50.1946 16.1533 50.8564V74.1466C19.4058 73.6598 23.1588 72.9148 27.2206 71.7758Z" fill="#2980BA"/>
<path d="M19.8959 50.8564C19.8959 50.1946 20.4261 49.6582 21.0803 49.6582H17.3378C16.6836 49.6582 16.1533 50.1946 16.1533 50.8564V74.1466C17.3373 73.9697 18.5884 73.7578 19.8959 73.5052V50.8564Z" fill="#285680"/>
<path d="M38.163 67.8681V37.7734H28.2806C27.6264 37.7734 27.0957 38.3098 27.0957 38.9711V71.7771C30.5975 70.7951 34.3282 69.5199 38.163 67.8681Z" fill="#2980BA"/>
<path d="M30.8387 38.9711C30.8387 38.3098 31.369 37.7734 32.0232 37.7734H28.2806C27.6264 37.7734 27.0957 38.3098 27.0957 38.9711V71.7771C28.317 71.4347 29.5668 71.0553 30.8387 70.6381V38.9711Z" fill="#285680"/>
<path d="M49.1059 62.0843V25.8857H39.223C38.5688 25.8857 38.0386 26.4217 38.0386 27.0834V67.8665C41.6695 66.3022 45.3936 64.3992 49.1059 62.0843Z" fill="#2980BA"/>
<path d="M41.7811 27.0834C41.7811 26.4217 42.3114 25.8857 42.9656 25.8857H39.223C38.5688 25.8857 38.0386 26.4217 38.0386 27.0834V67.8665C39.2765 67.3329 40.5257 66.7592 41.7811 66.1442V27.0834Z" fill="#285680"/>
<path d="M60.0488 53.7675V15.1977C60.0488 14.5364 59.5185 14 58.8643 14H50.1659C49.5117 14 48.9814 14.5364 48.9814 15.1977V62.0851C52.7188 59.7545 56.4439 57.0072 60.0488 53.7675Z" fill="#2980BA"/>
<path d="M52.724 15.1977C52.724 14.5364 53.2543 14 53.9089 14H50.1659C49.5117 14 48.9814 14.5364 48.9814 15.1977V62.0851C50.2316 61.3056 51.4809 60.4778 52.724 59.6022V15.1977Z" fill="#285680"/>
<path d="M76.5819 41.2373H64.2303C63.8613 41.2373 63.6731 41.681 63.9295 41.9464L67.2846 45.4174C67.435 45.5735 67.4421 45.8195 67.3002 45.9831C50.4176 65.4655 28.7058 71.6125 15.5024 73.5254C15.2138 73.567 15 73.8148 15 74.1067C15 74.4392 15.2758 74.707 15.6083 74.6951C49.1082 73.5008 69.882 54.3788 72.5011 51.8363C72.6605 51.6816 72.9126 51.6793 73.0763 51.8306L76.2971 54.8192C76.5648 55.068 77 54.8779 77 54.5127V41.6555C77 41.4246 76.8127 41.2373 76.5819 41.2373Z" fill="#788181"/>
<path d="M20.4445 74.1067C20.4445 73.8148 20.6583 73.5675 20.9468 73.5254C34.1503 71.6125 55.8621 65.4655 72.7447 45.9831C72.8866 45.8195 72.8795 45.5735 72.7291 45.4179L69.3744 41.9464C69.1176 41.681 69.3058 41.2373 69.6753 41.2373H64.2303C63.8613 41.2373 63.6731 41.681 63.9295 41.9464L67.2846 45.4179C67.435 45.5735 67.4421 45.8195 67.3002 45.9831C50.4176 65.4655 28.7058 71.6125 15.5024 73.5254C15.2138 73.567 15 73.8148 15 74.1067C15 74.4392 15.2758 74.707 15.6083 74.6951C17.2771 74.6355 18.9128 74.5301 20.5178 74.3858C20.4729 74.3025 20.4445 74.2084 20.4445 74.1067Z" fill="#018C81"/>
<path d="M20.4445 74.1057C20.4445 73.8139 20.6583 73.5665 20.9468 73.5244C34.1503 71.6115 55.8621 65.4645 72.7447 45.9822C72.8866 45.8185 72.8795 45.5725 72.7291 45.4169L69.3744 41.9454C69.1176 41.68 69.3058 41.2363 69.6753 41.2363H64.2303C63.8613 41.2363 63.6731 41.68 63.9295 41.9454L67.2846 45.4169C67.435 45.5725 67.4421 45.8185 67.3002 45.9822C50.4176 65.4645 28.7058 71.6115 15.5024 73.5244C15.2138 73.566 15 73.8139 15 74.1057C15 74.4383 15.2758 74.706 15.6083 74.6942C17.2771 74.6346 18.9128 74.5291 20.5178 74.3848C20.4729 74.3016 20.4445 74.2074 20.4445 74.1057Z" fill="#95A5A5"/>
<path d="M22.3843 68.536L19.6543 59.5879L25.4741 57.8123L25.8886 59.1712L21.6898 60.4522L22.431 62.8814L26.3283 61.6924L26.7429 63.0512L22.8455 64.2403L23.5907 66.6826L27.8244 65.391L28.239 66.7498L22.3843 68.536Z" fill="#F8F9FC"/>
<path d="M33.0849 64.9792L31.4178 65.6814L30.8219 55.7812L32.7501 54.9691L39.4208 62.3108L37.7537 63.0129L32.5644 57.1291L32.497 57.1575L33.0849 64.9792ZM31.7159 61.5757L36.2626 59.6608L36.7909 60.9153L32.2443 62.8302L31.7159 61.5757Z" fill="#F8F9FC"/>
<path d="M42.9203 60.5603L38.0459 52.5752L41.0403 50.7473C41.6537 50.3728 42.2335 50.1652 42.7795 50.1245C43.3281 50.0822 43.8264 50.1883 44.2743 50.4429C44.7233 50.6933 45.1033 51.0733 45.4143 51.5827C45.7269 52.0948 45.889 52.6059 45.9008 53.1161C45.9135 53.6221 45.772 54.1063 45.4763 54.5687C45.179 55.0285 44.7236 55.4456 44.1101 55.8201L41.9774 57.122L41.2443 55.9211L43.1821 54.7382C43.5408 54.5192 43.8044 54.2905 43.9729 54.0521C44.1397 53.8111 44.219 53.5611 44.2108 53.3021C44.2035 53.039 44.1135 52.7657 43.9405 52.4824C43.7675 52.1991 43.5641 51.9914 43.3302 51.8595C43.0946 51.725 42.8307 51.6756 42.5385 51.7112C42.2447 51.7443 41.9172 51.8711 41.5559 52.0916L40.2302 52.9009L44.3668 59.6773L42.9203 60.5603ZM44.8367 54.4239L49.0222 56.8355L47.408 57.8208L43.2576 55.3879L44.8367 54.4239Z" fill="#F8F9FC"/>
<path d="M52.9201 42.9633L58.2862 50.6266L57.0514 51.4912L49.7854 48.7998L49.7218 48.8444L53.3769 54.0642L51.9887 55.0363L46.6226 47.373L47.8648 46.5031L55.1298 49.2009L55.1971 49.1537L51.5393 43.9301L52.9201 42.9633Z" fill="#F8F9FC"/>
</svg>
