<svg width="18" height="17" viewBox="0 0 18 17" fill="none" xmlns="http://www.w3.org/2000/svg">
<path d="M2.33333 1.33331V0.583313H1.58333V1.33331H2.33333ZM15.6667 1.33331H16.4167V0.583313H15.6667V1.33331ZM4.303 7.46965C4.01011 7.76254 4.01011 8.23742 4.303 8.53031C4.5959 8.8232 5.07077 8.8232 5.36366 8.53031L4.303 7.46965ZM7.33333 5.49998L7.86366 4.96965C7.72301 4.829 7.53225 4.74998 7.33333 4.74998C7.13442 4.74998 6.94366 4.829 6.803 4.96965L7.33333 5.49998ZM9.83333 7.99998L9.303 8.53031C9.44365 8.67096 9.63442 8.74998 9.83333 8.74998C10.0322 8.74998 10.223 8.67096 10.3637 8.53031L9.83333 7.99998ZM13.697 5.19698C13.9899 4.90408 13.9899 4.42921 13.697 4.13632C13.4041 3.84342 12.9292 3.84342 12.6363 4.13632L13.697 5.19698ZM5.13634 14.9697C4.84344 15.2625 4.84344 15.7374 5.13634 16.0303C5.42923 16.3232 5.9041 16.3232 6.197 16.0303L5.13634 14.9697ZM9 12.1666L9.53033 11.6363C9.38968 11.4957 9.19891 11.4166 9 11.4166C8.80109 11.4166 8.61032 11.4957 8.46967 11.6363L9 12.1666ZM11.803 16.0303C12.0959 16.3232 12.5708 16.3232 12.8637 16.0303C13.1566 15.7374 13.1566 15.2625 12.8637 14.9697L11.803 16.0303ZM1.5 0.583313C1.08579 0.583313 0.75 0.919099 0.75 1.33331C0.75 1.74753 1.08579 2.08331 1.5 2.08331V0.583313ZM16.5 2.08331C16.9142 2.08331 17.25 1.74753 17.25 1.33331C17.25 0.919099 16.9142 0.583313 16.5 0.583313V2.08331ZM2.33333 2.08331H15.6667V0.583313H2.33333V2.08331ZM14.9167 1.33331V11.3333H16.4167V1.33331H14.9167ZM14.8333 11.4166H3.16667V12.9166H14.8333V11.4166ZM3.08333 11.3333V1.33331H1.58333V11.3333H3.08333ZM3.16667 11.4166C3.12064 11.4166 3.08333 11.3793 3.08333 11.3333H1.58333C1.58333 12.2078 2.29222 12.9166 3.16667 12.9166V11.4166ZM14.9167 11.3333C14.9167 11.3793 14.8794 11.4166 14.8333 11.4166V12.9166C15.7078 12.9166 16.4167 12.2078 16.4167 11.3333H14.9167ZM5.36366 8.53031L7.86366 6.03031L6.803 4.96965L4.303 7.46965L5.36366 8.53031ZM6.803 6.03031L9.303 8.53031L10.3637 7.46965L7.86366 4.96965L6.803 6.03031ZM10.3637 8.53031L13.697 5.19698L12.6363 4.13632L9.303 7.46965L10.3637 8.53031ZM6.197 16.0303L9.53033 12.697L8.46967 11.6363L5.13634 14.9697L6.197 16.0303ZM8.46967 12.697L11.803 16.0303L12.8637 14.9697L9.53033 11.6363L8.46967 12.697ZM1.5 2.08331H16.5V0.583313H1.5V2.08331Z" fill="#184376"/>
</svg>
