<svg width="18" height="16" viewBox="0 0 18 16" fill="none" xmlns="http://www.w3.org/2000/svg">
<path d="M15.19 10.8568C14.9573 10.6241 14.661 10.4655 14.3383 10.401L12.3487 10.0031C11.2584 9.78503 10.1266 9.93661 9.13208 10.4339L8.86759 10.5661C7.8731 11.0633 6.74123 11.2149 5.65094 10.9969L4.04115 10.6749C3.49472 10.5656 2.92982 10.7367 2.53578 11.1307M5.6665 1.33331H12.3332L11.4998 2.16665V6.47629C11.4998 6.91832 11.6754 7.34224 11.988 7.6548L16.1547 11.8215C17.2046 12.8714 16.461 14.6666 14.9761 14.6666H3.02352C1.53868 14.6666 0.795071 12.8714 1.84501 11.8215L6.01168 7.6548C6.32424 7.34224 6.49983 6.91832 6.49983 6.47629V2.16665L5.6665 1.33331Z" stroke="#184376" stroke-width="1.5" stroke-linecap="round" stroke-linejoin="round"/>
</svg>
