<svg width="88" height="88" viewBox="0 0 88 88" fill="none" xmlns="http://www.w3.org/2000/svg">
<rect width="88" height="88" rx="8" fill="#F8F9FC"/>
<path d="M13.4292 30.6367H16.9559V37.6902H13.4292V30.6367Z" fill="#2980BA"/>
<path d="M16.9559 35.9268V37.6902H13.4292V30.6367H15.1926V34.1635C15.1926 35.1392 15.9802 35.9268 16.9559 35.9268Z" fill="#285680"/>
<path d="M66.3916 37.6133H69.9183V51.3555H66.3916V37.6133Z" fill="#2980BA"/>
<path d="M69.9183 47.9199V51.3555H66.3916V37.6133H68.155V44.4844C68.155 46.3854 68.9426 47.9199 69.9183 47.9199Z" fill="#285680"/>
<path d="M18.0461 28.0312H21.5729V36.866H18.0461V28.0312Z" fill="#2980BA"/>
<path d="M21.5729 35.2762V37.6912H18.0461V28.0312H19.8095V32.8612C19.8095 34.1975 20.5971 35.2762 21.5729 35.2762Z" fill="#285680"/>
<path d="M71.0088 37.6133H74.5355V51.3571H71.0088V37.6133Z" fill="#2980BA"/>
<path d="M74.5355 48.8838V52.6406H71.0088V37.6133H72.7722V45.127C72.7722 47.2057 73.5598 48.8838 74.5355 48.8838Z" fill="#285680"/>
<path d="M22.6626 24.4922H26.1893V37.6902H22.6626V24.4922Z" fill="#2980BA"/>
<path d="M26.1893 34.3907V37.6902H22.6626V24.4922H24.426V31.0912C24.426 32.9169 25.2136 34.3907 26.1893 34.3907Z" fill="#285680"/>
<path d="M33.6603 34.995C33.3358 34.995 33.0725 34.4961 33.0725 33.8787V24.9483C33.0725 24.331 33.3358 23.832 33.6603 23.832C33.9848 23.832 34.2481 24.331 34.2481 24.9483V33.8787C34.2481 34.4961 33.9848 34.995 33.6603 34.995Z" fill="#285680"/>
<path d="M31.8967 23.832H35.4235V37.6931H31.8967V23.832Z" fill="#2980BA"/>
<path d="M35.4235 34.2278V37.6931H31.8967V23.832H33.6601V30.7626C33.6601 32.68 34.4477 34.2278 35.4235 34.2278Z" fill="#285680"/>
<path d="M61.3643 37.6133H64.891V47.2734H61.3643V37.6133Z" fill="#2980BA"/>
<path d="M64.891 44.8584V47.2734H61.3643V37.6133H63.1276V42.4434C63.1276 43.7797 63.9153 44.8584 64.891 44.8584Z" fill="#285680"/>
<path d="M27.2798 20.3672H30.8065V34.4837H27.2798V20.3672Z" fill="#2980BA"/>
<path d="M30.8065 33.3603V37.6914H27.2798V20.3672H29.0432V29.0293C29.0432 31.4258 29.8308 33.3603 30.8065 33.3603Z" fill="#285680"/>
<path d="M36.5134 26.3086H40.0402V37.574H36.5134V26.3086Z" fill="#2980BA"/>
<path d="M40.0402 34.8464V37.6923H36.5134V26.3086H38.2768V32.0004C38.2768 33.5752 39.0644 34.8464 40.0402 34.8464Z" fill="#285680"/>
<path d="M56.7471 37.6133H60.2738V45.1289H56.7471V37.6133Z" fill="#2980BA"/>
<path d="M60.2738 43.25V45.1289H56.7471V37.6133H58.5104V41.3711C58.5104 42.4108 59.2981 43.25 60.2738 43.25Z" fill="#285680"/>
<line x1="12.449" y1="37.9104" x2="75.5508" y2="37.9104" stroke="#285680" stroke-width="0.679166" stroke-linecap="round"/>
<path d="M20.1477 63.1903H22.7273L26.1818 71.6222H26.3182L29.7727 63.1903H32.3523V74.8267H30.3295V66.8324H30.2216L27.0057 74.7926H25.4943L22.2784 66.8153H22.1704V74.8267H20.1477V63.1903Z" fill="#018C81"/>
<path d="M36.142 74.8267H33.892L37.9886 63.1903H40.5909L44.6932 74.8267H42.4432L39.3352 65.5767H39.2443L36.142 74.8267ZM36.2159 70.2642H42.3522V71.9574H36.2159V70.2642Z" fill="#018C81"/>
<path d="M55.6392 67.1165H53.5142C53.4536 66.768 53.3418 66.4593 53.179 66.1903C53.0161 65.9176 52.8134 65.6866 52.571 65.4972C52.3286 65.3078 52.0521 65.1657 51.7415 65.071C51.4346 64.9725 51.1032 64.9233 50.7471 64.9233C50.1146 64.9233 49.554 65.0824 49.0653 65.4006C48.5767 65.715 48.1941 66.1771 47.9176 66.7869C47.6411 67.393 47.5028 68.1335 47.5028 69.0085C47.5028 69.8987 47.6411 70.6487 47.9176 71.2585C48.1979 71.8646 48.5805 72.3229 49.0653 72.6335C49.554 72.9403 50.1127 73.0938 50.7415 73.0938C51.0899 73.0938 51.4157 73.0483 51.7187 72.9574C52.0255 72.8627 52.3002 72.7244 52.5426 72.5426C52.7888 72.3608 52.9952 72.1373 53.1619 71.8722C53.3324 71.607 53.4498 71.304 53.5142 70.9631L55.6392 70.9744C55.5596 71.5275 55.3873 72.0464 55.1221 72.5313C54.8608 73.0161 54.518 73.4441 54.0937 73.8153C53.6695 74.1828 53.1733 74.4706 52.6051 74.679C52.0369 74.8835 51.4062 74.9858 50.713 74.9858C49.6903 74.9858 48.7774 74.7491 47.9744 74.2756C47.1714 73.8021 46.5388 73.1184 46.0767 72.2244C45.6146 71.3305 45.3835 70.2585 45.3835 69.0085C45.3835 67.7547 45.6165 66.6828 46.0824 65.7926C46.5483 64.8987 47.1827 64.215 47.9858 63.7415C48.7888 63.268 49.6979 63.0312 50.713 63.0312C51.3608 63.0312 51.963 63.1222 52.5199 63.304C53.0767 63.4858 53.5729 63.7528 54.0085 64.1051C54.4441 64.4536 54.8021 64.8816 55.0824 65.3892C55.3665 65.893 55.5521 66.4688 55.6392 67.1165Z" fill="#018C81"/>
<path d="M61.5128 74.8267H57.5696V63.1903H61.5923C62.7476 63.1903 63.74 63.4233 64.5696 63.8892C65.4029 64.3513 66.0431 65.0161 66.49 65.8835C66.937 66.7509 67.1605 67.7888 67.1605 68.9972C67.1605 70.2093 66.9351 71.2509 66.4844 72.1222C66.0374 72.9934 65.3915 73.6619 64.5469 74.1278C63.7059 74.5938 62.6946 74.8267 61.5128 74.8267ZM59.6775 73.0028H61.4105C62.2211 73.0028 62.8972 72.8551 63.4389 72.5597C63.9806 72.2604 64.3878 71.8153 64.6605 71.2244C64.9332 70.6297 65.0696 69.8873 65.0696 68.9972C65.0696 68.107 64.9332 67.3684 64.6605 66.7812C64.3878 66.1903 63.9844 65.7491 63.4503 65.4574C62.92 65.1619 62.2609 65.0142 61.473 65.0142H59.6775V73.0028Z" fill="#018C81"/>
<path d="M12.0708 25.7297C18.4457 21.2022 22.6216 12.5555 34.8424 14.9564C49.8801 17.9107 44.7324 59.7195 75.0634 57.9988" stroke="#95A5A5" stroke-linecap="round"/>
<path d="M11.1582 23.5427C12.5583 22.6293 18.6656 14.4626 32.2738 17.137C47.701 20.1689 40.5682 56.0763 74.4026 55.8161" stroke="#788181" stroke-linecap="round"/>
</svg>
