<svg width="88" height="88" viewBox="0 0 88 88" fill="none" xmlns="http://www.w3.org/2000/svg">
<rect width="88" height="88" rx="8" fill="#F8F9FC"/>
<path d="M10.825 56.4883H14.0343V70.1492H10.825V56.4883Z" fill="#2980BA"/>
<path d="M14.0343 66.734V70.1492H10.825V56.4883H12.4296V63.3188C12.4296 65.2085 13.1464 66.734 14.0343 66.734Z" fill="#285680"/>
<path d="M15.0342 58.7734H18.2436V73.096H15.0342V58.7734Z" fill="#2980BA"/>
<path d="M18.2436 70.5186V74.4336H15.0342V58.7734H16.6389V66.6035C16.6389 68.7698 17.3556 70.5186 18.2436 70.5186Z" fill="#285680"/>
<path d="M19.2437 60H22.453V69.1492H19.2437V60Z" fill="#2980BA"/>
<path d="M22.453 66.8619V69.1492H19.2437V60H20.8483V64.5746C20.8483 65.8403 21.5651 66.8619 22.453 66.8619Z" fill="#285680"/>
<path d="M23.4531 57H26.6625V63.4188H23.4531V57Z" fill="#2980BA"/>
<path d="M26.6625 62.908V64.8773H23.4531V57H25.0578V60.9386C25.0578 62.0283 25.7746 62.908 26.6625 62.908Z" fill="#285680"/>
<path d="M29.2673 64.9662C28.9721 64.9662 28.7324 64.7271 28.7324 64.4313V60.1521C28.7324 59.8563 28.9721 59.6172 29.2673 59.6172C29.5626 59.6172 29.8022 59.8563 29.8022 60.1521V64.4313C29.8022 64.7271 29.5626 64.9662 29.2673 64.9662Z" fill="#285680"/>
<path d="M27.6626 59.6172H30.872V66.259H27.6626V59.6172Z" fill="#2980BA"/>
<path d="M30.872 64.5985V66.259H27.6626V59.6172H29.2673V62.9381C29.2673 63.8569 29.984 64.5985 30.872 64.5985Z" fill="#285680"/>
<path d="M31.8721 52.875H35.0814V63.3316H31.8721V52.875Z" fill="#2980BA"/>
<path d="M35.0814 60.7998V63.4414H31.8721V52.875H33.4768V58.1582C33.4768 59.6199 34.1935 60.7998 35.0814 60.7998Z" fill="#285680"/>
<path d="M39.0813 33.7812H42.2907V53.8516H39.0813V33.7812Z" fill="#2980BA"/>
<path d="M42.2907 48.834V53.8516H39.0813V33.7812H40.686V43.8164C40.686 46.5928 41.4027 48.834 42.2907 48.834Z" fill="#285680"/>
<path d="M44.2905 15.7969H47.4999V34.4333H44.2905V15.7969Z" fill="#2980BA"/>
<path d="M47.4999 29.7742V34.4333H44.2905V15.7969H45.8952V25.1151C45.8952 27.6931 46.612 29.7742 47.4999 29.7742Z" fill="#285680"/>
<path d="M48.7095 6.73047H51.9189V26.9688H48.7095V6.73047Z" fill="#2980BA"/>
<path d="M51.9189 21.9092V26.9688H48.7095V6.73047H50.3142V16.8496C50.3142 19.6492 51.0309 21.9092 51.9189 21.9092Z" fill="#285680"/>
<path d="M52.9189 16.543H56.1283V24.5828H52.9189V16.543Z" fill="#2980BA"/>
<path d="M56.1283 23.136V25.3336H52.9189V16.543H54.5236V20.9383C54.5236 22.1543 55.2404 23.136 56.1283 23.136Z" fill="#285680"/>
<path d="M57.1282 17.7305H60.3376V32.1484H57.1282V17.7305Z" fill="#2980BA"/>
<path d="M60.3376 28.5439V32.1484H57.1282V17.7305H58.7329V24.9395C58.7329 26.9339 59.4496 28.5439 60.3376 28.5439Z" fill="#285680"/>
<path d="M61.3374 20H64.5468V28.0484H61.3374V20Z" fill="#2980BA"/>
<path d="M64.5468 27.408V29.8773H61.3374V20H62.9421V24.9386C62.9421 26.305 63.6589 27.408 64.5468 27.408Z" fill="#285680"/>
<path d="M65.5469 17H68.7563V23.4188H65.5469V17Z" fill="#2980BA"/>
<path d="M68.7563 22.908V24.8773H65.5469V17H67.1516V20.9386C67.1516 22.0283 67.8683 22.908 68.7563 22.908Z" fill="#285680"/>
<path d="M69.7563 19.7305H72.9657V26.1492H69.7563V19.7305Z" fill="#2980BA"/>
<path d="M72.9657 24.5445V26.1492H69.7563V19.7305H71.361V22.9398C71.361 23.8278 72.0778 24.5445 72.9657 24.5445Z" fill="#285680"/>
<path d="M73.9658 25.7305H77.1752V32.1492H73.9658V25.7305Z" fill="#2980BA"/>
<path d="M77.1752 30.5445V32.1492H73.9658V25.7305H75.5705V28.9398C75.5705 29.8278 76.2873 30.5445 77.1752 30.5445Z" fill="#285680"/>
<line x1="10.9773" y1="43.5" x2="77.0228" y2="43.5" stroke="#95A5A5" stroke-linecap="round"/>
<path d="M33.0694 41.5528C33.0727 41.829 33.2992 42.0501 33.5753 42.0468C33.8514 42.0435 34.0726 41.817 34.0693 41.5409L33.0694 41.5528ZM33.4766 33.7813L30.6497 38.8154L36.4228 38.7464L33.4766 33.7813ZM34.0693 41.5409L34.0303 38.275L33.0304 38.2869L33.0694 41.5528L34.0693 41.5409Z" fill="#788181"/>
<line x1="10.9773" y1="77.5039" x2="77.0228" y2="77.5039" stroke="#788181" stroke-linecap="round"/>
</svg>
