<svg width="88" height="88" viewBox="0 0 88 88" fill="none" xmlns="http://www.w3.org/2000/svg">
<rect width="88" height="88" rx="8" fill="#F8F9FC"/>
<path d="M23.3288 52.4095V70.1653H19.3831V52.2812L23.3288 52.4095Z" fill="#788181"/>
<path d="M23.3289 52.4095V70.1653H20.4956V52.2812L23.3289 52.4095Z" fill="#95A5A5"/>
<path d="M68.7045 52.2812V70.1653H64.7588V52.4095L68.7045 52.2812Z" fill="#788181"/>
<path d="M68.7045 52.2812V70.1653H65.5789V52.4095L68.7045 52.2812Z" fill="#95A5A5"/>
<path d="M31.6147 36.627L27.6689 46.4913L27.2744 47.4777V48.4642C27.2744 50.6433 25.5078 52.4099 23.3286 52.4099H20.3693C19.3224 52.4112 18.3181 51.9959 17.5778 51.2557C16.8376 50.5154 16.4223 49.511 16.4236 48.4642C16.4253 47.8209 16.6101 47.1913 16.9563 46.6491L21.8786 38.9155C22.7779 37.49 24.346 36.6259 26.0314 36.627L31.6147 36.627Z" fill="#184376"/>
<path d="M31.6146 36.627L27.6689 46.4913L27.2743 47.4777V48.4642C27.2743 50.6433 25.5077 52.4099 23.3286 52.4099H20.3693C20.1715 52.4099 19.9916 52.3229 19.2514 51.5826C18.5111 50.8424 17.9092 50.3424 17.9105 49.2955C17.9122 48.6522 17.9587 47.682 18.3049 47.1398L22.9844 39.1741C23.8837 37.7486 25.1664 36.627 26.0314 36.627L31.6146 36.627Z" fill="#2980BA"/>
<path d="M38.1252 36.627V48.4642C38.1252 50.6433 36.3586 52.4099 34.1794 52.4099H31.2201C29.041 52.4099 27.2744 50.6433 27.2744 48.4642V47.4777L31.6147 36.627H38.1252Z" fill="#ECF0F1"/>
<path d="M49.9624 36.627V48.4642C49.9624 50.6433 48.1959 52.4099 46.0167 52.4099H42.071C39.8918 52.4099 38.1252 50.6433 38.1252 48.4642V36.627H49.9624Z" fill="#2980BA"/>
<path d="M60.8132 47.4777V48.4642C60.8132 50.6433 59.0466 52.4099 56.8674 52.4099H53.9081C51.729 52.4099 49.9624 50.6433 49.9624 48.4642V36.627H56.4729L60.8132 47.4777Z" fill="#ECF0F1"/>
<path d="M71.664 48.4642C71.664 50.6433 69.8974 52.4099 67.7182 52.4099H64.7589C63.7121 52.4112 62.7077 51.9959 61.9674 51.2557C61.2272 50.5154 60.8119 49.511 60.8132 48.4642V47.4777L60.4186 46.4913L56.4729 36.627L62.0561 36.627C63.7416 36.6259 65.3097 37.49 66.209 38.9155L71.1313 46.6491C71.4775 47.1913 71.6623 47.8209 71.664 48.4642Z" fill="#2980BA"/>
<path d="M60.8132 47.4786V48.4651H49.9624V46.4922H60.4186L60.8132 47.4786Z" fill="#D7DADC"/>
<path d="M38.1252 46.4922V48.4651H27.2744V47.4786L27.669 46.4922H38.1252Z" fill="#D7DADC"/>
<path d="M21.2587 46.4902H27.6691L27.3638 47.4767V48.4631H21.2587C20.8373 48.4631 20.4956 48.0215 20.4956 47.4767C20.4956 46.9319 20.8373 46.4902 21.2587 46.4902Z" fill="#184376"/>
<path d="M38.1252 46.4902H49.9624V48.4631H38.1252V46.4902Z" fill="#184376"/>
<path d="M68.7048 47.4767C68.7048 48.0215 68.3102 48.4631 67.8233 48.4631H60.7713V47.4767L60.4187 46.4902H67.8233C68.3102 46.4902 68.7048 46.9319 68.7048 47.4767Z" fill="#184376"/>
<path d="M70.6775 70.1641H17.4101C16.3205 70.1641 15.4373 71.0473 15.4373 72.1369C15.4373 73.2265 16.3205 74.1098 17.4101 74.1098H70.6775C71.7671 74.1098 72.6504 73.2265 72.6504 72.1369C72.6504 71.0473 71.7671 70.1641 70.6775 70.1641Z" fill="#788181"/>
<path d="M70.6776 70.1641H17.8607C17.598 70.1641 16.2058 70.2831 16.2058 71.931C16.2058 73.3254 17.905 74.1098 18.9946 74.1098H70.6776C71.7671 74.1098 72.6504 73.2265 72.6504 72.1369C72.6504 71.0473 71.7671 70.1641 70.6776 70.1641Z" fill="#95A5A5"/>
<path d="M17.4102 74.1113H70.6776V76.0842C70.6776 77.1738 69.7943 78.0571 68.7047 78.0571H19.383C18.2934 78.0571 17.4102 77.1738 17.4102 76.0842V74.1113Z" fill="#95A5A5"/>
<path d="M17.4102 75.1543H70.6776V76.6057C70.6776 77.4073 69.7943 78.0571 68.7047 78.0571H19.383C18.2934 78.0571 17.4102 77.4073 17.4102 76.6057V75.1543Z" fill="#788181"/>
<path d="M36.2697 69.0605H30.4539C29.9186 69.0605 29.4846 69.4945 29.4846 70.0298C29.4846 70.5652 29.9186 70.9991 30.4539 70.9991H36.2697C36.805 70.9991 37.239 70.5652 37.239 70.0298C37.239 69.4945 36.805 69.0605 36.2697 69.0605Z" fill="#ACCCE2"/>
<path d="M45.9628 69.0605H40.147C39.6117 69.0605 39.1777 69.4945 39.1777 70.0298C39.1777 70.5652 39.6117 70.9991 40.147 70.9991H45.9628C46.4982 70.9991 46.9321 70.5652 46.9321 70.0298C46.9321 69.4945 46.4982 69.0605 45.9628 69.0605Z" fill="#ACCCE2"/>
<path d="M45.9628 67.123H40.147C39.6117 67.123 39.1777 67.557 39.1777 68.0923C39.1777 68.6277 39.6117 69.0616 40.147 69.0616H45.9628C46.4982 69.0616 46.9321 68.6277 46.9321 68.0923C46.9321 67.557 46.4982 67.123 45.9628 67.123Z" fill="#184376"/>
<path d="M45.9628 65.1836H40.147C39.6117 65.1836 39.1777 65.6176 39.1777 66.1529C39.1777 66.6882 39.6117 67.1222 40.147 67.1222H45.9628C46.4982 67.1222 46.9321 66.6882 46.9321 66.1529C46.9321 65.6176 46.4982 65.1836 45.9628 65.1836Z" fill="#ACCCE2"/>
<path d="M55.6557 69.0605H49.8399C49.3046 69.0605 48.8706 69.4945 48.8706 70.0298C48.8706 70.5652 49.3046 70.9991 49.8399 70.9991H55.6557C56.191 70.9991 56.625 70.5652 56.625 70.0298C56.625 69.4945 56.191 69.0605 55.6557 69.0605Z" fill="#ACCCE2"/>
<path d="M43.0547 65.1846C45.4637 65.1846 47.4166 63.2318 47.4166 60.8228C47.4166 58.4138 45.4637 56.4609 43.0547 56.4609C40.6457 56.4609 38.6929 58.4138 38.6929 60.8228C38.6929 63.2318 40.6457 65.1846 43.0547 65.1846Z" fill="#184376"/>
<path d="M55.6557 67.123H49.8399C49.3046 67.123 48.8706 67.557 48.8706 68.0923C48.8706 68.6277 49.3046 69.0616 49.8399 69.0616H55.6557C56.191 69.0616 56.625 68.6277 56.625 68.0923C56.625 67.557 56.191 67.123 55.6557 67.123Z" fill="#184376"/>
<path d="M55.6557 65.1836H49.8399C49.3046 65.1836 48.8706 65.6176 48.8706 66.1529C48.8706 66.6882 49.3046 67.1222 49.8399 67.1222H55.6557C56.191 67.1222 56.625 66.6882 56.625 66.1529C56.625 65.6176 56.191 65.1836 55.6557 65.1836Z" fill="#ACCCE2"/>
<path d="M55.6557 63.2461H49.8399C49.3046 63.2461 48.8706 63.6801 48.8706 64.2154C48.8706 64.7507 49.3046 65.1847 49.8399 65.1847H55.6557C56.191 65.1847 56.625 64.7507 56.625 64.2154C56.625 63.6801 56.191 63.2461 55.6557 63.2461Z" fill="#184376"/>
<path d="M55.6557 61.3066H49.8399C49.3046 61.3066 48.8706 61.7406 48.8706 62.2759C48.8706 62.8113 49.3046 63.2452 49.8399 63.2452H55.6557C56.191 63.2452 56.625 62.8113 56.625 62.2759C56.625 61.7406 56.191 61.3066 55.6557 61.3066Z" fill="#ACCCE2"/>
<path d="M52.7478 61.3077C55.1568 61.3077 57.1097 59.3548 57.1097 56.9458C57.1097 54.5368 55.1568 52.584 52.7478 52.584C50.3389 52.584 48.386 54.5368 48.386 56.9458C48.386 59.3548 50.3389 61.3077 52.7478 61.3077Z" fill="#184376"/>
<path d="M33.3618 69.0616C35.7708 69.0616 37.7237 67.1087 37.7237 64.6997C37.7237 62.2908 35.7708 60.3379 33.3618 60.3379C30.9529 60.3379 29 62.2908 29 64.6997C29 67.1087 30.9529 69.0616 33.3618 69.0616Z" fill="#184376"/>
<path fill-rule="evenodd" clip-rule="evenodd" d="M43.0548 60.3354C42.8196 60.3351 42.6186 60.1661 42.5779 59.9346C42.5372 59.703 42.6686 59.4756 42.8896 59.3952C43.1106 59.3149 43.3574 59.4047 43.475 59.6084C43.5587 59.7639 43.7204 59.8616 43.897 59.8633C44.0736 59.8651 44.2372 59.7706 44.3239 59.6167C44.4107 59.4628 44.4068 59.2739 44.3139 59.1237C44.1382 58.8289 43.8638 58.6057 43.5394 58.4937V58.3968C43.5394 58.1291 43.3224 57.9121 43.0548 57.9121C42.7871 57.9121 42.5701 58.1291 42.5701 58.3968V58.4859C41.903 58.7209 41.5026 59.4028 41.6224 60.0999C41.7423 60.797 42.3474 61.306 43.0548 61.3047C43.2899 61.3049 43.4909 61.4739 43.5316 61.7055C43.5723 61.937 43.4409 62.1644 43.2199 62.2448C42.9989 62.3251 42.7521 62.2353 42.6346 62.0316C42.4967 61.8088 42.2068 61.7359 41.98 61.867C41.7531 61.998 41.6715 62.2856 41.7956 62.5163C41.9716 62.8113 42.2463 63.0345 42.5711 63.1463V63.2433C42.5711 63.5109 42.7881 63.7279 43.0557 63.7279C43.3234 63.7279 43.5404 63.5109 43.5404 63.2433V63.1541C44.2077 62.919 44.6081 62.2369 44.488 61.5396C44.3679 60.8424 43.7623 60.3335 43.0548 60.3354Z" fill="#EDF4FB"/>
<path fill-rule="evenodd" clip-rule="evenodd" d="M54.2018 57.9124C54.2018 57.1094 53.5509 56.4584 52.7479 56.4584C52.5127 56.4582 52.3117 56.2892 52.271 56.0576C52.2303 55.826 52.3618 55.5986 52.5827 55.5183C52.8037 55.4379 53.0505 55.5278 53.1681 55.7314C53.3059 55.9542 53.5958 56.0271 53.8227 55.8961C54.0495 55.7651 54.1311 55.4775 54.007 55.2468C53.8315 54.9517 53.5571 54.7285 53.2325 54.6167V54.5198C53.2325 54.2521 53.0155 54.0352 52.7479 54.0352C52.4802 54.0352 52.2632 54.2521 52.2632 54.5198V54.609C51.5961 54.844 51.1957 55.5259 51.3155 56.2229C51.4354 56.92 52.0406 57.429 52.7479 57.4277C52.983 57.4279 53.1841 57.5969 53.2247 57.8285C53.2654 58.0601 53.134 58.2875 52.913 58.3678C52.692 58.4482 52.4453 58.3583 52.3277 58.1547C52.1899 57.9319 51.8999 57.859 51.6731 57.99C51.4463 58.121 51.3646 58.4086 51.4888 58.6393C51.6645 58.9345 51.9393 59.1578 52.2642 59.2694V59.3663C52.2642 59.634 52.4812 59.8509 52.7488 59.8509C53.0165 59.8509 53.2335 59.634 53.2335 59.3663V59.2771C53.812 59.0722 54.1994 58.526 54.2018 57.9124Z" fill="#EDF4FB"/>
<path fill-rule="evenodd" clip-rule="evenodd" d="M33.3619 64.2123C33.1268 64.2121 32.9257 64.0431 32.885 63.8115C32.8443 63.5799 32.9758 63.3525 33.1967 63.2722C33.4177 63.1918 33.6645 63.2817 33.7821 63.4853C33.8658 63.6409 34.0275 63.7386 34.2041 63.7403C34.3807 63.742 34.5443 63.6475 34.6311 63.4936C34.7178 63.3398 34.7139 63.1509 34.621 63.0007C34.4453 62.7058 34.171 62.4827 33.8465 62.3706V62.2737C33.8465 62.006 33.6296 61.7891 33.3619 61.7891C33.0942 61.7891 32.8772 62.006 32.8772 62.2737V62.3629C32.2101 62.5979 31.8097 63.2798 31.9296 63.9769C32.0494 64.6739 32.6546 65.1829 33.3619 65.1816C33.597 65.1818 33.7981 65.3508 33.8388 65.5824C33.8794 65.814 33.748 66.0414 33.527 66.1217C33.306 66.2021 33.0593 66.1122 32.9417 65.9086C32.858 65.753 32.6963 65.6554 32.5197 65.6536C32.343 65.6519 32.1795 65.7464 32.0927 65.9003C32.006 66.0541 32.0098 66.243 32.1028 66.3932C32.2787 66.6883 32.5534 66.9115 32.8782 67.0233V67.1202C32.8782 67.3879 33.0952 67.6049 33.3629 67.6049C33.6305 67.6049 33.8475 67.3879 33.8475 67.1202V67.031C34.5148 66.796 34.9152 66.1138 34.7951 65.4166C34.675 64.7194 34.0694 64.2105 33.3619 64.2123Z" fill="#EDF4FB"/>
<path fill-rule="evenodd" clip-rule="evenodd" d="M61.4165 14.8766L61.112 18.8008C61.0879 19.1313 60.8731 19.4174 60.5625 19.5329C60.2519 19.6483 59.9024 19.572 59.6683 19.3374L58.785 18.4536L52.9115 24.3349C51.959 25.2854 50.4168 25.2854 49.4643 24.3349L46.7456 21.6151C46.5078 21.3773 46.1222 21.3773 45.8843 21.6151L36.9474 30.5556C36.4903 31.0132 35.8702 31.2703 35.2235 31.2703C34.5768 31.2703 33.9566 31.0132 33.4995 30.5556L31.9992 29.0547C31.7614 28.8173 31.3763 28.8173 31.1385 29.0547L28.164 32.0243C27.6873 32.4931 26.9228 32.4931 26.4461 32.0243C26.2156 31.7979 26.0857 31.4883 26.0857 31.1651C26.0857 30.8419 26.2156 30.5323 26.4461 30.3059L29.8452 26.8995C30.3022 26.4421 30.9223 26.1852 31.5688 26.1852C32.2154 26.1852 32.8354 26.4421 33.2924 26.8995L35.2229 28.8311L44.5917 19.4617C45.0487 19.0044 45.6687 18.7474 46.3153 18.7474C46.9618 18.7474 47.5819 19.0044 48.0389 19.4617L50.7563 22.1785C50.8706 22.2929 51.0256 22.3572 51.1873 22.3572C51.349 22.3572 51.504 22.2929 51.6183 22.1785L57.0653 16.729L56.1821 15.8458C55.9485 15.6123 55.8726 15.2639 55.988 14.9544C56.1033 14.6449 56.3887 14.4312 56.7181 14.4075L60.6472 14.1011C60.8562 14.0875 61.0608 14.1651 61.2083 14.3138C61.3558 14.4625 61.4318 14.6677 61.4165 14.8766Z" fill="#018C81"/>
</svg>
