<svg width="88" height="88" viewBox="0 0 88 88" fill="none" xmlns="http://www.w3.org/2000/svg">
<rect width="88" height="88" rx="8" fill="#F8F9FC"/>
<path d="M28.2939 62.5151L22.4433 67.3491C21.2768 68.3125 19.5497 68.1484 18.5864 66.9819L14.6342 62.1987C13.6708 61.0322 13.8349 59.3057 15.0014 58.3418L20.852 53.5078L28.2939 62.5151Z" fill="#B4BCC0"/>
<path d="M27.6049 62.782C27.6049 62.782 33.6805 72.6526 43.5492 75.806C45.6293 76.4705 47.7469 75.3724 48.6405 73.2107C49.3353 71.5301 48.6722 69.5872 47.1981 68.5228C44.0003 66.2137 38.6463 61.7425 36.5668 56.4427C36.4794 56.3367 27.6049 62.782 27.6049 62.782Z" fill="#CFD8DC"/>
<path d="M39.6556 61.5657C38.3856 59.9925 37.2821 58.2669 36.5668 56.4427C36.4794 56.3372 27.6049 62.782 27.6049 62.782C27.6049 62.782 30.0873 66.8147 34.4554 70.5486C35.5448 65.2005 38.1258 62.6478 39.6556 61.5657Z" fill="#B4BCC0"/>
<path d="M18.3618 58.6029L22.8217 64.0014C24.2382 65.7157 26.7705 65.9726 28.4995 64.5736C32.2914 61.5053 40.1083 57.0629 53.4765 57.2148C56.6381 57.2504 59.0858 54.4408 58.6356 51.3114C58.0712 47.3866 56.2694 41.9462 51.2992 35.9306C46.3295 29.915 41.3276 27.1191 37.5795 25.8242C34.5912 24.7919 31.3705 26.666 30.8095 29.7773C28.4365 42.935 22.5991 49.7739 18.8706 52.9189C17.1709 54.3529 16.9453 56.8886 18.3618 58.6029Z" fill="#CFD8DC"/>
<path d="M39.4389 26.5546C38.7914 26.2695 38.1699 26.0283 37.5795 25.8242C34.5912 24.7919 31.3705 26.666 30.8095 29.7773C28.436 42.935 22.5991 49.7739 18.8706 52.9189C17.1709 54.3529 16.9453 56.8881 18.3618 58.6029L20.4648 61.1488C23.2915 57.1361 27.4111 54.1899 33.9496 46.4804C39.5756 39.8476 39.998 31.8701 39.4389 26.5546Z" fill="#B4BCC0"/>
<path d="M37.5795 25.8242C34.5912 24.7919 31.3705 26.666 30.8094 29.7773C30.8094 29.7773 37.8314 31.0527 45.6903 40.5654C53.5492 50.0781 53.4764 57.2143 53.4764 57.2143C56.6375 57.2504 59.0858 54.4408 58.6356 51.3114C58.0711 47.3866 56.2689 41.9462 51.2992 35.9306C46.3294 29.915 41.327 27.1191 37.5795 25.8242Z" fill="#2980BA"/>
<path d="M22.7768 48.8555C21.3833 50.6167 20.0258 51.9458 18.8706 52.9199C17.1709 54.354 16.9453 56.8896 18.3618 58.604L22.8217 64.0024C24.2382 65.7173 26.7705 65.9741 28.4995 64.5747C29.6743 63.6245 31.2353 62.5425 33.228 61.5054L22.7768 48.8555Z" fill="#018C81"/>
<path d="M34.6327 66.4058C35.5048 67.2261 36.8759 67.1836 37.6962 66.3115L40.8519 62.9541C39.8719 61.8833 38.9447 60.7241 38.1537 59.4961L34.538 63.3423C33.7181 64.2144 33.7606 65.5859 34.6327 66.4058Z" fill="#B4BCC0"/>
<path d="M40.5477 71.1504C41.4198 71.9702 42.7909 71.9277 43.6112 71.0557L46.4857 67.9976C45.475 67.2388 44.3148 66.3057 43.1381 65.2305L40.453 68.0864C39.6332 68.9585 39.6757 70.3301 40.5477 71.1504Z" fill="#B4BCC0"/>
<path d="M71.4691 42.4108L63.4076 44.1544C62.2826 44.3976 61.5683 45.5065 61.8114 46.631C62.0546 47.7555 63.1635 48.4703 64.288 48.2267L72.35 46.4835C73.4745 46.2403 74.1893 45.1315 73.9457 44.0069C73.7025 42.8824 72.5941 42.1676 71.4691 42.4108Z" fill="#2980BA"/>
<path d="M48.7415 14.9004L45.5086 22.4893C45.0575 23.5479 43.8338 24.0401 42.7752 23.5894C41.7171 23.1382 41.2245 21.9146 41.6756 20.856L44.9085 13.2671C45.3592 12.209 46.5828 11.7164 47.6414 12.167C48.7 12.6182 49.1922 13.8418 48.7415 14.9004Z" fill="#2980BA"/>
<path d="M39.6556 61.5649C39.12 60.9009 38.6136 60.2104 38.1537 59.4961L34.538 63.3423C33.7181 64.2144 33.7601 65.5859 34.6322 66.4058C34.9047 66.6616 35.2255 66.8335 35.5624 66.9224C36.8163 63.9712 38.5233 62.3652 39.6556 61.5649Z" fill="#A2AAAE"/>
<path d="M22.7768 48.8555C21.3833 50.6167 20.0258 51.9458 18.8706 52.9199C17.1709 54.354 16.9453 56.8896 18.3618 58.604L20.4648 61.1499C22.1269 58.7905 24.2363 56.7993 27.0209 53.9927L22.7768 48.8555Z" fill="#0A635C"/>
<path d="M30.8094 29.7778C30.8094 29.7778 34.4022 30.4311 39.3231 34.2822C39.7342 31.4374 39.6713 28.7661 39.4388 26.5546C38.7914 26.2695 38.1698 26.0283 37.5795 25.8242C34.5912 24.7919 31.3705 26.666 30.8094 29.7778Z" fill="#285680"/>
<path d="M68.0592 27.2906C66.3431 24.8496 62.961 24.2599 60.5201 25.976L59.2552 26.8654C58.4623 27.4228 57.3638 27.2314 56.8064 26.4386C56.249 25.6457 56.4405 24.5471 57.2333 23.9897L58.4983 23.1003C59.0778 22.693 59.8404 22.6721 60.4414 23.0471C61.2974 23.5813 62.4246 23.3199 62.9584 22.4643C63.4926 21.6083 63.2316 20.4814 62.3757 19.9473C60.8308 18.9833 58.9385 18.8697 57.3179 19.5894L56.5217 18.457C55.9413 17.6316 54.8019 17.4329 53.9764 18.0132C53.151 18.5936 52.9523 19.7331 53.5327 20.5585L54.3291 21.6913C52.5822 23.5205 52.3085 26.394 53.8174 28.5401C55.5335 30.981 58.9155 31.5706 61.3565 29.8544L62.6215 28.965C63.4143 28.4076 64.5128 28.5992 65.0702 29.3921C65.6276 30.1848 65.4361 31.2833 64.6433 31.8407L63.3783 32.7301C62.7809 33.1501 62.0019 33.1606 61.394 32.7568C60.5534 32.1988 59.4196 32.4275 58.8614 33.2682C58.3033 34.1088 58.5323 35.2425 59.3728 35.8007C60.9452 36.8448 62.8884 36.9891 64.5596 36.2422L65.355 37.3735C65.9354 38.199 67.0748 38.3977 67.9003 37.8173C68.7257 37.237 68.9244 36.0975 68.344 35.272L67.5476 34.1392C69.2945 32.3099 69.568 29.4366 68.0592 27.2906Z" fill="#018C81"/>
<path d="M60.0583 20.0084C60.9142 20.5425 61.1752 21.6694 60.6411 22.5254C60.5374 22.6916 60.4113 22.8353 60.2692 22.9551C60.3286 22.9835 60.3867 23.0153 60.4433 23.0507C61.2993 23.5849 62.4265 23.3235 62.9603 22.4679C63.4945 21.6119 63.2335 20.485 62.3776 19.9509C61.1117 19.1611 59.6127 18.9421 58.221 19.2847C58.8603 19.4088 59.4834 19.6497 60.0583 20.0084Z" fill="#0A635C"/>
<path d="M62.3373 25.1525C63.6671 25.4083 64.9032 26.1589 65.7417 27.3515C67.041 29.1994 67.0185 31.5868 65.8719 33.3823C65.5253 33.9248 65.5238 34.6179 65.8941 35.1445L66.0265 35.3329C66.5715 36.108 66.4295 37.1602 65.7264 37.7661C66.3732 38.2718 67.3126 38.2981 67.997 37.7494C68.7551 37.1415 68.8768 36.0304 68.3179 35.2355L67.5495 34.1426C69.2964 32.3134 69.57 29.44 68.0612 27.294C66.7425 25.4184 64.4405 24.636 62.3373 25.1525Z" fill="#0A635C"/>
</svg>
