<svg width="88" height="88" viewBox="0 0 88 88" fill="none" xmlns="http://www.w3.org/2000/svg">
<rect width="88" height="88" rx="8" fill="#F8F9FC"/>
<path d="M67.4187 44.777L43.0235 45.6412L42.1592 21.246C42.122 20.1948 41.2674 19.3986 40.2162 19.4359C24.6784 19.9863 12.3895 33.0481 12.9399 48.5858C13.4904 64.1236 26.6772 76.4081 42.215 75.8577C43.491 75.8125 44.7266 75.6933 45.9588 75.4618C59.6673 73.1349 69.867 60.8489 69.3617 46.587C69.3245 45.5359 68.4699 44.7397 67.4187 44.777Z" fill="#285680"/>
<path d="M67.4187 44.7793L43.0235 45.6435L42.215 23.2965C42.215 19.8457 41.9855 19.4382 40.2162 19.4382C24.6784 19.9887 15.9868 33.0035 16.5373 48.5413C17.0877 64.0791 27.4857 72.9074 43.0235 72.3569C44.2995 72.3117 46.9951 72.1748 47.9627 72.0105C61.6712 69.6836 69.867 60.8512 69.3618 46.5894C69.3245 45.5382 68.4699 44.7421 67.4187 44.7793Z" fill="#2980BA"/>
<path d="M74.6924 40.4609L48.2955 41.396C47.2585 41.4328 46.3892 40.6229 46.3525 39.586L45.4173 13.1891C45.3806 12.1521 46.1904 11.2828 47.2274 11.246C62.7491 10.6961 75.9526 22.9962 76.5025 38.5179C76.5392 39.5548 75.7294 40.4242 74.6924 40.4609Z" fill="#788181"/>
<path d="M74.6924 40.03L51.0692 40.03C48.9089 40.03 47.7263 39.3198 47.7263 36.8127L46.6206 13.0471C46.5839 12.0101 47.3805 11.6393 48.4175 11.6026C63.9392 11.0527 75.9526 22.5653 76.5024 38.0869C76.5392 39.1239 75.7294 39.9932 74.6924 40.03Z" fill="#95A5A5"/>
<path d="M58.913 31.1222V30.6125C58.913 30.2381 58.9916 29.8936 59.1489 29.5789C59.3094 29.2643 59.5422 29.011 59.8474 28.8191C60.1526 28.6272 60.5223 28.5312 60.9565 28.5312C61.4033 28.5312 61.7777 28.6272 62.0797 28.8191C62.3818 29.0079 62.6099 29.2596 62.764 29.5742C62.9213 29.8888 63 30.2349 63 30.6125V31.1222C63 31.4966 62.9213 31.8411 62.764 32.1557C62.6067 32.4704 62.3755 32.7237 62.0703 32.9156C61.7682 33.1075 61.397 33.2035 60.9565 33.2035C60.516 33.2035 60.1432 33.1075 59.838 32.9156C59.5328 32.7237 59.3015 32.4704 59.1442 32.1557C58.99 31.8411 58.913 31.4966 58.913 31.1222ZM60.1447 30.6125V31.1222C60.1447 31.3707 60.2045 31.5988 60.3241 31.8065C60.4436 32.0142 60.6544 32.118 60.9565 32.118C61.2617 32.118 61.4709 32.0157 61.5842 31.8112C61.7006 31.6036 61.7588 31.3739 61.7588 31.1222V30.6125C61.7588 30.3608 61.7037 30.1311 61.5936 29.9234C61.4835 29.7126 61.2711 29.6072 60.9565 29.6072C60.6607 29.6072 60.4515 29.7126 60.3288 29.9234C60.2061 30.1311 60.1447 30.3608 60.1447 30.6125ZM54 25.591V25.0813C54 24.7037 54.0802 24.3576 54.2407 24.043C54.4012 23.7284 54.634 23.4767 54.9392 23.2879C55.2444 23.096 55.6141 23 56.0482 23C56.4919 23 56.8647 23.096 57.1668 23.2879C57.4719 23.4767 57.7016 23.7284 57.8558 24.043C58.01 24.3576 58.087 24.7037 58.087 25.0813V25.591C58.087 25.9685 58.0084 26.3146 57.8511 26.6293C57.6969 26.9407 57.4672 27.1909 57.162 27.3797C56.8568 27.5684 56.4856 27.6628 56.0482 27.6628C55.6046 27.6628 55.2302 27.5684 54.925 27.3797C54.623 27.1909 54.3933 26.9392 54.236 26.6245C54.0787 26.3099 54 25.9654 54 25.591ZM55.2412 25.0813V25.591C55.2412 25.8427 55.2994 26.0724 55.4158 26.28C55.5354 26.4845 55.7462 26.5868 56.0482 26.5868C56.3503 26.5868 56.5579 26.4845 56.6712 26.28C56.7876 26.0724 56.8458 25.8427 56.8458 25.591V25.0813C56.8458 24.8296 56.7908 24.5999 56.6807 24.3922C56.5705 24.1814 56.3597 24.076 56.0482 24.076C55.7493 24.076 55.5401 24.1814 55.4206 24.3922C55.301 24.603 55.2412 24.8327 55.2412 25.0813ZM54.538 32.9345L61.183 23.269H62.3629L55.7179 32.9345H54.538Z" fill="white"/>
<path d="M37.7604 52.4688V62.6506H36.1198L31.3222 55.7152H31.2376V62.6506H29.3932V52.4688H31.0438L35.8364 59.4091H35.9259V52.4688H37.7604Z" fill="white"/>
<path d="M39.7701 62.6506V52.4688H46.3923V54.0149H41.6146V56.7791H46.0493V58.3253H41.6146V61.1044H46.4321V62.6506H39.7701Z" fill="white"/>
<path d="M47.8266 54.0149V52.4688H55.9502V54.0149H52.8032V62.6506H50.9736V54.0149H47.8266Z" fill="white"/>
</svg>
