<svg width="88" height="88" viewBox="0 0 88 88" fill="none" xmlns="http://www.w3.org/2000/svg">
<rect width="88" height="88" rx="8" fill="#F8F9FC"/>
<path d="M12.5347 29.5039H58.2434C58.5283 29.5039 58.7591 29.7348 58.7591 30.0196V39.7415H75.4655C75.7504 39.7415 75.9812 39.9724 75.9812 40.2572V69.7239C75.9812 75.308 71.5223 79.9414 65.9385 79.9955C65.8488 79.9964 19.0982 79.9955 19.0982 79.9955C15.1885 79.9955 12.019 76.826 12.019 72.9162V30.0196C12.019 29.7348 12.2499 29.5039 12.5347 29.5039Z" fill="#F1F4F6"/>
<path d="M70.8334 39.7422V67.1508C70.8334 72.7349 66.3745 77.3683 60.7907 77.4224C60.701 77.4232 13.9504 77.4224 13.9504 77.4224C13.8436 77.4224 13.7373 77.42 13.6316 77.4154C14.9301 78.9914 16.8968 79.9963 19.0982 79.9963C19.0982 79.9963 65.8488 79.9972 65.9385 79.9963C71.5223 79.9421 75.9812 75.3087 75.9812 69.7246V40.2579C75.9812 39.9731 75.7504 39.7422 75.4655 39.7422H70.8334Z" fill="#DFEAEF"/>
<path d="M65.6312 76.9334H66.0461C69.8414 76.9334 72.9181 73.8567 72.9181 70.0614V39.7422H58.7593V70.0614C58.7593 73.8567 61.836 76.9334 65.6312 76.9334Z" fill="#D0E2E7"/>
<path d="M58.7593 69.8513H68.5795C68.696 69.8513 68.7906 69.7567 68.7906 69.6402V59.8869C68.7906 59.7703 68.696 59.6758 68.5795 59.6758H58.7593V69.8513Z" fill="#788181"/>
<path d="M17.1737 40.7109H35.7745C35.951 40.7109 36.0942 40.5677 36.0942 40.3912V34.9525C36.0942 34.776 35.951 34.6328 35.7745 34.6328H17.1737C16.9972 34.6328 16.854 34.776 16.854 34.9525V40.3913C16.854 40.5678 16.9972 40.7109 17.1737 40.7109Z" fill="#018C81"/>
<path d="M53.9238 70.8183C53.9238 74.5111 55.604 77.8114 58.2415 79.9969H21.1717C18.5343 77.8114 16.854 74.5112 16.854 70.8183V64.3264C16.854 64.2066 16.9512 64.1094 17.071 64.1094H53.7068C53.8266 64.1094 53.9238 64.2066 53.9238 64.3264V70.8183Z" fill="#95A5A5"/>
<path d="M55.921 77.4221C46.938 77.4223 27.8571 77.422 18.8511 77.4219C19.4963 78.3888 20.2792 79.2562 21.1718 79.9957H58.2416C57.3491 79.2562 56.5663 78.3891 55.921 77.4221Z" fill="#95A5A5"/>
<path d="M26.9425 68.1836C27.0571 68.1836 27.15 68.2764 27.15 68.3911V70.8147C27.15 74.5075 28.8303 77.8078 31.4677 79.9933H26.3199C23.6825 77.8078 22.0022 74.5076 22.0022 70.8147V68.3911C22.0022 68.2765 22.095 68.1836 22.2097 68.1836H26.9425Z" fill="#788181"/>
<path d="M29.147 77.422C27.3391 77.422 25.606 77.422 23.999 77.4219C24.6443 78.3888 25.4272 79.256 26.3197 79.9956H31.4675C30.575 79.2562 29.7922 78.3889 29.147 77.422Z" fill="#788181"/>
<path d="M37.4476 71.0175C37.5085 74.6274 39.1749 77.8461 41.7635 79.9911H36.6157C34.0283 77.8472 32.3623 74.6305 32.2998 71.0227C32.2978 70.9072 32.3925 70.8125 32.5081 70.8125H37.241C37.3546 70.8124 37.4457 70.9039 37.4476 71.0175Z" fill="#788181"/>
<path d="M39.4428 77.4219C37.7293 77.4219 36.001 77.4219 34.2949 77.4219C34.9402 78.3888 35.723 79.2559 36.6156 79.9955H41.7634C40.8708 79.256 40.088 78.3888 39.4428 77.4219Z" fill="#788181"/>
<path d="M48.5217 75.4023H43.8261C43.6768 75.4023 43.5745 75.5563 43.6357 75.6924C44.3881 77.3663 45.5155 78.8351 46.9112 79.9916H52.059C50.6177 78.7973 49.4627 77.27 48.711 75.5278C48.6784 75.4518 48.6044 75.4023 48.5217 75.4023Z" fill="#788181"/>
<path d="M49.7391 77.4219C48.118 77.4219 46.386 77.4219 44.5913 77.4219C45.2364 78.3887 46.0191 79.2559 46.9116 79.9955H52.0594C51.1669 79.2559 50.3843 78.3887 49.7391 77.4219Z" fill="#788181"/>
<path d="M53.6109 50.4156C53.6109 47.4317 51.1833 45.0041 48.1996 45.0041H46.6533C45.6841 45.0041 44.8955 44.2157 44.8955 43.2465C44.8955 42.2774 45.6841 41.4888 46.6533 41.4888H48.1996C48.9079 41.4888 49.5438 41.9105 49.8198 42.5628C50.2128 43.4921 51.2852 43.9266 52.214 43.5337C53.1433 43.1407 53.5779 42.0687 53.1849 41.1395C52.4756 39.4624 50.993 38.2811 49.2532 37.9378V36.5535C49.2532 35.5445 48.4353 34.7266 47.4263 34.7266C46.4173 34.7266 45.5994 35.5445 45.5994 36.5535V37.9382C43.1182 38.4299 41.2417 40.6231 41.2417 43.2465C41.2417 46.2304 43.6693 48.6579 46.6531 48.6579H48.1995C49.1687 48.6579 49.9571 49.4464 49.9571 50.4156C49.9571 51.3846 49.1687 52.1732 48.1995 52.1732H46.6531C45.9228 52.1732 45.2796 51.7337 45.0145 51.0537C44.6478 50.1137 43.5887 49.6488 42.6486 50.0154C41.7086 50.3821 41.2438 51.4412 41.6104 52.3813C42.2962 54.1397 43.8028 55.3755 45.5995 55.7257V57.1086C45.5995 58.1177 46.4174 58.9355 47.4264 58.9355C48.4355 58.9355 49.2534 58.1177 49.2534 57.1086V55.7238C51.7345 55.2321 53.6109 53.0389 53.6109 50.4156Z" fill="#018C81"/>
<path d="M51.2546 39.8558C51.6477 40.785 51.213 41.857 50.2837 42.25C50.1033 42.3264 49.9176 42.3713 49.7324 42.3877C49.7647 42.445 49.7939 42.5045 49.8199 42.566C50.2129 43.4953 51.2853 43.9298 52.2141 43.5369C53.1434 43.1439 53.578 42.0719 53.185 41.1427C52.6037 39.7685 51.5034 38.7272 50.1679 38.207C50.6195 38.6763 50.9907 39.2317 51.2546 39.8558Z" fill="#0A635C"/>
<path d="M50.1602 45.375C51.1009 46.3491 51.6804 47.674 51.6804 49.1319C51.6804 51.3908 50.289 53.3309 48.3183 54.1402C47.7228 54.3847 47.3229 54.9509 47.3229 55.5946V55.8248C47.3229 56.7724 46.6016 57.5514 45.678 57.6428C45.9162 58.4284 46.6695 58.9902 47.545 58.935C48.5148 58.8738 49.2534 58.0348 49.2534 57.0631V55.7271C51.7345 55.2354 53.6109 53.0422 53.6109 50.4189C53.6109 48.1261 52.1778 46.162 50.1602 45.375Z" fill="#0A635C"/>
<path d="M35.3864 46.0671H22.1859C21.6527 46.0671 21.2207 45.635 21.2207 45.1019C21.2207 44.5687 21.6528 44.1367 22.1859 44.1367H35.3864C35.9195 44.1367 36.3515 44.5688 36.3515 45.1019C36.3517 45.635 35.9195 46.0671 35.3864 46.0671Z" fill="#788181"/>
<path d="M35.3865 50.4968H17.1668C16.6337 50.4968 16.2017 50.0646 16.2017 49.5316C16.2017 48.9985 16.6338 48.5664 17.1668 48.5664H35.3865C35.9197 48.5664 36.3517 48.9985 36.3517 49.5316C36.3517 50.0646 35.9197 50.4968 35.3865 50.4968Z" fill="#788181"/>
<path d="M35.3863 54.9226H22.3145C21.7814 54.9226 21.3494 54.4904 21.3494 53.9574C21.3494 53.4242 21.7815 52.9922 22.3145 52.9922H35.3863C35.9195 52.9922 36.3515 53.4243 36.3515 53.9574C36.3516 54.4906 35.9195 54.9226 35.3863 54.9226Z" fill="#788181"/>
<path d="M31.5256 59.36H17.1668C16.6337 59.36 16.2017 58.9279 16.2017 58.3949C16.2017 57.8618 16.6338 57.4297 17.1668 57.4297H31.5256C32.0588 57.4297 32.4908 57.8618 32.4908 58.3949C32.4908 58.9279 32.0587 59.36 31.5256 59.36Z" fill="#788181"/>
<path d="M58.7593 51.7787V49.8482H68.7906C69.3238 49.8482 69.7558 50.2804 69.7558 50.8134C69.7558 51.3466 69.3237 51.7786 68.7906 51.7786H58.7593V51.7787ZM68.7906 56.209C69.3238 56.209 69.7558 55.7769 69.7558 55.2438C69.7558 54.7106 69.3237 54.2786 68.7906 54.2786H58.7593V56.2091H68.7906V56.209ZM68.7906 45.418H58.7593V47.3485H68.7906C69.3238 47.3485 69.7558 46.9163 69.7558 46.3833C69.7558 45.8502 69.3237 45.418 68.7906 45.418Z" fill="#788181"/>
<path d="M22.1314 25.737C26.4771 25.737 29.9999 22.2142 29.9999 17.8685C29.9999 13.5228 26.4771 10 22.1314 10C17.7858 10 14.2629 13.5228 14.2629 17.8685C14.2629 22.2142 17.7858 25.737 22.1314 25.737Z" fill="#2980BA"/>
<path d="M23.4874 25.6205C23.0467 25.6972 22.5938 25.7375 22.1309 25.7375C17.7854 25.7375 14.2629 22.2143 14.2629 17.8687C14.2629 13.5231 17.7854 10 22.131 10C22.5939 10 23.0467 10.0402 23.4874 10.1169C19.7877 10.7593 16.9751 13.9853 16.9751 17.8687C16.9751 21.7521 19.7877 24.9781 23.4874 25.6205Z" fill="#285680"/>
<path d="M18.364 14.8438C17.8255 14.8438 17.3875 15.5712 17.3875 16.4655C17.3875 17.3598 17.8255 18.0872 18.364 18.0872C18.9024 18.0872 19.3405 17.3598 19.3405 16.4655C19.3405 15.5712 18.9024 14.8438 18.364 14.8438Z" fill="#F8F9FC"/>
<path d="M25.8986 14.8438C25.3602 14.8438 24.9221 15.5712 24.9221 16.4655C24.9221 17.3598 25.3602 18.0872 25.8986 18.0872C26.4371 18.0872 26.8752 17.3598 26.8752 16.4655C26.8752 15.5712 26.4371 14.8438 25.8986 14.8438Z" fill="#F8F9FC"/>
<path d="M22.1314 22.3204C20.5263 22.3204 19.0861 21.3643 18.4623 19.8846C18.3503 19.6191 18.4748 19.3132 18.7403 19.2012C19.0058 19.0894 19.3118 19.2138 19.4237 19.4793C19.8841 20.5714 20.947 21.277 22.1315 21.277C23.316 21.277 24.3788 20.5713 24.8393 19.4793C24.9512 19.2138 25.2571 19.0894 25.5227 19.2012C25.7882 19.3132 25.9127 19.6191 25.8007 19.8846C25.1767 21.3643 23.7365 22.3204 22.1314 22.3204Z" fill="#F8F9FC"/>
<path d="M43.6175 25.9558C47.9632 25.9558 51.486 22.4329 51.486 18.0873C51.486 13.7416 47.9632 10.2188 43.6175 10.2188C39.2719 10.2188 35.749 13.7416 35.749 18.0873C35.749 22.4329 39.2719 25.9558 43.6175 25.9558Z" fill="#2980BA"/>
<path d="M44.9734 25.8392C44.5328 25.916 44.0799 25.9562 43.617 25.9562C39.2715 25.9562 35.749 22.4331 35.749 18.0875C35.749 13.7419 39.2715 10.2188 43.6171 10.2188C44.08 10.2188 44.5328 10.2589 44.9735 10.3357C41.2738 10.978 38.4612 14.204 38.4612 18.0875C38.4612 21.9709 41.2738 25.1969 44.9734 25.8392Z" fill="#285680"/>
<path d="M39.85 15.0625C39.3116 15.0625 38.8735 15.7901 38.8735 16.6842C38.8735 17.5784 39.3116 18.306 39.85 18.306C40.3885 18.306 40.8266 17.5784 40.8266 16.6842C40.8266 15.7901 40.3885 15.0625 39.85 15.0625Z" fill="#F8F9FC"/>
<path d="M47.3847 15.0625C46.8463 15.0625 46.4082 15.7901 46.4082 16.6842C46.4082 17.5784 46.8463 18.306 47.3847 18.306C47.9232 18.306 48.3613 17.5784 48.3613 16.6842C48.3613 15.7901 47.9232 15.0625 47.3847 15.0625Z" fill="#F8F9FC"/>
<path d="M39.981 21.0078H47.022" stroke="white" stroke-linecap="round"/>
<path d="M65.8385 25.737C70.1841 25.737 73.707 22.2142 73.707 17.8685C73.707 13.5228 70.1841 10 65.8385 10C61.4928 10 57.97 13.5228 57.97 17.8685C57.97 22.2142 61.4928 25.737 65.8385 25.737Z" fill="#2980BA"/>
<path d="M67.1944 25.6205C66.7537 25.6972 66.3009 25.7375 65.8379 25.7375C61.4924 25.7375 57.97 22.2143 57.97 17.8687C57.97 13.5231 61.4924 10 65.838 10C66.3009 10 66.7537 10.0402 67.1945 10.117C63.4948 10.7593 60.6821 13.9853 60.6821 17.8687C60.6821 21.7521 63.4947 24.9781 67.1944 25.6205Z" fill="#285680"/>
<path d="M62.071 14.8438C61.5326 14.8438 61.0945 15.5713 61.0945 16.4655C61.0945 17.3597 61.5326 18.0872 62.071 18.0872C62.6095 18.0872 63.0476 17.3597 63.0476 16.4655C63.0476 15.5713 62.6095 14.8438 62.071 14.8438Z" fill="#F8F9FC"/>
<path d="M69.6059 14.8438C69.0675 14.8438 68.6294 15.5713 68.6294 16.4655C68.6294 17.3597 69.0675 18.0872 69.6059 18.0872C70.1444 18.0872 70.5825 17.3597 70.5825 16.4655C70.5825 15.5713 70.1444 14.8438 69.6059 14.8438Z" fill="#F8F9FC"/>
<path d="M69.0273 22.3205C68.8237 22.3205 68.6304 22.2006 68.5463 22.0013C68.0859 20.9092 67.023 20.2036 65.8385 20.2036C64.654 20.2036 63.5912 20.9093 63.1307 22.0013C63.0189 22.2668 62.7129 22.3913 62.4473 22.2793C62.1819 22.1675 62.0573 21.8614 62.1693 21.596C62.7931 20.1163 64.2334 19.1602 65.8385 19.1602C67.4435 19.1602 68.8838 20.1163 69.5076 21.596C69.6196 21.8614 69.4951 22.1674 69.2296 22.2793C69.1635 22.3072 69.0948 22.3205 69.0273 22.3205Z" fill="#F8F9FC"/>
</svg>
