<svg width="89" height="88" viewBox="0 0 89 88" fill="none" xmlns="http://www.w3.org/2000/svg">
<rect x="0.139893" width="88" height="88" rx="8" fill="#F8F9FC"/>
<path d="M36.8102 20.4596H10.7945C10.403 20.4596 10.0856 20.777 10.0856 21.1685V45.5837C10.0856 48.0384 12.0755 50.0284 14.5302 50.0284V49.6943C14.5302 50.0284 14.5303 50.0284 14.5305 50.0284H14.5314H14.535H14.5495L14.6065 50.0284L14.829 50.0284L15.6736 50.0284L18.6886 50.0284L27.8409 50.0286C34.4968 50.0286 41.1658 50.0286 41.194 50.0284C44.6068 49.9953 47.3213 47.1659 47.3213 43.7668V26.9954C47.3213 26.6039 47.0039 26.2865 46.6124 26.2865H37.5191V21.1685C37.5191 20.777 37.2017 20.4596 36.8102 20.4596Z" fill="#F1F4F6" stroke="#B4BCC0" stroke-width="0.830734"/>
<path d="M43.976 26.7031V42.3031C43.976 45.4814 41.4382 48.1185 38.2601 48.1493C38.209 48.1498 11.6003 48.1493 11.6003 48.1493C11.5395 48.1493 11.479 48.148 11.4188 48.1453C12.1579 49.0424 13.2773 49.6143 14.5302 49.6143C14.5302 49.6143 41.139 49.6148 41.19 49.6143C44.3681 49.5835 46.906 46.9463 46.906 43.7681V26.9966C46.906 26.8345 46.7746 26.7031 46.6125 26.7031H43.976Z" fill="#DFEAEF"/>
<path d="M41.0151 47.871H41.2513C43.4114 47.871 45.1625 46.1199 45.1625 43.9597V26.7031H37.1039V43.9597C37.1039 46.1199 38.855 47.871 41.0151 47.871Z" fill="#D0E2E7"/>
<path d="M37.1039 43.8423H42.6932C42.7595 43.8423 42.8134 43.7885 42.8134 43.7221V38.1709C42.8134 38.1046 42.7595 38.0508 42.6932 38.0508H37.1039V43.8423Z" fill="#788181"/>
<path d="M13.4348 27.2563H24.0217C24.1221 27.2563 24.2036 27.1748 24.2036 27.0743V23.9788C24.2036 23.8784 24.1221 23.7969 24.0217 23.7969H13.4348C13.3343 23.7969 13.2528 23.8784 13.2528 23.9788V27.0744C13.2528 27.1749 13.3343 27.2563 13.4348 27.2563Z" fill="#018C81"/>
<path d="M34.3516 44.3927C34.3516 46.4945 35.3079 48.3729 36.8091 49.6168H15.7103C14.2092 48.3729 13.2528 46.4946 13.2528 44.3927V40.6977C13.2528 40.6295 13.3081 40.5742 13.3763 40.5742H34.2281C34.2963 40.5742 34.3516 40.6295 34.3516 40.6977V44.3927Z" fill="#CFD8DC"/>
<path d="M35.4884 48.1486C30.3756 48.1487 19.5155 48.1485 14.3895 48.1484C14.7568 48.6988 15.2024 49.1925 15.7104 49.6134H36.8092C36.3012 49.1925 35.8557 48.6989 35.4884 48.1486Z" fill="#B4BCC0"/>
<path d="M18.995 42.8906C19.0602 42.8906 19.1131 42.9435 19.1131 43.0087V44.3881C19.1131 46.49 20.0694 48.3684 21.5706 49.6123H18.6406C17.1394 48.3684 16.1831 46.49 16.1831 44.3881V43.0087C16.1831 42.9435 16.2359 42.8906 16.3012 42.8906H18.995Z" fill="#2980BA"/>
<path d="M20.2497 48.1485C19.2207 48.1485 18.2343 48.1485 17.3197 48.1484C17.687 48.6988 18.1326 49.1924 18.6405 49.6133H21.5705C21.0625 49.1925 20.617 48.6989 20.2497 48.1485Z" fill="#285680"/>
<path d="M24.974 44.4995C25.0087 46.5541 25.9571 48.3861 27.4305 49.6069H24.5005C23.0279 48.3867 22.0796 46.5559 22.0441 44.5025C22.0429 44.4367 22.0968 44.3828 22.1626 44.3828H24.8564C24.9211 44.3827 24.9729 44.4349 24.974 44.4995Z" fill="#2980BA"/>
<path d="M26.1098 48.1484C25.1345 48.1484 24.1509 48.1484 23.1798 48.1484C23.5471 48.6988 23.9926 49.1923 24.5006 49.6132H27.4306C26.9226 49.1924 26.477 48.6988 26.1098 48.1484Z" fill="#285680"/>
<path d="M31.277 46.9961H28.6045C28.5195 46.9961 28.4613 47.0837 28.4961 47.1612C28.9244 48.1139 29.566 48.9499 30.3604 49.6082H33.2903C32.47 48.9284 31.8126 48.0591 31.3848 47.0675C31.3662 47.0243 31.3241 46.9961 31.277 46.9961Z" fill="#285680"/>
<path d="M31.9699 48.1484C31.0472 48.1484 30.0614 48.1484 29.0399 48.1484C29.4071 48.6987 29.8526 49.1923 30.3605 49.6132H33.2905C32.7825 49.1923 32.3371 48.6987 31.9699 48.1484Z" fill="#2980BA"/>
<path d="M34.1735 32.7773C34.1735 31.079 32.7918 29.6973 31.0936 29.6973H30.2135C29.6619 29.6973 29.2131 29.2485 29.2131 28.6969C29.2131 28.1453 29.6619 27.6965 30.2135 27.6965H31.0936C31.4968 27.6965 31.8587 27.9365 32.0157 28.3078C32.2394 28.8367 32.8498 29.084 33.3784 28.8604C33.9074 28.6367 34.1548 28.0266 33.9311 27.4977C33.5273 26.5431 32.6835 25.8708 31.6933 25.6754V24.8875C31.6933 24.3132 31.2278 23.8477 30.6535 23.8477C30.0792 23.8477 29.6137 24.3132 29.6137 24.8875V25.6756C28.2015 25.9555 27.1334 27.2037 27.1334 28.6969C27.1334 30.3952 28.5151 31.7768 30.2134 31.7768H31.0935C31.6452 31.7768 32.0939 32.2256 32.0939 32.7773C32.0939 33.3288 31.6452 33.7776 31.0935 33.7776H30.2134C29.7977 33.7776 29.4316 33.5275 29.2808 33.1405C29.0721 32.6055 28.4692 32.3408 27.9342 32.5495C27.3991 32.7582 27.1346 33.361 27.3432 33.8961C27.7336 34.8969 28.5911 35.6003 29.6137 35.7996V36.5867C29.6137 37.161 30.0792 37.6265 30.6535 37.6265C31.2278 37.6265 31.6934 37.161 31.6934 36.5867V35.7985C33.1056 35.5187 34.1735 34.2704 34.1735 32.7773Z" fill="#018C81"/>
<path d="M32.8325 26.7626C33.0562 27.2915 32.8088 27.9017 32.2798 28.1253C32.1772 28.1688 32.0714 28.1944 31.9661 28.2037C31.9844 28.2363 32.001 28.2702 32.0158 28.3052C32.2395 28.8341 32.8499 29.0814 33.3785 28.8578C33.9075 28.6341 34.1548 28.024 33.9312 27.4951C33.6003 26.7129 32.974 26.1203 32.2139 25.8242C32.471 26.0913 32.6822 26.4074 32.8325 26.7626Z" fill="#0A635C"/>
<path d="M32.2094 29.9102C32.7449 30.4646 33.0747 31.2187 33.0747 32.0485C33.0747 33.3341 32.2828 34.4384 31.1611 34.899C30.8221 35.0381 30.5945 35.3604 30.5945 35.7268V35.8578C30.5945 36.3971 30.184 36.8405 29.6583 36.8925C29.7939 37.3397 30.2227 37.6594 30.721 37.628C31.2729 37.5932 31.6933 37.1156 31.6933 36.5626V35.8022C33.1055 35.5224 34.1735 34.2741 34.1735 32.781C34.1735 31.476 33.3578 30.3581 32.2094 29.9102Z" fill="#0A635C"/>
<path d="M23.8011 30.2979H16.2879C15.9844 30.2979 15.7385 30.052 15.7385 29.7486C15.7385 29.4451 15.9845 29.1992 16.2879 29.1992H23.8011C24.1046 29.1992 24.3504 29.4452 24.3504 29.7486C24.3505 30.052 24.1046 30.2979 23.8011 30.2979Z" fill="#788181"/>
<path d="M23.801 32.8174H13.4311C13.1276 32.8174 12.8817 32.5715 12.8817 32.2681C12.8817 31.9647 13.1277 31.7188 13.4311 31.7188H23.801C24.1045 31.7188 24.3504 31.9647 24.3504 32.2681C24.3504 32.5715 24.1045 32.8174 23.801 32.8174Z" fill="#788181"/>
<path d="M23.8011 35.3409H16.3611C16.0576 35.3409 15.8118 35.0949 15.8118 34.7915C15.8118 34.4881 16.0577 34.2422 16.3611 34.2422H23.8011C24.1046 34.2422 24.3505 34.4881 24.3505 34.7915C24.3505 35.095 24.1046 35.3409 23.8011 35.3409Z" fill="#788181"/>
<path d="M21.6036 37.8643H13.4311C13.1276 37.8643 12.8817 37.6184 12.8817 37.315C12.8817 37.0116 13.1277 36.7656 13.4311 36.7656H21.6036C21.907 36.7656 22.1529 37.0116 22.1529 37.315C22.1529 37.6184 21.907 37.8643 21.6036 37.8643Z" fill="#788181"/>
<path d="M37.1039 33.5539V32.4551H42.8134C43.1168 32.4551 43.3627 32.7011 43.3627 33.0045C43.3627 33.308 43.1168 33.5538 42.8134 33.5538H37.1039V33.5539ZM42.8134 36.0754C43.1168 36.0754 43.3627 35.8295 43.3627 35.5261C43.3627 35.2226 43.1168 34.9768 42.8134 34.9768H37.1039V36.0755H42.8134V36.0754ZM42.8134 29.9336H37.1039V31.0324H42.8134C43.1168 31.0324 43.3627 30.7864 43.3627 30.483C43.3627 30.1796 43.1168 29.9336 42.8134 29.9336Z" fill="#788181"/>
<path d="M16.5433 10.6991V17.2634H15.4856L12.3926 12.7921H12.3381V17.2634H11.1489V10.6991H12.2131L15.3029 15.1736H15.3606V10.6991H16.5433Z" fill="#018C81"/>
<path d="M17.839 17.2634V10.6991H22.1084V11.6959H19.0282V13.4781H21.8872V14.4749H19.0282V16.2666H22.134V17.2634H17.839Z" fill="#018C81"/>
<path d="M24.703 17.2634L22.8504 10.6991H24.1293L25.312 15.523H25.3729L26.6358 10.6991H27.7993L29.0653 15.5262H29.123L30.3058 10.6991H31.5847L29.732 17.2634H28.5589L27.2448 12.6575H27.1935L25.8761 17.2634H24.703Z" fill="#018C81"/>
<path d="M35.9326 12.5037C35.9026 12.2237 35.7766 12.0058 35.5543 11.8498C35.3342 11.6938 35.0479 11.6158 34.6953 11.6158C34.4475 11.6158 34.2348 11.6532 34.0575 11.728C33.8801 11.8028 33.7444 11.9043 33.6504 12.0325C33.5564 12.1607 33.5083 12.3071 33.5062 12.4716C33.5062 12.6084 33.5372 12.727 33.5991 12.8274C33.6632 12.9278 33.7498 13.0133 33.8588 13.0838C33.9677 13.1522 34.0885 13.2099 34.221 13.2569C34.3534 13.3039 34.487 13.3434 34.6216 13.3755L35.237 13.5293C35.4849 13.587 35.7231 13.665 35.9518 13.7633C36.1826 13.8616 36.3888 13.9855 36.5704 14.1351C36.7542 14.2847 36.8995 14.4653 37.0063 14.6768C37.1131 14.8884 37.1666 15.1362 37.1666 15.4204C37.1666 15.805 37.0683 16.1437 36.8717 16.4365C36.6751 16.7271 36.3909 16.9547 36.0191 17.1192C35.6494 17.2816 35.2018 17.3628 34.6761 17.3628C34.1654 17.3628 33.722 17.2837 33.3459 17.1256C32.972 16.9675 32.6792 16.7367 32.4677 16.4333C32.2583 16.1298 32.145 15.7602 32.1279 15.3243H33.2979C33.3149 15.5529 33.3855 15.7431 33.5094 15.8948C33.6333 16.0465 33.7947 16.1598 33.9934 16.2346C34.1942 16.3093 34.4186 16.3467 34.6665 16.3467C34.925 16.3467 35.1515 16.3083 35.346 16.2313C35.5426 16.1523 35.6964 16.0433 35.8075 15.9044C35.9187 15.7634 35.9753 15.5988 35.9774 15.4108C35.9753 15.2399 35.9251 15.0988 35.8268 14.9877C35.7285 14.8745 35.5907 14.7804 35.4133 14.7057C35.2381 14.6287 35.0329 14.5604 34.7979 14.5005L34.0511 14.3082C33.5105 14.1693 33.0831 13.9588 32.769 13.6768C32.457 13.3926 32.301 13.0154 32.301 12.5453C32.301 12.1586 32.4057 11.8199 32.6151 11.5293C32.8267 11.2387 33.1141 11.0132 33.4773 10.853C33.8406 10.6906 34.2519 10.6094 34.7114 10.6094C35.1772 10.6094 35.5853 10.6906 35.9358 10.853C36.2883 11.0132 36.565 11.2365 36.7659 11.5229C36.9668 11.8071 37.0704 12.134 37.0768 12.5037H35.9326Z" fill="#018C81"/>
<path d="M43.8862 67.3911L39.5472 70.9762C38.682 71.6906 37.4012 71.569 36.6867 70.7038L33.7557 67.1564C33.0412 66.2913 33.1629 65.0108 34.028 64.296L38.367 60.7109L43.8862 67.3911Z" fill="#B4BCC0"/>
<path d="M43.3751 67.5892C43.3751 67.5892 47.8811 74.9096 55.2 77.2482C56.7427 77.7411 58.3132 76.9266 58.9759 75.3235C59.4912 74.0771 58.9995 72.6362 57.9062 71.8467C55.5346 70.1342 51.5639 66.8182 50.0216 62.8877C49.9568 62.8091 43.3751 67.5892 43.3751 67.5892Z" fill="#CFD8DC"/>
<path d="M52.3124 66.6871C51.3705 65.5203 50.5521 64.2406 50.0216 62.8877C49.9568 62.8094 43.3751 67.5892 43.3751 67.5892C43.3751 67.5892 45.2162 70.58 48.4558 73.3492C49.2637 69.3828 51.1779 67.4896 52.3124 66.6871Z" fill="#B4BCC0"/>
<path d="M36.5202 64.4941L39.8279 68.4978C40.8784 69.7692 42.7564 69.9597 44.0387 68.9222C46.851 66.6466 52.6483 63.3519 62.5626 63.4646C64.9074 63.491 66.7227 61.4073 66.3888 59.0864C65.9702 56.1757 64.634 52.1408 60.9479 47.6794C57.2621 43.218 53.5525 41.1445 50.7728 40.1841C48.5566 39.4186 46.168 40.8084 45.7519 43.1159C43.992 52.8741 39.6627 57.9461 36.8975 60.2786C35.637 61.3421 35.4697 63.2227 36.5202 64.4941Z" fill="#CFD8DC"/>
<path d="M52.1518 40.7258C51.6716 40.5144 51.2106 40.3355 50.7728 40.1841C48.5566 39.4186 46.168 40.8084 45.7519 43.1159C43.9916 52.8741 39.6627 57.9461 36.8975 60.2786C35.637 61.3421 35.4697 63.2223 36.5202 64.4941L38.0799 66.3822C40.1762 63.4063 43.2315 61.2212 48.0808 55.5036C52.2532 50.5844 52.5664 44.668 52.1518 40.7258Z" fill="#B4BCC0"/>
<path d="M50.7726 40.1841C48.5564 39.4186 46.1678 40.8084 45.7517 43.1159C45.7517 43.1159 50.9595 44.0618 56.7879 51.1167C62.6164 58.1717 62.5624 63.4642 62.5624 63.4642C64.9068 63.491 66.7225 61.4073 66.3886 59.0864C65.97 56.1757 64.6334 52.1408 60.9477 47.6794C57.2619 43.218 53.5519 41.1445 50.7726 40.1841Z" fill="#2980BA"/>
<path d="M39.7946 57.2656C38.761 58.5718 37.7543 59.5575 36.8975 60.28C35.637 61.3435 35.4697 63.2241 36.5202 64.4955L39.8279 68.4992C40.8784 69.771 42.7564 69.9615 44.0387 68.9236C44.91 68.2189 46.0677 67.4164 47.5455 66.6473L39.7946 57.2656Z" fill="#018C81"/>
<path d="M48.5872 70.2807C49.234 70.8891 50.2509 70.8576 50.8592 70.2108L53.1997 67.7208C52.4729 66.9267 51.7852 66.067 51.1986 65.1562L48.517 68.0087C47.909 68.6555 47.9405 69.6727 48.5872 70.2807Z" fill="#B4BCC0"/>
<path d="M52.9742 73.8006C53.621 74.4086 54.6378 74.3771 55.2462 73.7303L57.378 71.4623C56.6284 70.8996 55.768 70.2076 54.8953 69.4102L52.904 71.5282C52.2959 72.175 52.3275 73.1922 52.9742 73.8006Z" fill="#B4BCC0"/>
<path d="M75.9066 52.4844L69.9279 53.7776C69.0935 53.9579 68.5638 54.7803 68.7441 55.6143C68.9244 56.4483 69.7468 56.9784 70.5808 56.7977L76.5599 55.5049C77.3939 55.3246 77.924 54.5022 77.7433 53.6682C77.563 52.8342 76.741 52.3041 75.9066 52.4844Z" fill="#2980BA"/>
<path d="M59.0508 32.0808L56.6532 37.709C56.3186 38.494 55.4111 38.8591 54.626 38.5248C53.8413 38.1902 53.4759 37.2827 53.8105 36.4976L56.2081 30.8694C56.5424 30.0847 57.4499 29.7193 58.235 30.0536C59.0201 30.3882 59.3851 31.2957 59.0508 32.0808Z" fill="#2980BA"/>
<path d="M52.3125 66.6906C51.9153 66.1981 51.5397 65.686 51.1986 65.1562L48.517 68.0087C47.909 68.6555 47.9402 69.6727 48.5869 70.2807C48.789 70.4705 49.0269 70.5979 49.2768 70.6638C50.2067 68.4751 51.4727 67.2841 52.3125 66.6906Z" fill="#A2AAAE"/>
<path d="M39.7946 57.2656C38.761 58.5718 37.7543 59.5575 36.8975 60.28C35.637 61.3435 35.4697 63.2241 36.5202 64.4955L38.0799 66.3836C39.3126 64.6338 40.877 63.1571 42.9422 61.0756L39.7946 57.2656Z" fill="#0A635C"/>
<path d="M45.7517 43.1162C45.7517 43.1162 48.4162 43.6008 52.0658 46.4569C52.3707 44.3471 52.324 42.3659 52.1516 40.7258C51.6714 40.5144 51.2104 40.3355 50.7726 40.1841C48.5564 39.4186 46.1678 40.8084 45.7517 43.1162Z" fill="#285680"/>
<path d="M73.3777 41.2736C72.1049 39.4633 69.5966 39.026 67.7864 40.2987L66.8482 40.9583C66.2602 41.3717 65.4455 41.2297 65.0321 40.6417C64.6187 40.0537 64.7608 39.239 65.3488 38.8256L66.2869 38.166C66.7167 37.8638 67.2823 37.8484 67.728 38.1265C68.3629 38.5227 69.1988 38.3288 69.5947 37.6943C69.9909 37.0594 69.7973 36.2237 69.1625 35.8276C68.0168 35.1126 66.6134 35.0284 65.4115 35.5622L64.821 34.7223C64.3906 34.1101 63.5455 33.9628 62.9333 34.3932C62.3212 34.8236 62.1738 35.6687 62.6042 36.2809L63.1949 37.1209C61.8993 38.4776 61.6963 40.6086 62.8154 42.2003C64.0881 44.0106 66.5964 44.4478 68.4067 43.1751L69.3448 42.5155C69.9328 42.1021 70.7475 42.2442 71.1609 42.8322C71.5743 43.4201 71.4323 44.2348 70.8443 44.6482L69.9061 45.3078C69.463 45.6193 68.8853 45.627 68.4345 45.3276C67.8111 44.9137 66.9702 45.0834 66.5562 45.7068C66.1423 46.3303 66.3121 47.1711 66.9355 47.5851C68.1016 48.3594 69.5428 48.4664 70.7822 47.9125L71.3721 48.7515C71.8025 49.3637 72.6476 49.511 73.2598 49.0806C73.872 48.6502 74.0193 47.8052 73.5889 47.193L72.9982 46.3528C74.2938 44.9962 74.4967 42.8652 73.3777 41.2736Z" fill="#018C81"/>
<path d="M67.4438 35.8744C68.0786 36.2705 68.2722 37.1063 67.876 37.7411C67.7991 37.8644 67.7056 37.9709 67.6003 38.0598C67.6443 38.0809 67.6874 38.1045 67.7294 38.1307C68.3642 38.5269 69.2002 38.333 69.5961 37.6985C69.9923 37.0636 69.7987 36.2279 69.1639 35.8318C68.2251 35.246 67.1133 35.0836 66.0812 35.3377C66.5554 35.4297 67.0175 35.6084 67.4438 35.8744Z" fill="#0A635C"/>
<path d="M69.134 39.6858C70.1202 39.8754 71.037 40.4321 71.6589 41.3166C72.6224 42.6871 72.6058 44.4576 71.7554 45.7892C71.4983 46.1916 71.4972 46.7057 71.7718 47.0962L71.87 47.2359C72.2742 47.8108 72.1689 48.5911 71.6475 49.0405C72.1272 49.4155 72.8238 49.435 73.3314 49.0281C73.8937 48.5773 73.9839 47.7532 73.5694 47.1637L72.9996 46.3532C74.2952 44.9965 74.498 42.8655 73.379 41.274C72.4011 39.8829 70.6938 39.3026 69.134 39.6858Z" fill="#0A635C"/>
</svg>
