<svg width="89" height="88" viewBox="0 0 89 88" fill="none" xmlns="http://www.w3.org/2000/svg">
<rect x="0.139893" width="88" height="88" rx="8" fill="#F8F9FC"/>
<path d="M45.1651 40.5859C44.6523 40.5859 44.2363 41.4117 44.2363 42.4299V76.3277C44.2363 76.7971 44.6169 77.1776 45.0863 77.1776H54.0531C54.5225 77.1776 54.903 76.7971 54.903 76.3277V41.4359C54.903 40.9665 54.5225 40.5859 54.0531 40.5859H45.1651Z" fill="#2980BA"/>
<path d="M48.047 40.5859H45.1651C44.6523 40.5859 44.2363 41.4117 44.2363 42.4299V77.1776H47.1185V42.4299C47.1185 41.4117 47.5341 40.5859 48.047 40.5859Z" fill="#285680"/>
<path d="M33.4981 63C32.9853 63 32.5693 63.32 32.5693 63.7144V76.3276C32.5693 76.797 32.9499 77.1776 33.4193 77.1776H42.3861C42.8555 77.1776 43.236 76.797 43.236 76.3276V63.8499C43.236 63.3805 42.8555 63 42.3861 63H33.4981Z" fill="#2980BA"/>
<path d="M36.38 63H33.4981C32.9853 63 32.5693 63.32 32.5693 63.7144V77.1776H35.4516V63.7144C35.4516 63.32 35.8671 63 36.38 63Z" fill="#285680"/>
<path d="M10.1646 64.0352C9.6518 64.0352 9.23584 64.3317 9.23584 64.6974V76.3261C9.23584 76.7956 9.61637 77.1761 10.0858 77.1761H19.0526C19.522 77.1761 19.9025 76.7956 19.9025 76.3261V64.8851C19.9025 64.4157 19.522 64.0352 19.0526 64.0352H10.1646Z" fill="#2980BA"/>
<path d="M13.0465 64.0352H10.1646C9.6518 64.0352 9.23584 64.3317 9.23584 64.6974V77.1761H12.1181V64.6974C12.1181 64.3317 12.5337 64.0352 13.0465 64.0352Z" fill="#285680"/>
<path d="M56.8316 32.3672C56.3188 32.3672 55.9028 33.0414 55.9028 33.8726V76.3284C55.9028 76.7978 56.2834 77.1784 56.7528 77.1784H65.7196C66.189 77.1784 66.5695 76.7978 66.5695 76.3284V33.2171C66.5695 32.7477 66.189 32.3672 65.7196 32.3672H56.8316Z" fill="#2980BA"/>
<path d="M59.7135 32.3672H56.8316C56.3188 32.3672 55.9028 33.0414 55.9028 33.872V77.1784H58.785V33.872C58.785 33.0408 59.2006 32.3672 59.7135 32.3672Z" fill="#285680"/>
<path d="M21.8314 65.9961C21.3185 65.9961 20.9026 66.1643 20.9026 66.3717V76.3259C20.9026 76.7953 21.2831 77.1758 21.7525 77.1758H30.7193C31.1888 77.1758 31.5693 76.7953 31.5693 76.3259V66.846C31.5693 66.3766 31.1888 65.9961 30.7193 65.9961H21.8314Z" fill="#2980BA"/>
<path d="M24.7132 65.9961H21.8314C21.3185 65.9961 20.9026 66.1643 20.9026 66.3715V77.1758H23.7848V66.3715C23.7848 66.1641 24.2004 65.9961 24.7132 65.9961Z" fill="#285680"/>
<path d="M77.1152 25.4844H68.498C67.9852 25.4844 67.5696 26.0677 67.5696 26.7868V77.1756H77.1152C77.628 77.1756 78.044 76.5923 78.044 75.8732V26.7868C78.044 26.0677 77.628 25.4844 77.1152 25.4844Z" fill="#2980BA"/>
<path d="M71.3799 25.4844H68.498C67.9852 25.4844 67.5696 26.0677 67.5696 26.7868V77.1756H70.4514V26.7868C70.4514 26.0677 70.867 25.4844 71.3799 25.4844Z" fill="#285680"/>
<path d="M38.3844 21.9812H9.56103C9.12726 21.9812 8.77565 22.3328 8.77565 22.7666V49.8167C8.77565 52.5363 10.9803 54.741 13.6999 54.741V54.372C13.6999 54.741 13.7 54.741 13.7002 54.741H13.7012H13.7053H13.7213H13.7845L14.031 54.741L14.9667 54.741L18.3071 54.7411L28.4471 54.7412C35.8213 54.7413 43.21 54.7413 43.2413 54.741C47.0224 54.7044 50.0298 51.5697 50.0298 47.8037V29.2223C50.0298 28.7885 49.6782 28.4369 49.2444 28.4369H39.1698V22.7666C39.1698 22.3328 38.8182 21.9812 38.3844 21.9812Z" fill="#F1F4F6" stroke="#B4BCC0" stroke-width="0.920387"/>
<path d="M46.3236 28.8984V46.182C46.3236 49.7032 43.5119 52.625 39.9908 52.6591C39.9342 52.6596 10.4538 52.6591 10.4538 52.6591C10.3865 52.6591 10.3195 52.6576 10.2528 52.6547C11.0716 53.6485 12.3118 54.2822 13.7 54.2822C13.7 54.2822 43.1804 54.2828 43.2369 54.2822C46.758 54.248 49.5697 51.3263 49.5697 47.805V29.2236C49.5697 29.044 49.4242 28.8984 49.2445 28.8984H46.3236Z" fill="#DFEAEF"/>
<path d="M43.0431 52.3508H43.3047C45.698 52.3508 47.6381 50.4106 47.6381 48.0174V28.8984H38.7097V48.0174C38.7097 50.4106 40.6498 52.3508 43.0431 52.3508Z" fill="#D0E2E7"/>
<path d="M38.7097 47.8853H44.9022C44.9757 47.8853 45.0354 47.8257 45.0354 47.7522V41.6019C45.0354 41.5284 44.9757 41.4688 44.9022 41.4688H38.7097V47.8853Z" fill="#788181"/>
<path d="M12.4863 29.5124H24.2157C24.327 29.5124 24.4173 29.4221 24.4173 29.3108V25.8813C24.4173 25.77 24.327 25.6797 24.2157 25.6797H12.4863C12.3749 25.6797 12.2847 25.77 12.2847 25.8813V29.3109C12.2847 29.4222 12.3749 29.5124 12.4863 29.5124Z" fill="#018C81"/>
<path d="M35.6604 48.4962C35.6604 50.8248 36.72 52.906 38.3831 54.2841H15.0074C13.3442 52.906 12.2847 50.8249 12.2847 48.4962V44.4025C12.2847 44.3269 12.346 44.2656 12.4215 44.2656H35.5236C35.5991 44.2656 35.6604 44.3269 35.6604 44.4025V48.4962Z" fill="#CFD8DC"/>
<path d="M36.9199 52.6564C31.2554 52.6565 19.2232 52.6563 13.5441 52.6562C13.951 53.266 14.4446 53.8129 15.0075 54.2793H38.3833C37.8205 53.8129 37.3269 53.2661 36.9199 52.6564Z" fill="#B4BCC0"/>
<path d="M18.6466 46.832C18.7188 46.832 18.7774 46.8906 18.7774 46.9629V48.4912C18.7774 50.8198 19.837 52.9009 21.5001 54.2791H18.2539C16.5908 52.9009 15.5312 50.8199 15.5312 48.4912V46.9629C15.5312 46.8906 15.5898 46.832 15.6621 46.832H18.6466Z" fill="#2980BA"/>
<path d="M20.0366 52.6563C18.8966 52.6563 17.8037 52.6563 16.7904 52.6562C17.1973 53.266 17.691 53.8129 18.2538 54.2792H21.4999C20.9372 53.8129 20.4435 53.2661 20.0366 52.6563Z" fill="#285680"/>
<path d="M25.2708 48.6176C25.3092 50.8939 26.36 52.9236 27.9924 54.2762H24.7462C23.1146 52.9243 22.0641 50.8959 22.0247 48.6209C22.0234 48.548 22.0831 48.4883 22.156 48.4883H25.1405C25.2122 48.4882 25.2696 48.5459 25.2708 48.6176Z" fill="#2980BA"/>
<path d="M26.5291 52.6562C25.4486 52.6562 24.3588 52.6562 23.283 52.6562C23.6898 53.266 24.1835 53.8128 24.7463 54.2791H27.9925C27.4296 53.8129 26.936 53.266 26.5291 52.6562Z" fill="#285680"/>
<path d="M32.254 51.3828H29.2931C29.1989 51.3828 29.1344 51.4799 29.173 51.5657C29.6475 52.6213 30.3584 53.5475 31.2385 54.2768H34.4846C33.5758 53.5237 32.8474 52.5605 32.3734 51.4619C32.3528 51.414 32.3062 51.3828 32.254 51.3828Z" fill="#285680"/>
<path d="M33.0217 52.6562C31.9994 52.6562 30.9072 52.6562 29.7755 52.6562C30.1823 53.2659 30.6759 53.8128 31.2386 54.2791H34.4848C33.922 53.8128 33.4285 53.2659 33.0217 52.6562Z" fill="#2980BA"/>
<path d="M35.4632 35.6277C35.4632 33.7461 33.9324 32.2153 32.0509 32.2153H31.0758C30.4646 32.2153 29.9674 31.7181 29.9674 31.107C29.9674 30.4958 30.4646 29.9986 31.0758 29.9986H32.0509C32.4976 29.9986 32.8985 30.2644 33.0726 30.6758C33.3204 31.2618 33.9966 31.5358 34.5823 31.2881C35.1683 31.0402 35.4424 30.3643 35.1946 29.7783C34.7473 28.7207 33.8124 27.9758 32.7153 27.7593V26.8864C32.7153 26.2501 32.1996 25.7344 31.5633 25.7344C30.927 25.7344 30.4112 26.2501 30.4112 26.8864V27.7596C28.8466 28.0696 27.6633 29.4527 27.6633 31.107C27.6633 32.9886 29.1941 34.5193 31.0757 34.5193H32.0508C32.662 34.5193 33.1591 35.0165 33.1591 35.6277C33.1591 36.2387 32.662 36.736 32.0508 36.736H31.0757C30.6152 36.736 30.2096 36.4588 30.0424 36.0301C29.8112 35.4373 29.1433 35.1441 28.5505 35.3753C27.9577 35.6066 27.6647 36.2744 27.8958 36.8672C28.3283 37.9761 29.2783 38.7554 30.4113 38.9762V39.8482C30.4113 40.4845 30.9271 41.0003 31.5633 41.0003C32.1996 41.0003 32.7154 40.4845 32.7154 39.8482V38.975C34.28 38.6649 35.4632 37.2819 35.4632 35.6277Z" fill="#018C81"/>
<path d="M33.9774 28.9655C34.2252 29.5514 33.9511 30.2274 33.3651 30.4752C33.2513 30.5234 33.1342 30.5517 33.0175 30.5621C33.0378 30.5982 33.0562 30.6357 33.0726 30.6745C33.3204 31.2605 33.9967 31.5345 34.5824 31.2867C35.1684 31.0389 35.4425 30.3629 35.1946 29.777C34.8281 28.9104 34.1342 28.2538 33.2921 27.9258C33.5769 28.2217 33.8109 28.5719 33.9774 28.9655Z" fill="#0A635C"/>
<path d="M33.2871 32.4492C33.8803 33.0634 34.2458 33.899 34.2458 34.8183C34.2458 36.2427 33.3684 37.4661 32.1256 37.9765C31.7501 38.1306 31.498 38.4876 31.498 38.8936V39.0388C31.498 39.6363 31.0431 40.1275 30.4607 40.1851C30.6109 40.6806 31.0859 41.0348 31.638 41C32.2496 40.9614 32.7153 40.4323 32.7153 39.8196V38.9772C34.2799 38.6671 35.4631 37.2841 35.4631 35.6298C35.4631 34.184 34.5594 32.9455 33.2871 32.4492Z" fill="#0A635C"/>
<path d="M23.9714 32.8813H15.6473C15.3111 32.8813 15.0387 32.6088 15.0387 32.2727C15.0387 31.9365 15.3112 31.6641 15.6473 31.6641H23.9714C24.3076 31.6641 24.58 31.9366 24.58 32.2727C24.5801 32.6088 24.3076 32.8813 23.9714 32.8813Z" fill="#788181"/>
<path d="M23.9712 35.6743H12.4822C12.1459 35.6743 11.8735 35.4018 11.8735 35.0657C11.8735 34.7295 12.146 34.457 12.4822 34.457H23.9712C24.3075 34.457 24.5799 34.7295 24.5799 35.0657C24.5799 35.4018 24.3075 35.6743 23.9712 35.6743Z" fill="#788181"/>
<path d="M23.9713 38.4673H15.7284C15.3922 38.4673 15.1198 38.1948 15.1198 37.8586C15.1198 37.5224 15.3922 37.25 15.7284 37.25H23.9713C24.3075 37.25 24.5799 37.5225 24.5799 37.8586C24.58 38.1949 24.3075 38.4673 23.9713 38.4673Z" fill="#788181"/>
<path d="M21.5366 41.2641H12.4822C12.1459 41.2641 11.8735 40.9916 11.8735 40.6555C11.8735 40.3194 12.146 40.0469 12.4822 40.0469H21.5366C21.8729 40.0469 22.1453 40.3194 22.1453 40.6555C22.1453 40.9916 21.8728 41.2641 21.5366 41.2641Z" fill="#788181"/>
<path d="M38.7097 36.4876V35.2702H45.0354C45.3716 35.2702 45.644 35.5427 45.644 35.8789C45.644 36.2151 45.3715 36.4875 45.0354 36.4875H38.7097V36.4876ZM45.0354 39.2812C45.3716 39.2812 45.644 39.0088 45.644 38.6726C45.644 38.3364 45.3715 38.064 45.0354 38.064H38.7097V39.2813H45.0354V39.2812ZM45.0354 32.4766H38.7097V33.6939H45.0354C45.3716 33.6939 45.644 33.4214 45.644 33.0853C45.644 32.7491 45.3715 32.4766 45.0354 32.4766Z" fill="#788181"/>
<path d="M15.9302 11.1697V18.4425H14.7583L11.3315 13.4886H11.2711V18.4425H9.95361V11.1697H11.1326L14.5559 16.1271H14.6198V11.1697H15.9302Z" fill="#018C81"/>
<path d="M17.3657 18.4425V11.1697H22.0958V12.2741H18.6832V14.2486H21.8508V15.353H18.6832V17.3381H22.1242V18.4425H17.3657Z" fill="#018C81"/>
<path d="M24.9705 18.4425L22.9179 11.1697H24.3348L25.6452 16.5142H25.7127L27.1118 11.1697H28.4009L29.8036 16.5178H29.8675L31.1779 11.1697H32.5948L30.5422 18.4425H29.2425L27.7865 13.3395H27.7297L26.2702 18.4425H24.9705Z" fill="#018C81"/>
<path d="M37.4119 13.169C37.3787 12.8589 37.2391 12.6174 36.9929 12.4446C36.749 12.2718 36.4318 12.1854 36.0411 12.1854C35.7665 12.1854 35.531 12.2268 35.3345 12.3097C35.138 12.3925 34.9876 12.505 34.8835 12.647C34.7793 12.7891 34.726 12.9512 34.7237 13.1335C34.7237 13.285 34.758 13.4164 34.8267 13.5277C34.8977 13.639 34.9936 13.7337 35.1143 13.8118C35.235 13.8875 35.3688 13.9515 35.5156 14.0036C35.6624 14.0556 35.8103 14.0994 35.9595 14.1349L36.6413 14.3054C36.9159 14.3693 37.1799 14.4557 37.4332 14.5646C37.6889 14.6735 37.9173 14.8108 38.1186 14.9766C38.3222 15.1423 38.4831 15.3423 38.6015 15.5767C38.7199 15.8111 38.7791 16.0857 38.7791 16.4006C38.7791 16.8267 38.6702 17.2019 38.4524 17.5263C38.2346 17.8482 37.9197 18.1004 37.5078 18.2827C37.0982 18.4626 36.6022 18.5526 36.0198 18.5526C35.454 18.5526 34.9628 18.465 34.5461 18.2898C34.1318 18.1146 33.8075 17.8589 33.5731 17.5227C33.3411 17.1866 33.2156 16.777 33.1967 16.294H34.4929C34.5118 16.5473 34.5899 16.758 34.7272 16.9261C34.8645 17.0942 35.0433 17.2197 35.2635 17.3026C35.486 17.3854 35.7346 17.4268 36.0092 17.4268C36.2956 17.4268 36.5466 17.3842 36.762 17.299C36.9798 17.2114 37.1503 17.0907 37.2734 16.9368C37.3965 16.7805 37.4592 16.5982 37.4616 16.3899C37.4592 16.2005 37.4036 16.0443 37.2947 15.9212C37.1858 15.7957 37.0331 15.6915 36.8366 15.6087C36.6425 15.5234 36.4152 15.4477 36.1548 15.3814L35.3274 15.1683C34.7284 15.0144 34.2549 14.7813 33.9069 14.4688C33.5613 14.1539 33.3885 13.736 33.3885 13.2152C33.3885 12.7867 33.5045 12.4115 33.7365 12.0895C33.9708 11.7675 34.2893 11.5178 34.6917 11.3402C35.0942 11.1603 35.5499 11.0703 36.0589 11.0703C36.575 11.0703 37.0272 11.1603 37.4154 11.3402C37.8061 11.5178 38.1126 11.7652 38.3352 12.0824C38.5577 12.3973 38.6725 12.7595 38.6796 13.169H37.4119Z" fill="#018C81"/>
</svg>
