<svg width="88" height="88" viewBox="0 0 88 88" fill="none" xmlns="http://www.w3.org/2000/svg">
<rect width="88" height="88" rx="8" fill="#F8F9FC"/>
<path d="M38.8033 71.9318C38.8033 73.1856 38.5684 74.2595 38.0987 75.1534C37.6328 76.0436 36.9964 76.7254 36.1896 77.1989C35.3866 77.6723 34.4756 77.9091 33.4567 77.9091C32.4377 77.9091 31.5249 77.6723 30.718 77.1989C29.915 76.7216 29.2786 76.0379 28.8089 75.1477C28.343 74.2538 28.1101 73.1818 28.1101 71.9318C28.1101 70.678 28.343 69.6061 28.8089 68.7159C29.2786 67.822 29.915 67.1383 30.718 66.6648C31.5249 66.1913 32.4377 65.9545 33.4567 65.9545C34.4756 65.9545 35.3866 66.1913 36.1896 66.6648C36.9964 67.1383 37.6328 67.822 38.0987 68.7159C38.5684 69.6061 38.8033 70.678 38.8033 71.9318ZM36.6839 71.9318C36.6839 71.0492 36.5457 70.3049 36.2692 69.6989C35.9964 69.089 35.6177 68.6288 35.1328 68.3182C34.648 68.0038 34.0893 67.8466 33.4567 67.8466C32.8241 67.8466 32.2654 68.0038 31.7805 68.3182C31.2957 68.6288 30.915 69.089 30.6385 69.6989C30.3658 70.3049 30.2294 71.0492 30.2294 71.9318C30.2294 72.8144 30.3658 73.5606 30.6385 74.1705C30.915 74.7765 31.2957 75.2367 31.7805 75.5511C32.2654 75.8617 32.8241 76.017 33.4567 76.017C34.0893 76.017 34.648 75.8617 35.1328 75.5511C35.6177 75.2367 35.9964 74.7765 36.2692 74.1705C36.5457 73.5606 36.6839 72.8144 36.6839 71.9318ZM40.7962 77.75V66.1136H45.2507C46.0916 66.1136 46.7905 66.2462 47.3473 66.5114C47.9079 66.7727 48.3265 67.1307 48.603 67.5852C48.8833 68.0398 49.0234 68.5549 49.0234 69.1307C49.0234 69.6042 48.9325 70.0095 48.7507 70.3466C48.5689 70.6799 48.3246 70.9508 48.0178 71.1591C47.7109 71.3674 47.3681 71.517 46.9893 71.608V71.7216C47.4022 71.7443 47.7981 71.8712 48.1768 72.1023C48.5594 72.3295 48.8719 72.6515 49.1143 73.0682C49.3568 73.4848 49.478 73.9886 49.478 74.5795C49.478 75.1818 49.3322 75.7235 49.0405 76.2045C48.7488 76.6818 48.3094 77.0587 47.7223 77.3352C47.1352 77.6117 46.3965 77.75 45.5064 77.75H40.7962ZM42.9041 75.9886H45.1712C45.9363 75.9886 46.4875 75.8428 46.8246 75.5511C47.1655 75.2557 47.3359 74.8769 47.3359 74.4148C47.3359 74.0701 47.2507 73.7595 47.0803 73.483C46.9098 73.2027 46.6674 72.983 46.353 72.8239C46.0386 72.661 45.6636 72.5795 45.228 72.5795H42.9041V75.9886ZM42.9041 71.0625H44.9893C45.353 71.0625 45.6806 70.9962 45.9723 70.8636C46.264 70.7273 46.4931 70.536 46.6598 70.2898C46.8303 70.0398 46.9155 69.7443 46.9155 69.4034C46.9155 68.9527 46.7564 68.5814 46.4382 68.2898C46.1238 67.9981 45.656 67.8523 45.0348 67.8523H42.9041V71.0625ZM52.8686 66.1136L55.897 75.2727H56.0163L59.0391 66.1136H61.3572L57.255 77.75H54.6527L50.5561 66.1136H52.8686Z" fill="#018C81"/>
<path d="M17 25.2383H20.2094V31.657H17V25.2383Z" fill="#95A5A5"/>
<path d="M20.2094 30.0524V31.657H17V25.2383H18.6047V28.4477C18.6047 29.3356 19.3215 30.0524 20.2094 30.0524Z" fill="#788181"/>
<path d="M55.1863 20.2617H58.3957V26.6805H55.1863V20.2617Z" fill="#95A5A5"/>
<path d="M58.3957 25.0758V26.6805H55.1863V20.2617H56.791V23.4711C56.791 24.359 57.5077 25.0758 58.3957 25.0758Z" fill="#788181"/>
<path d="M21.2014 27.7266H24.4108V35.7663H21.2014V27.7266Z" fill="#2980BA"/>
<path d="M24.4108 34.3195V36.5172H21.2014V27.7266H22.8061V32.1219C22.8061 33.3379 23.5229 34.3195 24.4108 34.3195Z" fill="#285680"/>
<path d="M59.3877 22.7461H62.5971V30.7859H59.3877V22.7461Z" fill="#2980BA"/>
<path d="M62.5971 29.3391V31.5367H59.3877V22.7461H60.9924V27.1414C60.9924 28.3575 61.7091 29.3391 62.5971 29.3391Z" fill="#285680"/>
<path d="M25.4023 32.082H28.6117V38.5008H25.4023V32.082Z" fill="#95A5A5"/>
<path d="M28.6117 36.8961V38.5008H25.4023V32.082H27.007V35.2914C27.007 36.1793 27.7238 36.8961 28.6117 36.8961Z" fill="#788181"/>
<path d="M63.5894 27.1094H66.7987V33.5281H63.5894V27.1094Z" fill="#95A5A5"/>
<path d="M66.7987 31.9234V33.5281H63.5894V27.1094H65.194V30.3188C65.194 31.2067 65.9108 31.9234 66.7987 31.9234Z" fill="#788181"/>
<path d="M35.4101 29.7513C35.1149 29.7513 34.8752 29.5122 34.8752 29.2164V24.9372C34.8752 24.6414 35.1149 24.4023 35.4101 24.4023C35.7054 24.4023 35.945 24.6414 35.945 24.9372V29.2164C35.945 29.5122 35.7054 29.7513 35.4101 29.7513Z" fill="#788181"/>
<path d="M33.8054 24.4023H37.0148V31.0441H33.8054V24.4023Z" fill="#95A5A5"/>
<path d="M37.0148 29.3837V31.0441H33.8054V24.4023H35.4101V27.7232C35.4101 28.642 36.1269 29.3837 37.0148 29.3837Z" fill="#788181"/>
<path d="M42.2083 17.168H45.4176V23.5867H42.2083V17.168Z" fill="#95A5A5"/>
<path d="M45.4176 21.982V23.5867H42.2083V17.168H43.8129V20.3773C43.8129 21.2653 44.5297 21.982 45.4176 21.982Z" fill="#788181"/>
<path d="M50.6116 17.3594H53.821V23.7781H50.6116V17.3594Z" fill="#95A5A5"/>
<path d="M53.821 22.1734V23.7781H50.6116V17.3594H52.2163V20.5688C52.2163 21.4567 52.933 22.1734 53.821 22.1734Z" fill="#788181"/>
<path d="M29.6042 29.0352H32.8136V35.4539H29.6042V29.0352Z" fill="#2980BA"/>
<path d="M32.8136 34.9431V36.9124H29.6042V29.0352H31.2089V32.9738C31.2089 34.0635 31.9257 34.9431 32.8136 34.9431Z" fill="#285680"/>
<path d="M67.7905 24.0547H70.9999V30.4734H67.7905V24.0547Z" fill="#2980BA"/>
<path d="M70.9999 29.9627V31.932H67.7905V24.0547H69.3952V27.9933C69.3952 29.083 70.112 29.9627 70.9999 29.9627Z" fill="#285680"/>
<path d="M38.0071 18.1055H41.2165V32.086H38.0071V18.1055Z" fill="#2980BA"/>
<path d="M41.2165 28.701V32.2328H38.0071V18.1055H39.6118V25.1691C39.6118 27.1234 40.3285 28.701 41.2165 28.701Z" fill="#285680"/>
<path d="M46.4097 11.2539H49.619V22.2458H46.4097V11.2539Z" fill="#2980BA"/>
<path d="M49.619 19.4978V22.2458H46.4097V11.2539H48.0144V16.7499C48.0144 18.2704 48.7311 19.4978 49.619 19.4978Z" fill="#285680"/>
<g clip-path="url(#clip0_793_67818)">
<g style="mix-blend-mode:multiply" opacity="0.1">
<path d="M71.0679 55.3804L71.3977 55.5381V65.5989H18.3052V45.801L18.6344 47.1902L18.9643 47.6651L19.2942 46.871L19.624 45.2322L19.9539 44.793L20.2837 45.7729L20.6136 47.9354L20.9434 50.434L21.2733 49.7507L21.6032 51.6823L21.933 53.6966L22.2629 50.2219L22.5927 46.9874L22.9226 47.8979L23.2524 48.9679L23.5823 48.7464L23.9121 48.3259L24.242 49.3846L24.5719 51.902L24.9017 51.7499L25.2316 51.3557L25.5614 53.2761L25.8913 50.1355L26.2211 48.7708L26.551 49.4785L26.8809 52.3581L27.2107 51.5847L27.5406 50.4659L27.8704 49.0036L28.2003 48.3559L28.5301 50.4884L28.86 47.8303L29.1899 48.0556L29.5197 49.807L29.8496 49.1932L30.1794 49.1687L30.5093 49.9647L30.8391 48.2771L31.169 48.722L31.4988 50.907L31.8287 52.0953L32.1586 50.5785L32.4884 49.1838L32.8183 52.0259L33.1481 53.216L33.478 53.1334L33.8078 49.471L34.1377 50.633L34.4676 51.1774L34.7974 54.8605L35.1273 56.9836L35.4571 50.8301L35.787 49.6474L36.1168 52.2755L36.4467 50.3852L36.7766 51.9977L37.1064 52.8349L37.4363 53.6628L37.7661 53.4075L38.096 49.4147L38.4258 50.7982L38.7557 50.3326L39.0855 50.1599L39.4154 50.939L39.7453 49.0373L40.0751 49.6981L40.405 50.1242L40.7348 49.6944L41.0647 50.6517L41.3808 50.2951L41.7107 49.7882L42.0405 49.8408L42.3704 51.0234L42.7002 49.6212L43.0301 51.2074L43.3599 50.3964L43.6898 50.8714L44.0197 49.3583L44.3495 48.8721L44.6794 51.6992L45.0092 51.4308L45.3391 51.5866L45.6689 50.2763L45.9988 51.2449L46.3286 50.5185L46.6585 51.9151L46.9884 51.7574L47.3182 53.1879L47.6481 52.8819L47.9779 53.171L48.3078 50.1918L48.6376 49.9947L48.9675 52.5853L49.2974 50.6611L49.6272 53.4826L49.9571 51.1154L50.2869 50.4509L50.6168 51.3144L50.9466 51.3651L51.2765 51.7368L51.6064 53.5746L51.9362 57.6556L52.2661 56.6945L52.5959 50.1074L52.9258 53.1766L53.2556 50.9164L53.5855 52.2887L53.9153 50.7756L54.2452 51.7462L54.5751 53.8393L54.9049 54.485L55.2348 54.4324L55.5646 54.3499L55.8945 53.1541L56.2243 55.1777L56.5542 52.4614L56.8841 54.7948L57.2139 52.9551L57.5438 51.733L57.8736 57.2971L58.2035 59.0016L58.5333 59.5066L58.8632 57.9128L59.1931 56.3003L59.5229 54.3179L59.8528 56.1783L60.1826 55.6545L60.5125 56.3528L60.8423 55.035L61.1722 55.9887L61.5021 53.1372L61.8319 52.4783L62.1618 55.5438L62.4916 58.9547L62.8215 54.3236L63.1513 55.6977L63.4812 54.3555L63.8111 52.818L64.1409 57.5317L64.4708 56.4899L64.8006 54.6258L65.1305 57.4792L65.4603 57.7908L65.7902 58.5173L66.12 59.0016L66.4499 54.592L66.7798 55.1683L67.1096 58.6581L67.4395 55.8554L67.7693 55.0951L68.0992 57.4172L68.429 58.2169L68.7589 54.027L69.0888 55.6188L69.4186 56.0074L69.7485 55.1627L70.0783 55.4555L70.4082 57.5017L70.738 57.3046L71.0679 55.3804Z" fill="url(#paint0_linear_793_67818)"/>
</g>
<path d="M71.3977 55.5381L71.0679 55.3804L70.738 57.3046L70.4082 57.5017L70.0783 55.4555L69.7485 55.1627L69.4186 56.0074L69.0888 55.6188L68.7589 54.027L68.429 58.2169L68.0992 57.4172L67.7693 55.0951L67.4395 55.8554L67.1096 58.6581L66.7798 55.1683L66.4499 54.592L66.12 59.0016L65.7902 58.5173L65.4603 57.7908L65.1305 57.4792L64.8006 54.6258L64.4708 56.4899L64.1409 57.5317L63.811 52.818L63.4812 54.3555L63.1513 55.6977L62.8215 54.3236L62.4916 58.9547L62.1618 55.5438L61.8319 52.4783L61.5021 53.1372L61.1722 55.9887L60.8423 55.035L60.5125 56.3528L60.1826 55.6545L59.8528 56.1783L59.5229 54.3179L59.1931 56.3003L58.8632 57.9128L58.5333 59.5066L58.2035 59.0016L57.8736 57.2971L57.5438 51.733L57.2139 52.9551L56.8841 54.7948L56.5542 52.4614L56.2243 55.1777L55.8945 53.1541L55.5646 54.3499L55.2348 54.4325L54.9049 54.485L54.5751 53.8393L54.2452 51.7462L53.9153 50.7756L53.5855 52.2887L53.2556 50.9164L52.9258 53.1766L52.5959 50.1074L52.2661 56.6945L51.9362 57.6556L51.6064 53.5746L51.2765 51.7368L50.9466 51.3651L50.6168 51.3144L50.2869 50.4509L49.9571 51.1154L49.6272 53.4826L49.2974 50.6611L48.9675 52.5853L48.6376 49.9947L48.3078 50.1918L47.9779 53.171L47.6481 52.8819L47.3182 53.1879L46.9884 51.7574L46.6585 51.9151L46.3286 50.5185L45.9988 51.2449L45.6689 50.2763L45.3391 51.5866L45.0092 51.4308L44.6794 51.6992L44.3495 48.8721L44.0197 49.3583L43.6898 50.8714L43.3599 50.3964L43.0301 51.2074L42.7002 49.6212L42.3704 51.0234L42.0405 49.8408L41.7107 49.7882L41.3808 50.2951L41.0647 50.6517L40.7348 49.6944L40.405 50.1242L40.0751 49.6981L39.7453 49.0373L39.4154 50.939L39.0855 50.1599L38.7557 50.3326L38.4258 50.7982L38.096 49.4147L37.7661 53.4075L37.4363 53.6628L37.1064 52.8349L36.7766 51.9977L36.4467 50.3852L36.1168 52.2755L35.787 49.6474L35.4571 50.8301L35.1273 56.9836L34.7974 54.8605L34.4676 51.1774L34.1377 50.633L33.8078 49.471L33.478 53.1334L33.1481 53.216L32.8183 52.0259L32.4884 49.1838L32.1586 50.5785L31.8287 52.0953L31.4988 50.907L31.169 48.722L30.8391 48.2771L30.5093 49.9647L30.1794 49.1687L29.8496 49.1932L29.5197 49.807L29.1899 48.0556L28.86 47.8303L28.5301 50.4884L28.2003 48.3559L27.8704 49.0036L27.5406 50.4659L27.2107 51.5847L26.8809 52.3581L26.551 49.4785L26.2211 48.7708L25.8913 50.1355L25.5614 53.2761L25.2316 51.3557L24.9017 51.7499L24.5719 51.902L24.242 49.3846L23.9121 48.3259L23.5823 48.7464L23.2524 48.9679L22.9226 47.8979L22.5927 46.9874L22.2629 50.2219L21.933 53.6966L21.6032 51.6823L21.2733 49.7507L20.9434 50.434L20.6136 47.9354L20.2837 45.7729L19.9539 44.793L19.624 45.2322L19.2942 46.871L18.9643 47.6651L18.6344 47.1902L18.3052 45.801" stroke="#2980BA" stroke-width="0.374633" stroke-linecap="round" stroke-linejoin="round"/>
</g>
<line x1="12.949" y1="41.9104" x2="76.0508" y2="41.9104" stroke="#285680" stroke-width="0.679166" stroke-linecap="round"/>
<defs>
<linearGradient id="paint0_linear_793_67818" x1="44.8515" y1="44.793" x2="44.8515" y2="64.6726" gradientUnits="userSpaceOnUse">
<stop stop-color="#285680"/>
<stop offset="1" stop-color="#285680" stop-opacity="0"/>
</linearGradient>
<clipPath id="clip0_793_67818">
<rect width="54" height="15" fill="white" transform="translate(17.9204 44)"/>
</clipPath>
</defs>
</svg>
