<svg width="88" height="88" viewBox="0 0 88 88" fill="none" xmlns="http://www.w3.org/2000/svg">
<rect width="88" height="88" rx="8" fill="#F8F9FC"/>
<path d="M16.7771 39.561C16.3278 39.561 15.9631 39.1972 15.9631 38.7471V32.2358C15.9631 31.7857 16.3278 31.4219 16.7771 31.4219C17.2263 31.4219 17.591 31.7857 17.591 32.2358V38.7471C17.591 39.1972 17.2263 39.561 16.7771 39.561Z" fill="#788181"/>
<path d="M16.7771 47.106C16.3278 47.106 15.9631 46.7421 15.9631 46.2921V39.7807C15.9631 39.3306 16.3278 38.9668 16.7771 38.9668C17.2263 38.9668 17.591 39.3306 17.591 39.7807V46.2921C17.591 46.7421 17.2263 47.106 16.7771 47.106Z" fill="#788181"/>
<path d="M14.3352 34.3809H19.2187V44.1479H14.3352V34.3809Z" fill="#95A5A5"/>
<path d="M19.2187 41.7061V44.1479H14.3352V34.3809H16.777V39.2644C16.777 40.6155 17.8676 41.7061 19.2187 41.7061Z" fill="#788181"/>
<path d="M23.1701 43.3501C22.7208 43.3501 22.3562 42.9863 22.3562 42.5362V36.0249C22.3562 35.5748 22.7208 35.2109 23.1701 35.2109C23.6194 35.2109 23.984 35.5748 23.984 36.0249V42.5362C23.984 42.9863 23.6194 43.3501 23.1701 43.3501Z" fill="#285680"/>
<path d="M23.1701 57.0085C22.7208 57.0085 22.3562 56.4627 22.3562 55.7875V46.0198C22.3562 45.3446 22.7208 44.7988 23.1701 44.7988C23.6194 44.7988 23.984 45.3446 23.984 46.0198V55.7875C23.984 56.4627 23.6194 57.0085 23.1701 57.0085Z" fill="#285680"/>
<path d="M20.7283 38.1719H25.6118V50.4055H20.7283V38.1719Z" fill="#2980BA"/>
<path d="M25.6118 48.204V51.548H20.7283V38.1719H23.17V44.86C23.17 46.7103 24.2607 48.204 25.6118 48.204Z" fill="#285680"/>
<path d="M29.5629 48.2329C29.1137 48.2329 28.749 47.8691 28.749 47.419V40.9077C28.749 40.4576 29.1137 40.0938 29.5629 40.0938C30.0122 40.0938 30.3769 40.4576 30.3769 40.9077V47.419C30.3769 47.8691 30.0122 48.2329 29.5629 48.2329Z" fill="#788181"/>
<path d="M29.5629 56.6528C29.1137 56.6528 28.749 56.289 28.749 55.8389V49.3276C28.749 48.8775 29.1137 48.5137 29.5629 48.5137C30.0122 48.5137 30.3769 48.8775 30.3769 49.3276V55.8389C30.3769 56.289 30.0122 56.6528 29.5629 56.6528Z" fill="#788181"/>
<path d="M27.1211 44.7988H32.0046V54.5658H27.1211V44.7988Z" fill="#95A5A5"/>
<path d="M32.0046 52.1241V54.5658H27.1211V44.7988H29.5628V49.6823C29.5628 51.0334 30.6535 52.1241 32.0046 52.1241Z" fill="#788181"/>
<path d="M42.3491 41.2466C41.8998 41.2466 41.5352 40.8828 41.5352 40.4327V33.9213C41.5352 33.4712 41.8998 33.1074 42.3491 33.1074C42.7984 33.1074 43.163 33.4712 43.163 33.9213V40.4327C43.163 40.8828 42.7984 41.2466 42.3491 41.2466Z" fill="#788181"/>
<path d="M42.3491 53.1602C41.8998 53.1602 41.5352 52.6467 41.5352 52.0114V42.8207C41.5352 42.1854 41.8998 41.6719 42.3491 41.6719C42.7984 41.6719 43.163 42.1854 43.163 42.8207V52.0114C43.163 52.6467 42.7984 53.1602 42.3491 53.1602Z" fill="#788181"/>
<path d="M39.9072 33.1074H44.7907V43.2138H39.9072V33.1074Z" fill="#95A5A5"/>
<path d="M44.7907 40.6872V43.2138H39.9072V33.1074H42.349V38.1606C42.349 39.5586 43.4396 40.6872 44.7907 40.6872Z" fill="#788181"/>
<path d="M55.1352 22.9126C54.6859 22.9126 54.3213 22.5488 54.3213 22.0987V15.5874C54.3213 15.1373 54.6859 14.7734 55.1352 14.7734C55.5845 14.7734 55.9491 15.1373 55.9491 15.5874V22.0987C55.9491 22.5488 55.5845 22.9126 55.1352 22.9126Z" fill="#788181"/>
<path d="M52.6934 22.0977H57.5769V31.8647H52.6934V22.0977Z" fill="#95A5A5"/>
<path d="M57.5769 29.4229V31.8647H52.6934V22.0977H55.1351V26.9812C55.1351 28.3323 56.2258 29.4229 57.5769 29.4229Z" fill="#788181"/>
<path d="M67.9213 23.2095C67.4721 23.2095 67.1074 22.8457 67.1074 22.3956V15.8842C67.1074 15.4341 67.4721 15.0703 67.9213 15.0703C68.3706 15.0703 68.7353 15.4341 68.7353 15.8842V22.3956C68.7353 22.8457 68.3706 23.2095 67.9213 23.2095Z" fill="#788181"/>
<path d="M67.9213 39.4888C67.4721 39.4888 67.1074 39.125 67.1074 38.6749V32.1635C67.1074 31.7134 67.4721 31.3496 67.9213 31.3496C68.3706 31.3496 68.7353 31.7134 68.7353 32.1635V38.6749C68.7353 39.125 68.3706 39.4888 67.9213 39.4888Z" fill="#788181"/>
<path d="M65.4795 22.3945H70.363V32.1615H65.4795V22.3945Z" fill="#95A5A5"/>
<path d="M70.363 29.7198V32.1615H65.4795V22.3945H67.9212V27.278C67.9212 28.6291 69.0119 29.7198 70.363 29.7198Z" fill="#788181"/>
<path d="M35.9558 42.7114C35.5065 42.7114 35.1418 42.3476 35.1418 41.8975V35.3862C35.1418 34.9361 35.5065 34.5723 35.9558 34.5723C36.405 34.5723 36.7697 34.9361 36.7697 35.3862V41.8975C36.7697 42.3476 36.405 42.7114 35.9558 42.7114Z" fill="#285680"/>
<path d="M35.9558 58.9904C35.5065 58.9904 35.1418 58.5148 35.1418 57.9263V49.4137C35.1418 48.8253 35.5065 48.3496 35.9558 48.3496C36.405 48.3496 36.7697 48.8253 36.7697 49.4137V57.9263C36.7697 58.5148 36.405 58.9904 35.9558 58.9904Z" fill="#285680"/>
<path d="M33.5142 40.1523H38.3977V49.9194H33.5142V40.1523Z" fill="#2980BA"/>
<path d="M38.3977 49.1421V52.1387H33.5142V40.1523H35.9559V46.1455C35.9559 47.8036 37.0466 49.1421 38.3977 49.1421Z" fill="#285680"/>
<path d="M48.7419 28.7446C48.2926 28.7446 47.928 28.3808 47.928 27.9307V21.4194C47.928 20.9693 48.2926 20.6055 48.7419 20.6055C49.1912 20.6055 49.5558 20.9693 49.5558 21.4194V27.9307C49.5558 28.3808 49.1912 28.7446 48.7419 28.7446Z" fill="#285680"/>
<path d="M48.7419 48.2351C48.2926 48.2351 47.928 47.7277 47.928 47.1V38.0198C47.928 37.3921 48.2926 36.8848 48.7419 36.8848C49.1912 36.8848 49.5558 37.3921 49.5558 38.0198V47.1C49.5558 47.7277 49.1912 48.2351 48.7419 48.2351Z" fill="#285680"/>
<path d="M46.3003 23.5273H51.1838V44.8006H46.3003V23.5273Z" fill="#2980BA"/>
<path d="M51.1838 39.6498V45.024H46.3003V23.5273H48.742V34.2757C48.742 37.2494 49.8327 39.6498 51.1838 39.6498Z" fill="#285680"/>
<path d="M61.5283 19.1392C61.079 19.1392 60.7144 18.7754 60.7144 18.3253V11.8139C60.7144 11.3638 61.079 11 61.5283 11C61.9776 11 62.3422 11.3638 62.3422 11.8139V18.3253C62.3422 18.7754 61.9776 19.1392 61.5283 19.1392Z" fill="#285680"/>
<path d="M61.5283 35.4185C61.079 35.4185 60.7144 35.0546 60.7144 34.6046V28.0932C60.7144 27.6431 61.079 27.2793 61.5283 27.2793C61.9776 27.2793 62.3422 27.6431 62.3422 28.0932V34.6046C62.3422 35.0546 61.9776 35.4185 61.5283 35.4185Z" fill="#285680"/>
<path d="M59.0864 13.0879H63.9699V29.8136H59.0864V13.0879Z" fill="#2980BA"/>
<path d="M63.9699 25.6321V29.8136H59.0864V13.0879H61.5282V21.4507C61.5282 23.7644 62.6188 25.6321 63.9699 25.6321Z" fill="#285680"/>
<path d="M23.1477 77.9102V66.2738H27.5114C28.4053 66.2738 29.1553 66.4405 29.7614 66.7738C30.3712 67.1071 30.8314 67.5655 31.142 68.1488C31.4564 68.7283 31.6136 69.3874 31.6136 70.1261C31.6136 70.8723 31.4564 71.5352 31.142 72.1147C30.8277 72.6942 30.3636 73.1507 29.75 73.484C29.1364 73.8136 28.3807 73.9783 27.483 73.9783H24.5909V72.2454H27.1989C27.7216 72.2454 28.1496 72.1545 28.483 71.9727C28.8163 71.7908 29.0625 71.5408 29.2216 71.2227C29.3845 70.9045 29.4659 70.5389 29.4659 70.1261C29.4659 69.7132 29.3845 69.3496 29.2216 69.0352C29.0625 68.7208 28.8144 68.4764 28.4773 68.3022C28.1439 68.1242 27.714 68.0352 27.1875 68.0352H25.2557V77.9102H23.1477ZM40.0885 69.4727C40.0354 68.9764 39.812 68.5901 39.418 68.3136C39.0279 68.037 38.5203 67.8988 37.8953 67.8988C37.4559 67.8988 37.079 67.9651 36.7646 68.0977C36.4502 68.2302 36.2097 68.4102 36.043 68.6374C35.8763 68.8647 35.7911 69.1242 35.7873 69.4158C35.7873 69.6583 35.8423 69.8685 35.9521 70.0465C36.0657 70.2246 36.2191 70.3761 36.4123 70.5011C36.6055 70.6223 36.8195 70.7245 37.0544 70.8079C37.2892 70.8912 37.526 70.9613 37.7646 71.0181L38.8555 71.2908C39.2949 71.3931 39.7173 71.5314 40.1226 71.7056C40.5316 71.8799 40.8972 72.0996 41.2191 72.3647C41.5449 72.6299 41.8025 72.9499 41.9919 73.3249C42.1813 73.6999 42.276 74.1393 42.276 74.6431C42.276 75.3249 42.1017 75.9253 41.7532 76.4442C41.4048 76.9594 40.901 77.3628 40.2419 77.6545C39.5866 77.9424 38.793 78.0863 37.8612 78.0863C36.9559 78.0863 36.1699 77.9461 35.5032 77.6658C34.8404 77.3855 34.3214 76.9764 33.9464 76.4386C33.5752 75.9007 33.3745 75.2454 33.3441 74.4727H35.418C35.4483 74.878 35.5733 75.2151 35.793 75.484C36.0127 75.753 36.2987 75.9537 36.651 76.0863C37.007 76.2189 37.4048 76.2852 37.8441 76.2852C38.3025 76.2852 38.704 76.217 39.0487 76.0806C39.3972 75.9405 39.6699 75.7473 39.8669 75.5011C40.0638 75.2511 40.1642 74.9594 40.168 74.6261C40.1642 74.323 40.0752 74.073 39.901 73.8761C39.7267 73.6753 39.4824 73.5086 39.168 73.3761C38.8574 73.2397 38.4938 73.1185 38.0771 73.0124L36.7532 72.6715C35.7949 72.4253 35.0373 72.0522 34.4805 71.5522C33.9275 71.0484 33.651 70.3799 33.651 69.5465C33.651 68.8609 33.8366 68.2605 34.2078 67.7454C34.5828 67.2302 35.0923 66.8306 35.7362 66.5465C36.3801 66.2586 37.1093 66.1147 37.9237 66.1147C38.7495 66.1147 39.4729 66.2586 40.0941 66.5465C40.7191 66.8306 41.2097 67.2264 41.5657 67.734C41.9218 68.2378 42.1055 68.8174 42.1169 69.4727H40.0885ZM45.782 77.9102H43.532L47.6286 66.2738H50.2309L54.3332 77.9102H52.0832L48.9752 68.6602H48.8843L45.782 77.9102ZM45.8559 73.3477H51.9923V75.0408H45.8559V73.3477ZM56.1859 77.9102V66.2738H60.5495C61.4434 66.2738 62.1934 66.4291 62.7995 66.7397C63.4093 67.0503 63.8696 67.4859 64.1802 68.0465C64.4946 68.6033 64.6518 69.253 64.6518 69.9954C64.6518 70.7416 64.4927 71.3893 64.1745 71.9386C63.8601 72.484 63.3961 72.9064 62.7824 73.2056C62.1688 73.5011 61.415 73.6488 60.5211 73.6488H57.4131V71.8988H60.237C60.7597 71.8988 61.1877 71.8268 61.5211 71.6829C61.8544 71.5352 62.1006 71.3211 62.2597 71.0408C62.4226 70.7567 62.504 70.4083 62.504 69.9954C62.504 69.5825 62.4226 69.2302 62.2597 68.9386C62.0968 68.6431 61.8487 68.4196 61.5154 68.2681C61.1821 68.1128 60.7521 68.0352 60.2256 68.0352H58.2938V77.9102H56.1859ZM62.1972 72.6374L65.0779 77.9102H62.7256L59.8961 72.6374H62.1972Z" fill="#018C81"/>
<path d="M12.7017 26.8317C24.8648 23.9655 23.5536 37.8261 31.5899 37.8261" stroke="#EF4352" stroke-linecap="round" stroke-linejoin="round" stroke-dasharray="0.25 2"/>
<path d="M45.3901 56.2624C54.621 54.8513 55.5984 40.0009 70.6937 41.1667" stroke="#0EA472" stroke-linecap="round" stroke-linejoin="round" stroke-dasharray="0.25 2"/>
</svg>
