<svg width="88" height="88" viewBox="0 0 88 88" fill="none" xmlns="http://www.w3.org/2000/svg">
<rect width="88" height="88" rx="8" fill="#F8F9FC"/>
<path d="M14.3831 71.7617H15.9696V74.9348H14.3831V71.7617Z" fill="#2980BA"/>
<path d="M15.9696 74.1415V74.9348H14.3831V71.7617H15.1763V73.3482C15.1763 73.7872 15.5306 74.1415 15.9696 74.1415Z" fill="#285680"/>
<path d="M9.37012 61.6445H10.9566V68.2526H9.37012V61.6445Z" fill="#2980BA"/>
<path d="M10.9566 66.6006V68.2526H9.37012V61.6445H10.1634V64.9486C10.1634 65.8627 10.5177 66.6006 10.9566 66.6006Z" fill="#285680"/>
<path d="M16.8894 64.3789H18.4759V73.0964H16.8894V64.3789Z" fill="#2980BA"/>
<path d="M18.4759 70.917V73.0964H16.8894V64.3789H17.6827V68.7376C17.6827 69.9436 18.037 70.917 18.4759 70.917Z" fill="#285680"/>
<path d="M11.8765 66.2422H13.463V72.8646H11.8765V66.2422Z" fill="#2980BA"/>
<path d="M13.463 71.209V72.8646H11.8765V66.2422H12.6697V69.5534C12.6697 70.4695 13.0241 71.209 13.463 71.209Z" fill="#285680"/>
<path d="M59.4985 34.5859H61.0851V46.0054H59.4985V34.5859Z" fill="#2980BA"/>
<path d="M61.0851 43.1505V46.0054H59.4985V34.5859H60.2918V40.2957C60.2918 41.8753 60.6461 43.1505 61.0851 43.1505Z" fill="#285680"/>
<path d="M62.0051 42.8672H63.5917V57.1972H62.0051V42.8672Z" fill="#2980BA"/>
<path d="M63.5917 53.6147V57.1972H62.0051V42.8672H62.7984V50.0322C62.7984 52.0145 63.1527 53.6147 63.5917 53.6147Z" fill="#285680"/>
<path d="M19.3958 57H20.9823V67.7771H19.3958V57Z" fill="#2980BA"/>
<path d="M20.9823 65.8377V68.7837H19.3958V57H20.189V62.8918C20.189 64.5219 20.5433 65.8377 20.9823 65.8377Z" fill="#285680"/>
<path d="M21.9023 37.9023H23.4889V56.8055H21.9023V37.9023Z" fill="#2980BA"/>
<path d="M23.4889 53.4038V58.5709H21.9023V37.9023H22.6956V48.2366C22.6956 51.0958 23.0499 53.4038 23.4889 53.4038Z" fill="#285680"/>
<path d="M64.5115 55.8125H66.098V59.7869H64.5115V55.8125Z" fill="#2980BA"/>
<path d="M66.098 59.0717V60.1581H64.5115V55.8125H65.3047V57.9853C65.3047 58.5864 65.6591 59.0717 66.098 59.0717Z" fill="#285680"/>
<path d="M67.0181 58.5703H68.6046V62.5447H67.0181V58.5703Z" fill="#2980BA"/>
<path d="M68.6046 61.8295V62.9159H67.0181V58.5703H67.8113V60.7431C67.8113 61.3442 68.1657 61.8295 68.6046 61.8295Z" fill="#285680"/>
<path d="M24.4087 23.4141H25.9952V49.2104H24.4087V23.4141Z" fill="#2980BA"/>
<path d="M25.9952 42.7613V49.2104H24.4087V23.4141H25.202V36.3122C25.202 39.8807 25.5563 42.7613 25.9952 42.7613Z" fill="#285680"/>
<path d="M26.915 13.8438H28.5016V31.3574H26.915V13.8438Z" fill="#2980BA"/>
<path d="M28.5016 26.979V31.3574H26.915V13.8438H27.7083V22.6006C27.7083 25.0233 28.0626 26.979 28.5016 26.979Z" fill="#285680"/>
<path d="M69.5244 57.043H71.1109V60.216H69.5244V57.043Z" fill="#2980BA"/>
<path d="M71.1109 59.4228V60.216H69.5244V57.043H70.3177V58.6295C70.3177 59.0684 70.672 59.4228 71.1109 59.4228Z" fill="#285680"/>
<path d="M72.0308 46.0078H73.6173V58.5735H72.0308V46.0078Z" fill="#2980BA"/>
<path d="M73.6173 55.4321V58.5735H72.0308V46.0078H72.824V52.2907C72.824 54.0289 73.1783 55.4321 73.6173 55.4321Z" fill="#285680"/>
<path d="M35.2276 49.0124C35.0816 49.0124 34.9631 48.4894 34.9631 47.8424V38.4825C34.9631 37.8355 35.0816 37.3125 35.2276 37.3125C35.3735 37.3125 35.492 37.8355 35.492 38.4825V47.8424C35.492 48.4894 35.3735 49.0124 35.2276 49.0124Z" fill="#285680"/>
<path d="M34.4343 37.3125H36.0209V51.8401H34.4343V37.3125Z" fill="#2980BA"/>
<path d="M36.0209 48.2082V51.8401H34.4343V37.3125H35.2276V44.5763C35.2276 46.586 35.5819 48.2082 36.0209 48.2082Z" fill="#285680"/>
<path d="M37.7339 60.0125C37.5879 60.0125 37.4695 59.5325 37.4695 58.9386V50.3473C37.4695 49.7535 37.5879 49.2734 37.7339 49.2734C37.8799 49.2734 37.9983 49.7535 37.9983 50.3473V58.9386C37.9983 59.5325 37.8799 60.0125 37.7339 60.0125Z" fill="#285680"/>
<path d="M36.9407 49.2734H38.5272V62.6081H36.9407V49.2734Z" fill="#2980BA"/>
<path d="M38.5272 59.2744V62.6081H36.9407V49.2734H37.7339V55.9408C37.7339 57.7854 38.0883 59.2744 38.5272 59.2744Z" fill="#285680"/>
<path d="M44.4602 60.3438H46.0467V68.2885H44.4602V60.3438Z" fill="#2980BA"/>
<path d="M46.0467 66.3023V68.2885H44.4602V60.3438H45.2535V64.3161C45.2535 65.4151 45.6078 66.3023 46.0467 66.3023Z" fill="#285680"/>
<path d="M46.9666 61.2617H48.5531V64.4348H46.9666V61.2617Z" fill="#2980BA"/>
<path d="M48.5531 63.6415V64.4348H46.9666V61.2617H47.7598V62.8482C47.7598 63.2872 48.1141 63.6415 48.5531 63.6415Z" fill="#285680"/>
<path d="M54.4858 23.4141H56.0724V32.2393H54.4858V23.4141Z" fill="#2980BA"/>
<path d="M56.0724 30.033V32.2393H54.4858V23.4141H55.2791V27.8267C55.2791 29.0475 55.6334 30.033 56.0724 30.033Z" fill="#285680"/>
<path d="M56.9922 25.3867H58.5787V37.3128H56.9922V25.3867Z" fill="#2980BA"/>
<path d="M58.5787 34.3313V37.3128H56.9922V25.3867H57.7855V31.3498C57.7855 32.9995 58.1398 34.3313 58.5787 34.3313Z" fill="#285680"/>
<path d="M29.4216 15.6836H31.0082V31.3775H29.4216V15.6836Z" fill="#2980BA"/>
<path d="M31.0082 30.1286V34.9436H29.4216V15.6836H30.2149V25.3136C30.2149 27.9779 30.5692 30.1286 31.0082 30.1286Z" fill="#285680"/>
<path d="M31.928 20.2812H33.5145V35.6033H31.928V20.2812Z" fill="#2980BA"/>
<path d="M33.5145 34.384V39.0849H31.928V20.2812H32.7212V29.6831C32.7212 32.2842 33.0756 34.384 33.5145 34.384Z" fill="#285680"/>
<path d="M74.5371 28.2617H76.1236V43.9167H74.5371V28.2617Z" fill="#2980BA"/>
<path d="M76.1236 42.6709V47.4739H74.5371V28.2617H75.3304V37.8678C75.3304 40.5255 75.6847 42.6709 76.1236 42.6709Z" fill="#285680"/>
<path d="M77.0435 44.5H78.63V52.4231H77.0435V44.5Z" fill="#2980BA"/>
<path d="M78.63 51.7926V54.2234H77.0435V44.5H77.8367V49.3617C77.8367 50.7068 78.191 51.7926 78.63 51.7926Z" fill="#285680"/>
<path d="M39.4473 59.0391H41.0338V65.9502H39.4473V59.0391Z" fill="#2980BA"/>
<path d="M41.0338 64.2768V66.0228H39.4473V59.0391H40.2405V62.5309C40.2405 63.497 40.5949 64.2768 41.0338 64.2768Z" fill="#285680"/>
<path d="M41.9536 57.1992H43.5401V61.8219H41.9536V57.1992Z" fill="#2980BA"/>
<path d="M43.5401 60.7027V61.8705H41.9536V57.1992H42.7469V59.5349C42.7469 60.181 43.1012 60.7027 43.5401 60.7027Z" fill="#285680"/>
<path d="M49.4729 47.8281H51.0594V60.2106H49.4729V47.8281Z" fill="#2980BA"/>
<path d="M51.0594 57.115V60.2106H49.4729V47.8281H50.2662V54.0193C50.2662 55.7322 50.6205 57.115 51.0594 57.115Z" fill="#285680"/>
<path d="M51.9792 29.5547H53.5658V51.8402H51.9792V29.5547Z" fill="#2980BA"/>
<path d="M53.5658 46.2688V51.8402H51.9792V29.5547H52.7725V40.6974C52.7725 43.7803 53.1268 46.2688 53.5658 46.2688Z" fill="#285680"/>
<path d="M27.2971 12.7305C27.2971 12.9845 27.5031 13.1904 27.7571 13.1904C28.0111 13.1904 28.217 12.9845 28.217 12.7305L27.2971 12.7305ZM27.7571 8.64797L25.1016 13.2474L30.4125 13.2474L27.7571 8.64797Z" fill="#36D39F"/>
<path d="M54.77 22.4453C54.77 22.6993 54.976 22.9053 55.23 22.9053C55.484 22.9053 55.6899 22.6993 55.6899 22.4453L54.77 22.4453ZM55.23 18.3628L52.5745 22.9622L57.8854 22.9622L55.23 18.3628Z" fill="#36D39F"/>
<path d="M74.8701 27.4141C74.8701 27.6681 75.0761 27.874 75.3301 27.874C75.5841 27.874 75.79 27.6681 75.79 27.4141L74.8701 27.4141ZM75.3301 23.3316L72.6746 27.931L77.9855 27.931L75.3301 23.3316Z" fill="#36D39F"/>
<path d="M68.2709 64.443C68.274 64.189 68.0705 63.9806 67.8165 63.9776C67.5625 63.9746 67.3542 64.178 67.3511 64.432L68.2709 64.443ZM67.7623 68.5197L70.4725 63.9524L65.1619 63.8889L67.7623 68.5197Z" fill="#EF4352"/>
<path d="M45.7619 69.4156C45.7649 69.1616 45.5615 68.9533 45.3075 68.9502C45.0535 68.9472 44.8451 69.1507 44.8421 69.4047L45.7619 69.4156ZM45.2532 73.4924L47.9634 68.925L42.6529 68.8616L45.2532 73.4924Z" fill="#EF4352"/>
<path d="M15.6848 75.9235C15.6878 75.6695 15.4843 75.4611 15.2303 75.4581C14.9763 75.455 14.768 75.6585 14.7649 75.9125L15.6848 75.9235ZM15.1761 80.0002L17.8863 75.4328L12.5758 75.3694L15.1761 80.0002Z" fill="#EF4352"/>
</svg>
