<svg width="88" height="88" viewBox="0 0 88 88" fill="none" xmlns="http://www.w3.org/2000/svg">
<rect width="88" height="88" rx="8" fill="#F8F9FC"/>
<path d="M27.2627 48.0664V56.8681L23.3246 57.9117V48.0664C23.9547 48.1156 24.6143 48.1452 25.2936 48.1452C25.973 48.1452 26.6326 48.1156 27.2627 48.0664Z" fill="#285680"/>
<path d="M24.7561 50.8516C24.7561 50.2993 25.2038 49.8516 25.7561 49.8516H27.4161V56.5811H24.7561V50.8516Z" fill="#2980BA"/>
<path d="M64.6746 48.0664V56.8779L60.7365 57.9117V48.0664C61.3665 48.1156 62.0262 48.1452 62.7055 48.1452C63.3848 48.1452 64.0445 48.1156 64.6746 48.0664Z" fill="#285680"/>
<path d="M62.0178 50.8516C62.0178 50.2993 62.4655 49.8516 63.0178 49.8516H64.6746V56.5811H62.0178V50.8516Z" fill="#2980BA"/>
<path d="M40.4605 60.8663L40.2886 60.861L16.941 60.7716C16.7384 60.7694 16.5368 60.7428 16.3406 60.6922C15.2706 60.3981 14.5355 59.4169 14.5537 58.3074C14.5636 56.9578 15.655 55.8659 17.0046 55.8554L23.2755 55.8845L27.3495 55.8957L41.2572 55.9529C40.6796 56.4627 40.2661 57.1322 40.069 57.8769C39.8005 58.8861 39.9412 59.9604 40.4605 60.8663Z" fill="#2980BA"/>
<path d="M40.4605 60.8663L40.2886 60.861L16.941 60.7716C16.7384 60.7694 16.5368 60.7428 16.3406 60.6922C15.2706 60.3981 14.5355 59.4169 14.5537 58.3074C14.5636 56.9578 15.655 55.8659 17.0046 55.8554L23.2755 55.8845L27.3495 55.8957L41.2572 55.9529C40.6796 56.4627 40.2661 57.1322 40.069 57.8769C39.8005 58.8861 39.9412 59.9604 40.4605 60.8663Z" fill="#285680"/>
<path d="M40.4605 60.8652L40.2886 60.86L16.941 60.7705C16.7384 60.7683 16.5368 60.7417 16.3406 60.6911C15.2706 60.397 14.5355 59.4158 14.5537 58.3063C14.5537 57.6466 15.1652 56.7909 17.0411 56.9961L23.2134 56.9964L27.3282 56.9964L40.414 56.9964C40.3867 57.0856 40.3008 57.1325 40.069 57.8758C39.8005 58.885 39.9412 59.9593 40.4605 60.8652Z" fill="#2980BA"/>
<path d="M70.9958 60.9856L47.2614 60.8944C47.4459 60.5895 47.5858 60.2597 47.6767 59.9151C48.0641 58.4841 47.6089 56.957 46.5012 55.9716L61.9684 56.0288L66.0399 56.0495L71.0594 56.0695C71.7033 56.0781 72.3172 56.3429 72.7653 56.8054C73.2133 57.2678 73.4586 57.8898 73.4468 58.5336C73.4369 59.8833 72.3455 60.9751 70.9958 60.9856Z" fill="#285680"/>
<path d="M70.9959 60.9873L47.2615 60.8961C47.4459 60.5912 47.5858 60.2614 47.6768 59.9168C48.0641 58.4857 47.6314 58.0166 46.5237 57.0312L62.0432 57.0312L65.9992 57.0312L70.996 57.0309C71.6398 57.0395 72.541 56.9523 72.9891 57.4148C73.3454 57.7826 73.4586 57.8915 73.4468 58.5353C73.4369 59.885 72.3456 60.9768 70.9959 60.9873Z" fill="#2980BA"/>
<path d="M46.9533 61.5117V69.7424H41.0461V61.7382L41.2135 61.6988C41.9542 62.4349 42.9555 62.8488 43.9997 62.8507C45.1313 62.8513 46.208 62.3632 46.9533 61.5117Z" fill="#285680"/>
<path d="M42.9429 62.3867C42.9429 61.8344 43.3906 61.3867 43.9429 61.3867H46.9532V69.7402H42.9429V62.3867Z" fill="#2980BA"/>
<path d="M35.1389 45.1134V47.0825C35.1389 48.0276 31.7619 49.5832 27.2627 49.9573C26.6326 50.0065 25.9729 50.0361 25.2936 50.0361C24.6143 50.0361 23.9546 50.0065 23.3245 49.9573C18.8253 49.5832 15.4483 48.0276 15.4483 47.0825V45.1134C15.4373 44.5843 15.8546 44.145 16.3836 44.1289H34.2036C34.7326 44.145 35.1499 44.5843 35.1389 45.1134Z" fill="#788181"/>
<path d="M35.1388 45.9237V47.1259C35.1388 47.9151 32.1104 49.656 28.0756 49.9683C27.5105 50.0094 26.919 50.0341 26.3098 50.0341C25.7006 50.0341 25.109 50.0094 24.544 49.9683C20.5091 49.656 17.4808 48.357 17.4808 47.5678V45.9237C17.4709 45.4818 17.8451 45.115 18.3195 45.1016H34.3C34.7744 45.115 35.1487 45.4818 35.1388 45.9237Z" fill="#95A5A5"/>
<path d="M72.5511 45.1134V47.0825C72.5511 48.0276 69.1742 49.5832 64.6749 49.9573C64.0448 50.0065 63.3852 50.0361 62.7058 50.0361C62.0265 50.0361 61.3669 50.0065 60.7368 49.9573C56.2375 49.5832 52.8606 48.0276 52.8606 47.0825V45.1134C52.8495 44.5843 53.2668 44.145 53.7959 44.1289H71.6158C72.1448 44.145 72.5621 44.5843 72.5511 45.1134Z" fill="#788181"/>
<path d="M72.5511 45.9237V47.1259C72.5511 47.9151 69.5228 49.656 65.4879 49.9683C64.9229 50.0094 64.3313 50.0341 63.7221 50.0341C63.1129 50.0341 62.5214 50.0094 61.9563 49.9683C57.9215 49.656 54.8931 48.357 54.8931 47.5678V45.9237C54.8832 45.4818 55.2575 45.115 55.7319 45.1016H71.7124C72.1868 45.115 72.561 45.4818 72.5511 45.9237Z" fill="#95A5A5"/>
<path d="M47.9381 58.9108C47.9332 59.8673 47.5836 60.7901 46.9536 61.5099C46.2083 62.3614 45.1316 62.8495 44 62.8489C42.9551 62.8502 41.9527 62.4357 41.2139 61.6969C40.4751 60.958 40.0606 59.9556 40.0619 58.9108C40.0619 56.7358 41.825 54.9727 44 54.9727C46.175 54.9727 47.9381 56.7358 47.9381 58.9108Z" fill="#788181"/>
<path d="M47.938 58.9147C47.9339 59.8713 47.641 60.794 47.1129 61.5138C46.4883 62.3653 45.5859 62.8534 44.6375 62.8528C43.7618 62.8541 42.9217 62.4396 42.3025 61.7008C41.6833 60.962 41.3359 59.9595 41.337 58.9147C41.337 56.7397 42.8147 54.9766 44.6375 54.9766C46.4603 54.9766 47.938 56.7397 47.938 58.9147Z" fill="#95A5A5"/>
<path d="M54.8294 76.6339H33.1698C32.8174 76.6353 32.4911 76.4482 32.3143 76.1433C32.1375 75.8384 32.1371 75.4623 32.3133 75.1571L32.5791 74.7042C34.3151 71.6591 37.541 69.7686 41.0461 69.7422H46.9532C50.4583 69.7686 53.6842 71.6591 55.4201 74.7042L55.686 75.1571C55.8622 75.4623 55.8618 75.8384 55.685 76.1433C55.5082 76.4482 55.1819 76.6353 54.8294 76.6339Z" fill="#788181"/>
<path d="M55.0487 76.633H38.1949C37.9207 76.6342 37.6668 76.4728 37.5292 76.2098C37.3916 75.9468 37.3913 75.6223 37.5284 75.359L37.7353 74.9683C39.0861 72.3413 41.5962 70.7103 44.3236 70.6875H48.9201C51.6474 70.7103 54.1576 72.3413 55.5084 74.9683L55.7152 75.359C55.8524 75.6223 55.8521 75.9468 55.7145 76.2098C55.5769 76.4728 55.323 76.6342 55.0487 76.633Z" fill="#95A5A5"/>
<path d="M19.0085 39.0004V18.6367H26.6449C28.2093 18.6367 29.5218 18.9284 30.5824 19.5117C31.6496 20.0951 32.455 20.8971 32.9986 21.918C33.5488 22.9322 33.8239 24.0856 33.8239 25.3782C33.8239 26.6841 33.5488 27.8441 32.9986 28.8583C32.4484 29.8725 31.6364 30.6713 30.5625 31.2546C29.4887 31.8313 28.1662 32.1197 26.5952 32.1197H21.5341V29.087H26.098C27.0128 29.087 27.7619 28.9279 28.3452 28.6097C28.9285 28.2915 29.3594 27.854 29.6378 27.2972C29.9228 26.7404 30.0654 26.1007 30.0654 25.3782C30.0654 24.6557 29.9228 24.0193 29.6378 23.4691C29.3594 22.9189 28.9252 22.4914 28.3352 22.1864C27.7519 21.8749 26.9995 21.7191 26.0781 21.7191H22.6975V39.0004H19.0085Z" fill="#2980BA"/>
<path d="M67.4428 24.0522C67.35 23.1838 66.9589 22.5077 66.2695 22.0238C65.5868 21.5399 64.6985 21.2979 63.6047 21.2979C62.8358 21.2979 62.1762 21.4139 61.6261 21.646C61.0759 21.878 60.6549 22.1928 60.3633 22.5906C60.0716 22.9883 59.9225 23.4424 59.9158 23.9528C59.9158 24.377 60.0119 24.7449 60.2042 25.0565C60.403 25.368 60.6715 25.6332 61.0096 25.8519C61.3476 26.064 61.7222 26.243 62.1332 26.3888C62.5441 26.5347 62.9584 26.6573 63.3761 26.7567L65.2851 27.234C66.0541 27.413 66.7932 27.6549 67.5025 27.9599C68.2184 28.2648 68.8581 28.6493 69.4215 29.1133C69.9916 29.5773 70.4423 30.1374 70.7738 30.7937C71.1052 31.4499 71.2709 32.2189 71.2709 33.1005C71.2709 34.2937 70.966 35.3443 70.3562 36.2525C69.7463 37.154 68.8647 37.86 67.7113 38.3704C66.5645 38.8742 65.1758 39.1261 63.5451 39.1261C61.9608 39.1261 60.5853 38.8808 59.4187 38.3903C58.2586 37.8997 57.3505 37.1838 56.6942 36.2425C56.0446 35.3013 55.6933 34.1545 55.6403 32.8022H59.2695C59.3226 33.5115 59.5413 34.1014 59.9258 34.5721C60.3102 35.0427 60.8107 35.3941 61.4272 35.6261C62.0503 35.8581 62.7463 35.9741 63.5153 35.9741C64.3173 35.9741 65.02 35.8548 65.6232 35.6161C66.2331 35.3709 66.7103 35.0328 67.055 34.6019C67.3997 34.1644 67.5754 33.654 67.582 33.0707C67.5754 32.5404 67.4196 32.1029 67.1147 31.7582C66.8098 31.4068 66.3822 31.1152 65.832 30.8832C65.2885 30.6445 64.6521 30.4324 63.9229 30.2468L61.6062 29.6502C59.9291 29.2193 58.6033 28.5664 57.6289 27.6914C56.6611 26.8098 56.1772 25.6398 56.1772 24.1815C56.1772 22.9817 56.502 21.931 57.1516 21.0295C57.8079 20.128 58.6994 19.4286 59.8263 18.9315C60.9532 18.4277 62.2293 18.1758 63.6545 18.1758C65.0995 18.1758 66.3656 18.4277 67.4528 18.9315C68.5465 19.4286 69.4049 20.1213 70.028 21.0096C70.6511 21.8912 70.9726 22.9054 70.9925 24.0522H67.4428Z" fill="#018C81"/>
</svg>
