<svg width="88" height="88" viewBox="0 0 88 88" fill="none" xmlns="http://www.w3.org/2000/svg">
<rect width="88" height="88" rx="8" fill="#F8F9FC"/>
<path d="M27.2627 48.0664V56.8681L23.3246 57.9117V48.0664C23.9547 48.1156 24.6143 48.1452 25.2936 48.1452C25.973 48.1452 26.6326 48.1156 27.2627 48.0664Z" fill="#285680"/>
<path d="M24.7561 50.8516C24.7561 50.2993 25.2038 49.8516 25.7561 49.8516H27.4161V56.5811H24.7561V50.8516Z" fill="#2980BA"/>
<path d="M64.6746 48.0664V56.8779L60.7365 57.9117V48.0664C61.3665 48.1156 62.0262 48.1452 62.7055 48.1452C63.3848 48.1452 64.0445 48.1156 64.6746 48.0664Z" fill="#285680"/>
<path d="M62.0178 50.8516C62.0178 50.2993 62.4655 49.8516 63.0178 49.8516H64.6746V56.5811H62.0178V50.8516Z" fill="#2980BA"/>
<path d="M40.4606 60.8663L40.2887 60.861L16.9411 60.7716C16.7385 60.7694 16.5369 60.7428 16.3406 60.6922C15.2707 60.3981 14.5355 59.4169 14.5538 58.3074C14.5637 56.9578 15.655 55.8659 17.0047 55.8554L23.2755 55.8845L27.3496 55.8957L41.2573 55.9529C40.6797 56.4627 40.2662 57.1322 40.069 57.8769C39.8006 58.8861 39.9413 59.9604 40.4606 60.8663Z" fill="#2980BA"/>
<path d="M40.4605 60.8663L40.2886 60.861L16.941 60.7716C16.7384 60.7694 16.5368 60.7428 16.3406 60.6922C15.2706 60.3981 14.5355 59.4169 14.5537 58.3074C14.5636 56.9578 15.655 55.8659 17.0046 55.8554L23.2755 55.8845L27.3495 55.8957L41.2572 55.9529C40.6796 56.4627 40.2661 57.1322 40.069 57.8769C39.8005 58.8861 39.9412 59.9604 40.4605 60.8663Z" fill="#285680"/>
<path d="M40.4605 60.8652L40.2886 60.86L16.941 60.7705C16.7384 60.7683 16.5368 60.7417 16.3406 60.6911C15.2706 60.397 14.5355 59.4158 14.5537 58.3063C14.5537 57.6466 15.1652 56.7909 17.0411 56.9961L23.2134 56.9964L27.3282 56.9964L40.414 56.9964C40.3867 57.0856 40.3008 57.1325 40.069 57.8758C39.8005 58.885 39.9412 59.9593 40.4605 60.8652Z" fill="#2980BA"/>
<path d="M70.9959 60.9856L47.2614 60.8944C47.4459 60.5895 47.5858 60.2597 47.6767 59.9151C48.0641 58.4841 47.6089 56.957 46.5012 55.9716L61.9684 56.0288L66.0399 56.0495L71.0595 56.0695C71.7033 56.0781 72.3172 56.3429 72.7653 56.8054C73.2133 57.2678 73.4586 57.8898 73.4468 58.5336C73.4369 59.8833 72.3455 60.9751 70.9959 60.9856Z" fill="#285680"/>
<path d="M70.9959 60.9873L47.2615 60.8961C47.446 60.5912 47.5858 60.2614 47.6768 59.9168C48.0642 58.4857 47.6314 58.0166 46.5237 57.0312L62.0432 57.0312L65.9992 57.0312L70.996 57.0309C71.6399 57.0395 72.541 56.9523 72.9891 57.4148C73.3454 57.7826 73.4586 57.8915 73.4468 58.5353C73.437 59.885 72.3456 60.9768 70.9959 60.9873Z" fill="#2980BA"/>
<path d="M46.9533 61.5117V69.7424H41.0461V61.7382L41.2135 61.6988C41.9542 62.4349 42.9555 62.8488 43.9997 62.8507C45.1313 62.8513 46.208 62.3632 46.9533 61.5117Z" fill="#285680"/>
<path d="M42.9429 62.3867C42.9429 61.8344 43.3906 61.3867 43.9429 61.3867H46.9532V69.7402H42.9429V62.3867Z" fill="#2980BA"/>
<path d="M35.1389 45.1134V47.0825C35.1389 48.0276 31.7619 49.5832 27.2627 49.9573C26.6326 50.0065 25.9729 50.0361 25.2936 50.0361C24.6143 50.0361 23.9546 50.0065 23.3245 49.9573C18.8253 49.5832 15.4483 48.0276 15.4483 47.0825V45.1134C15.4373 44.5843 15.8546 44.145 16.3836 44.1289H34.2036C34.7326 44.145 35.1499 44.5843 35.1389 45.1134Z" fill="#788181"/>
<path d="M35.1388 45.9237V47.1259C35.1388 47.9151 32.1105 49.656 28.0756 49.9683C27.5106 50.0094 26.919 50.0341 26.3098 50.0341C25.7006 50.0341 25.1091 50.0094 24.544 49.9683C20.5092 49.656 17.4808 48.357 17.4808 47.5678V45.9237C17.4709 45.4818 17.8452 45.115 18.3196 45.1016H34.3001C34.7745 45.115 35.1487 45.4818 35.1388 45.9237Z" fill="#95A5A5"/>
<path d="M72.5511 45.1134V47.0825C72.5511 48.0276 69.1742 49.5832 64.6749 49.9573C64.0448 50.0065 63.3852 50.0361 62.7058 50.0361C62.0265 50.0361 61.3669 50.0065 60.7368 49.9573C56.2375 49.5832 52.8606 48.0276 52.8606 47.0825V45.1134C52.8495 44.5843 53.2668 44.145 53.7959 44.1289H71.6158C72.1448 44.145 72.5621 44.5843 72.5511 45.1134Z" fill="#788181"/>
<path d="M72.5511 45.9237V47.1259C72.5511 47.9151 69.5228 49.656 65.4879 49.9683C64.9229 50.0094 64.3313 50.0341 63.7221 50.0341C63.1129 50.0341 62.5214 50.0094 61.9563 49.9683C57.9215 49.656 54.8931 48.357 54.8931 47.5678V45.9237C54.8832 45.4818 55.2575 45.115 55.7319 45.1016H71.7124C72.1868 45.115 72.561 45.4818 72.5511 45.9237Z" fill="#95A5A5"/>
<path d="M47.9381 58.9108C47.9332 59.8673 47.5836 60.7901 46.9536 61.5099C46.2083 62.3614 45.1316 62.8495 44 62.8489C42.9551 62.8502 41.9527 62.4357 41.2139 61.6969C40.4751 60.958 40.0606 59.9556 40.0619 58.9108C40.0619 56.7358 41.825 54.9727 44 54.9727C46.175 54.9727 47.9381 56.7358 47.9381 58.9108Z" fill="#788181"/>
<path d="M47.9381 58.9147C47.9339 59.8713 47.641 60.794 47.1129 61.5138C46.4883 62.3653 45.5859 62.8534 44.6375 62.8528C43.7618 62.8541 42.9217 62.4396 42.3025 61.7008C41.6833 60.962 41.3359 59.9595 41.337 58.9147C41.337 56.7397 42.8147 54.9766 44.6375 54.9766C46.4604 54.9766 47.9381 56.7397 47.9381 58.9147Z" fill="#95A5A5"/>
<path d="M54.8294 76.6339H33.1698C32.8174 76.6353 32.4911 76.4482 32.3143 76.1433C32.1375 75.8384 32.1371 75.4623 32.3133 75.1571L32.5791 74.7042C34.3151 71.6591 37.541 69.7686 41.0461 69.7422H46.9532C50.4583 69.7686 53.6842 71.6591 55.4201 74.7042L55.686 75.1571C55.8622 75.4623 55.8618 75.8384 55.685 76.1433C55.5082 76.4482 55.1819 76.6353 54.8294 76.6339Z" fill="#788181"/>
<path d="M55.0487 76.633H38.1949C37.9207 76.6342 37.6668 76.4728 37.5292 76.2098C37.3916 75.9468 37.3913 75.6223 37.5284 75.359L37.7353 74.9683C39.0861 72.3413 41.5962 70.7103 44.3236 70.6875H48.9201C51.6474 70.7103 54.1576 72.3413 55.5084 74.9683L55.7152 75.359C55.8524 75.6223 55.8521 75.9468 55.7145 76.2098C55.5769 76.4728 55.323 76.6342 55.0487 76.633Z" fill="#95A5A5"/>
<path d="M19.0085 39.0004V18.6367H26.6449C28.2093 18.6367 29.5218 18.9284 30.5824 19.5117C31.6496 20.0951 32.455 20.8971 32.9986 21.918C33.5488 22.9322 33.8239 24.0856 33.8239 25.3782C33.8239 26.6841 33.5488 27.8441 32.9986 28.8583C32.4484 29.8725 31.6364 30.6713 30.5625 31.2546C29.4887 31.8313 28.1662 32.1197 26.5952 32.1197H21.5341V29.087H26.098C27.0128 29.087 27.7619 28.9279 28.3452 28.6097C28.9285 28.2915 29.3594 27.854 29.6378 27.2972C29.9228 26.7404 30.0654 26.1007 30.0654 25.3782C30.0654 24.6557 29.9228 24.0193 29.6378 23.4691C29.3594 22.9189 28.9252 22.4914 28.3352 22.1864C27.7519 21.8749 26.9995 21.7191 26.0781 21.7191H22.6975V39.0004H19.0085Z" fill="#2980BA"/>
<path d="M56.8195 39.0004V18.6367H64.615C66.0866 18.6367 67.3096 18.8687 68.284 19.3327C69.2651 19.7901 69.9976 20.4165 70.4815 21.212C70.972 22.0075 71.2173 22.909 71.2173 23.9165C71.2173 24.7451 71.0582 25.4544 70.74 26.0444C70.4218 26.6277 69.9943 27.1017 69.4573 27.4663C68.9204 27.8308 68.3205 28.0927 67.6576 28.2518V28.4506C68.3802 28.4904 69.0729 28.7125 69.7357 29.1168C70.4053 29.5146 70.9521 30.078 71.3764 30.8072C71.8006 31.5363 72.0127 32.418 72.0127 33.4521C72.0127 34.506 71.7575 35.454 71.2471 36.2958C70.7367 37.131 69.9678 37.7906 68.9403 38.2745C67.9128 38.7584 66.6202 39.0004 65.0624 39.0004H56.8195ZM60.5085 35.918H64.4758C65.8148 35.918 66.7793 35.6628 67.3693 35.1523C67.9659 34.6353 68.2642 33.9724 68.2642 33.1637C68.2642 32.5605 68.115 32.0169 67.8167 31.533C67.5184 31.0425 67.0942 30.658 66.544 30.3796C65.9938 30.0946 65.3375 29.9521 64.5752 29.9521H60.5085V35.918ZM60.5085 27.2972H64.1576C64.794 27.2972 65.3674 27.1812 65.8778 26.9492C66.3882 26.7106 66.7892 26.3758 67.0809 25.945C67.3792 25.5075 67.5284 24.9904 67.5284 24.3938C67.5284 23.605 67.2499 22.9554 66.6931 22.445C66.1429 21.9345 65.3243 21.6793 64.2372 21.6793H60.5085V27.2972Z" fill="#018C81"/>
</svg>
