<svg width="88" height="88" viewBox="0 0 88 88" fill="none" xmlns="http://www.w3.org/2000/svg">
<rect width="88" height="88" rx="8" fill="#F8F9FC"/>
<path d="M18.4282 55.0689C17.9789 55.0689 17.6143 54.705 17.6143 54.2549V47.7436C17.6143 47.2935 17.9789 46.9297 18.4282 46.9297C18.8775 46.9297 19.2421 47.2935 19.2421 47.7436V54.2549C19.2421 54.705 18.8775 55.0689 18.4282 55.0689Z" fill="#788181"/>
<path d="M18.4282 62.6138C17.9789 62.6138 17.6143 62.25 17.6143 61.7999V55.2885C17.6143 54.8384 17.9789 54.4746 18.4282 54.4746C18.8775 54.4746 19.2421 54.8384 19.2421 55.2885V61.7999C19.2421 62.25 18.8775 62.6138 18.4282 62.6138Z" fill="#788181"/>
<path d="M15.9863 49.8887H20.8698V59.6557H15.9863V49.8887Z" fill="#95A5A5"/>
<path d="M20.8698 57.2139V59.6557H15.9863V49.8887H18.4281V54.7722C18.4281 56.1233 19.5187 57.2139 20.8698 57.2139Z" fill="#788181"/>
<path d="M24.8208 58.8579C24.3715 58.8579 24.0068 58.4941 24.0068 58.044V51.5327C24.0068 51.0826 24.3715 50.7188 24.8208 50.7188C25.27 50.7188 25.6347 51.0826 25.6347 51.5327V58.044C25.6347 58.4941 25.27 58.8579 24.8208 58.8579Z" fill="#285680"/>
<path d="M24.8208 72.5163C24.3715 72.5163 24.0068 71.9705 24.0068 71.2953V61.5276C24.0068 60.8524 24.3715 60.3066 24.8208 60.3066C25.27 60.3066 25.6347 60.8524 25.6347 61.5276V71.2953C25.6347 71.9705 25.27 72.5163 24.8208 72.5163Z" fill="#285680"/>
<path d="M22.3789 53.6797H27.2624V65.9133H22.3789V53.6797Z" fill="#2980BA"/>
<path d="M27.2624 63.7118V67.0558H22.3789V53.6797H24.8207V60.3678C24.8207 62.2181 25.9113 63.7118 27.2624 63.7118Z" fill="#285680"/>
<path d="M31.2143 63.7407C30.765 63.7407 30.4004 63.3769 30.4004 62.9268V56.4155C30.4004 55.9654 30.765 55.6016 31.2143 55.6016C31.6636 55.6016 32.0282 55.9654 32.0282 56.4155V62.9268C32.0282 63.3769 31.6636 63.7407 31.2143 63.7407Z" fill="#788181"/>
<path d="M31.2143 72.1607C30.765 72.1607 30.4004 71.7968 30.4004 71.3467V64.8354C30.4004 64.3853 30.765 64.0215 31.2143 64.0215C31.6636 64.0215 32.0282 64.3853 32.0282 64.8354V71.3467C32.0282 71.7968 31.6636 72.1607 31.2143 72.1607Z" fill="#788181"/>
<path d="M28.7725 60.3066H33.656V70.0736H28.7725V60.3066Z" fill="#95A5A5"/>
<path d="M33.656 67.6319V70.0736H28.7725V60.3066H31.2142V65.1901C31.2142 66.5412 32.3049 67.6319 33.656 67.6319Z" fill="#788181"/>
<path d="M44.0004 56.7544C43.5512 56.7544 43.1865 56.3906 43.1865 55.9405V49.4292C43.1865 48.9791 43.5512 48.6152 44.0004 48.6152C44.4497 48.6152 44.8144 48.9791 44.8144 49.4292V55.9405C44.8144 56.3906 44.4497 56.7544 44.0004 56.7544Z" fill="#788181"/>
<path d="M44.0004 68.668C43.5512 68.668 43.1865 68.1545 43.1865 67.5192V58.3285C43.1865 57.6932 43.5512 57.1797 44.0004 57.1797C44.4497 57.1797 44.8144 57.6932 44.8144 58.3285V67.5192C44.8144 68.1545 44.4497 68.668 44.0004 68.668Z" fill="#788181"/>
<path d="M41.5586 48.6152H46.4421V58.7216H41.5586V48.6152Z" fill="#95A5A5"/>
<path d="M46.4421 56.195V58.7216H41.5586V48.6152H44.0003V53.6684C44.0003 55.0665 45.091 56.195 46.4421 56.195Z" fill="#788181"/>
<path d="M56.7866 38.4204C56.3373 38.4204 55.9727 38.0566 55.9727 37.6065V31.0952C55.9727 30.6451 56.3373 30.2812 56.7866 30.2812C57.2359 30.2812 57.6005 30.6451 57.6005 31.0952V37.6065C57.6005 38.0566 57.2359 38.4204 56.7866 38.4204Z" fill="#788181"/>
<path d="M54.3447 37.6055H59.2282V47.3725H54.3447V37.6055Z" fill="#95A5A5"/>
<path d="M59.2282 44.9307V47.3725H54.3447V37.6055H56.7865V42.489C56.7865 43.8401 57.8771 44.9307 59.2282 44.9307Z" fill="#788181"/>
<path d="M69.5727 38.7173C69.1234 38.7173 68.7588 38.3535 68.7588 37.9034V31.392C68.7588 30.9419 69.1234 30.5781 69.5727 30.5781C70.022 30.5781 70.3866 30.9419 70.3866 31.392V37.9034C70.3866 38.3535 70.022 38.7173 69.5727 38.7173Z" fill="#788181"/>
<path d="M69.5727 54.9966C69.1234 54.9966 68.7588 54.6328 68.7588 54.1827V47.6713C68.7588 47.2212 69.1234 46.8574 69.5727 46.8574C70.022 46.8574 70.3866 47.2212 70.3866 47.6713V54.1827C70.3866 54.6328 70.022 54.9966 69.5727 54.9966Z" fill="#788181"/>
<path d="M67.1309 37.9023H72.0144V47.6694H67.1309V37.9023Z" fill="#95A5A5"/>
<path d="M72.0144 45.2276V47.6694H67.1309V37.9023H69.5726V42.7858C69.5726 44.137 70.6633 45.2276 72.0144 45.2276Z" fill="#788181"/>
<path d="M37.6069 58.2193C37.1576 58.2193 36.793 57.8554 36.793 57.4053V50.894C36.793 50.4439 37.1576 50.0801 37.6069 50.0801C38.0562 50.0801 38.4208 50.4439 38.4208 50.894V57.4053C38.4208 57.8554 38.0562 58.2193 37.6069 58.2193Z" fill="#285680"/>
<path d="M37.6069 74.4982C37.1576 74.4982 36.793 74.0226 36.793 73.4341V64.9215C36.793 64.3331 37.1576 63.8574 37.6069 63.8574C38.0562 63.8574 38.4208 64.3331 38.4208 64.9215V73.4341C38.4208 74.0226 38.0562 74.4982 37.6069 74.4982Z" fill="#285680"/>
<path d="M35.165 55.6602H40.0485V65.4272H35.165V55.6602Z" fill="#2980BA"/>
<path d="M40.0485 64.6499V67.6465H35.165V55.6602H37.6068V61.6533C37.6068 63.3114 38.6974 64.6499 40.0485 64.6499Z" fill="#285680"/>
<path d="M50.393 44.2525C49.9437 44.2525 49.5791 43.8886 49.5791 43.4385V36.9272C49.5791 36.4771 49.9437 36.1133 50.393 36.1133C50.8423 36.1133 51.2069 36.4771 51.2069 36.9272V43.4385C51.2069 43.8886 50.8423 44.2525 50.393 44.2525Z" fill="#285680"/>
<path d="M50.393 63.7429C49.9437 63.7429 49.5791 63.2355 49.5791 62.6078V53.5276C49.5791 52.8999 49.9437 52.3926 50.393 52.3926C50.8423 52.3926 51.2069 52.8999 51.2069 53.5276V62.6078C51.2069 63.2355 50.8423 63.7429 50.393 63.7429Z" fill="#285680"/>
<path d="M47.9512 39.0352H52.8347V60.3084H47.9512V39.0352Z" fill="#2980BA"/>
<path d="M52.8347 55.1576V60.5318H47.9512V39.0352H50.3929V49.7835C50.3929 52.7572 51.4836 55.1576 52.8347 55.1576Z" fill="#285680"/>
<path d="M63.1792 34.647C62.7299 34.647 62.3652 34.2832 62.3652 33.8331V27.3217C62.3652 26.8716 62.7299 26.5078 63.1792 26.5078C63.6284 26.5078 63.9931 26.8716 63.9931 27.3217V33.8331C63.9931 34.2832 63.6284 34.647 63.1792 34.647Z" fill="#285680"/>
<path d="M63.1792 50.9263C62.7299 50.9263 62.3652 50.5625 62.3652 50.1124V43.601C62.3652 43.1509 62.7299 42.7871 63.1792 42.7871C63.6284 42.7871 63.9931 43.1509 63.9931 43.601V50.1124C63.9931 50.5625 63.6284 50.9263 63.1792 50.9263Z" fill="#285680"/>
<path d="M60.7373 28.5957H65.6208V45.3214H60.7373V28.5957Z" fill="#2980BA"/>
<path d="M65.6208 41.1399V45.3214H60.7373V28.5957H63.1791V36.9585C63.1791 39.2722 64.2697 41.1399 65.6208 41.1399Z" fill="#285680"/>
<path d="M17.0068 40.2498C16.5926 40.2498 16.2568 40.5856 16.2568 40.9998C16.2568 41.4141 16.5926 41.7498 17.0068 41.7498V40.2498ZM60.1339 16.1816L52.2046 19.664L59.1851 24.7898L60.1339 16.1816ZM17.0068 41.7498C39.7493 41.7498 50.6454 30.1591 56.737 22.0746L55.5391 21.172C49.5981 29.0565 39.0945 40.2498 17.0068 40.2498V41.7498Z" fill="#018C81"/>
</svg>
