<svg width="88" height="88" viewBox="0 0 88 88" fill="none" xmlns="http://www.w3.org/2000/svg">
<rect width="88" height="88" rx="8" fill="#F8F9FC"/>
<path d="M27.2627 48.0664V56.8681L23.3246 57.9117V48.0664C23.9547 48.1156 24.6143 48.1452 25.2936 48.1452C25.973 48.1452 26.6326 48.1156 27.2627 48.0664Z" fill="#285680"/>
<path d="M24.7561 50.8516C24.7561 50.2993 25.2038 49.8516 25.7561 49.8516H27.4161V56.5811H24.7561V50.8516Z" fill="#2980BA"/>
<path d="M64.6746 48.0664V56.8779L60.7365 57.9117V48.0664C61.3665 48.1156 62.0262 48.1452 62.7055 48.1452C63.3848 48.1452 64.0445 48.1156 64.6746 48.0664Z" fill="#285680"/>
<path d="M62.0178 50.8516C62.0178 50.2993 62.4655 49.8516 63.0178 49.8516H64.6746V56.5811H62.0178V50.8516Z" fill="#2980BA"/>
<path d="M40.4606 60.8663L40.2887 60.861L16.9411 60.7716C16.7385 60.7694 16.5369 60.7428 16.3406 60.6922C15.2707 60.3981 14.5355 59.4169 14.5538 58.3074C14.5637 56.9578 15.655 55.8659 17.0047 55.8554L23.2755 55.8845L27.3496 55.8957L41.2573 55.9529C40.6797 56.4627 40.2662 57.1322 40.069 57.8769C39.8006 58.8861 39.9413 59.9604 40.4606 60.8663Z" fill="#2980BA"/>
<path d="M40.4605 60.8663L40.2886 60.861L16.941 60.7716C16.7384 60.7694 16.5368 60.7428 16.3406 60.6922C15.2706 60.3981 14.5355 59.4169 14.5537 58.3074C14.5636 56.9578 15.655 55.8659 17.0046 55.8554L23.2755 55.8845L27.3495 55.8957L41.2572 55.9529C40.6796 56.4627 40.2661 57.1322 40.069 57.8769C39.8005 58.8861 39.9412 59.9604 40.4605 60.8663Z" fill="#285680"/>
<path d="M40.4605 60.8652L40.2886 60.86L16.941 60.7705C16.7384 60.7683 16.5368 60.7417 16.3406 60.6911C15.2706 60.397 14.5355 59.4158 14.5537 58.3063C14.5537 57.6466 15.1652 56.7909 17.0411 56.9961L23.2134 56.9964L27.3282 56.9964L40.414 56.9964C40.3867 57.0856 40.3008 57.1325 40.069 57.8758C39.8005 58.885 39.9412 59.9593 40.4605 60.8652Z" fill="#2980BA"/>
<path d="M70.9959 60.9856L47.2614 60.8944C47.4459 60.5895 47.5858 60.2597 47.6767 59.9151C48.0641 58.4841 47.6089 56.957 46.5012 55.9716L61.9684 56.0288L66.0399 56.0495L71.0595 56.0695C71.7033 56.0781 72.3172 56.3429 72.7653 56.8054C73.2133 57.2678 73.4586 57.8898 73.4468 58.5336C73.4369 59.8833 72.3455 60.9751 70.9959 60.9856Z" fill="#285680"/>
<path d="M70.9959 60.9873L47.2615 60.8961C47.446 60.5912 47.5858 60.2614 47.6768 59.9168C48.0642 58.4857 47.6314 58.0166 46.5237 57.0312L62.0432 57.0312L65.9992 57.0312L70.996 57.0309C71.6399 57.0395 72.541 56.9523 72.9891 57.4148C73.3454 57.7826 73.4586 57.8915 73.4468 58.5353C73.437 59.885 72.3456 60.9768 70.9959 60.9873Z" fill="#2980BA"/>
<path d="M46.9533 61.5117V69.7424H41.0461V61.7382L41.2135 61.6988C41.9542 62.4349 42.9555 62.8488 43.9997 62.8507C45.1313 62.8513 46.208 62.3632 46.9533 61.5117Z" fill="#285680"/>
<path d="M42.9429 62.3867C42.9429 61.8344 43.3906 61.3867 43.9429 61.3867H46.9532V69.7402H42.9429V62.3867Z" fill="#2980BA"/>
<path d="M35.1389 45.1134V47.0825C35.1389 48.0276 31.7619 49.5832 27.2627 49.9573C26.6326 50.0065 25.9729 50.0361 25.2936 50.0361C24.6143 50.0361 23.9546 50.0065 23.3245 49.9573C18.8253 49.5832 15.4483 48.0276 15.4483 47.0825V45.1134C15.4373 44.5843 15.8546 44.145 16.3836 44.1289H34.2036C34.7326 44.145 35.1499 44.5843 35.1389 45.1134Z" fill="#788181"/>
<path d="M35.1388 45.9237V47.1259C35.1388 47.9151 32.1105 49.6559 28.0756 49.9683C27.5106 50.0094 26.919 50.0341 26.3098 50.0341C25.7006 50.0341 25.1091 50.0094 24.544 49.9683C20.5092 49.6559 17.4808 48.357 17.4808 47.5678V45.9237C17.4709 45.4818 17.8452 45.115 18.3196 45.1016H34.3001C34.7745 45.115 35.1487 45.4818 35.1388 45.9237Z" fill="#95A5A5"/>
<path d="M72.5511 45.1134V47.0825C72.5511 48.0276 69.1742 49.5832 64.6749 49.9573C64.0448 50.0065 63.3852 50.0361 62.7058 50.0361C62.0265 50.0361 61.3669 50.0065 60.7368 49.9573C56.2375 49.5832 52.8606 48.0276 52.8606 47.0825V45.1134C52.8495 44.5843 53.2668 44.145 53.7959 44.1289H71.6158C72.1448 44.145 72.5621 44.5843 72.5511 45.1134V45.1134Z" fill="#788181"/>
<path d="M72.5511 45.9237V47.1259C72.5511 47.9151 69.5228 49.6559 65.4879 49.9683C64.9229 50.0094 64.3313 50.0341 63.7221 50.0341C63.1129 50.0341 62.5214 50.0094 61.9563 49.9683C57.9215 49.6559 54.8931 48.357 54.8931 47.5678V45.9237C54.8832 45.4818 55.2575 45.115 55.7319 45.1016H71.7124C72.1868 45.115 72.561 45.4818 72.5511 45.9237Z" fill="#95A5A5"/>
<path d="M47.9381 58.9108C47.9332 59.8673 47.5836 60.7901 46.9536 61.5099C46.2083 62.3614 45.1316 62.8495 44 62.8489C42.9551 62.8502 41.9527 62.4357 41.2139 61.6969C40.4751 60.958 40.0606 59.9556 40.0619 58.9108C40.0619 56.7358 41.825 54.9727 44 54.9727C46.175 54.9727 47.9381 56.7358 47.9381 58.9108Z" fill="#788181"/>
<path d="M47.9381 58.9147C47.9339 59.8713 47.641 60.794 47.1129 61.5138C46.4883 62.3653 45.5859 62.8534 44.6375 62.8528C43.7618 62.8541 42.9217 62.4396 42.3025 61.7008C41.6833 60.962 41.3359 59.9595 41.337 58.9147C41.337 56.7397 42.8147 54.9766 44.6375 54.9766C46.4604 54.9766 47.9381 56.7397 47.9381 58.9147Z" fill="#95A5A5"/>
<path d="M54.8294 76.6339H33.1698C32.8174 76.6353 32.4911 76.4482 32.3143 76.1433C32.1375 75.8384 32.1371 75.4623 32.3133 75.1571L32.5791 74.7042C34.3151 71.6591 37.541 69.7686 41.0461 69.7422H46.9532C50.4583 69.7686 53.6842 71.6591 55.4201 74.7042L55.686 75.1571C55.8622 75.4623 55.8618 75.8384 55.685 76.1433C55.5082 76.4482 55.1819 76.6353 54.8294 76.6339V76.6339Z" fill="#788181"/>
<path d="M55.0487 76.633H38.1949C37.9207 76.6342 37.6668 76.4728 37.5292 76.2098C37.3916 75.9468 37.3913 75.6223 37.5284 75.359L37.7353 74.9683C39.0861 72.3413 41.5962 70.7103 44.3236 70.6875H48.9201C51.6474 70.7103 54.1576 72.3413 55.5084 74.9683L55.7152 75.359C55.8524 75.6223 55.8521 75.9468 55.7145 76.2098C55.5769 76.4728 55.323 76.6342 55.0487 76.633V76.633Z" fill="#95A5A5"/>
<path d="M11.5723 38.9986V27.3622H19.1405V29.1293H13.6803V32.2884H18.7484V34.0554H13.6803V37.2315H19.1859V38.9986H11.5723Z" fill="#2980BA"/>
<path d="M21.291 38.9986V27.3622H25.6547C26.5486 27.3622 27.2986 27.5289 27.9047 27.8622C28.5145 28.1955 28.9748 28.6539 29.2854 29.2372C29.5998 29.8168 29.757 30.4759 29.757 31.2145C29.757 31.9607 29.5998 32.6236 29.2854 33.2031C28.971 33.7827 28.507 34.2391 27.8933 34.5724C27.2797 34.902 26.524 35.0668 25.6263 35.0668H22.7342V33.3338H25.3422C25.8649 33.3338 26.2929 33.2429 26.6263 33.0611C26.9596 32.8793 27.2058 32.6293 27.3649 32.3111C27.5278 31.9929 27.6092 31.6274 27.6092 31.2145C27.6092 30.8016 27.5278 30.438 27.3649 30.1236C27.2058 29.8092 26.9577 29.5649 26.6206 29.3906C26.2873 29.2126 25.8573 29.1236 25.3308 29.1236H23.399V38.9986H21.291Z" fill="#2980BA"/>
<path d="M37.9118 30.5611C37.8588 30.0649 37.6353 29.6785 37.2413 29.402C36.8512 29.1255 36.3436 28.9872 35.7186 28.9872C35.2792 28.9872 34.9023 29.0535 34.5879 29.1861C34.2735 29.3187 34.033 29.4986 33.8663 29.7259C33.6997 29.9531 33.6144 30.2126 33.6106 30.5043C33.6106 30.7467 33.6656 30.9569 33.7754 31.1349C33.8891 31.313 34.0425 31.4645 34.2356 31.5895C34.4288 31.7107 34.6428 31.813 34.8777 31.8963C35.1125 31.9796 35.3493 32.0497 35.5879 32.1065L36.6788 32.3793C37.1182 32.4815 37.5406 32.6198 37.9459 32.794C38.355 32.9683 38.7205 33.188 39.0425 33.4531C39.3682 33.7183 39.6258 34.0384 39.8152 34.4134C40.0046 34.7884 40.0993 35.2277 40.0993 35.7315C40.0993 36.4134 39.925 37.0137 39.5766 37.5327C39.2281 38.0478 38.7243 38.4512 38.0652 38.7429C37.4099 39.0308 36.6163 39.1747 35.6845 39.1747C34.7792 39.1747 33.9932 39.0346 33.3266 38.7543C32.6637 38.474 32.1447 38.0649 31.7697 37.527C31.3985 36.9891 31.1978 36.3338 31.1675 35.5611H33.2413C33.2716 35.9664 33.3966 36.3035 33.6163 36.5724C33.836 36.8414 34.122 37.0421 34.4743 37.1747C34.8303 37.3073 35.2281 37.3736 35.6675 37.3736C36.1258 37.3736 36.5273 37.3054 36.872 37.169C37.2205 37.0289 37.4932 36.8357 37.6902 36.5895C37.8872 36.3395 37.9875 36.0478 37.9913 35.7145C37.9875 35.4115 37.8985 35.1615 37.7243 34.9645C37.55 34.7637 37.3057 34.5971 36.9913 34.4645C36.6807 34.3281 36.3171 34.2069 35.9004 34.1009L34.5766 33.7599C33.6182 33.5137 32.8606 33.1406 32.3038 32.6406C31.7508 32.1368 31.4743 31.4683 31.4743 30.6349C31.4743 29.9493 31.6599 29.349 32.0311 28.8338C32.4061 28.3187 32.9156 27.919 33.5595 27.6349C34.2035 27.3471 34.9326 27.2031 35.747 27.2031C36.5728 27.2031 37.2963 27.3471 37.9175 27.6349C38.5425 27.919 39.033 28.3149 39.3891 28.8224C39.7451 29.3262 39.9288 29.9058 39.9402 30.5611H37.9118Z" fill="#2980BA"/>
<path d="M48.3697 38.9986V27.3622H52.7333C53.6272 27.3622 54.3772 27.5289 54.9833 27.8622C55.5931 28.1955 56.0534 28.6539 56.364 29.2372C56.6784 29.8168 56.8356 30.4759 56.8356 31.2145C56.8356 31.9607 56.6784 32.6236 56.364 33.2031C56.0496 33.7827 55.5856 34.2391 54.9719 34.5724C54.3583 34.902 53.6026 35.0668 52.7049 35.0668H49.8128V33.3338H52.4208C52.9435 33.3338 53.3716 33.2429 53.7049 33.0611C54.0382 32.8793 54.2844 32.6293 54.4435 32.3111C54.6064 31.9929 54.6878 31.6274 54.6878 31.2145C54.6878 30.8016 54.6064 30.438 54.4435 30.1236C54.2844 29.8092 54.0363 29.5649 53.6992 29.3906C53.3659 29.2126 52.9359 29.1236 52.4094 29.1236H50.4776V38.9986H48.3697Z" fill="#018C81"/>
<path d="M58.6665 38.9986V27.3622H66.2347V29.1293H60.7745V32.2884H65.8427V34.0554H60.7745V37.2315H66.2802V38.9986H58.6665Z" fill="#018C81"/>
<path d="M76.1807 31.0781C76.086 30.7713 75.9554 30.4967 75.7887 30.2543C75.6258 30.008 75.4288 29.7978 75.1978 29.6236C74.9705 29.4493 74.7091 29.3187 74.4137 29.2315C74.1182 29.1406 73.7963 29.0952 73.4478 29.0952C72.8228 29.0952 72.266 29.2524 71.7773 29.5668C71.2887 29.8812 70.9042 30.3433 70.6239 30.9531C70.3474 31.5592 70.2091 32.2978 70.2091 33.169C70.2091 34.0478 70.3474 34.7921 70.6239 35.402C70.9004 36.0118 71.2849 36.4759 71.7773 36.794C72.2698 37.1084 72.8417 37.2656 73.4932 37.2656C74.0841 37.2656 74.5955 37.152 75.0273 36.9247C75.4629 36.6974 75.7982 36.3755 76.033 35.9588C76.2679 35.5384 76.3853 35.0459 76.3853 34.4815L76.8626 34.5554H73.7035V32.9077H78.4251V34.3054C78.4251 35.3016 78.2129 36.1634 77.7887 36.8906C77.3644 37.6179 76.7811 38.1785 76.0387 38.5724C75.2963 38.9626 74.444 39.1577 73.4819 39.1577C72.4099 39.1577 71.4686 38.9171 70.658 38.4361C69.8512 37.9512 69.2205 37.2637 68.766 36.3736C68.3152 35.4796 68.0898 34.419 68.0898 33.1918C68.0898 32.2524 68.2224 31.4134 68.4876 30.6747C68.7565 29.9361 69.1315 29.3092 69.6126 28.794C70.0936 28.2751 70.658 27.8812 71.3057 27.6122C71.9535 27.3395 72.658 27.2031 73.4194 27.2031C74.0633 27.2031 74.6637 27.2978 75.2205 27.4872C75.7773 27.6728 76.2716 27.938 76.7035 28.2827C77.1391 28.6274 77.497 29.0365 77.7773 29.5099C78.0576 29.9834 78.2413 30.5062 78.3285 31.0781H76.1807Z" fill="#018C81"/>
</svg>
