<svg width="88" height="88" viewBox="0 0 88 88" fill="none" xmlns="http://www.w3.org/2000/svg">
<rect width="88" height="88" rx="8" fill="#F8F9FC"/>
<path d="M28.6477 81.0455V69.4091H33.0113C33.9053 69.4091 34.6553 69.5644 35.2613 69.875C35.8712 70.1856 36.3314 70.6212 36.642 71.1818C36.9564 71.7386 37.1136 72.3883 37.1136 73.1307C37.1136 73.8769 36.9545 74.5246 36.6363 75.0739C36.3219 75.6193 35.8579 76.0417 35.2443 76.3409C34.6307 76.6364 33.8769 76.7841 32.9829 76.7841H29.875V75.0341H32.6988C33.2216 75.0341 33.6496 74.9621 33.9829 74.8182C34.3163 74.6705 34.5625 74.4564 34.7216 74.1761C34.8844 73.892 34.9659 73.5436 34.9659 73.1307C34.9659 72.7178 34.8844 72.3655 34.7216 72.0739C34.5587 71.7784 34.3106 71.5549 33.9773 71.4034C33.6439 71.2481 33.214 71.1705 32.6875 71.1705H30.7557V81.0455H28.6477ZM34.6591 75.7727L37.5398 81.0455H35.1875L32.3579 75.7727H34.6591Z" fill="#018C81"/>
<path d="M49.4517 75.2273C49.4517 76.4811 49.2168 77.5549 48.7471 78.4489C48.2812 79.339 47.6449 80.0208 46.838 80.4943C46.035 80.9678 45.124 81.2045 44.1051 81.2045C43.0862 81.2045 42.1733 80.9678 41.3665 80.4943C40.5634 80.017 39.9271 79.3333 39.4574 78.4432C38.9915 77.5492 38.7585 76.4773 38.7585 75.2273C38.7585 73.9735 38.9915 72.9015 39.4574 72.0114C39.9271 71.1174 40.5634 70.4337 41.3665 69.9602C42.1733 69.4867 43.0862 69.25 44.1051 69.25C45.124 69.25 46.035 69.4867 46.838 69.9602C47.6449 70.4337 48.2812 71.1174 48.7471 72.0114C49.2168 72.9015 49.4517 73.9735 49.4517 75.2273ZM47.3324 75.2273C47.3324 74.3447 47.1941 73.6004 46.9176 72.9943C46.6449 72.3845 46.2661 71.9242 45.7812 71.6136C45.2964 71.2992 44.7377 71.142 44.1051 71.142C43.4725 71.142 42.9138 71.2992 42.429 71.6136C41.9441 71.9242 41.5634 72.3845 41.2869 72.9943C41.0142 73.6004 40.8778 74.3447 40.8778 75.2273C40.8778 76.1098 41.0142 76.8561 41.2869 77.4659C41.5634 78.072 41.9441 78.5322 42.429 78.8466C42.9138 79.1572 43.4725 79.3125 44.1051 79.3125C44.7377 79.3125 45.2964 79.1572 45.7812 78.8466C46.2661 78.5322 46.6449 78.072 46.9176 77.4659C47.1941 76.8561 47.3324 76.1098 47.3324 75.2273Z" fill="#018C81"/>
<path d="M61.4048 73.3352H59.2798C59.2192 72.9867 59.1075 72.678 58.9446 72.4091C58.7817 72.1364 58.579 71.9053 58.3366 71.7159C58.0942 71.5265 57.8177 71.3845 57.5071 71.2898C57.2003 71.1913 56.8688 71.142 56.5128 71.142C55.8802 71.142 55.3196 71.3011 54.8309 71.6193C54.3423 71.9337 53.9597 72.3958 53.6832 73.0057C53.4067 73.6117 53.2684 74.3523 53.2684 75.2273C53.2684 76.1174 53.4067 76.8674 53.6832 77.4773C53.9635 78.0833 54.3461 78.5417 54.8309 78.8523C55.3196 79.1591 55.8783 79.3125 56.5071 79.3125C56.8556 79.3125 57.1813 79.267 57.4844 79.1761C57.7912 79.0814 58.0658 78.9432 58.3082 78.7614C58.5544 78.5795 58.7609 78.3561 58.9275 78.0909C59.098 77.8258 59.2154 77.5227 59.2798 77.1818L61.4048 77.1932C61.3253 77.7462 61.1529 78.2652 60.8878 78.75C60.6264 79.2348 60.2836 79.6629 59.8594 80.0341C59.4351 80.4015 58.9389 80.6894 58.3707 80.8977C57.8025 81.1023 57.1719 81.2045 56.4787 81.2045C55.4559 81.2045 54.5431 80.9678 53.74 80.4943C52.937 80.0208 52.3044 79.3371 51.8423 78.4432C51.3802 77.5492 51.1491 76.4773 51.1491 75.2273C51.1491 73.9735 51.3821 72.9015 51.848 72.0114C52.3139 71.1174 52.9484 70.4337 53.7514 69.9602C54.5544 69.4867 55.4635 69.25 56.4787 69.25C57.1264 69.25 57.7287 69.3409 58.2855 69.5227C58.8423 69.7045 59.3385 69.9716 59.7741 70.3239C60.2097 70.6723 60.5677 71.1004 60.848 71.608C61.1321 72.1117 61.3177 72.6875 61.4048 73.3352Z" fill="#018C81"/>
<path d="M13.4292 30.3281H16.9559V37.3816H13.4292V30.3281Z" fill="#95A5A5"/>
<path d="M16.9559 35.6182V37.3816H13.4292V30.3281H15.1926V33.8549C15.1926 34.8306 15.9802 35.6182 16.9559 35.6182Z" fill="#788181"/>
<path d="M55.3918 24.8633H58.9186V31.9168H55.3918V24.8633Z" fill="#95A5A5"/>
<path d="M58.9186 30.1534V31.9168H55.3918V24.8633H57.1552V28.39C57.1552 29.3657 57.9429 30.1534 58.9186 30.1534Z" fill="#788181"/>
<path d="M18.0461 33.0625H21.5729V41.8973H18.0461V33.0625Z" fill="#2980BA"/>
<path d="M21.5729 40.3074V42.7224H18.0461V33.0625H19.8095V37.8925C19.8095 39.2287 20.5971 40.3074 21.5729 40.3074Z" fill="#285680"/>
<path d="M60.0088 27.5898H63.5355V36.4246H60.0088V27.5898Z" fill="#2980BA"/>
<path d="M63.5355 34.8348V37.2497H60.0088V27.5898H61.7722V32.4198C61.7722 33.7561 62.5598 34.8348 63.5355 34.8348Z" fill="#285680"/>
<path d="M22.6626 37.8516H26.1893V44.905H22.6626V37.8516Z" fill="#95A5A5"/>
<path d="M26.1893 43.1417V44.905H22.6626V37.8516H24.426V41.3783C24.426 42.354 25.2136 43.1417 26.1893 43.1417Z" fill="#788181"/>
<path d="M64.6255 32.3789H68.1522V39.4324H64.6255V32.3789Z" fill="#95A5A5"/>
<path d="M68.1522 37.669V39.4324H64.6255V32.3789H66.3889V35.9056C66.3889 36.8814 67.1765 37.669 68.1522 37.669Z" fill="#788181"/>
<path d="M33.6603 35.2881C33.3358 35.2881 33.0725 35.0253 33.0725 34.7003V29.9979C33.0725 29.6729 33.3358 29.4102 33.6603 29.4102C33.9848 29.4102 34.2481 29.6729 34.2481 29.9979V34.7003C34.2481 35.0253 33.9848 35.2881 33.6603 35.2881Z" fill="#788181"/>
<path d="M31.8967 29.4102H35.4235V36.7087H31.8967V29.4102Z" fill="#95A5A5"/>
<path d="M35.4235 34.8841V36.7087H31.8967V29.4102H33.6601V33.0594C33.6601 34.0691 34.4477 34.8841 35.4235 34.8841Z" fill="#788181"/>
<path d="M41.1301 21.4609H44.6569V28.5144H41.1301V21.4609Z" fill="#95A5A5"/>
<path d="M44.6569 26.751V28.5144H41.1301V21.4609H42.8935V24.9877C42.8935 25.9634 43.6811 26.751 44.6569 26.751Z" fill="#788181"/>
<path d="M50.3643 21.668H53.891V28.7214H50.3643V21.668Z" fill="#95A5A5"/>
<path d="M53.891 26.9581V28.7214H50.3643V21.668H52.1276V25.1947C52.1276 26.1704 52.9153 26.9581 53.891 26.9581Z" fill="#788181"/>
<path d="M27.2798 34.5H30.8065V41.5535H27.2798V34.5Z" fill="#2980BA"/>
<path d="M30.8065 40.9922V43.1562H27.2798V34.5H29.0432V38.8281C29.0432 40.0256 29.8308 40.9922 30.8065 40.9922Z" fill="#285680"/>
<path d="M69.2422 29.0273H72.7689V36.0808H69.2422V29.0273Z" fill="#2980BA"/>
<path d="M72.7689 35.5195V37.6836H69.2422V29.0273H71.0056V33.3555C71.0056 34.5529 71.7932 35.5195 72.7689 35.5195Z" fill="#285680"/>
<path d="M36.5134 22.4844H40.0402V37.8474H36.5134V22.4844Z" fill="#2980BA"/>
<path d="M40.0402 34.1276V38.0087H36.5134V22.4844H38.2768V30.2465C38.2768 32.3941 39.0644 34.1276 40.0402 34.1276Z" fill="#285680"/>
<path d="M45.7471 14.9609H49.2738V27.0398H45.7471V14.9609Z" fill="#2980BA"/>
<path d="M49.2738 24.0201V27.0398H45.7471V14.9609H47.5104V21.0004C47.5104 22.6713 48.2981 24.0201 49.2738 24.0201Z" fill="#285680"/>
<g clip-path="url(#clip0_793_71911)">
<g style="mix-blend-mode:multiply" opacity="0.1">
<path d="M70.5679 63.3804L70.8977 63.5381V73.5989H17.8052V53.801L18.1344 55.1902L18.4643 55.6651L18.7942 54.871L19.124 53.2322L19.4539 52.793L19.7837 53.7729L20.1136 55.9354L20.4434 58.434L20.7733 57.7507L21.1032 59.6823L21.433 61.6966L21.7629 58.2219L22.0927 54.9874L22.4226 55.8979L22.7524 56.9679L23.0823 56.7464L23.4121 56.3259L23.742 57.3846L24.0719 59.902L24.4017 59.7499L24.7316 59.3557L25.0614 61.2761L25.3913 58.1355L25.7211 56.7708L26.051 57.4785L26.3809 60.3581L26.7107 59.5847L27.0406 58.4659L27.3704 57.0036L27.7003 56.3559L28.0301 58.4884L28.36 55.8303L28.6899 56.0556L29.0197 57.807L29.3496 57.1932L29.6794 57.1687L30.0093 57.9647L30.3391 56.2771L30.669 56.722L30.9988 58.907L31.3287 60.0953L31.6586 58.5785L31.9884 57.1838L32.3183 60.0259L32.6481 61.216L32.978 61.1334L33.3078 57.471L33.6377 58.633L33.9676 59.1774L34.2974 62.8605L34.6273 64.9836L34.9571 58.8301L35.287 57.6474L35.6168 60.2755L35.9467 58.3852L36.2766 59.9977L36.6064 60.8349L36.9363 61.6628L37.2661 61.4075L37.596 57.4147L37.9258 58.7982L38.2557 58.3326L38.5855 58.1599L38.9154 58.939L39.2453 57.0373L39.5751 57.6981L39.905 58.1242L40.2348 57.6944L40.5647 58.6517L40.8808 58.2951L41.2107 57.7882L41.5405 57.8408L41.8704 59.0234L42.2002 57.6212L42.5301 59.2074L42.8599 58.3964L43.1898 58.8714L43.5197 57.3583L43.8495 56.8721L44.1794 59.6992L44.5092 59.4308L44.8391 59.5866L45.1689 58.2763L45.4988 59.2449L45.8286 58.5185L46.1585 59.9151L46.4884 59.7574L46.8182 61.1879L47.1481 60.8819L47.4779 61.171L47.8078 58.1918L48.1376 57.9947L48.4675 60.5853L48.7974 58.6611L49.1272 61.4826L49.4571 59.1154L49.7869 58.4509L50.1168 59.3144L50.4466 59.3651L50.7765 59.7368L51.1064 61.5746L51.4362 65.6556L51.7661 64.6945L52.0959 58.1074L52.4258 61.1766L52.7556 58.9164L53.0855 60.2887L53.4153 58.7756L53.7452 59.7462L54.0751 61.8393L54.4049 62.485L54.7348 62.4324L55.0646 62.3499L55.3945 61.1541L55.7243 63.1777L56.0542 60.4614L56.3841 62.7948L56.7139 60.9551L57.0438 59.733L57.3736 65.2971L57.7035 67.0016L58.0333 67.5066L58.3632 65.9128L58.6931 64.3003L59.0229 62.3179L59.3528 64.1783L59.6826 63.6545L60.0125 64.3528L60.3423 63.035L60.6722 63.9887L61.0021 61.1372L61.3319 60.4783L61.6618 63.5438L61.9916 66.9547L62.3215 62.3236L62.6513 63.6977L62.9812 62.3555L63.3111 60.818L63.6409 65.5317L63.9708 64.4899L64.3006 62.6258L64.6305 65.4792L64.9603 65.7908L65.2902 66.5173L65.62 67.0016L65.9499 62.592L66.2798 63.1683L66.6096 66.6581L66.9395 63.8554L67.2693 63.0951L67.5992 65.4172L67.929 66.2169L68.2589 62.027L68.5888 63.6188L68.9186 64.0074L69.2485 63.1627L69.5783 63.4555L69.9082 65.5017L70.238 65.3046L70.5679 63.3804Z" fill="url(#paint0_linear_793_71911)"/>
</g>
<path d="M70.8977 63.5381L70.5679 63.3804L70.238 65.3046L69.9082 65.5017L69.5783 63.4555L69.2485 63.1627L68.9186 64.0074L68.5888 63.6188L68.2589 62.027L67.929 66.2169L67.5992 65.4172L67.2693 63.0951L66.9395 63.8554L66.6096 66.6581L66.2798 63.1683L65.9499 62.592L65.62 67.0016L65.2902 66.5173L64.9603 65.7908L64.6305 65.4792L64.3006 62.6258L63.9708 64.4899L63.6409 65.5317L63.311 60.818L62.9812 62.3555L62.6513 63.6977L62.3215 62.3236L61.9916 66.9547L61.6618 63.5438L61.3319 60.4783L61.0021 61.1372L60.6722 63.9887L60.3423 63.035L60.0125 64.3528L59.6826 63.6545L59.3528 64.1783L59.0229 62.3179L58.6931 64.3003L58.3632 65.9128L58.0333 67.5066L57.7035 67.0016L57.3736 65.2971L57.0438 59.733L56.7139 60.9551L56.3841 62.7948L56.0542 60.4614L55.7243 63.1777L55.3945 61.1541L55.0646 62.3499L54.7348 62.4325L54.4049 62.485L54.0751 61.8393L53.7452 59.7462L53.4153 58.7756L53.0855 60.2887L52.7556 58.9164L52.4258 61.1766L52.0959 58.1074L51.7661 64.6945L51.4362 65.6556L51.1064 61.5746L50.7765 59.7368L50.4466 59.3651L50.1168 59.3144L49.7869 58.4509L49.4571 59.1154L49.1272 61.4826L48.7974 58.6611L48.4675 60.5853L48.1376 57.9947L47.8078 58.1918L47.4779 61.171L47.1481 60.8819L46.8182 61.1879L46.4884 59.7574L46.1585 59.9151L45.8286 58.5185L45.4988 59.2449L45.1689 58.2763L44.8391 59.5866L44.5092 59.4308L44.1794 59.6992L43.8495 56.8721L43.5197 57.3583L43.1898 58.8714L42.8599 58.3964L42.5301 59.2074L42.2002 57.6212L41.8704 59.0234L41.5405 57.8408L41.2107 57.7882L40.8808 58.2951L40.5647 58.6517L40.2348 57.6944L39.905 58.1242L39.5751 57.6981L39.2453 57.0373L38.9154 58.939L38.5855 58.1599L38.2557 58.3326L37.9258 58.7982L37.596 57.4147L37.2661 61.4075L36.9363 61.6628L36.6064 60.8349L36.2766 59.9977L35.9467 58.3852L35.6168 60.2755L35.287 57.6474L34.9571 58.8301L34.6273 64.9836L34.2974 62.8605L33.9676 59.1774L33.6377 58.633L33.3078 57.471L32.978 61.1334L32.6481 61.216L32.3183 60.0259L31.9884 57.1838L31.6586 58.5785L31.3287 60.0953L30.9988 58.907L30.669 56.722L30.3391 56.2771L30.0093 57.9647L29.6794 57.1687L29.3496 57.1932L29.0197 57.807L28.6899 56.0556L28.36 55.8303L28.0301 58.4884L27.7003 56.3559L27.3704 57.0036L27.0406 58.4659L26.7107 59.5847L26.3809 60.3581L26.051 57.4785L25.7211 56.7708L25.3913 58.1355L25.0614 61.2761L24.7316 59.3557L24.4017 59.7499L24.0719 59.902L23.742 57.3846L23.4121 56.3259L23.0823 56.7464L22.7524 56.9679L22.4226 55.8979L22.0927 54.9874L21.7629 58.2219L21.433 61.6966L21.1032 59.6823L20.7733 57.7507L20.4434 58.434L20.1136 55.9354L19.7837 53.7729L19.4539 52.793L19.124 53.2322L18.7942 54.871L18.4643 55.6651L18.1344 55.1902L17.8052 53.801" stroke="#2980BA" stroke-width="0.374633" stroke-linecap="round" stroke-linejoin="round"/>
</g>
<line x1="12.449" y1="50.9104" x2="75.5508" y2="50.9104" stroke="#285680" stroke-width="0.679166" stroke-linecap="round"/>
<path d="M27.3223 16.6445V17.4192L27.8934 17.3061V16.6445H27.3223Z" fill="#EFE7E4"/>
<path d="M31.576 19.3952L31.2821 14.3092C31.2673 14.0527 31.1576 13.8222 30.9875 13.6521C30.8173 13.4819 30.5868 13.3722 30.3303 13.3574L25.2444 13.0636C25.0607 13.053 24.8812 13.1213 24.7511 13.2514L17.1966 20.8059C16.8759 21.1266 16.8759 21.6466 17.1966 21.9674L19.9344 24.7051L22.6721 27.4429C22.9929 27.7636 23.5129 27.7636 23.8337 27.4429L31.3881 19.8884C31.5182 19.7583 31.5866 19.5789 31.576 19.3952ZM28.5104 17.4172C27.7856 17.4172 27.2224 16.8814 27.2224 16.1291C27.2224 15.376 27.8328 14.7656 28.5859 14.7656C29.3187 14.7656 29.874 15.3098 29.874 16.0536C29.874 16.8067 29.2635 17.4172 28.5104 17.4172Z" fill="#2980BA"/>
<path d="M29.9859 13.6599L30.1224 16.0237L30.7947 17.0287L31.4536 17.2736L31.2822 14.3081C31.2526 13.7952 30.8433 13.3859 30.3304 13.3563L29.9111 13.332C29.9532 13.4339 29.9792 13.5443 29.9859 13.6599Z" fill="#285680"/>
<path d="M31.3881 19.8889C31.5182 19.7588 31.5865 19.5793 31.5759 19.3956L31.5615 19.1451C31.258 18.4296 30.6822 17.0898 30.6822 17.0898H30.1838L30.2796 18.7474C30.2902 18.9311 30.2218 19.1106 30.0917 19.2407L22.5373 26.7952C22.4452 26.8873 22.3366 26.953 22.2209 26.9922L22.6721 27.4433C22.9929 27.7641 23.5129 27.7641 23.8336 27.4433L31.3881 19.8889Z" fill="#285680"/>
<path d="M32.7474 20.0636C31.983 17.2106 30.1161 15.3156 28.4974 15.7492C28.0256 15.8756 27.6269 16.1826 27.3223 16.6431C27.4354 16.9212 27.6376 17.1535 27.8934 17.3047C28.1044 16.8999 28.3863 16.6344 28.7112 16.5473C28.7928 16.5255 28.8776 16.5147 28.965 16.5147C29.4158 16.5147 29.9353 16.8014 30.4289 17.3317C31.0909 18.0429 31.6308 19.089 31.9492 20.2774C32.2677 21.4657 32.3231 22.6417 32.1054 23.5886C31.9116 24.4315 31.5124 24.9922 31.01 25.1268C30.5078 25.2613 29.8817 24.9754 29.2924 24.3424C28.9359 23.9594 28.6149 23.4794 28.3447 22.9324L27.7311 23.546C28.5367 25.0449 29.6702 25.9866 30.7529 25.9866C30.9114 25.9866 31.0688 25.9665 31.2239 25.9249C32.8427 25.4912 33.5119 22.9166 32.7474 20.0636Z" fill="#95A5A5"/>
<path d="M18.5927 21.2451C18.5134 21.3244 18.5134 21.453 18.5927 21.5323L23.1092 26.0488C23.1885 26.1282 23.3171 26.1282 23.3965 26.0488L28.9258 20.5195C29.0051 20.4402 29.0051 20.3116 28.9258 20.2323L24.4092 15.7157C24.3299 15.6364 24.2013 15.6364 24.122 15.7157L18.5927 21.2451Z" fill="white"/>
<path d="M28.9257 20.5195C29.005 20.4402 29.005 20.3116 28.9257 20.2322L24.4092 15.7157C24.3299 15.6364 24.2013 15.6364 24.1219 15.7157L23.9415 15.8962L27.1896 19.1444C27.5118 19.4665 27.5118 19.9889 27.1896 20.3111L22.2805 25.2202L23.1091 26.0488C23.1885 26.1281 23.3171 26.1281 23.3964 26.0488L28.9257 20.5195Z" fill="#F9F6F6"/>
<path d="M25.9972 18.6421C25.839 18.4839 25.5825 18.4839 25.4243 18.6421L25.1105 18.9559C24.5753 18.5565 23.8119 18.5997 23.3261 19.0855C22.7929 19.6188 22.7929 20.4864 23.3261 21.0196L23.6197 21.3132C23.8376 21.531 23.8376 21.8836 23.6197 22.1015C23.4019 22.3194 23.0493 22.3194 22.8314 22.1015L22.5378 21.8079C22.4048 21.675 22.3481 21.4853 22.386 21.3006C22.4311 21.0815 22.2899 20.8673 22.0708 20.8223C21.8516 20.7772 21.6374 20.9184 21.5924 21.1375C21.5129 21.5245 21.6033 21.9205 21.8353 22.2311L21.5215 22.545C21.3633 22.7032 21.3633 22.9597 21.5215 23.1179C21.6797 23.2761 21.9362 23.2761 22.0944 23.1179L22.4081 22.8041C22.9339 23.1977 23.6978 23.1693 24.1926 22.6744C24.7271 22.14 24.7272 21.2748 24.1926 20.7403L23.8991 20.4467C23.6817 20.2294 23.6817 19.8757 23.8991 19.6584C24.1164 19.4411 24.47 19.4411 24.6874 19.6584L24.9809 19.952C25.1139 20.085 25.1707 20.2746 25.1327 20.4593C25.0876 20.6784 25.2288 20.8926 25.4479 20.9377C25.667 20.9826 25.8813 20.8416 25.9263 20.6224C26.0059 20.2355 25.9155 19.8394 25.6835 19.5288L25.9973 19.215C26.1554 19.0568 26.1554 18.8003 25.9972 18.6421Z" fill="#018C81"/>
<defs>
<linearGradient id="paint0_linear_793_71911" x1="44.3515" y1="52.793" x2="44.3515" y2="72.6726" gradientUnits="userSpaceOnUse">
<stop stop-color="#285680"/>
<stop offset="1" stop-color="#285680" stop-opacity="0"/>
</linearGradient>
<clipPath id="clip0_793_71911">
<rect width="54" height="15" fill="white" transform="translate(17.4204 52)"/>
</clipPath>
</defs>
</svg>
