<svg width="88" height="88" viewBox="0 0 88 88" fill="none" xmlns="http://www.w3.org/2000/svg">
<rect width="88" height="88" rx="8" fill="#F8F9FC"/>
<path d="M67.8904 25.1856C61.5384 18.8362 52.9872 15.2891 43.9999 15.2891V24.4774C50.5833 24.4774 56.7987 27.0885 61.3936 31.6824L67.8904 25.1856Z" fill="#184376"/>
<path d="M20.109 25.185L26.6063 31.6824C31.2265 27.0622 37.4564 24.4774 44.0001 24.4774V15.2891C35.4895 15.2891 27.214 18.3341 20.109 25.185Z" fill="#15BA8B"/>
<path d="M20.109 25.185L26.6063 31.6824C31.2265 27.0622 37.4564 24.4774 44.0001 24.4774V15.2891C35.4895 15.2891 27.214 18.3341 20.109 25.185Z" fill="#436691"/>
<path d="M10.2217 48.35C10.2145 48.6917 10.4877 48.9742 10.8294 48.9742H18.8054C19.1322 48.9742 19.4028 48.7154 19.4121 48.3886C19.5811 42.3042 22.001 36.2867 26.6062 31.6809L20.1089 25.1836C14.0012 31.2913 10.4088 39.5292 10.2217 48.35Z" fill="#2980BA"/>
<path d="M24.2942 24.9279C30.0498 19.3779 36.5662 16.3009 43.3553 15.2969C35.072 15.4474 27.0346 18.5079 20.109 25.1856L22.1753 27.2519C22.8438 26.4484 23.5504 25.6722 24.2942 24.9279Z" fill="#13365E"/>
<path d="M14.9146 48.9742C14.5687 48.9742 14.2925 48.6886 14.3002 48.3433C14.4661 40.5012 17.2963 33.1164 22.1752 27.2499L20.1089 25.1836C14.0012 31.2913 10.4088 39.5292 10.2217 48.35C10.2145 48.6917 10.4877 48.9742 10.8294 48.9742H18.8054H14.9146Z" fill="#184376"/>
<path d="M67.891 25.1836L61.3937 31.6809C65.7082 35.996 68.4095 41.9001 68.5878 48.3876C68.5971 48.7149 68.8672 48.9742 69.1945 48.9742H77.1706C77.5123 48.9742 77.7854 48.6922 77.7782 48.35C77.5942 39.7462 74.143 31.4335 67.891 25.1836Z" fill="#13365E"/>
<path d="M49.1008 47.7475L52.7063 36.0813C52.8555 35.5981 52.4028 35.1454 51.92 35.2945L40.2533 38.9001C35.164 40.4732 33.5736 46.8942 37.3403 50.6605C41.1071 54.4273 47.5277 52.8369 49.1008 47.7475Z" fill="#95A5A5"/>
<path d="M40.32 50.6605C36.5532 46.8942 38.144 40.4731 43.2334 38.9001L52.7297 35.9652C52.7809 35.5291 52.364 35.1574 51.92 35.2945L40.2533 38.9001C35.164 40.4731 33.5736 46.8942 37.3403 50.6605C39.1604 52.4806 41.6 53.0497 43.8129 52.5778C42.5536 52.3066 41.3394 51.6804 40.32 50.6605Z" fill="#788181"/>
<path d="M24.9347 74.2305V59.685H30.3892C31.5066 59.685 32.4441 59.8933 33.2017 60.31C33.964 60.7267 34.5393 61.2996 34.9276 62.0288C35.3205 62.7532 35.517 63.5771 35.517 64.5004C35.517 65.4331 35.3205 66.2617 34.9276 66.9862C34.5346 67.7106 33.9545 68.2811 33.1875 68.6978C32.4205 69.1097 31.4759 69.3157 30.3537 69.3157H26.7386V67.1495H29.9986C30.652 67.1495 31.187 67.0359 31.6037 66.8086C32.0204 66.5813 32.3281 66.2688 32.527 65.8711C32.7306 65.4734 32.8324 65.0165 32.8324 64.5004C32.8324 63.9843 32.7306 63.5297 32.527 63.1367C32.3281 62.7437 32.018 62.4383 31.5966 62.2205C31.1799 61.998 30.6425 61.8867 29.9844 61.8867H27.5696V74.2305H24.9347ZM37.8058 74.2305V59.685H47.266V61.8938H40.4407V65.8427H46.7759V68.0515H40.4407V72.0217H47.3228V74.2305H37.8058ZM59.6985 64.3299C59.5801 63.9464 59.4168 63.6031 59.2085 63.3001C59.0049 62.9923 58.7586 62.7295 58.4698 62.5117C58.1857 62.2939 57.859 62.1306 57.4897 62.0217C57.1204 61.908 56.7179 61.8512 56.2823 61.8512C55.5011 61.8512 54.805 62.0477 54.1942 62.4407C53.5835 62.8337 53.1029 63.4113 52.7525 64.1737C52.4068 64.9312 52.234 65.8545 52.234 66.9435C52.234 68.042 52.4068 68.9724 52.7525 69.7347C53.0981 70.497 53.5787 71.0771 54.1942 71.4748C54.8098 71.8678 55.5247 72.0643 56.3391 72.0643C57.0778 72.0643 57.717 71.9222 58.2567 71.6381C58.8013 71.354 59.2203 70.9516 59.5138 70.4308C59.8074 69.9052 59.9542 69.2897 59.9542 68.5842L60.5508 68.6765H56.6019V66.6168H62.5039V68.364C62.5039 69.6093 62.2388 70.6864 61.7085 71.5955C61.1781 72.5046 60.449 73.2054 59.521 73.6978C58.5929 74.1855 57.5276 74.4293 56.3249 74.4293C54.985 74.4293 53.8084 74.1287 52.7951 73.5273C51.7866 72.9213 50.9982 72.0619 50.43 70.9492C49.8666 69.8318 49.5849 68.506 49.5849 66.9719C49.5849 65.7977 49.7506 64.7489 50.082 63.8256C50.4182 62.9023 50.887 62.1187 51.4883 61.4748C52.0896 60.8261 52.7951 60.3337 53.6048 59.9975C54.4144 59.6566 55.2951 59.4862 56.2468 59.4862C57.0517 59.4862 57.8022 59.6045 58.4982 59.8413C59.1942 60.0733 59.8121 60.4047 60.3519 60.8356C60.8964 61.2665 61.3439 61.7778 61.6942 62.3697C62.0446 62.9615 62.2743 63.6149 62.3832 64.3299H59.6985Z" fill="#018C81"/>
</svg>
