<svg width="88" height="88" viewBox="0 0 88 88" fill="none" xmlns="http://www.w3.org/2000/svg">
<rect width="88" height="88" rx="8" fill="#F8F9FC"/>
<path d="M67.8904 25.1856C61.5384 18.8362 52.9872 15.2891 43.9999 15.2891V24.4774C50.5833 24.4774 56.7987 27.0885 61.3936 31.6824L67.8904 25.1856Z" fill="#184376"/>
<path d="M20.109 25.185L26.6063 31.6824C31.2265 27.0622 37.4564 24.4774 44.0001 24.4774V15.2891C35.4895 15.2891 27.214 18.3341 20.109 25.185Z" fill="#15BA8B"/>
<path d="M20.109 25.185L26.6063 31.6824C31.2265 27.0622 37.4564 24.4774 44.0001 24.4774V15.2891C35.4895 15.2891 27.214 18.3341 20.109 25.185Z" fill="#436691"/>
<path d="M10.2217 48.35C10.2145 48.6917 10.4877 48.9742 10.8294 48.9742H18.8054C19.1322 48.9742 19.4028 48.7154 19.4121 48.3886C19.5811 42.3042 22.001 36.2867 26.6062 31.6809L20.1089 25.1836C14.0012 31.2913 10.4088 39.5292 10.2217 48.35Z" fill="#2980BA"/>
<path d="M24.2942 24.9279C30.0498 19.3779 36.5662 16.3009 43.3553 15.2969C35.072 15.4474 27.0346 18.5079 20.109 25.1856L22.1753 27.2519C22.8438 26.4484 23.5504 25.6722 24.2942 24.9279Z" fill="#13365E"/>
<path d="M14.9146 48.9742C14.5687 48.9742 14.2925 48.6886 14.3002 48.3433C14.4661 40.5012 17.2963 33.1164 22.1752 27.2499L20.1089 25.1836C14.0012 31.2913 10.4088 39.5292 10.2217 48.35C10.2145 48.6917 10.4877 48.9742 10.8294 48.9742H18.8054H14.9146Z" fill="#184376"/>
<path d="M67.891 25.1836L61.3937 31.6809C65.7082 35.996 68.4095 41.9001 68.5878 48.3876C68.5971 48.7149 68.8672 48.9742 69.1945 48.9742H77.1706C77.5123 48.9742 77.7854 48.6922 77.7782 48.35C77.5942 39.7462 74.143 31.4335 67.891 25.1836Z" fill="#13365E"/>
<path d="M49.1008 47.7475L52.7063 36.0813C52.8555 35.5981 52.4028 35.1454 51.92 35.2945L40.2533 38.9001C35.164 40.4732 33.5736 46.8942 37.3403 50.6605C41.1071 54.4273 47.5277 52.8369 49.1008 47.7475Z" fill="#95A5A5"/>
<path d="M40.32 50.6605C36.5532 46.8942 38.144 40.4731 43.2334 38.9001L52.7297 35.9652C52.7809 35.5291 52.364 35.1574 51.92 35.2945L40.2533 38.9001C35.164 40.4731 33.5736 46.8942 37.3403 50.6605C39.1604 52.4806 41.6 53.0497 43.8129 52.5778C42.5536 52.3066 41.3394 51.6804 40.32 50.6605Z" fill="#788181"/>
<path d="M14.1477 71.3164V59.68H21.7159V61.4471H16.2557V64.6062H21.3239V66.3732H16.2557V69.5494H21.7614V71.3164H14.1477ZM25.6808 71.3164H23.4308L27.5274 59.68H30.1297L34.2319 71.3164H31.9819L28.874 62.0664H28.7831L25.6808 71.3164ZM25.7547 66.7539H31.891V68.4471H25.7547V66.7539ZM36.0846 71.3164V59.68H40.4482C41.3422 59.68 42.0922 59.8353 42.6982 60.146C43.3081 60.4566 43.7683 60.8922 44.0789 61.4528C44.3933 62.0096 44.5505 62.6592 44.5505 63.4016C44.5505 64.1478 44.3914 64.7956 44.0732 65.3448C43.7588 65.8903 43.2948 66.3126 42.6812 66.6119C42.0676 66.9073 41.3138 67.055 40.4198 67.055H37.3119V65.305H40.1357C40.6585 65.305 41.0865 65.2331 41.4198 65.0891C41.7532 64.9414 41.9994 64.7274 42.1585 64.4471C42.3213 64.163 42.4028 63.8145 42.4028 63.4016C42.4028 62.9888 42.3213 62.6365 42.1585 62.3448C41.9956 62.0494 41.7475 61.8259 41.4141 61.6744C41.0808 61.5191 40.6509 61.4414 40.1244 61.4414H38.1926V71.3164H36.0846ZM42.096 66.0437L44.9766 71.3164H42.6244L39.7948 66.0437H42.096ZM56.3734 59.68V71.3164H54.4984L49.0154 63.3903H48.9188V71.3164H46.8109V59.68H48.6972L54.1745 67.6119H54.2768V59.68H56.3734ZM71.0744 63.396C70.9797 63.0891 70.8491 62.8145 70.6824 62.5721C70.5195 62.3259 70.3225 62.1156 70.0915 61.9414C69.8642 61.7672 69.6028 61.6365 69.3074 61.5494C69.0119 61.4585 68.69 61.413 68.3415 61.413C67.7165 61.413 67.1597 61.5702 66.671 61.8846C66.1824 62.199 65.7979 62.6611 65.5176 63.271C65.2411 63.877 65.1028 64.6156 65.1028 65.4869C65.1028 66.3656 65.2411 67.11 65.5176 67.7198C65.7941 68.3297 66.1786 68.7937 66.671 69.1119C67.1634 69.4263 67.7354 69.5835 68.3869 69.5835C68.9778 69.5835 69.4892 69.4698 69.921 69.2425C70.3566 69.0153 70.6919 68.6933 70.9267 68.2766C71.1616 67.8562 71.279 67.3638 71.279 66.7994L71.7562 66.8732H68.5972V65.2255H73.3187V66.6232C73.3187 67.6194 73.1066 68.4812 72.6824 69.2085C72.2581 69.9357 71.6748 70.4963 70.9324 70.8903C70.19 71.2804 69.3377 71.4755 68.3756 71.4755C67.3036 71.4755 66.3623 71.235 65.5517 70.7539C64.7449 70.2691 64.1142 69.5816 63.6597 68.6914C63.2089 67.7975 62.9835 66.7369 62.9835 65.5096C62.9835 64.5702 63.1161 63.7312 63.3812 62.9925C63.6502 62.2539 64.0252 61.627 64.5062 61.1119C64.9873 60.5929 65.5517 60.199 66.1994 59.93C66.8472 59.6573 67.5517 59.521 68.3131 59.521C68.957 59.521 69.5574 59.6156 70.1142 59.805C70.671 59.9906 71.1653 60.2558 71.5972 60.6005C72.0328 60.9452 72.3907 61.3543 72.671 61.8278C72.9513 62.3013 73.135 62.824 73.2222 63.396H71.0744ZM76.8532 71.4414C76.5085 71.4414 76.2131 71.3202 75.9669 71.0778C75.7207 70.8353 75.5994 70.5399 75.6032 70.1914C75.5994 69.8505 75.7207 69.5588 75.9669 69.3164C76.2131 69.074 76.5085 68.9528 76.8532 68.9528C77.1866 68.9528 77.4763 69.074 77.7226 69.3164C77.9726 69.5588 78.0994 69.8505 78.1032 70.1914C78.0994 70.4225 78.0388 70.6327 77.9214 70.8221C77.8078 71.0115 77.6563 71.163 77.4669 71.2766C77.2813 71.3865 77.0767 71.4414 76.8532 71.4414Z" fill="#018C81"/>
</svg>
