<svg width="88" height="88" viewBox="0 0 88 88" fill="none" xmlns="http://www.w3.org/2000/svg">
<rect width="88" height="88" rx="8" fill="#F8F9FC"/>
<path d="M67.8904 25.1856C61.5384 18.8362 52.9872 15.2891 43.9999 15.2891V24.4774C50.5833 24.4774 56.7987 27.0885 61.3936 31.6824L67.8904 25.1856Z" fill="#184376"/>
<path d="M20.109 25.185L26.6063 31.6824C31.2265 27.0622 37.4564 24.4774 44.0001 24.4774V15.2891C35.4895 15.2891 27.214 18.3341 20.109 25.185Z" fill="#15BA8B"/>
<path d="M20.109 25.185L26.6063 31.6824C31.2265 27.0622 37.4564 24.4774 44.0001 24.4774V15.2891C35.4895 15.2891 27.214 18.3341 20.109 25.185Z" fill="#436691"/>
<path d="M10.2217 48.35C10.2145 48.6917 10.4877 48.9742 10.8294 48.9742H18.8054C19.1322 48.9742 19.4028 48.7154 19.4121 48.3886C19.5811 42.3042 22.001 36.2867 26.6062 31.6809L20.1089 25.1836C14.0012 31.2913 10.4088 39.5292 10.2217 48.35Z" fill="#2980BA"/>
<path d="M24.2942 24.9279C30.0498 19.3779 36.5662 16.3009 43.3553 15.2969C35.072 15.4474 27.0346 18.5079 20.109 25.1856L22.1753 27.2519C22.8438 26.4484 23.5504 25.6722 24.2942 24.9279Z" fill="#13365E"/>
<path d="M14.9146 48.9742C14.5687 48.9742 14.2925 48.6886 14.3002 48.3433C14.4661 40.5012 17.2963 33.1164 22.1752 27.2499L20.1089 25.1836C14.0012 31.2913 10.4088 39.5292 10.2217 48.35C10.2145 48.6917 10.4877 48.9742 10.8294 48.9742H18.8054H14.9146Z" fill="#184376"/>
<path d="M67.891 25.1836L61.3937 31.6809C65.7082 35.996 68.4095 41.9001 68.5878 48.3876C68.5971 48.7149 68.8672 48.9742 69.1945 48.9742H77.1706C77.5123 48.9742 77.7854 48.6922 77.7782 48.35C77.5942 39.7462 74.143 31.4335 67.891 25.1836Z" fill="#13365E"/>
<path d="M49.1008 47.7475L52.7063 36.0813C52.8555 35.5981 52.4028 35.1454 51.92 35.2945L40.2533 38.9001C35.164 40.4732 33.5736 46.8942 37.3403 50.6605C41.1071 54.4273 47.5277 52.8369 49.1008 47.7475Z" fill="#95A5A5"/>
<path d="M40.32 50.6605C36.5532 46.8942 38.144 40.4731 43.2334 38.9001L52.7297 35.9652C52.7809 35.5291 52.364 35.1574 51.92 35.2945L40.2533 38.9001C35.164 40.4731 33.5736 46.8942 37.3403 50.6605C39.1604 52.4806 41.6 53.0497 43.8129 52.5778C42.5536 52.3066 41.3394 51.6804 40.32 50.6605Z" fill="#788181"/>
<path d="M46.0806 58.1406L41.1846 76.3302H38.833L43.7291 58.1406H46.0806Z" fill="#95A5A5"/>
<path d="M26.6064 74.2277V59.0352H32.3037C33.4708 59.0352 34.45 59.2528 35.2413 59.688C36.0375 60.1232 36.6384 60.7216 37.0439 61.4832C37.4544 62.2398 37.6596 63.1004 37.6596 64.0647C37.6596 65.039 37.4544 65.9045 37.0439 66.6611C36.6335 67.4178 36.0276 68.0137 35.2265 68.4489C34.4253 68.8792 33.4387 69.0943 32.2666 69.0943H28.4907V66.8317H31.8957C32.5781 66.8317 33.137 66.713 33.5722 66.4757C34.0074 66.2383 34.3288 65.9119 34.5366 65.4965C34.7492 65.081 34.8555 64.6038 34.8555 64.0647C34.8555 63.5257 34.7492 63.0509 34.5366 62.6404C34.3288 62.23 34.0049 61.911 33.5648 61.6835C33.1296 61.451 32.5682 61.3348 31.8808 61.3348H29.3586V74.2277H26.6064Z" fill="#2980BA"/>
<path d="M58.3847 63.2998C58.3174 62.6701 58.0339 62.1799 57.534 61.8291C57.039 61.4782 56.3949 61.3028 55.6019 61.3028C55.0444 61.3028 54.5662 61.3869 54.1673 61.5551C53.7684 61.7233 53.4632 61.9516 53.2517 62.24C53.0402 62.5284 52.9321 62.8576 52.9273 63.2277C52.9273 63.5353 52.997 63.802 53.1363 64.0279C53.2805 64.2538 53.4752 64.446 53.7203 64.6046C53.9654 64.7584 54.237 64.8882 54.5349 64.9939C54.8329 65.0997 55.1333 65.1886 55.4361 65.2607L56.8203 65.6067C57.3778 65.7365 57.9137 65.9119 58.428 66.133C58.947 66.3541 59.4108 66.6329 59.8194 66.9693C60.2327 67.3057 60.5595 67.7119 60.7998 68.1877C61.0401 68.6635 61.1603 69.221 61.1603 69.8602C61.1603 70.7253 60.9392 71.4871 60.497 72.1456C60.0549 72.7992 59.4156 73.3111 58.5794 73.6812C57.7479 74.0464 56.741 74.2291 55.5587 74.2291C54.41 74.2291 53.4127 74.0512 52.5668 73.6956C51.7257 73.3399 51.0673 72.8208 50.5915 72.1384C50.1204 71.4559 49.8657 70.6244 49.8273 69.6439H52.4587C52.4971 70.1582 52.6557 70.586 52.9345 70.9272C53.2132 71.2684 53.5761 71.5232 54.0231 71.6914C54.4749 71.8596 54.9795 71.9437 55.537 71.9437C56.1186 71.9437 56.628 71.8572 57.0654 71.6842C57.5076 71.5063 57.8536 71.2612 58.1035 70.9488C58.3535 70.6316 58.4808 70.2615 58.4856 69.8386C58.4808 69.4541 58.3679 69.1369 58.1468 68.887C57.9257 68.6322 57.6157 68.4208 57.2168 68.2526C56.8227 68.0795 56.3613 67.9257 55.8326 67.7912L54.1529 67.3586C52.9369 67.0462 51.9756 66.5728 51.2691 65.9384C50.5674 65.2991 50.2166 64.4508 50.2166 63.3935C50.2166 62.5236 50.4521 61.7618 50.9231 61.1081C51.3989 60.4545 52.0453 59.9474 52.8624 59.587C53.6794 59.2217 54.6046 59.0391 55.638 59.0391C56.6857 59.0391 57.6037 59.2217 58.3919 59.587C59.1849 59.9474 59.8073 60.4497 60.2591 61.0937C60.7109 61.7329 60.944 62.4683 60.9584 63.2998H58.3847Z" fill="#018C81"/>
</svg>
