<svg width="88" height="88" viewBox="0 0 88 88" fill="none" xmlns="http://www.w3.org/2000/svg">
<rect width="88" height="88" rx="8" fill="#F8F9FC"/>
<path d="M67.8904 25.1856C61.5384 18.8362 52.9872 15.2891 43.9999 15.2891V24.4774C50.5833 24.4774 56.7987 27.0885 61.3936 31.6824L67.8904 25.1856Z" fill="#184376"/>
<path d="M20.109 25.185L26.6063 31.6824C31.2265 27.0622 37.4564 24.4774 44.0001 24.4774V15.2891C35.4895 15.2891 27.214 18.3341 20.109 25.185Z" fill="#15BA8B"/>
<path d="M20.109 25.185L26.6063 31.6824C31.2265 27.0622 37.4564 24.4774 44.0001 24.4774V15.2891C35.4895 15.2891 27.214 18.3341 20.109 25.185Z" fill="#436691"/>
<path d="M10.2217 48.35C10.2145 48.6917 10.4877 48.9742 10.8294 48.9742H18.8054C19.1322 48.9742 19.4028 48.7154 19.4121 48.3886C19.5811 42.3042 22.001 36.2867 26.6062 31.6809L20.1089 25.1836C14.0012 31.2913 10.4088 39.5292 10.2217 48.35Z" fill="#2980BA"/>
<path d="M24.2942 24.9279C30.0498 19.3779 36.5662 16.3009 43.3553 15.2969C35.072 15.4474 27.0346 18.5079 20.109 25.1856L22.1753 27.2519C22.8438 26.4484 23.5504 25.6722 24.2942 24.9279Z" fill="#13365E"/>
<path d="M14.9146 48.9742C14.5687 48.9742 14.2925 48.6886 14.3002 48.3433C14.4661 40.5012 17.2963 33.1164 22.1752 27.2499L20.1089 25.1836C14.0012 31.2913 10.4088 39.5292 10.2217 48.35C10.2145 48.6917 10.4877 48.9742 10.8294 48.9742H18.8054H14.9146Z" fill="#184376"/>
<path d="M67.891 25.1836L61.3937 31.6809C65.7082 35.996 68.4095 41.9001 68.5878 48.3876C68.5971 48.7149 68.8672 48.9742 69.1945 48.9742H77.1706C77.5123 48.9742 77.7854 48.6922 77.7782 48.35C77.5942 39.7462 74.143 31.4335 67.891 25.1836Z" fill="#13365E"/>
<path d="M49.1008 47.7475L52.7063 36.0813C52.8555 35.5981 52.4028 35.1454 51.92 35.2945L40.2533 38.9001C35.164 40.4732 33.5736 46.8942 37.3403 50.6605C41.1071 54.4273 47.5277 52.8369 49.1008 47.7475Z" fill="#95A5A5"/>
<path d="M40.32 50.6605C36.5532 46.8942 38.144 40.4731 43.2334 38.9001L52.7297 35.9652C52.7809 35.5291 52.364 35.1574 51.92 35.2945L40.2533 38.9001C35.164 40.4731 33.5736 46.8942 37.3403 50.6605C39.1604 52.4806 41.6 53.0497 43.8129 52.5778C42.5536 52.3066 41.3394 51.6804 40.32 50.6605Z" fill="#788181"/>
<path d="M44.0806 58.1406L39.1846 76.3302H36.833L41.7291 58.1406H44.0806Z" fill="#95A5A5"/>
<path d="M27.6197 74.2291H22.4723V59.0391H27.7235C29.2316 59.0391 30.5271 59.3432 31.61 59.9514C32.6979 60.5546 33.5335 61.4224 34.117 62.5547C34.7004 63.687 34.9922 65.0419 34.9922 66.6192C34.9922 68.2015 34.698 69.5613 34.1096 70.6986C33.5261 71.8358 32.683 72.7086 31.5804 73.3168C30.4826 73.925 29.1624 74.2291 27.6197 74.2291ZM25.224 71.8482H27.4862C28.5443 71.8482 29.427 71.6554 30.134 71.2697C30.8411 70.8791 31.3727 70.2981 31.7287 69.5267C32.0847 68.7504 32.2627 67.7812 32.2627 66.6192C32.2627 65.4572 32.0847 64.493 31.7287 63.7266C31.3727 62.9552 30.8461 62.3792 30.1489 61.9984C29.4566 61.6128 28.5963 61.4199 27.5678 61.4199H25.224V71.8482Z" fill="#2980BA"/>
<path d="M47 73.6435V59.8295H55.9845V61.9272H49.5024V65.6775H55.5191V67.7752H49.5024V71.5458H56.0385V73.6435H47Z" fill="#018C81"/>
<path d="M63.684 69.0028H65.9504L67.2927 70.7431L68.2505 71.8763L70.5506 74.8306H68.1223L66.5575 72.8476L65.8897 71.9032L63.684 69.0028ZM70.8811 66.7365C70.8811 68.2249 70.6023 69.4997 70.0447 70.561C69.4916 71.6177 68.7361 72.4271 67.7783 72.9892C66.825 73.5513 65.7436 73.8323 64.5339 73.8323C63.3243 73.8323 62.2406 73.5513 61.2828 72.9892C60.3295 72.4226 59.574 71.611 59.0164 70.5542C58.4633 69.493 58.1868 68.2204 58.1868 66.7365C58.1868 65.2481 58.4633 63.9755 59.0164 62.9188C59.574 61.8575 60.3295 61.0459 61.2828 60.4838C62.2406 59.9217 63.3243 59.6406 64.5339 59.6406C65.7436 59.6406 66.825 59.9217 67.7783 60.4838C68.7361 61.0459 69.4916 61.8575 70.0447 62.9188C70.6023 63.9755 70.8811 65.2481 70.8811 66.7365ZM68.3652 66.7365C68.3652 65.6887 68.201 64.8051 67.8728 64.0857C67.549 63.3617 67.0993 62.8153 66.5237 62.4466C65.9482 62.0734 65.2849 61.8867 64.5339 61.8867C63.783 61.8867 63.1197 62.0734 62.5441 62.4466C61.9685 62.8153 61.5166 63.3617 61.1883 64.0857C60.8646 64.8051 60.7027 65.6887 60.7027 66.7365C60.7027 67.7842 60.8646 68.6701 61.1883 69.3941C61.5166 70.1135 61.9685 70.6599 62.5441 71.0331C63.1197 71.4019 63.783 71.5862 64.5339 71.5862C65.2849 71.5862 65.9482 71.4019 66.5237 71.0331C67.0993 70.6599 67.549 70.1135 67.8728 69.3941C68.201 68.6701 68.3652 67.7842 68.3652 66.7365Z" fill="#018C81"/>
</svg>
