<svg width="88" height="88" viewBox="0 0 88 88" fill="none" xmlns="http://www.w3.org/2000/svg">
<rect width="88" height="88" rx="8" fill="#F8F9FC"/>
<path d="M67.8904 25.1856C61.5384 18.8362 52.9872 15.2891 43.9999 15.2891V24.4774C50.5833 24.4774 56.7987 27.0885 61.3936 31.6824L67.8904 25.1856Z" fill="#184376"/>
<path d="M20.109 25.185L26.6063 31.6824C31.2265 27.0622 37.4564 24.4774 44.0001 24.4774V15.2891C35.4895 15.2891 27.214 18.3341 20.109 25.185Z" fill="#15BA8B"/>
<path d="M20.109 25.185L26.6063 31.6824C31.2265 27.0622 37.4564 24.4774 44.0001 24.4774V15.2891C35.4895 15.2891 27.214 18.3341 20.109 25.185Z" fill="#436691"/>
<path d="M10.2217 48.35C10.2145 48.6917 10.4877 48.9742 10.8294 48.9742H18.8054C19.1322 48.9742 19.4028 48.7154 19.4121 48.3886C19.5811 42.3042 22.001 36.2867 26.6062 31.6809L20.1089 25.1836C14.0012 31.2913 10.4088 39.5292 10.2217 48.35Z" fill="#2980BA"/>
<path d="M24.2942 24.9279C30.0498 19.3779 36.5662 16.3009 43.3553 15.2969C35.072 15.4474 27.0346 18.5079 20.109 25.1856L22.1753 27.2519C22.8438 26.4484 23.5504 25.6722 24.2942 24.9279Z" fill="#13365E"/>
<path d="M14.9146 48.9742C14.5687 48.9742 14.2925 48.6886 14.3002 48.3433C14.4661 40.5012 17.2963 33.1164 22.1752 27.2499L20.1089 25.1836C14.0012 31.2913 10.4088 39.5292 10.2217 48.35C10.2145 48.6917 10.4877 48.9742 10.8294 48.9742H18.8054H14.9146Z" fill="#184376"/>
<path d="M67.891 25.1836L61.3937 31.6809C65.7082 35.996 68.4095 41.9001 68.5878 48.3876C68.5971 48.7149 68.8672 48.9742 69.1945 48.9742H77.1706C77.5123 48.9742 77.7854 48.6922 77.7782 48.35C77.5942 39.7462 74.143 31.4335 67.891 25.1836Z" fill="#13365E"/>
<path d="M49.1008 47.7475L52.7063 36.0813C52.8555 35.5981 52.4028 35.1454 51.92 35.2945L40.2533 38.9001C35.164 40.4732 33.5736 46.8942 37.3403 50.6605C41.1071 54.4273 47.5277 52.8369 49.1008 47.7475Z" fill="#95A5A5"/>
<path d="M40.32 50.6605C36.5532 46.8942 38.144 40.4731 43.2334 38.9001L52.7297 35.9652C52.7809 35.5291 52.364 35.1574 51.92 35.2945L40.2533 38.9001C35.164 40.4731 33.5736 46.8942 37.3403 50.6605C39.1604 52.4806 41.6 53.0497 43.8129 52.5778C42.5536 52.3066 41.3394 51.6804 40.32 50.6605Z" fill="#788181"/>
<path d="M20.109 71.7955V60.1591H24.4726C25.3666 60.1591 26.1166 60.3144 26.7226 60.625C27.3325 60.9356 27.7927 61.3712 28.1033 61.9318C28.4177 62.4886 28.5749 63.1383 28.5749 63.8807C28.5749 64.6269 28.4158 65.2746 28.0976 65.8239C27.7833 66.3693 27.3192 66.7917 26.7056 67.0909C26.092 67.3864 25.3382 67.5341 24.4442 67.5341H21.3363V65.7841H24.1601C24.6829 65.7841 25.1109 65.7121 25.4442 65.5682C25.7776 65.4205 26.0238 65.2064 26.1829 64.9261C26.3458 64.642 26.4272 64.2936 26.4272 63.8807C26.4272 63.4678 26.3458 63.1155 26.1829 62.8239C26.02 62.5284 25.7719 62.3049 25.4386 62.1534C25.1052 61.9981 24.6753 61.9205 24.1488 61.9205H22.217V71.7955H20.109ZM26.1204 66.5227L29.0011 71.7955H26.6488L23.8192 66.5227H26.1204Z" fill="#018C81"/>
<path d="M30.5153 71.7955V60.1591H38.0834V61.9261H32.6232V65.0852H37.6914V66.8523H32.6232V70.0284H38.1289V71.7955H30.5153Z" fill="#018C81"/>
<path d="M41.7908 60.1591L44.8192 69.3182H44.9386L47.9613 60.1591H50.2795L46.1772 71.7955H43.5749L39.4783 60.1591H41.7908Z" fill="#018C81"/>
<path d="M63.5763 63.875C63.4816 63.5682 63.351 63.2936 63.1843 63.0511C63.0214 62.8049 62.8244 62.5947 62.5934 62.4205C62.3661 62.2462 62.1047 62.1155 61.8093 62.0284C61.5138 61.9375 61.1919 61.892 60.8434 61.892C60.2184 61.892 59.6616 62.0492 59.1729 62.3636C58.6843 62.678 58.2998 63.1402 58.0195 63.75C57.743 64.3561 57.6047 65.0947 57.6047 65.9659C57.6047 66.8447 57.743 67.589 58.0195 68.1989C58.296 68.8087 58.6805 69.2727 59.1729 69.5909C59.6654 69.9053 60.2373 70.0625 60.8888 70.0625C61.4797 70.0625 61.9911 69.9489 62.4229 69.7216C62.8585 69.4943 63.1938 69.1723 63.4286 68.7557C63.6635 68.3352 63.7809 67.8428 63.7809 67.2784L64.2582 67.3523H61.0991V65.7045H65.8207V67.1023C65.8207 68.0985 65.6085 68.9602 65.1843 69.6875C64.76 70.4148 64.1767 70.9754 63.4343 71.3693C62.6919 71.7595 61.8396 71.9545 60.8775 71.9545C59.8055 71.9545 58.8642 71.714 58.0536 71.233C57.2468 70.7481 56.6161 70.0606 56.1616 69.1705C55.7108 68.2765 55.4854 67.2159 55.4854 65.9886C55.4854 65.0492 55.618 64.2102 55.8832 63.4716C56.1521 62.733 56.5271 62.1061 57.0082 61.5909C57.4892 61.072 58.0536 60.678 58.7013 60.4091C59.3491 60.1364 60.0536 60 60.815 60C61.4589 60 62.0593 60.0947 62.6161 60.2841C63.1729 60.4697 63.6672 60.7348 64.0991 61.0795C64.5347 61.4242 64.8926 61.8333 65.1729 62.3068C65.4532 62.7803 65.6369 63.303 65.7241 63.875H63.5763Z" fill="#018C81"/>
<path d="M69.0351 71.9205C68.6904 71.9205 68.395 71.7992 68.1488 71.5568C67.9026 71.3144 67.7814 71.0189 67.7851 70.6705C67.7814 70.3295 67.9026 70.0379 68.1488 69.7955C68.395 69.553 68.6904 69.4318 69.0351 69.4318C69.3685 69.4318 69.6583 69.553 69.9045 69.7955C70.1545 70.0379 70.2814 70.3295 70.2851 70.6705C70.2814 70.9015 70.2207 71.1117 70.1033 71.3011C69.9897 71.4905 69.8382 71.642 69.6488 71.7557C69.4632 71.8655 69.2586 71.9205 69.0351 71.9205Z" fill="#018C81"/>
</svg>
