<svg width="88" height="88" viewBox="0 0 88 88" fill="none" xmlns="http://www.w3.org/2000/svg">
<rect width="88" height="88" rx="8" fill="#F8F9FC"/>
<g clip-path="url(#clip0_793_71119)">
<g style="mix-blend-mode:multiply" opacity="0.1">
<path d="M343.419 55.1828L345.516 55.6037V82.4586H8V29.6127L10.0932 33.3207L12.1901 34.5884L14.2871 32.4688L16.384 28.0944L18.4809 26.9219L20.5779 29.5375L22.6748 35.3099L24.7718 41.9793L26.8687 40.1554L28.9656 45.3115L31.0626 50.6881L33.1595 41.4131L35.2565 32.7795L37.3534 35.2097L39.4503 38.0659L41.5473 37.4746L43.6442 36.3522L45.7412 39.1783L47.8381 45.8978L49.935 45.4919L52.032 44.4396L54.1289 49.5657L56.2259 41.1826L58.3228 37.5397L60.4197 39.4288L62.5167 47.1154L64.6136 45.0509L66.7106 42.0645L68.8075 38.1611L70.9044 36.4324L73.0014 42.1246L75.0983 35.0293L77.1953 35.6306L79.2922 40.3057L81.3891 38.6672L83.4861 38.602L85.583 40.7266L87.68 36.2219L89.7769 37.4095L91.8738 43.242L93.9708 46.4139L96.0677 42.3651L98.1647 38.6421L100.262 46.2285L102.359 49.4053L104.455 49.1848L106.552 39.4088L108.649 42.5105L110.746 43.9636L112.843 53.7948L114.94 59.462L117.037 43.0366L119.134 39.8798L121.231 46.8949L123.328 41.849L125.425 46.1533L127.522 48.3881L129.619 50.5979L131.716 49.9164L133.813 39.2585L135.91 42.9514L138.007 41.7087L140.103 41.2477L142.2 43.3272L144.297 38.2513L146.394 40.0151L148.491 41.1525L150.588 40.0051L152.685 42.5606L154.695 41.6085L156.792 40.2556L158.889 40.3959L160.985 43.5527L163.082 39.8096L165.179 44.0438L167.276 41.8791L169.373 43.1468L171.47 39.1081L173.567 37.8103L175.664 45.3566L177.761 44.64L179.858 45.0559L181.955 41.5584L184.052 44.144L186.149 42.2048L188.246 45.9328L190.343 45.5119L192.44 49.3302L194.537 48.5134L196.633 49.2851L198.73 41.3329L200.827 40.8068L202.924 47.7217L205.021 42.5856L207.118 50.1168L209.215 43.7982L211.312 42.0244L213.409 44.3294L215.506 44.4647L217.603 45.4568L219.7 50.3624L221.797 61.2558L223.894 58.6903L225.991 41.1074L228.088 49.3001L230.184 43.2671L232.281 46.93L234.378 42.8913L236.475 45.4819L238.572 51.0689L240.669 52.7926L242.766 52.6523L244.863 52.4318L246.96 49.24L249.057 54.6416L251.154 47.391L253.251 53.6194L255.348 48.7088L257.445 45.4468L259.542 60.2988L261.639 64.8486L263.736 66.1965L265.832 61.9423L267.929 57.6381L270.026 52.3466L272.123 57.3123L274.22 55.9143L276.317 57.7784L278.414 54.2608L280.511 56.8063L282.608 49.1949L284.705 47.4361L286.802 55.6187L288.899 64.7233L290.996 52.3617L293.093 56.0296L295.19 52.4469L297.287 48.343L299.384 60.9251L301.48 58.1441L303.577 53.1684L305.674 60.7848L307.771 61.6166L309.868 63.5558L311.965 64.8486L314.062 53.0782L316.159 54.6165L318.256 63.9316L320.353 56.4505L322.45 54.4211L324.547 60.6195L326.644 62.7541L328.741 51.57L330.838 55.8191L332.935 56.8564L335.032 54.6015L337.128 55.3832L339.225 60.845L341.322 60.3188L343.419 55.1828Z" fill="url(#paint0_linear_793_71119)"/>
</g>
<path d="M345.516 55.6037L343.419 55.1828L341.322 60.3188L339.225 60.845L337.128 55.3832L335.032 54.6015L332.935 56.8564L330.838 55.8191L328.741 51.57L326.644 62.7541L324.547 60.6195L322.45 54.4211L320.353 56.4505L318.256 63.9316L316.159 54.6165L314.062 53.0782L311.965 64.8486L309.868 63.5558L307.771 61.6166L305.674 60.7848L303.577 53.1684L301.48 58.1441L299.384 60.9251L297.287 48.343L295.19 52.4469L293.093 56.0296L290.996 52.3617L288.899 64.7233L286.802 55.6187L284.705 47.4361L282.608 49.1949L280.511 56.8063L278.414 54.2608L276.317 57.7784L274.22 55.9143L272.123 57.3123L270.026 52.3466L267.929 57.6381L265.832 61.9423L263.736 66.1965L261.639 64.8486L259.542 60.2988L257.445 45.4468L255.348 48.7088L253.251 53.6194L251.154 47.391L249.057 54.6416L246.96 49.24L244.863 52.4318L242.766 52.6523L240.669 52.7926L238.572 51.0689L236.475 45.4819L234.378 42.8913L232.281 46.93L230.185 43.2671L228.088 49.3001L225.991 41.1074L223.894 58.6903L221.797 61.2558L219.7 50.3624L217.603 45.4568L215.506 44.4647L213.409 44.3294L211.312 42.0244L209.215 43.7982L207.118 50.1168L205.021 42.5856L202.924 47.7217L200.827 40.8068L198.73 41.3329L196.633 49.2851L194.537 48.5134L192.44 49.3302L190.343 45.5119L188.246 45.9328L186.149 42.2048L184.052 44.144L181.955 41.5584L179.858 45.0559L177.761 44.64L175.664 45.3566L173.567 37.8103L171.47 39.1081L169.373 43.1468L167.276 41.8791L165.179 44.0438L163.082 39.8096L160.985 43.5527L158.889 40.3959L156.792 40.2556L154.695 41.6085L152.685 42.5606L150.588 40.0051L148.491 41.1525L146.394 40.0151L144.297 38.2513L142.2 43.3272L140.103 41.2477L138.007 41.7087L135.91 42.9514L133.813 39.2585L131.716 49.9164L129.619 50.5979L127.522 48.3881L125.425 46.1533L123.328 41.849L121.231 46.8949L119.134 39.8798L117.037 43.0366L114.94 59.462L112.843 53.7948L110.746 43.9636L108.649 42.5105L106.552 39.4088L104.455 49.1848L102.359 49.4053L100.262 46.2285L98.1647 38.6421L96.0677 42.3651L93.9708 46.4139L91.8738 43.242L89.7769 37.4095L87.68 36.2219L85.583 40.7266L83.4861 38.602L81.3891 38.6672L79.2922 40.3057L77.1953 35.6306L75.0983 35.0293L73.0014 42.1246L70.9044 36.4324L68.8075 38.1611L66.7106 42.0645L64.6136 45.0509L62.5167 47.1154L60.4197 39.4288L58.3228 37.5398L56.2259 41.1826L54.1289 49.5657L52.032 44.4396L49.935 45.4919L47.8381 45.8978L45.7412 39.1783L43.6442 36.3522L41.5473 37.4746L39.4503 38.0659L37.3534 35.2097L35.2565 32.7795L33.1595 41.4131L31.0626 50.6881L28.9656 45.3115L26.8687 40.1554L24.7718 41.9793L22.6748 35.3099L20.5779 29.5375L18.4809 26.9219L16.384 28.0944L14.2871 32.4688L12.1901 34.5884L10.0932 33.3207L8 29.6127" stroke="#2980BA" stroke-linecap="round" stroke-linejoin="round"/>
<path d="M345.516 68.1603L343.419 67.894L341.322 63.7801L339.225 64.1131L337.128 68.0208L335.032 67.5261L332.935 68.953L330.838 68.2967L328.741 63.1725L326.644 72.6852L324.547 66.9046L322.45 67.412L320.353 68.6962L318.256 58.7892L316.159 67.5357L314.062 66.5622L311.965 74.0106L309.868 73.1925L307.771 71.9654L305.674 64.8436L303.577 66.6193L301.48 69.768L299.384 71.5278L297.287 63.5657L295.19 66.1627L293.093 68.4298L290.996 66.1087L288.899 60.2775L286.802 68.1698L284.705 62.9918L282.608 75.3238L280.511 68.9213L278.414 67.3105L276.317 69.5365L274.22 68.3569L272.123 69.2416L270.026 60.5343L267.929 69.4477L265.832 72.1715L263.736 71.1314L261.639 74.0106L259.542 71.1314L257.445 61.7329L255.348 60.5343L253.251 66.9046L251.154 71.1314L249.057 67.5515L246.96 64.1333L244.863 58.7892L242.766 58.9287L240.669 59.0175L238.572 65.2907L236.475 71.5738L234.378 69.9344L232.281 62.6715L230.185 60.3536L228.088 51.898L225.991 58.9869L223.894 57.8403L221.797 59.4638L219.7 64.8436L217.603 61.7393L215.506 53.7474L213.409 53.6618L211.312 59.5672L209.215 60.6897L207.118 64.6882L205.021 59.9223L202.924 63.1725L200.827 66.1607L198.73 66.4936L196.633 64.1618L194.537 63.6735L192.44 64.1904L190.343 61.7741L188.246 59.5858L186.149 57.2267L184.052 53.5445L181.955 56.8176L179.858 59.0309L177.761 61.2224L175.664 61.6758L173.567 66.7191L171.47 67.5404L169.373 60.2775L167.276 59.4752L165.179 60.8451L163.082 58.1657L160.985 60.5343L158.889 63.446L156.792 63.3572L154.695 64.2133L152.685 59.9065L150.588 63.1987L148.491 63.9248L146.394 63.205L144.297 62.0888L142.2 65.301L140.103 59.0757L138.007 59.3674L135.91 60.1538L133.813 57.8169L131.716 67.016L129.619 67.4473L127.522 66.0489L125.425 62.18L123.328 59.4562L121.231 52.8307L119.134 58.2101L117.037 60.2077L114.94 63.2379L112.843 67.0156L110.746 60.7943L108.649 62.3294L106.552 62.8213L104.455 64.0984L102.359 64.2379L100.262 62.2276L98.1647 57.4268L96.0677 52.4188L93.9708 52.5262L91.8738 52.9737L89.7769 56.6468L87.68 55.8953L85.583 58.7459L83.4861 59.8561L81.3891 59.8974L79.2922 58.4796L77.1953 55.5211L75.0983 64.9593L73.0014 59.6306L70.9044 56.0285L68.8075 52.2131L66.7106 59.5926L64.6136 61.4824L62.5167 62.7888L60.4197 65.2887L58.3228 64.0932L56.2259 59.0345L54.1289 64.3394L52.032 61.0956L49.935 61.7615L47.8381 62.0183L45.7412 57.7661L43.6442 55.9777L41.5473 56.688L39.4503 57.0622L37.3534 55.2548L35.2565 53.7169L33.1595 59.1803L30.8591 53.7169L28.9656 61.6473L26.8687 58.3845L24.7718 59.5387L22.6748 55.3182L19.6597 64.2379L17.5627 62.5827L15.4658 63.3247L14.2871 53.5203L12.1901 54.8616L10.0932 54.0594L8 51.7129" stroke="#95A5A5" stroke-width="0.613666" stroke-linecap="round" stroke-linejoin="round"/>
</g>
<path d="M11.8608 77.4599V68.7326H15.1336C15.804 68.7326 16.3665 68.8491 16.8211 69.082C17.2785 69.315 17.6236 69.6417 17.8566 70.0621C18.0924 70.4798 18.2103 70.967 18.2103 71.5238C18.2103 72.0835 18.091 72.5692 17.8523 72.9812C17.6165 73.3903 17.2685 73.707 16.8083 73.9315C16.3481 74.1531 15.7827 74.2638 15.1123 74.2638H12.7813V72.9513H14.8992C15.2912 72.9513 15.6123 72.8974 15.8623 72.7894C16.1123 72.6786 16.2969 72.5181 16.4162 72.3079C16.5384 72.0948 16.5995 71.8335 16.5995 71.5238C16.5995 71.2141 16.5384 70.9499 16.4162 70.7312C16.2941 70.5096 16.108 70.342 15.858 70.2283C15.608 70.1119 15.2856 70.0536 14.8907 70.0536H13.4418V77.4599H11.8608ZM16.3694 73.5053L18.5299 77.4599H16.7657L14.6435 73.5053H16.3694Z" fill="#018C81"/>
<path d="M24.6484 71.1317C24.6087 70.7596 24.441 70.4698 24.1456 70.2624C23.853 70.055 23.4723 69.9513 23.0035 69.9513C22.674 69.9513 22.3913 70.0011 22.1555 70.1005C21.9197 70.1999 21.7393 70.3349 21.6143 70.5053C21.4893 70.6758 21.4254 70.8704 21.4226 71.0891C21.4226 71.271 21.4638 71.4286 21.5462 71.5621C21.6314 71.6957 21.7464 71.8093 21.8913 71.9031C22.0362 71.994 22.1967 72.0707 22.3729 72.1332C22.549 72.1957 22.7266 72.2482 22.9055 72.2908L23.7237 72.4954C24.0533 72.5721 24.37 72.6758 24.674 72.8065C24.9808 72.9371 25.255 73.1019 25.4964 73.3008C25.7408 73.4996 25.9339 73.7397 26.076 74.021C26.218 74.3022 26.2891 74.6317 26.2891 75.0096C26.2891 75.521 26.1584 75.9712 25.897 76.3604C25.6356 76.7468 25.2578 77.0494 24.7635 77.2681C24.272 77.484 23.6768 77.592 22.978 77.592C22.299 77.592 21.7095 77.4869 21.2095 77.2766C20.7123 77.0664 20.3231 76.7596 20.0419 76.3562C19.7635 75.9528 19.6129 75.4613 19.5902 74.8817H21.1456C21.1683 75.1857 21.2621 75.4386 21.4268 75.6403C21.5916 75.842 21.8061 75.9925 22.0703 76.092C22.3373 76.1914 22.6356 76.2411 22.9652 76.2411C23.3089 76.2411 23.6101 76.19 23.8686 76.0877C24.13 75.9826 24.3345 75.8377 24.4822 75.6531C24.63 75.4656 24.7052 75.2468 24.7081 74.9968C24.7052 74.7695 24.6385 74.582 24.5078 74.4343C24.3771 74.2837 24.1939 74.1587 23.9581 74.0593C23.7251 73.957 23.4524 73.8661 23.1399 73.7866L22.147 73.5309C21.4283 73.3462 20.8601 73.0664 20.4425 72.6914C20.0277 72.3136 19.8203 71.8121 19.8203 71.1871C19.8203 70.6729 19.9595 70.2227 20.2379 69.8363C20.5192 69.4499 20.9013 69.1502 21.3842 68.9371C21.8672 68.7212 22.4141 68.6133 23.0248 68.6133C23.6442 68.6133 24.1868 68.7212 24.6527 68.9371C25.1214 69.1502 25.4893 69.4471 25.7564 69.8278C26.0234 70.2056 26.1612 70.6403 26.1697 71.1317H24.6484Z" fill="#018C81"/>
<path d="M29.5195 68.7326V77.4599H27.9385V68.7326H29.5195Z" fill="#018C81"/>
<path d="M34.688 77.4599V68.7326H38.0289C38.6596 68.7326 39.1838 68.832 39.6014 69.0309C40.0218 69.2269 40.3358 69.4954 40.5431 69.8363C40.7534 70.1772 40.8585 70.5636 40.8585 70.9954C40.8585 71.3505 40.7903 71.6545 40.6539 71.9073C40.5176 72.1573 40.3343 72.3604 40.1042 72.5167C39.8741 72.6729 39.617 72.7852 39.3329 72.8533V72.9386C39.6426 72.9556 39.9394 73.0508 40.2235 73.2241C40.5105 73.3945 40.7448 73.636 40.9267 73.9485C41.1085 74.261 41.1994 74.6388 41.1994 75.082C41.1994 75.5337 41.09 75.94 40.8713 76.3008C40.6525 76.6587 40.323 76.9414 39.8826 77.1488C39.4423 77.3562 38.8883 77.4599 38.2207 77.4599H34.688ZM36.269 76.1388H37.9693C38.5431 76.1388 38.9565 76.0295 39.2093 75.8107C39.465 75.5891 39.5929 75.305 39.5929 74.9585C39.5929 74.6999 39.5289 74.467 39.4011 74.2596C39.2733 74.0494 39.0914 73.8846 38.8556 73.7653C38.6198 73.6431 38.3386 73.582 38.0119 73.582H36.269V76.1388ZM36.269 72.4442H37.8329C38.1056 72.4442 38.3514 72.3945 38.5701 72.2951C38.7889 72.1928 38.9608 72.0494 39.0858 71.8647C39.2136 71.6772 39.2775 71.4556 39.2775 71.1999C39.2775 70.8619 39.1582 70.5835 38.9196 70.3647C38.6838 70.146 38.3329 70.0366 37.867 70.0366H36.269V72.4442Z" fill="#018C81"/>
<path d="M42.8147 77.4599V68.7326H48.4909V70.0579H44.3957V72.4272H48.1968V73.7525H44.3957V76.1346H48.525V77.4599H42.8147Z" fill="#018C81"/>
<path d="M57.5157 68.7326V77.4599H56.1094L51.9972 71.5153H51.9248V77.4599H50.3438V68.7326H51.7586L55.8665 74.6815H55.9432V68.7326H57.5157Z" fill="#018C81"/>
<path d="M66.9485 71.6772H65.3548C65.3093 71.4158 65.2255 71.1843 65.1033 70.9826C64.9812 70.7781 64.8292 70.6048 64.6474 70.4627C64.4656 70.3207 64.2582 70.2141 64.0252 70.1431C63.7951 70.0692 63.5465 70.0323 63.2795 70.0323C62.805 70.0323 62.3846 70.1516 62.0181 70.3903C61.6516 70.6261 61.3647 70.9727 61.1573 71.43C60.9499 71.8846 60.8462 72.44 60.8462 73.0962C60.8462 73.7639 60.9499 74.3264 61.1573 74.7837C61.3675 75.2383 61.6545 75.582 62.0181 75.815C62.3846 76.0451 62.8036 76.1602 63.2752 76.1602C63.5366 76.1602 63.7809 76.1261 64.0082 76.0579C64.2383 75.9869 64.4442 75.8832 64.6261 75.7468C64.8107 75.6104 64.9656 75.4428 65.0906 75.244C65.2184 75.0451 65.3065 74.8178 65.3548 74.5621L66.9485 74.5707C66.8889 74.9854 66.7596 75.3746 66.5607 75.7383C66.3647 76.1019 66.1076 76.4229 65.7894 76.7013C65.4712 76.9769 65.0991 77.1928 64.6729 77.3491C64.2468 77.5025 63.7738 77.5792 63.2539 77.5792C62.4869 77.5792 61.8022 77.4016 61.1999 77.0465C60.5977 76.6914 60.1232 76.1786 59.7766 75.5082C59.43 74.8377 59.2568 74.0337 59.2568 73.0962C59.2568 72.1559 59.4315 71.3519 59.7809 70.6843C60.1303 70.0138 60.6062 69.5011 61.2085 69.146C61.8107 68.7908 62.4925 68.6133 63.2539 68.6133C63.7397 68.6133 64.1914 68.6815 64.609 68.8178C65.0266 68.9542 65.3988 69.1545 65.7255 69.4187C66.0522 69.68 66.3207 70.0011 66.5309 70.3817C66.744 70.7596 66.8832 71.1914 66.9485 71.6772Z" fill="#018C81"/>
<path d="M68.6363 77.4599V68.7326H70.2173V72.4272H74.2613V68.7326H75.8465V77.4599H74.2613V73.7525H70.2173V77.4599H68.6363Z" fill="#018C81"/>
<path d="M44.5699 27.1284V26.4251C44.5699 25.9085 44.6784 25.4332 44.8954 24.9991C45.1168 24.565 45.4381 24.2155 45.8592 23.9507C46.2802 23.6859 46.7903 23.5535 47.3894 23.5535C48.0058 23.5535 48.5224 23.6859 48.9392 23.9507C49.3559 24.2112 49.6706 24.5585 49.8833 24.9926C50.1004 25.4267 50.2089 25.9042 50.2089 26.4251V27.1284C50.2089 27.645 50.1004 28.1203 49.8833 28.5544C49.6663 28.9885 49.3472 29.338 48.9261 29.6028C48.5094 29.8676 47.9971 30 47.3894 30C46.7816 30 46.2672 29.8676 45.8461 29.6028C45.4251 29.338 45.106 28.9885 44.8889 28.5544C44.6762 28.1203 44.5699 27.645 44.5699 27.1284ZM46.2694 26.4251V27.1284C46.2694 27.4713 46.3519 27.786 46.5168 28.0726C46.6818 28.3591 46.9726 28.5023 47.3894 28.5023C47.8105 28.5023 48.0992 28.3612 48.2554 28.0791C48.4161 27.7926 48.4964 27.4757 48.4964 27.1284V26.4251C48.4964 26.0778 48.4204 25.7609 48.2685 25.4744C48.1165 25.1836 47.8235 25.0381 47.3894 25.0381C46.9813 25.0381 46.6926 25.1836 46.5233 25.4744C46.354 25.7609 46.2694 26.0778 46.2694 26.4251ZM37.7913 19.4968V18.7935C37.7913 18.2726 37.902 17.7951 38.1234 17.3609C38.3447 16.9268 38.666 16.5795 39.0871 16.3191C39.5082 16.0543 40.0182 15.9219 40.6173 15.9219C41.2294 15.9219 41.7438 16.0543 42.1606 16.3191C42.5816 16.5795 42.8985 16.9268 43.1113 17.3609C43.324 17.7951 43.4303 18.2726 43.4303 18.7935V19.4968C43.4303 20.0177 43.3218 20.4952 43.1047 20.9293C42.892 21.3591 42.5751 21.7042 42.154 21.9647C41.733 22.2251 41.2207 22.3554 40.6173 22.3554C40.0052 22.3554 39.4886 22.2251 39.0675 21.9647C38.6508 21.7042 38.3339 21.3569 38.1168 20.9228C37.8998 20.4887 37.7913 20.0133 37.7913 19.4968ZM39.5038 18.7935V19.4968C39.5038 19.844 39.5841 20.1609 39.7447 20.4475C39.9097 20.7296 40.2006 20.8707 40.6173 20.8707C41.034 20.8707 41.3206 20.7296 41.4768 20.4475C41.6375 20.1609 41.7178 19.844 41.7178 19.4968V18.7935C41.7178 18.4462 41.6418 18.1293 41.4899 17.8428C41.3379 17.552 41.0471 17.4065 40.6173 17.4065C40.2049 17.4065 39.9162 17.552 39.7513 17.8428C39.5863 18.1337 39.5038 18.4506 39.5038 18.7935ZM38.5336 29.6288L47.7019 16.293H49.3299L40.1615 29.6288H38.5336Z" fill="#2980BA"/>
<defs>
<linearGradient id="paint0_linear_793_71119" x1="176.758" y1="26.9219" x2="176.758" y2="79.9861" gradientUnits="userSpaceOnUse">
<stop stop-color="#285680"/>
<stop offset="1" stop-color="#285680" stop-opacity="0"/>
</linearGradient>
<clipPath id="clip0_793_71119">
<rect width="72" height="58" fill="white" transform="translate(8 23)"/>
</clipPath>
</defs>
</svg>
