<svg width="88" height="88" viewBox="0 0 88 88" fill="none" xmlns="http://www.w3.org/2000/svg">
<rect width="88" height="88" rx="8" fill="#F8F9FC"/>
<path d="M67.8904 25.1856C61.5384 18.8362 52.9872 15.2891 43.9999 15.2891V24.4774C50.5833 24.4774 56.7987 27.0885 61.3936 31.6824L67.8904 25.1856Z" fill="#184376"/>
<path d="M20.109 25.185L26.6063 31.6824C31.2265 27.0622 37.4564 24.4774 44.0001 24.4774V15.2891C35.4895 15.2891 27.214 18.3341 20.109 25.185Z" fill="#15BA8B"/>
<path d="M20.109 25.185L26.6063 31.6824C31.2265 27.0622 37.4564 24.4774 44.0001 24.4774V15.2891C35.4895 15.2891 27.214 18.3341 20.109 25.185Z" fill="#436691"/>
<path d="M10.2217 48.35C10.2145 48.6917 10.4877 48.9742 10.8294 48.9742H18.8054C19.1322 48.9742 19.4028 48.7154 19.4121 48.3886C19.5811 42.3042 22.001 36.2867 26.6062 31.6809L20.1089 25.1836C14.0012 31.2913 10.4088 39.5292 10.2217 48.35Z" fill="#2980BA"/>
<path d="M24.2942 24.9279C30.0498 19.3779 36.5662 16.3009 43.3553 15.2969C35.072 15.4474 27.0346 18.5079 20.109 25.1856L22.1753 27.2519C22.8438 26.4484 23.5504 25.6722 24.2942 24.9279Z" fill="#13365E"/>
<path d="M14.9146 48.9742C14.5687 48.9742 14.2925 48.6886 14.3002 48.3433C14.4661 40.5012 17.2963 33.1164 22.1752 27.2499L20.1089 25.1836C14.0012 31.2913 10.4088 39.5292 10.2217 48.35C10.2145 48.6917 10.4877 48.9742 10.8294 48.9742H18.8054H14.9146Z" fill="#184376"/>
<path d="M67.891 25.1836L61.3937 31.6809C65.7082 35.996 68.4095 41.9001 68.5878 48.3876C68.5971 48.7149 68.8672 48.9742 69.1945 48.9742H77.1706C77.5123 48.9742 77.7854 48.6922 77.7782 48.35C77.5942 39.7462 74.143 31.4335 67.891 25.1836V25.1836Z" fill="#13365E"/>
<path d="M49.1008 47.7475L52.7063 36.0813C52.8555 35.5981 52.4028 35.1454 51.92 35.2945L40.2533 38.9001C35.164 40.4732 33.5736 46.8942 37.3403 50.6605C41.1071 54.4273 47.5277 52.8369 49.1008 47.7475V47.7475Z" fill="#95A5A5"/>
<path d="M40.32 50.6605C36.5532 46.8942 38.144 40.4731 43.2334 38.9001L52.7297 35.9652C52.7809 35.5291 52.364 35.1574 51.92 35.2945L40.2533 38.9001C35.164 40.4731 33.5736 46.8942 37.3403 50.6605C39.1604 52.4806 41.6 53.0497 43.8129 52.5778C42.5536 52.3066 41.3394 51.6804 40.32 50.6605V50.6605Z" fill="#788181"/>
<path d="M46.0806 58.1406L41.1846 76.3302H38.833L43.7291 58.1406H46.0806Z" fill="#95A5A5"/>
<path d="M26.6064 74.2277V59.0352H32.3037C33.4708 59.0352 34.45 59.2528 35.2413 59.688C36.0375 60.1232 36.6384 60.7216 37.0439 61.4832C37.4544 62.2398 37.6596 63.1004 37.6596 64.0647C37.6596 65.039 37.4544 65.9045 37.0439 66.6611C36.6335 67.4178 36.0276 68.0137 35.2265 68.4489C34.4253 68.8792 33.4387 69.0943 32.2666 69.0943H28.4907V66.8317H31.8957C32.5781 66.8317 33.137 66.713 33.5722 66.4757C34.0074 66.2383 34.3288 65.9119 34.5366 65.4965C34.7492 65.081 34.8555 64.6038 34.8555 64.0647C34.8555 63.5257 34.7492 63.0509 34.5366 62.6404C34.3288 62.23 34.0049 61.911 33.5648 61.6835C33.1296 61.451 32.5682 61.3348 31.8808 61.3348H29.3586V74.2277H26.6064Z" fill="#2980BA"/>
<path d="M49.8273 74.2291V59.0391H55.9523C57.1085 59.0391 58.0695 59.2121 58.8351 59.5583C59.6059 59.8994 60.1814 60.3667 60.5616 60.9601C60.9471 61.5534 61.1398 62.2259 61.1398 62.9775C61.1398 63.5956 61.0148 64.1246 60.7648 64.5647C60.5148 64.9999 60.1788 65.3534 59.757 65.6254C59.3351 65.8973 58.8637 66.0926 58.3429 66.2113V66.3596C58.9106 66.3893 59.4549 66.5549 59.9757 66.8566C60.5017 67.1533 60.9314 67.5735 61.2648 68.1175C61.5981 68.6614 61.7648 69.319 61.7648 70.0904C61.7648 70.8766 61.5643 71.5837 61.1632 72.2116C60.7622 72.8347 60.158 73.3267 59.3507 73.6876C58.5434 74.0486 57.5278 74.2291 56.3038 74.2291H49.8273ZM52.7257 71.9298H55.8429C56.895 71.9298 57.6528 71.7394 58.1163 71.3587C58.5851 70.973 58.8195 70.4785 58.8195 69.8753C58.8195 69.4253 58.7023 69.0199 58.4679 68.6589C58.2335 68.293 57.9002 68.0062 57.4679 67.7985C57.0356 67.5859 56.52 67.4796 55.921 67.4796H52.7257V71.9298ZM52.7257 65.4993H55.5929C56.0929 65.4993 56.5434 65.4127 56.9445 65.2397C57.3455 65.0617 57.6606 64.812 57.8898 64.4906C58.1241 64.1642 58.2413 63.7785 58.2413 63.3335C58.2413 62.7451 58.0226 62.2605 57.5851 61.8798C57.1528 61.499 56.5096 61.3087 55.6554 61.3087H52.7257V65.4993Z" fill="#018C81"/>
</svg>
