<svg width="88" height="88" viewBox="0 0 88 88" fill="none" xmlns="http://www.w3.org/2000/svg">
<rect width="88" height="88" rx="8" fill="#F8F9FC"/>
<path d="M27.2206 71.7738V49.6562H17.3378C16.6836 49.6562 16.1533 50.1927 16.1533 50.8544V74.1446C19.4058 73.6579 23.1588 72.9129 27.2206 71.7738Z" fill="#2980BA"/>
<path d="M19.8959 50.8544C19.8959 50.1927 20.4261 49.6562 21.0803 49.6562H17.3378C16.6836 49.6562 16.1533 50.1927 16.1533 50.8544V74.1446C17.3373 73.9677 18.5884 73.7558 19.8959 73.5032V50.8544Z" fill="#285680"/>
<path d="M38.1632 67.8681V37.7734H28.2808C27.6266 37.7734 27.0959 38.3098 27.0959 38.9711V71.7771C30.5977 70.7951 34.3284 69.5199 38.1632 67.8681Z" fill="#2980BA"/>
<path d="M30.8389 38.9711C30.8389 38.3098 31.3692 37.7734 32.0234 37.7734H28.2808C27.6266 37.7734 27.0959 38.3098 27.0959 38.9711V71.7771C28.3172 71.4347 29.567 71.0553 30.8389 70.6381V38.9711Z" fill="#285680"/>
<path d="M49.1059 62.0852V25.8867H39.223C38.5688 25.8867 38.0386 26.4227 38.0386 27.0844V67.8675C41.6695 66.3032 45.3936 64.4002 49.1059 62.0852Z" fill="#2980BA"/>
<path d="M41.7811 27.0844C41.7811 26.4227 42.3114 25.8867 42.9656 25.8867H39.223C38.5688 25.8867 38.0386 26.4227 38.0386 27.0844V67.8675C39.2765 67.3339 40.5257 66.7601 41.7811 66.1452V27.0844Z" fill="#285680"/>
<path d="M60.0486 53.7675V15.1977C60.0486 14.5364 59.5183 14 58.8641 14H50.1657C49.5115 14 48.9813 14.5364 48.9813 15.1977V62.0851C52.7186 59.7545 56.4437 57.0072 60.0486 53.7675Z" fill="#2980BA"/>
<path d="M52.7238 15.1977C52.7238 14.5364 53.2541 14 53.9087 14H50.1657C49.5115 14 48.9813 14.5364 48.9813 15.1977V62.0851C50.2315 61.3056 51.4807 60.4778 52.7238 59.6022V15.1977Z" fill="#285680"/>
<path d="M76.5819 41.2383H64.2303C63.8613 41.2383 63.6731 41.682 63.9295 41.9473L67.2846 45.4184C67.435 45.5745 67.4421 45.8205 67.3002 45.9841C50.4176 65.4665 28.7058 71.6134 15.5024 73.5263C15.2138 73.568 15 73.8158 15 74.1077C15 74.4402 15.2758 74.7079 15.6083 74.6961C49.1082 73.5017 69.882 54.3798 72.5011 51.8373C72.6605 51.6826 72.9126 51.6803 73.0763 51.8316L76.2971 54.8202C76.5648 55.069 77 54.8788 77 54.5137V41.6564C77 41.4256 76.8127 41.2383 76.5819 41.2383Z" fill="#788181"/>
<path d="M20.4445 74.1077C20.4445 73.8158 20.6583 73.5684 20.9468 73.5263C34.1503 71.6134 55.8621 65.4665 72.7447 45.9841C72.8866 45.8205 72.8795 45.5745 72.7291 45.4189L69.3744 41.9473C69.1176 41.682 69.3058 41.2383 69.6753 41.2383H64.2303C63.8613 41.2383 63.6731 41.682 63.9295 41.9473L67.2846 45.4189C67.435 45.5745 67.4421 45.8205 67.3002 45.9841C50.4176 65.4665 28.7058 71.6134 15.5024 73.5263C15.2138 73.568 15 73.8158 15 74.1077C15 74.4402 15.2758 74.7079 15.6083 74.6961C17.2771 74.6365 18.9128 74.531 20.5178 74.3868C20.4729 74.3035 20.4445 74.2094 20.4445 74.1077Z" fill="#018C81"/>
<path d="M20.4445 74.1077C20.4445 73.8158 20.6583 73.5684 20.9468 73.5263C34.1503 71.6134 55.8621 65.4665 72.7447 45.9841C72.8866 45.8205 72.8795 45.5745 72.7291 45.4189L69.3744 41.9473C69.1176 41.682 69.3058 41.2383 69.6753 41.2383H64.2303C63.8613 41.2383 63.6731 41.682 63.9295 41.9473L67.2846 45.4189C67.435 45.5745 67.4421 45.8205 67.3002 45.9841C50.4176 65.4665 28.7058 71.6134 15.5024 73.5263C15.2138 73.568 15 73.8158 15 74.1077C15 74.4402 15.2758 74.7079 15.6083 74.6961C17.2771 74.6365 18.9128 74.531 20.5178 74.3868C20.4729 74.3035 20.4445 74.2094 20.4445 74.1077Z" fill="#95A5A5"/>
<path d="M37.517 63.1454L33.334 54.7773L38.7766 52.0568L39.4118 53.3275L35.4851 55.2903L36.6207 57.5621L40.2654 55.7403L40.9006 57.011L37.2559 58.8329L38.3977 61.1169L42.357 59.1378L42.9922 60.4085L37.517 63.1454Z" fill="#F8F9FC"/>
<path d="M27.9549 67.1065L24.5159 58.4062L27.7785 57.1166C28.4468 56.8524 29.0535 56.7469 29.5984 56.8C30.1462 56.852 30.619 57.0416 31.017 57.369C31.4166 57.6924 31.7261 58.1317 31.9455 58.6867C32.1661 59.2447 32.2386 59.776 32.163 60.2807C32.0891 60.7814 31.867 61.2343 31.4966 61.6394C31.1252 62.0417 30.6052 62.3749 29.9369 62.6391L27.6131 63.5577L27.0959 62.2492L29.2072 61.4146C29.5981 61.2602 29.8968 61.0798 30.1035 60.8737C30.3091 60.6647 30.4299 60.432 30.466 60.1754C30.5038 59.9148 30.4617 59.6302 30.3397 59.3215C30.2177 59.0128 30.0527 58.7735 29.8447 58.6035C29.6356 58.4308 29.3841 58.337 29.0901 58.3222C28.7949 58.3046 28.4505 58.3736 28.0569 58.5292L26.6125 59.1002L29.531 66.4835L27.9549 67.1065ZM30.8912 61.3876L34.6033 64.4785L32.8446 65.1737L29.1707 62.0677L30.8912 61.3876Z" fill="#F8F9FC"/>
<path d="M42.3421 49.7695L48.1343 54.9331L48.2174 54.8851L46.641 47.2887L48.2561 46.3567L50.0763 56.113L48.2633 57.1592L40.731 50.6992L42.3421 49.7695Z" fill="white"/>
</svg>
