<svg width="88" height="88" viewBox="0 0 88 88" fill="none" xmlns="http://www.w3.org/2000/svg">
<rect width="88" height="88" rx="8" fill="#F8F9FC"/>
<g clip-path="url(#clip0_793_67723)">
<g style="mix-blend-mode:multiply" opacity="0.1">
<path d="M64.133 31.4232L67.1836 19.9689L67.5041 69.4657H12.4954L19.5895 42.5066H24.3205L26.6869 36.1086L31.0937 35.2139L34.7775 30.2721L37.3677 35.6827L44.5051 23.4652L49.1675 27.1666L52.7937 36.1086L56.3049 33.3228L60.9672 35.2139L64.133 31.4232Z" fill="url(#paint0_linear_793_67723)"/>
</g>
<path d="M67.1988 20.2812L64.099 31.4034L60.9991 35.0509L56.2581 33.2274L52.7936 35.9633L49.1467 27.0287L44.4057 23.5641L37.2942 35.9633L34.7414 30.1276L31.2769 35.0509L26.7182 35.9633L24.3477 42.0984L19.6068 42.5817L12.4954 68.9673" stroke="#2980BA" stroke-linecap="round" stroke-linejoin="round"/>
</g>
<line x1="11.2001" y1="20.0582" x2="68.65" y2="20.0582" stroke="#285680" stroke-width="0.7" stroke-linecap="round"/>
<line x1="10.9205" y1="69.7025" x2="68.83" y2="69.7025" stroke="#95A5A5" stroke-width="0.423077" stroke-linecap="round"/>
<path d="M13.9756 75.3756C13.6251 75.3756 13.341 75.6597 13.341 76.0102C13.341 76.3607 13.6251 76.6448 13.9756 76.6448V75.3756ZM72.4293 37.5234L66.6792 42.0659L73.4881 44.7744L72.4293 37.5234ZM13.9756 76.6448C46.4962 76.6448 63.5253 59.1821 70.8953 43.0944L69.7414 42.5658C62.5496 58.2646 45.9348 75.3756 13.9756 75.3756V76.6448Z" fill="#018C81"/>
<path d="M72.2315 24.0682C71.7036 24.0682 71.2348 23.9794 70.8253 23.8018C70.4181 23.6243 70.0985 23.3816 69.8665 23.0739C69.6368 22.7637 69.5232 22.4122 69.5256 22.0192C69.5232 21.7138 69.5895 21.4332 69.7244 21.1776C69.8594 20.9219 70.0417 20.7088 70.2713 20.5384C70.5033 20.3655 70.7614 20.2554 71.0455 20.2081V20.1584C70.6714 20.0755 70.3684 19.8849 70.1364 19.5866C69.9067 19.286 69.7931 18.9392 69.7955 18.5462C69.7931 18.1721 69.8973 17.8383 70.108 17.5447C70.3187 17.2512 70.6075 17.0204 70.9744 16.8523C71.3414 16.6818 71.7604 16.5966 72.2315 16.5966C72.6979 16.5966 73.1134 16.6818 73.478 16.8523C73.8449 17.0204 74.1338 17.2512 74.3445 17.5447C74.5575 17.8383 74.6641 18.1721 74.6641 18.5462C74.6641 18.9392 74.5469 19.286 74.3125 19.5866C74.0805 19.8849 73.781 20.0755 73.4141 20.1584V20.2081C73.6982 20.2554 73.9538 20.3655 74.1811 20.5384C74.4107 20.7088 74.593 20.9219 74.728 21.1776C74.8653 21.4332 74.9339 21.7138 74.9339 22.0192C74.9339 22.4122 74.8179 22.7637 74.5859 23.0739C74.3539 23.3816 74.0343 23.6243 73.6271 23.8018C73.2223 23.9794 72.7571 24.0682 72.2315 24.0682ZM72.2315 23.0526C72.5038 23.0526 72.7405 23.0064 72.9418 22.9141C73.143 22.8194 73.2992 22.6868 73.4105 22.5163C73.5218 22.3459 73.5786 22.1494 73.581 21.9268C73.5786 21.6948 73.5182 21.4901 73.3999 21.3125C73.2839 21.1326 73.1241 20.9917 72.9205 20.8899C72.7192 20.7881 72.4896 20.7372 72.2315 20.7372C71.9711 20.7372 71.7391 20.7881 71.5355 20.8899C71.3319 20.9917 71.1709 21.1326 71.0526 21.3125C70.9366 21.4901 70.8797 21.6948 70.8821 21.9268C70.8797 22.1494 70.9342 22.3459 71.0455 22.5163C71.1567 22.6844 71.313 22.8158 71.5142 22.9105C71.7178 23.0052 71.9569 23.0526 72.2315 23.0526ZM72.2315 19.7393C72.4541 19.7393 72.6506 19.6944 72.821 19.6044C72.9938 19.5144 73.13 19.389 73.2294 19.228C73.3288 19.067 73.3797 18.8812 73.3821 18.6705C73.3797 18.4621 73.33 18.2798 73.233 18.1236C73.1359 17.965 73.0009 17.843 72.8281 17.7578C72.6553 17.6702 72.4564 17.6264 72.2315 17.6264C72.0019 17.6264 71.7995 17.6702 71.6243 17.7578C71.4515 17.843 71.3165 17.965 71.2195 18.1236C71.1248 18.2798 71.0786 18.4621 71.081 18.6705C71.0786 18.8812 71.1259 19.067 71.223 19.228C71.3224 19.3866 71.4586 19.5121 71.6314 19.6044C71.8066 19.6944 72.0066 19.7393 72.2315 19.7393ZM78.7896 24.1072C78.2048 24.1072 77.7029 23.9593 77.2839 23.6634C76.8672 23.3651 76.5465 22.9354 76.3216 22.3743C76.099 21.8108 75.9877 21.1326 75.9877 20.3395C75.9901 19.5464 76.1026 18.8717 76.3251 18.3153C76.55 17.7566 76.8708 17.3305 77.2875 17.0369C77.7065 16.7434 78.2072 16.5966 78.7896 16.5966C79.372 16.5966 79.8727 16.7434 80.2917 17.0369C80.7108 17.3305 81.0315 17.7566 81.2541 18.3153C81.479 18.8741 81.5914 19.5488 81.5914 20.3395C81.5914 21.1349 81.479 21.8144 81.2541 22.3778C81.0315 22.9389 80.7108 23.3674 80.2917 23.6634C79.8751 23.9593 79.3743 24.1072 78.7896 24.1072ZM78.7896 22.9957C79.2441 22.9957 79.6028 22.772 79.8656 22.3246C80.1307 21.8748 80.2633 21.2131 80.2633 20.3395C80.2633 19.7618 80.2029 19.2765 80.0822 18.8835C79.9615 18.4905 79.791 18.1946 79.5708 17.9957C79.3507 17.7945 79.0903 17.6939 78.7896 17.6939C78.3374 17.6939 77.9799 17.9188 77.7172 18.3686C77.4544 18.8161 77.3218 19.473 77.3194 20.3395C77.3171 20.9195 77.3751 21.4072 77.4934 21.8026C77.6142 22.1979 77.7846 22.4962 78.0048 22.6974C78.225 22.8963 78.4866 22.9957 78.7896 22.9957Z" fill="#018C81"/>
<path d="M70.7654 72.9668V72.0151L73.2903 69.54C73.5318 69.2961 73.733 69.0795 73.894 68.8901C74.055 68.7007 74.1757 68.5172 74.2562 68.3397C74.3367 68.1621 74.377 67.9727 74.377 67.7715C74.377 67.5418 74.3249 67.3453 74.2207 67.182C74.1165 67.0163 73.9733 66.8884 73.791 66.7985C73.6087 66.7085 73.4016 66.6635 73.1696 66.6635C72.9305 66.6635 72.7209 66.7132 72.541 66.8127C72.3611 66.9097 72.2214 67.0482 72.122 67.2282C72.0249 67.4081 71.9764 67.6223 71.9764 67.8709H70.7228C70.7228 67.4093 70.8282 67.008 71.0389 66.6671C71.2496 66.3262 71.5396 66.0622 71.9089 65.8752C72.2806 65.6882 72.7067 65.5946 73.1873 65.5946C73.675 65.5946 74.1035 65.6858 74.4728 65.8681C74.8422 66.0504 75.1286 66.3001 75.3322 66.6174C75.5382 66.9346 75.6412 67.2968 75.6412 67.704C75.6412 67.9763 75.5891 68.2438 75.4849 68.5066C75.3807 68.7694 75.1973 69.0605 74.9345 69.3801C74.6741 69.6998 74.3083 70.0868 73.8372 70.5414L72.5836 71.8162V71.8659H75.7512V72.9668H70.7654ZM79.6646 73.1053C79.0798 73.1053 78.5779 72.9573 78.1589 72.6614C77.7422 72.3631 77.4215 71.9334 77.1966 71.3723C76.974 70.8089 76.8627 70.1306 76.8627 69.3375C76.8651 68.5444 76.9776 67.8697 77.2001 67.3134C77.425 66.7547 77.7458 66.3285 78.1625 66.035C78.5815 65.7414 79.0822 65.5946 79.6646 65.5946C80.247 65.5946 80.7477 65.7414 81.1667 66.035C81.5858 66.3285 81.9065 66.7547 82.1291 67.3134C82.354 67.8721 82.4664 68.5468 82.4664 69.3375C82.4664 70.133 82.354 70.8124 82.1291 71.3759C81.9065 71.937 81.5858 72.3655 81.1667 72.6614C80.7501 72.9573 80.2493 73.1053 79.6646 73.1053ZM79.6646 71.9938C80.1191 71.9938 80.4778 71.7701 80.7406 71.3226C81.0057 70.8728 81.1383 70.2111 81.1383 69.3375C81.1383 68.7599 81.0779 68.2746 80.9572 67.8816C80.8365 67.4886 80.666 67.1926 80.4458 66.9938C80.2257 66.7926 79.9653 66.6919 79.6646 66.6919C79.2124 66.6919 78.8549 66.9168 78.5922 67.3667C78.3294 67.8141 78.1968 68.4711 78.1944 69.3375C78.1921 69.9176 78.2501 70.4052 78.3684 70.8006C78.4892 71.196 78.6596 71.4943 78.8798 71.6955C79.1 71.8944 79.3616 71.9938 79.6646 71.9938Z" fill="#018C81"/>
<defs>
<linearGradient id="paint0_linear_793_67723" x1="155.291" y1="22.4742" x2="155.291" y2="67.3747" gradientUnits="userSpaceOnUse">
<stop stop-color="#285680"/>
<stop offset="1" stop-color="#285680" stop-opacity="0"/>
</linearGradient>
<clipPath id="clip0_793_67723">
<rect width="60.9231" height="49.0769" fill="white" transform="translate(10.6313 20)"/>
</clipPath>
</defs>
</svg>
