<svg width="88" height="88" viewBox="0 0 88 88" fill="none" xmlns="http://www.w3.org/2000/svg">
<rect width="88" height="88" rx="8" fill="#F8F9FC"/>
<path d="M29.4347 78.8281V64.2827H34.8892C36.0066 64.2827 36.9441 64.4768 37.7017 64.8651C38.464 65.2533 39.0393 65.7978 39.4276 66.4986C39.8205 67.1946 40.017 68.0066 40.017 68.9347C40.017 69.8674 39.8182 70.6771 39.4205 71.3636C39.0275 72.0455 38.4474 72.5734 37.6804 72.9474C36.9134 73.3168 35.9711 73.5014 34.8537 73.5014H30.9688V71.3139H34.4986C35.152 71.3139 35.687 71.224 36.1037 71.044C36.5204 70.8594 36.8281 70.5919 37.027 70.2415C37.2306 69.8864 37.3324 69.4508 37.3324 68.9347C37.3324 68.4186 37.2306 67.9782 37.027 67.6136C36.8234 67.2443 36.5133 66.965 36.0966 66.7756C35.6799 66.5814 35.1425 66.4844 34.4844 66.4844H32.0696V78.8281H29.4347ZM36.9489 72.2372L40.5497 78.8281H37.6094L34.0724 72.2372H36.9489ZM50.3473 68.2812C50.281 67.661 50.0017 67.178 49.5092 66.8324C49.0215 66.4867 48.3871 66.3139 47.6058 66.3139C47.0566 66.3139 46.5855 66.3968 46.1925 66.5625C45.7995 66.7282 45.4988 66.9531 45.2905 67.2372C45.0821 67.5213 44.9756 67.8456 44.9709 68.2102C44.9709 68.5133 45.0395 68.776 45.1768 68.9986C45.3189 69.2211 45.5107 69.4105 45.7521 69.5668C45.9936 69.7183 46.2611 69.8461 46.5547 69.9503C46.8482 70.0545 47.1442 70.142 47.4425 70.2131L48.8061 70.554C49.3554 70.6818 49.8833 70.8546 50.3899 71.0724C50.9013 71.2902 51.3582 71.5649 51.7607 71.8963C52.1679 72.2277 52.4898 72.6278 52.7266 73.0966C52.9633 73.5653 53.0817 74.1146 53.0817 74.7443C53.0817 75.5966 52.8639 76.3471 52.4283 76.9957C51.9927 77.6397 51.3629 78.1439 50.5391 78.5085C49.7199 78.8684 48.728 79.0483 47.5632 79.0483C46.4316 79.0483 45.4491 78.8731 44.6158 78.5227C43.7872 78.1723 43.1385 77.661 42.6697 76.9886C42.2057 76.3163 41.9548 75.4972 41.9169 74.5312H44.5092C44.5471 75.0379 44.7034 75.4593 44.978 75.7955C45.2526 76.1316 45.6101 76.3826 46.0504 76.5483C46.4955 76.714 46.9927 76.7969 47.5419 76.7969C48.1148 76.7969 48.6167 76.7116 49.0476 76.5412C49.4832 76.366 49.8241 76.1245 50.0703 75.8168C50.3165 75.5043 50.442 75.1397 50.4467 74.723C50.442 74.3442 50.3307 74.0317 50.1129 73.7855C49.8951 73.5346 49.5897 73.3262 49.1967 73.1605C48.8085 72.9901 48.3539 72.8385 47.8331 72.706L46.1783 72.2798C44.9804 71.9721 44.0334 71.5057 43.3374 70.8807C42.6461 70.2509 42.3004 69.4152 42.3004 68.3736C42.3004 67.5166 42.5324 66.7661 42.9964 66.1222C43.4652 65.4782 44.102 64.9787 44.907 64.6236C45.7119 64.2637 46.6233 64.0838 47.6413 64.0838C48.6735 64.0838 49.5779 64.2637 50.3544 64.6236C51.1357 64.9787 51.7488 65.4735 52.1939 66.108C52.639 66.7377 52.8686 67.4621 52.8828 68.2812H50.3473ZM58.0657 64.2827V78.8281H55.4308V64.2827H58.0657Z" fill="#018C81"/>
<line x1="12.2001" y1="19.0562" x2="69.65" y2="19.0562" stroke="#285680" stroke-width="0.7" stroke-linecap="round"/>
<line x1="12.0616" y1="53.7025" x2="69.9711" y2="53.7025" stroke="#95A5A5" stroke-width="0.423077" stroke-linecap="round"/>
<path d="M74.7044 21.0483C74.282 21.0483 73.907 20.9773 73.5794 20.8352C73.2536 20.6932 72.9979 20.4991 72.8123 20.2528C72.6286 20.0047 72.5377 19.7235 72.5396 19.4091C72.5377 19.1648 72.5907 18.9403 72.6987 18.7358C72.8066 18.5312 72.9525 18.3608 73.1362 18.2244C73.3218 18.0862 73.5282 17.9981 73.7555 17.9602V17.9205C73.4563 17.8542 73.2138 17.7017 73.0282 17.4631C72.8445 17.2225 72.7536 16.9451 72.7555 16.6307C72.7536 16.3314 72.8369 16.0644 73.0055 15.8295C73.1741 15.5947 73.4051 15.41 73.6987 15.2756C73.9922 15.1392 74.3275 15.071 74.7044 15.071C75.0775 15.071 75.4099 15.1392 75.7015 15.2756C75.9951 15.41 76.2261 15.5947 76.3947 15.8295C76.5652 16.0644 76.6504 16.3314 76.6504 16.6307C76.6504 16.9451 76.5566 17.2225 76.3691 17.4631C76.1835 17.7017 75.944 17.8542 75.6504 17.9205V17.9602C75.8777 17.9981 76.0822 18.0862 76.264 18.2244C76.4477 18.3608 76.5936 18.5312 76.7015 18.7358C76.8114 18.9403 76.8663 19.1648 76.8663 19.4091C76.8663 19.7235 76.7735 20.0047 76.5879 20.2528C76.4023 20.4991 76.1466 20.6932 75.8208 20.8352C75.497 20.9773 75.1248 21.0483 74.7044 21.0483ZM74.7044 20.2358C74.9222 20.2358 75.1116 20.1989 75.2725 20.125C75.4335 20.0492 75.5585 19.9432 75.6475 19.8068C75.7366 19.6705 75.782 19.5133 75.7839 19.3352C75.782 19.1496 75.7337 18.9858 75.639 18.8438C75.5462 18.6998 75.4184 18.5871 75.2555 18.5057C75.0945 18.4242 74.9108 18.3835 74.7044 18.3835C74.496 18.3835 74.3104 18.4242 74.1475 18.5057C73.9847 18.5871 73.8559 18.6998 73.7612 18.8438C73.6684 18.9858 73.6229 19.1496 73.6248 19.3352C73.6229 19.5133 73.6665 19.6705 73.7555 19.8068C73.8445 19.9413 73.9695 20.0464 74.1305 20.1222C74.2934 20.1979 74.4847 20.2358 74.7044 20.2358ZM74.7044 17.5852C74.8824 17.5852 75.0396 17.5492 75.176 17.4773C75.3142 17.4053 75.4231 17.3049 75.5027 17.1761C75.5822 17.0473 75.6229 16.8987 75.6248 16.7301C75.6229 16.5634 75.5832 16.4176 75.5055 16.2926C75.4279 16.1657 75.3199 16.0682 75.1816 16C75.0434 15.9299 74.8843 15.8949 74.7044 15.8949C74.5207 15.8949 74.3587 15.9299 74.2186 16C74.0803 16.0682 73.9724 16.1657 73.8947 16.2926C73.819 16.4176 73.782 16.5634 73.7839 16.7301C73.782 16.8987 73.8199 17.0473 73.8975 17.1761C73.9771 17.303 74.086 17.4034 74.2243 17.4773C74.3644 17.5492 74.5244 17.5852 74.7044 17.5852ZM79.9508 21.0795C79.483 21.0795 79.0815 20.9612 78.7463 20.7244C78.4129 20.4858 78.1563 20.142 77.9764 19.6932C77.7984 19.2424 77.7093 18.6998 77.7093 18.0653C77.7112 17.4309 77.8012 16.8911 77.9792 16.446C78.1592 15.9991 78.4158 15.6581 78.7491 15.4233C79.0843 15.1884 79.4849 15.071 79.9508 15.071C80.4167 15.071 80.8173 15.1884 81.1525 15.4233C81.4877 15.6581 81.7444 15.9991 81.9224 16.446C82.1023 16.893 82.1923 17.4328 82.1923 18.0653C82.1923 18.7017 82.1023 19.2453 81.9224 19.696C81.7444 20.1449 81.4877 20.4877 81.1525 20.7244C80.8192 20.9612 80.4186 21.0795 79.9508 21.0795ZM79.9508 20.1903C80.3145 20.1903 80.6014 20.0114 80.8116 19.6534C81.0237 19.2936 81.1298 18.7642 81.1298 18.0653C81.1298 17.6032 81.0815 17.215 80.9849 16.9006C80.8883 16.5862 80.752 16.3494 80.5758 16.1903C80.3997 16.0294 80.1913 15.9489 79.9508 15.9489C79.5891 15.9489 79.3031 16.1288 79.0929 16.4886C78.8826 16.8466 78.7766 17.3722 78.7747 18.0653C78.7728 18.5294 78.8192 18.9195 78.9139 19.2358C79.0105 19.5521 79.1468 19.7907 79.323 19.9517C79.4991 20.1108 79.7084 20.1903 79.9508 20.1903Z" fill="#018C81"/>
<path d="M72.6362 55.9688V55.2074L74.6561 53.2273C74.8493 53.0322 75.0102 52.8589 75.139 52.7074C75.2678 52.5559 75.3644 52.4091 75.4288 52.267C75.4932 52.125 75.5254 51.9735 75.5254 51.8125C75.5254 51.6288 75.4837 51.4716 75.4004 51.3409C75.3171 51.2083 75.2025 51.1061 75.0566 51.0341C74.9108 50.9621 74.7451 50.9261 74.5595 50.9261C74.3682 50.9261 74.2006 50.9659 74.0566 51.0455C73.9127 51.1231 73.801 51.2339 73.7214 51.3778C73.6438 51.5218 73.6049 51.6932 73.6049 51.892H72.6021C72.6021 51.5227 72.6864 51.2017 72.8549 50.929C73.0235 50.6562 73.2555 50.4451 73.551 50.2955C73.8483 50.1458 74.1892 50.071 74.5737 50.071C74.9638 50.071 75.3066 50.1439 75.6021 50.2898C75.8975 50.4356 76.1267 50.6354 76.2896 50.8892C76.4544 51.143 76.5368 51.4328 76.5368 51.7585C76.5368 51.9763 76.4951 52.1903 76.4118 52.4006C76.3284 52.6108 76.1816 52.8437 75.9714 53.0994C75.7631 53.3551 75.4705 53.6648 75.0936 54.0284L74.0907 55.0483V55.0881H76.6248V55.9688H72.6362ZM79.7555 56.0795C79.2877 56.0795 78.8862 55.9612 78.551 55.7244C78.2176 55.4858 77.961 55.142 77.7811 54.6932C77.603 54.2424 77.514 53.6998 77.514 53.0653C77.5159 52.4309 77.6059 51.8911 77.7839 51.446C77.9638 50.9991 78.2205 50.6581 78.5538 50.4233C78.889 50.1884 79.2896 50.071 79.7555 50.071C80.2214 50.071 80.622 50.1884 80.9572 50.4233C81.2924 50.6581 81.5491 50.9991 81.7271 51.446C81.907 51.893 81.997 52.4328 81.997 53.0653C81.997 53.7017 81.907 54.2453 81.7271 54.696C81.5491 55.1449 81.2924 55.4877 80.9572 55.7244C80.6239 55.9612 80.2233 56.0795 79.7555 56.0795ZM79.7555 55.1903C80.1191 55.1903 80.4061 55.0114 80.6163 54.6534C80.8284 54.2936 80.9345 53.7642 80.9345 53.0653C80.9345 52.6032 80.8862 52.215 80.7896 51.9006C80.693 51.5862 80.5566 51.3494 80.3805 51.1903C80.2044 51.0294 79.996 50.9489 79.7555 50.9489C79.3938 50.9489 79.1078 51.1288 78.8975 51.4886C78.6873 51.8466 78.5813 52.3722 78.5794 53.0653C78.5775 53.5294 78.6239 53.9195 78.7186 54.2358C78.8152 54.5521 78.9515 54.7907 79.1277 54.9517C79.3038 55.1108 79.5131 55.1903 79.7555 55.1903Z" fill="#018C81"/>
<path d="M11.8501 37.0977H16.6572V46.7118H11.8501V37.0977Z" fill="#95A5A5"/>
<path d="M16.6572 44.3082V46.7118H11.8501V37.0977H14.2536V41.9047C14.2536 43.2347 15.3272 44.3082 16.6572 44.3082Z" fill="#788181"/>
<path d="M18.1431 40.8281H22.9501V52.8702H18.1431V40.8281Z" fill="#2980BA"/>
<path d="M22.9501 50.7032V53.9949H18.1431V40.8281H20.5466V47.4115C20.5466 49.2329 21.6202 50.7032 22.9501 50.7032Z" fill="#285680"/>
<path d="M24.4355 47.3555H29.2426V56.9696H24.4355V47.3555Z" fill="#95A5A5"/>
<path d="M29.2426 54.5661V56.9696H24.4355V47.3555H26.8391V52.1625C26.8391 53.4925 27.9127 54.5661 29.2426 54.5661Z" fill="#788181"/>
<path d="M39.4257 43.8594C38.9834 43.8594 38.6245 43.5013 38.6245 43.0582V36.6488C38.6245 36.2058 38.9834 35.8477 39.4257 35.8477C39.8679 35.8477 40.2269 36.2058 40.2269 36.6488V43.0582C40.2269 43.5013 39.8679 43.8594 39.4257 43.8594Z" fill="#788181"/>
<path d="M37.022 35.8477H41.829V45.7958H37.022V35.8477Z" fill="#95A5A5"/>
<path d="M41.829 43.3088V45.7958H37.022V35.8477H39.4255V40.8217C39.4255 42.1979 40.4991 43.3088 41.829 43.3088Z" fill="#788181"/>
<path d="M49.6074 25.0117H54.4145V34.6258H49.6074V25.0117Z" fill="#95A5A5"/>
<path d="M54.4145 32.2223V34.6258H49.6074V25.0117H52.0109V29.8188C52.0109 31.1487 53.0845 32.2223 54.4145 32.2223Z" fill="#788181"/>
<path d="M62.1938 25.2969H67.0009V34.911H62.1938V25.2969Z" fill="#95A5A5"/>
<path d="M67.0009 32.5075V34.911H62.1938V25.2969H64.5974V30.1039C64.5974 31.4339 65.671 32.5075 67.0009 32.5075Z" fill="#788181"/>
<path d="M30.729 42.7852H35.5361V52.3993H30.729V42.7852Z" fill="#2980BA"/>
<path d="M35.5361 51.6342V54.5839H30.729V42.7852H33.1325V48.6845C33.1325 50.3167 34.2061 51.6342 35.5361 51.6342Z" fill="#285680"/>
<path d="M43.3147 26.4062H48.1218V47.3465H43.3147V26.4062Z" fill="#2980BA"/>
<path d="M48.1218 42.2764V47.5664H43.3147V26.4062H45.7182V36.9863C45.7182 39.9135 46.7918 42.2764 48.1218 42.2764Z" fill="#285680"/>
<path d="M55.9004 16.1523H60.7074V32.6162H55.9004V16.1523Z" fill="#2980BA"/>
<path d="M60.7074 28.5002V32.6162H55.9004V16.1523H58.3039V24.3843C58.3039 26.6618 59.3775 28.5002 60.7074 28.5002Z" fill="#285680"/>
</svg>
