<svg width="88" height="88" viewBox="0 0 88 88" fill="none" xmlns="http://www.w3.org/2000/svg">
<rect width="88" height="88" rx="8" fill="#F8F9FC"/>
<path d="M72.8388 11.5859H15.1029C12.1544 11.5859 9.76416 13.9761 9.76416 16.9247V33.3801C9.76416 36.3286 12.1544 38.7188 15.1029 38.7188H19.1934L24.2865 45.5173L29.3797 38.7188H72.8388C75.7874 38.7188 78.1776 36.3286 78.1776 33.3801V16.9247C78.1776 13.9761 75.7874 11.5859 72.8388 11.5859Z" fill="#2980BA"/>
<path d="M72.8386 11.5859H67.2637C70.2122 11.5859 72.6024 13.9761 72.6024 16.9247V33.3801C72.6024 36.3286 70.2122 38.7188 67.2637 38.7188H72.8386C75.7871 38.7188 78.1773 36.3286 78.1773 33.3801V16.9247C78.1773 13.9761 75.7871 11.5859 72.8386 11.5859Z" fill="#285680"/>
<path d="M24.5576 18.5378L26.4775 22.4279C26.5323 22.5388 26.6381 22.6158 26.7606 22.6337L31.0536 23.2575C31.3621 23.3024 31.4853 23.6815 31.262 23.8991L28.1556 26.9271C28.0669 27.0135 28.0265 27.138 28.0474 27.26L28.7807 31.5357C28.8334 31.8429 28.5109 32.0772 28.2349 31.9323L24.3952 29.9136C24.2856 29.8559 24.1547 29.8559 24.0451 29.9136L20.2055 31.9323C19.9295 32.0773 19.6069 31.8431 19.6597 31.5357L20.3929 27.26C20.4139 27.1381 20.3734 27.0135 20.2847 26.9271L17.1785 23.899C16.9552 23.6814 17.0784 23.3023 17.3869 23.2574L21.6799 22.6335C21.8024 22.6158 21.9082 22.5388 21.963 22.4278L23.8828 18.5377C24.0211 18.2582 24.4197 18.2582 24.5576 18.5378Z" fill="white"/>
<path d="M44.3078 18.5378L46.2276 22.4279C46.2824 22.5388 46.3882 22.6158 46.5108 22.6337L50.8037 23.2575C51.1122 23.3024 51.2354 23.6815 51.0121 23.8991L47.9057 26.9271C47.8171 27.0135 47.7766 27.1379 47.7975 27.26L48.5308 31.5357C48.5835 31.8429 48.261 32.0772 47.985 31.9322L44.1453 29.9136C44.0358 29.8559 43.9049 29.8559 43.7953 29.9136L39.9556 31.9322C39.6796 32.0773 39.3571 31.843 39.4098 31.5357L40.1431 27.26C40.164 27.1381 40.1235 27.0135 40.0349 26.9271L36.9285 23.8991C36.7052 23.6815 36.8284 23.3024 37.1369 23.2575L41.4299 22.6337C41.5524 22.6159 41.6582 22.539 41.713 22.4279L43.6328 18.5378C43.7712 18.2582 44.1698 18.2582 44.3078 18.5378Z" fill="white"/>
<path d="M64.0582 18.5378L65.9781 22.4279C66.0329 22.5388 66.1387 22.6158 66.2612 22.6337L70.5542 23.2575C70.8627 23.3024 70.9859 23.6815 70.7626 23.8991L67.6562 26.9271C67.5676 27.0135 67.5271 27.1379 67.548 27.26L68.2813 31.5357C68.334 31.8429 68.0115 32.0772 67.7355 31.9322L63.8958 29.9136C63.7862 29.8559 63.6553 29.8559 63.5458 29.9136L59.7061 31.9322C59.4301 32.0773 59.1076 31.843 59.1603 31.5357L59.8936 27.26C59.9145 27.1381 59.874 27.0135 59.7854 26.9271L56.679 23.8991C56.4557 23.6815 56.5789 23.3024 56.8874 23.2575L61.1803 22.6337C61.3029 22.6159 61.4087 22.539 61.4635 22.4279L63.3833 18.5378C63.5215 18.2582 63.9202 18.2582 64.0582 18.5378Z" fill="white"/>
<path d="M24.2177 80.0008C32.2002 80.0008 38.6712 73.5298 38.6712 65.5473C38.6712 57.5648 32.2002 51.0938 24.2177 51.0938C16.2352 51.0938 9.76416 57.5648 9.76416 65.5473C9.76416 73.5298 16.2352 80.0008 24.2177 80.0008Z" fill="#95A5A5"/>
<path d="M24.2039 67.6061C27.0928 67.6061 29.4348 65.2642 29.4348 62.3753C29.4348 59.4864 27.0928 57.1445 24.2039 57.1445C21.3151 57.1445 18.9731 59.4864 18.9731 62.3753C18.9731 65.2642 21.3151 67.6061 24.2039 67.6061Z" fill="#788181"/>
<path d="M24.2039 67.6055C19.3307 67.6055 15.3148 71.2754 14.769 76.0023V76.4782C17.3027 78.6689 20.6055 79.9942 24.2178 79.9942C27.8286 79.9942 31.1299 78.67 33.6631 76.481L33.6666 76.2777C33.2481 71.4187 29.1714 67.6055 24.2039 67.6055Z" fill="#788181"/>
<path d="M75.6309 57.6283H47.2745C43.9868 57.6283 43.9826 52.5352 47.2745 52.5352H75.6309C78.9186 52.5352 78.9227 57.6283 75.6309 57.6283Z" fill="#95A5A5"/>
<path d="M75.6998 68.0892H47.3433C44.0556 68.0892 44.0515 62.9961 47.3433 62.9961H75.6998C78.9875 62.9961 78.9916 68.0892 75.6998 68.0892Z" fill="#95A5A5"/>
<path d="M75.7686 78.5502H47.4121C44.1244 78.5502 44.1203 73.457 47.4121 73.457H75.7686C79.0563 73.457 79.0604 78.5502 75.7686 78.5502Z" fill="#95A5A5"/>
</svg>
