<svg width="88" height="88" viewBox="0 0 88 88" fill="none" xmlns="http://www.w3.org/2000/svg">
<rect width="88" height="88" rx="8" fill="#F8F9FC"/>
<path d="M60.7972 69.2808C60.2295 69.2808 59.7693 68.8206 59.7693 68.2529V62.2037C59.7693 61.636 60.2295 61.1758 60.7972 61.1758C61.3649 61.1758 61.8251 61.636 61.8251 62.2037V68.2529C61.8251 68.8206 61.3649 69.2808 60.7972 69.2808Z" fill="#018C81"/>
<path d="M25.0172 34.0723V28.0483H23.8543C23.5763 28.0483 23.3104 27.9996 23.0615 27.9141C21.9084 28.4324 21.0227 29.7686 21.0227 31.0874C21.0227 32.9737 22.9079 34.521 25.0225 34.289C25.0205 34.2167 25.0172 34.1448 25.0172 34.0723Z" fill="#CFD8DC"/>
<path d="M25.0172 33.797C24.0252 33.2191 23.3527 32.2139 23.3527 31.0874C23.3527 29.9156 24.0525 28.7318 25.0172 28.1183V28.0483H23.8543C23.5763 28.0483 23.3104 27.9996 23.0615 27.9141C21.9084 28.4324 21.0227 29.7686 21.0227 31.0874C21.0227 32.9737 22.9079 34.5212 25.0225 34.289C25.0207 34.2167 25.0172 34.1448 25.0172 34.0723V33.797Z" fill="#B4BCC0"/>
<path d="M42.849 31.5675H45.3842C45.3892 31.496 45.3927 31.15 45.3927 31.0773C45.3927 29.6435 44.459 28.1617 43.096 27.7305C42.8329 27.9295 42.5071 28.0492 42.1537 28.0492C41.9418 28.0492 41.5979 28.0265 41.3982 27.9842V33.4295C41.3982 32.7039 42.1234 31.5675 42.849 31.5675Z" fill="#B4BCC0"/>
<path d="M43.8776 28.1228C43.6377 27.9545 43.3767 27.8192 43.096 27.7305C42.8329 27.9294 42.507 28.0491 42.1537 28.0491C41.9418 28.0491 41.5979 28.0264 41.3982 27.9841V33.4294C41.3982 32.7038 42.1234 31.5673 42.849 31.5673H43.8776V28.1228Z" fill="#CFD8DC"/>
<path d="M45.7615 62.3021C44.8723 62.3021 44.1515 61.5813 44.1515 60.6922V46.6017C43.6304 46.3999 42.8384 46.1994 42.3399 46.0062C37.7778 50.5683 38.0118 50.3626 37.5125 50.7478C34.7155 52.9054 30.7247 52.6559 28.2147 50.1458L24.0572 45.9883L16.4422 48.9623C14.5177 49.7546 11.9407 52.2467 11.9407 55.9449V70.4947C11.9407 71.3232 12.6123 71.9948 13.4407 71.9948H52.9745C53.8031 71.9948 54.4745 71.3232 54.4745 70.4947C54.4745 70.1977 54.4745 65.8906 54.4745 62.3021H45.7615Z" fill="#2980BA"/>
<path d="M15.6225 54.4158C15.6225 51.1793 17.5965 48.8664 19.3794 47.8086L16.4423 48.9557C14.5177 49.7477 11.9407 52.2398 11.9407 55.938V70.4878C11.9407 71.3162 12.6123 71.9878 13.4407 71.9878H15.6225C15.6225 65.6697 15.6225 55.3894 15.6225 54.4158Z" fill="#285680"/>
<path d="M46.1687 71.9934H48.2246V62.3008H46.1687V71.9934Z" fill="#285680"/>
<path d="M20.2467 71.9905V57.1529C20.2467 56.5852 19.7865 56.125 19.2188 56.125C18.6511 56.125 18.1909 56.5852 18.1909 57.1529V71.9905H20.2467Z" fill="#285680"/>
<path d="M34.596 47.7761L37.9109 44.0736C37.8476 43.9557 37.8108 43.8227 37.8104 43.6827L37.8081 40.5357C34.8822 42.4503 31.1799 42.1915 28.6003 40.5234V43.6776C28.6003 43.8443 28.5609 43.9773 28.499 44.0852L31.8024 47.7761C31.8759 47.8488 31.9241 47.9365 31.9522 48.0288H34.4462C34.4743 47.9365 34.5225 47.8488 34.596 47.7761Z" fill="#CFD8DC"/>
<path d="M33.0762 47.8852L33.076 41.8732C31.4617 41.8396 29.8904 41.3579 28.6002 40.5234V43.6776C28.6002 43.8443 28.5606 43.9773 28.4988 44.0852L31.8021 47.7761C31.8757 47.8488 31.9237 47.9365 31.9519 48.0288H33.0718C33.0744 47.9819 33.0762 47.9344 33.0762 47.8852Z" fill="#B4BCC0"/>
<path d="M43.8774 35.4922V60.9644C43.8774 61.8535 44.5983 62.5743 45.4874 62.5743H76.1068C76.9959 62.5743 77.7167 61.8535 77.7167 60.9644V35.4922H43.8774Z" fill="#DFEBFA"/>
<path d="M51.5527 60.9642V35.4922H43.8774V60.9644C43.8774 61.8535 44.5983 62.5743 45.4874 62.5743H53.1627C52.2736 62.5743 51.5527 61.8535 51.5527 60.9642Z" fill="#C1D1E6"/>
<path d="M60.7971 67.6133C59.5877 67.6133 58.6072 68.5937 58.6072 69.8032C58.6072 71.0126 59.5876 71.9931 60.7971 71.9931C62.0066 71.9931 62.987 71.0127 62.987 69.8032C62.987 68.5937 62.0066 67.6133 60.7971 67.6133Z" fill="#CFD8DC"/>
<path d="M60.6404 69.8032C60.6404 68.9609 61.1165 68.2307 61.8137 67.8645C61.5098 67.7048 61.1643 67.6133 60.7971 67.6133C59.5877 67.6133 58.6072 68.5937 58.6072 69.8032C58.6072 71.0126 59.5876 71.9931 60.7971 71.9931C61.1643 71.9931 61.5097 71.9017 61.8137 71.7419C61.1164 71.3755 60.6404 70.6454 60.6404 69.8032Z" fill="#B4BCC0"/>
<path d="M78.7454 31.293H42.849C42.1233 31.293 41.5352 31.8812 41.5352 32.6068V34.5881C41.5352 35.3137 42.1233 35.9019 42.849 35.9019H78.7454C79.471 35.9019 80.0592 35.3137 80.0592 34.5881V32.6068C80.0592 31.8812 79.471 31.293 78.7454 31.293Z" fill="#018C81"/>
<path d="M51.1979 34.5881V32.6068C51.1979 31.8812 51.7861 31.293 52.5117 31.293H42.849C42.1233 31.293 41.5352 31.8812 41.5352 32.6068V34.5881C41.5352 35.3137 42.1233 35.9019 42.849 35.9019H52.5117C51.7861 35.9019 51.1979 35.3137 51.1979 34.5881Z" fill="#0A635C"/>
<path d="M34.4462 47.6172H31.9521C32.0147 47.8225 31.6939 48.054 31.532 48.2169L28.8931 51.1498C31.4242 53.1092 34.979 53.1118 37.5128 51.1574L34.8663 48.2171C34.7044 48.0541 34.3837 47.8225 34.4462 47.6172Z" fill="#0A635C"/>
<path d="M38.3422 44.4574C38.1532 44.3842 38.0031 44.2457 37.9109 44.0742L34.596 47.3655C34.3592 47.5997 34.3574 47.9817 34.5921 48.2181L37.5127 51.1584C37.7513 50.9744 37.9818 50.775 38.2005 50.5564L42.6365 46.1204C40.4477 45.2727 38.5655 44.5439 38.3422 44.4574Z" fill="#018C81"/>
<path d="M28.4989 44.082C28.4336 44.196 28.3431 44.282 28.2456 44.3483L23.7617 46.0995L28.2148 50.5526C28.4305 50.7683 28.6579 50.9652 28.8928 51.1472L31.8059 48.2144C32.0408 47.9781 32.039 47.596 31.8021 47.3617L28.4989 44.082Z" fill="#018C81"/>
<path d="M39.1601 24.7804C39.1601 24.62 38.9454 24.5648 38.8697 24.7062C37.8937 26.5315 35.9704 27.774 33.7557 27.774H30.0752V34.0513C30.0752 37.5115 32.2172 40.7324 35.6742 41.9368C39.0599 40.9244 41.5352 37.7825 41.5352 34.0721V27.7088C40.1829 27.4219 39.1601 26.215 39.1601 24.7804Z" fill="#CFD8DC"/>
<path d="M30.1992 34.0715V27.7734H24.8801V34.0715C24.8801 38.3616 28.2416 42.28 33.3264 42.28C34.2255 42.28 35.0904 42.1326 35.9007 41.8642C32.3869 40.7485 30.1992 37.5317 30.1992 34.0715Z" fill="#B4BCC0"/>
<path d="M41.002 17.3811C40.2177 17.4414 39.4981 16.9482 39.3471 16.1763C39.0928 14.8762 38.4492 13.5859 35.9346 13.5859H27.2108C24.0091 13.5859 21.4136 16.1815 21.4136 19.3832V25.7456C21.4136 27.0937 22.5064 28.1866 23.8545 28.1866H33.7558C35.9704 28.1866 37.8937 26.9442 38.8697 25.1187C38.9454 24.9772 39.1602 25.0325 39.1602 25.1929C39.1602 26.8395 40.5072 28.1866 42.1538 28.1866C43.0168 28.1866 43.7229 27.4805 43.7229 26.6173C43.7229 24.2054 43.7229 22.4436 43.7229 19.9779C43.723 18.4137 42.3583 17.2768 41.002 17.3811Z" fill="#2980BA"/>
<path d="M26.2106 25.878V19.3422C26.2106 16.5818 28.0892 14.2609 30.6373 13.5859H27.2106C24.0089 13.5859 21.4133 16.1815 21.4133 19.3832V25.7456C21.4133 27.0937 22.5062 28.1866 23.8543 28.1866H27.7382C26.8405 27.8049 26.2106 26.9151 26.2106 25.878Z" fill="#285680"/>
<path d="M48.052 51.2936C47.8393 51.2936 47.6667 51.1214 47.6667 50.9084V47.8266C47.6667 47.6136 47.8393 47.4414 48.052 47.4414C48.2646 47.4414 48.4372 47.6136 48.4372 47.8266V50.9084C48.4372 51.1214 48.2646 51.2936 48.052 51.2936Z" fill="#788181"/>
<path d="M48.052 54.8639C47.8393 54.8639 47.6667 54.6917 47.6667 54.4787V51.3969C47.6667 51.1839 47.8393 51.0117 48.052 51.0117C48.2646 51.0117 48.4372 51.1839 48.4372 51.3969V54.4787C48.4372 54.6917 48.2646 54.8639 48.052 54.8639Z" fill="#788181"/>
<path d="M46.8962 48.8398H49.2075V53.4625H46.8962V48.8398Z" fill="#95A5A5"/>
<path d="M49.2075 52.3068V53.4625H46.8962V48.8398H48.0519V51.1511C48.0519 51.7906 48.5681 52.3068 49.2075 52.3068Z" fill="#788181"/>
<path d="M51.0777 53.0865C50.8651 53.0865 50.6925 52.9144 50.6925 52.7013V49.6196C50.6925 49.4066 50.8651 49.2344 51.0777 49.2344C51.2904 49.2344 51.4629 49.4066 51.4629 49.6196V52.7013C51.4629 52.9144 51.2904 53.0865 51.0777 53.0865Z" fill="#285680"/>
<path d="M51.0777 59.5521C50.8651 59.5521 50.6925 59.2938 50.6925 58.9743V54.3513C50.6925 54.0317 50.8651 53.7734 51.0777 53.7734C51.2904 53.7734 51.4629 54.0317 51.4629 54.3513V58.9743C51.4629 59.2938 51.2904 59.5521 51.0777 59.5521Z" fill="#285680"/>
<path d="M49.922 50.6367H52.2333V56.4267H49.922V50.6367Z" fill="#2980BA"/>
<path d="M52.2333 55.3848V56.9675H49.922V50.6367H51.0776V53.8021C51.0776 54.6779 51.5938 55.3848 52.2333 55.3848Z" fill="#285680"/>
<path d="M54.1034 55.3951C53.8907 55.3951 53.7181 55.223 53.7181 55.0099V51.9282C53.7181 51.7152 53.8907 51.543 54.1034 51.543C54.316 51.543 54.4886 51.7152 54.4886 51.9282V55.0099C54.4886 55.223 54.316 55.3951 54.1034 55.3951Z" fill="#788181"/>
<path d="M54.1034 59.3795C53.8907 59.3795 53.7181 59.2073 53.7181 58.9943V55.9126C53.7181 55.6995 53.8907 55.5273 54.1034 55.5273C54.316 55.5273 54.4886 55.6995 54.4886 55.9126V58.9943C54.4886 59.2073 54.316 59.3795 54.1034 59.3795Z" fill="#788181"/>
<path d="M52.9477 53.7695H55.259V58.3921H52.9477V53.7695Z" fill="#95A5A5"/>
<path d="M55.259 57.2365V58.3921H52.9477V53.7695H54.1033V56.0808C54.1033 56.7203 54.6195 57.2365 55.259 57.2365Z" fill="#788181"/>
<path d="M60.1549 52.0905C59.9423 52.0905 59.7697 51.9183 59.7697 51.7052V48.6235C59.7697 48.4105 59.9423 48.2383 60.1549 48.2383C60.3676 48.2383 60.5401 48.4105 60.5401 48.6235V51.7052C60.5401 51.9183 60.3676 52.0905 60.1549 52.0905Z" fill="#788181"/>
<path d="M60.1549 57.7264C59.9423 57.7264 59.7697 57.4833 59.7697 57.1826V52.8328C59.7697 52.5321 59.9423 52.2891 60.1549 52.2891C60.3676 52.2891 60.5401 52.5321 60.5401 52.8328V57.1826C60.5401 57.4833 60.3676 57.7264 60.1549 57.7264Z" fill="#788181"/>
<path d="M58.9992 48.2383H61.3105V53.0215H58.9992V48.2383Z" fill="#95A5A5"/>
<path d="M61.3105 51.8257V53.0215H58.9992V48.2383H60.1549V50.6299C60.1549 51.2916 60.6711 51.8257 61.3105 51.8257Z" fill="#788181"/>
<path d="M66.2064 43.4108C65.9938 43.4108 65.8212 43.2386 65.8212 43.0256V39.9438C65.8212 39.7308 65.9938 39.5586 66.2064 39.5586C66.4191 39.5586 66.5917 39.7308 66.5917 39.9438V43.0256C66.5917 43.2386 66.4191 43.4108 66.2064 43.4108Z" fill="#788181"/>
<path d="M65.0507 43.0234H67.362V47.646H65.0507V43.0234Z" fill="#95A5A5"/>
<path d="M67.362 46.4904V47.646H65.0507V43.0234H66.2064V45.3347C66.2064 45.9742 66.7226 46.4904 67.362 46.4904Z" fill="#788181"/>
<path d="M72.2579 43.5514C72.0453 43.5514 71.8727 43.3792 71.8727 43.1662V40.0844C71.8727 39.8714 72.0453 39.6992 72.2579 39.6992C72.4705 39.6992 72.6431 39.8714 72.6431 40.0844V43.1662C72.6431 43.3792 72.4705 43.5514 72.2579 43.5514Z" fill="#788181"/>
<path d="M72.2579 51.2545C72.0453 51.2545 71.8727 51.0823 71.8727 50.8693V47.7876C71.8727 47.5745 72.0453 47.4023 72.2579 47.4023C72.4705 47.4023 72.6431 47.5745 72.6431 47.7876V50.8693C72.6431 51.0823 72.4705 51.2545 72.2579 51.2545Z" fill="#788181"/>
<path d="M71.1022 43.1641H73.4135V47.7867H71.1022V43.1641Z" fill="#95A5A5"/>
<path d="M73.4135 46.631V47.7867H71.1022V43.1641H72.2578V45.4754C72.2578 46.1148 72.774 46.631 73.4135 46.631Z" fill="#788181"/>
<path d="M57.1291 52.7858C56.9165 52.7858 56.7439 52.6136 56.7439 52.4006V49.3188C56.7439 49.1058 56.9165 48.9336 57.1291 48.9336C57.3418 48.9336 57.5143 49.1058 57.5143 49.3188V52.4006C57.5143 52.6136 57.3418 52.7858 57.1291 52.7858Z" fill="#285680"/>
<path d="M57.1291 60.4893C56.9165 60.4893 56.7439 60.2642 56.7439 59.9857V55.9567C56.7439 55.6782 56.9165 55.4531 57.1291 55.4531C57.3418 55.4531 57.5143 55.6782 57.5143 55.9567V59.9857C57.5143 60.2642 57.3418 60.4893 57.1291 60.4893Z" fill="#285680"/>
<path d="M55.9734 51.5742H58.2848V56.1968H55.9734V51.5742Z" fill="#2980BA"/>
<path d="M58.2848 55.829V57.2472H55.9734V51.5742H57.1291V54.4107C57.1291 55.1955 57.6453 55.829 58.2848 55.829Z" fill="#285680"/>
<path d="M63.1806 46.1725C62.968 46.1725 62.7954 46.0003 62.7954 45.7873V42.7055C62.7954 42.4925 62.968 42.3203 63.1806 42.3203C63.3933 42.3203 63.5658 42.4925 63.5658 42.7055V45.7873C63.5658 46.0003 63.3933 46.1725 63.1806 46.1725Z" fill="#285680"/>
<path d="M63.1806 55.3954C62.968 55.3954 62.7954 55.1553 62.7954 54.8582V50.5606C62.7954 50.2636 62.968 50.0234 63.1806 50.0234C63.3933 50.0234 63.5658 50.2636 63.5658 50.5606V54.8582C63.5658 55.1553 63.3933 55.3954 63.1806 55.3954Z" fill="#285680"/>
<path d="M62.025 43.7031H64.3363V53.7715H62.025V43.7031Z" fill="#2980BA"/>
<path d="M64.3363 51.3337V53.8772H62.025V43.7031H63.1806V48.7902C63.1806 50.1976 63.6968 51.3337 64.3363 51.3337Z" fill="#285680"/>
<path d="M69.2322 41.6256C69.0196 41.6256 68.847 41.4534 68.847 41.2404V38.1587C68.847 37.9456 69.0196 37.7734 69.2322 37.7734C69.4448 37.7734 69.6174 37.9456 69.6174 38.1587V41.2404C69.6174 41.4534 69.4448 41.6256 69.2322 41.6256Z" fill="#285680"/>
<path d="M69.2322 49.3287C69.0196 49.3287 68.847 49.1565 68.847 48.9435V45.8618C68.847 45.6488 69.0196 45.4766 69.2322 45.4766C69.4448 45.4766 69.6174 45.6488 69.6174 45.8618V48.9435C69.6174 49.1565 69.4448 49.3287 69.2322 49.3287Z" fill="#285680"/>
<path d="M68.0765 38.7617H70.3878V46.6778H68.0765V38.7617Z" fill="#2980BA"/>
<path d="M70.3878 44.6988V46.6778H68.0765V38.7617H69.2322V42.7197C69.2322 43.8148 69.7484 44.6988 70.3878 44.6988Z" fill="#285680"/>
</svg>
