<svg width="18" height="16" viewBox="0 0 18 16" fill="none" xmlns="http://www.w3.org/2000/svg">
<path d="M15.19 10.857C14.9573 10.6243 14.661 10.4657 14.3383 10.4012L12.3487 10.0033C11.2584 9.78522 10.1266 9.93679 9.13208 10.434L8.86759 10.5663C7.8731 11.0635 6.74123 11.2151 5.65094 10.9971L4.04115 10.6751C3.49472 10.5658 2.92982 10.7368 2.53578 11.1309M5.6665 1.3335H12.3332L11.4998 2.16683V6.47647C11.4998 6.9185 11.6754 7.34242 11.988 7.65498L16.1547 11.8217C17.2046 12.8716 16.461 14.6668 14.9761 14.6668H3.02352C1.53868 14.6668 0.795071 12.8716 1.84501 11.8217L6.01168 7.65498C6.32424 7.34242 6.49983 6.9185 6.49983 6.47647V2.16683L5.6665 1.3335Z" stroke="#F8F9FC" stroke-width="1.5" stroke-linecap="round" stroke-linejoin="round"/>
</svg>
