<svg width="88" height="88" viewBox="0 0 88 88" fill="none" xmlns="http://www.w3.org/2000/svg">
<rect width="88" height="88" rx="8" fill="#F8F9FC"/>
<path d="M16.7771 39.561C16.3278 39.561 15.9631 39.1972 15.9631 38.7471V32.2358C15.9631 31.7857 16.3278 31.4219 16.7771 31.4219C17.2263 31.4219 17.591 31.7857 17.591 32.2358V38.7471C17.591 39.1972 17.2263 39.561 16.7771 39.561Z" fill="#788181"/>
<path d="M16.7771 47.106C16.3278 47.106 15.9631 46.7421 15.9631 46.2921V39.7807C15.9631 39.3306 16.3278 38.9668 16.7771 38.9668C17.2263 38.9668 17.591 39.3306 17.591 39.7807V46.2921C17.591 46.7421 17.2263 47.106 16.7771 47.106Z" fill="#788181"/>
<path d="M14.3352 34.3809H19.2187V44.1479H14.3352V34.3809Z" fill="#95A5A5"/>
<path d="M19.2187 41.7061V44.1479H14.3352V34.3809H16.777V39.2644C16.777 40.6155 17.8676 41.7061 19.2187 41.7061Z" fill="#788181"/>
<path d="M23.1699 43.3501C22.7206 43.3501 22.356 42.9863 22.356 42.5362V36.0249C22.356 35.5748 22.7206 35.2109 23.1699 35.2109C23.6192 35.2109 23.9838 35.5748 23.9838 36.0249V42.5362C23.9838 42.9863 23.6192 43.3501 23.1699 43.3501Z" fill="#285680"/>
<path d="M23.1699 57.0085C22.7206 57.0085 22.356 56.4627 22.356 55.7875V46.0198C22.356 45.3446 22.7206 44.7988 23.1699 44.7988C23.6192 44.7988 23.9838 45.3446 23.9838 46.0198V55.7875C23.9838 56.4627 23.6192 57.0085 23.1699 57.0085Z" fill="#285680"/>
<path d="M20.728 38.1719H25.6115V50.4055H20.728V38.1719Z" fill="#2980BA"/>
<path d="M25.6115 48.204V51.548H20.728V38.1719H23.1698V44.86C23.1698 46.7103 24.2604 48.204 25.6115 48.204Z" fill="#285680"/>
<path d="M29.5629 48.2329C29.1137 48.2329 28.749 47.8691 28.749 47.419V40.9077C28.749 40.4576 29.1137 40.0938 29.5629 40.0938C30.0122 40.0938 30.3769 40.4576 30.3769 40.9077V47.419C30.3769 47.8691 30.0122 48.2329 29.5629 48.2329Z" fill="#788181"/>
<path d="M29.5629 56.6528C29.1137 56.6528 28.749 56.289 28.749 55.8389V49.3276C28.749 48.8775 29.1137 48.5137 29.5629 48.5137C30.0122 48.5137 30.3769 48.8775 30.3769 49.3276V55.8389C30.3769 56.289 30.0122 56.6528 29.5629 56.6528Z" fill="#788181"/>
<path d="M27.1211 44.7988H32.0046V54.5658H27.1211V44.7988Z" fill="#95A5A5"/>
<path d="M32.0046 52.1241V54.5658H27.1211V44.7988H29.5628V49.6823C29.5628 51.0334 30.6535 52.1241 32.0046 52.1241Z" fill="#788181"/>
<path d="M42.3491 41.2466C41.8998 41.2466 41.5352 40.8828 41.5352 40.4327V33.9213C41.5352 33.4712 41.8998 33.1074 42.3491 33.1074C42.7984 33.1074 43.163 33.4712 43.163 33.9213V40.4327C43.163 40.8828 42.7984 41.2466 42.3491 41.2466Z" fill="#788181"/>
<path d="M42.3491 53.1602C41.8998 53.1602 41.5352 52.6467 41.5352 52.0114V42.8207C41.5352 42.1854 41.8998 41.6719 42.3491 41.6719C42.7984 41.6719 43.163 42.1854 43.163 42.8207V52.0114C43.163 52.6467 42.7984 53.1602 42.3491 53.1602Z" fill="#788181"/>
<path d="M39.9072 33.1074H44.7907V43.2138H39.9072V33.1074Z" fill="#95A5A5"/>
<path d="M44.7907 40.6872V43.2138H39.9072V33.1074H42.349V38.1606C42.349 39.5586 43.4396 40.6872 44.7907 40.6872Z" fill="#788181"/>
<path d="M55.1352 22.9126C54.6859 22.9126 54.3213 22.5488 54.3213 22.0987V15.5874C54.3213 15.1373 54.6859 14.7734 55.1352 14.7734C55.5845 14.7734 55.9491 15.1373 55.9491 15.5874V22.0987C55.9491 22.5488 55.5845 22.9126 55.1352 22.9126Z" fill="#788181"/>
<path d="M52.6934 22.0977H57.5769V31.8647H52.6934V22.0977Z" fill="#95A5A5"/>
<path d="M57.5769 29.4229V31.8647H52.6934V22.0977H55.1351V26.9812C55.1351 28.3323 56.2258 29.4229 57.5769 29.4229Z" fill="#788181"/>
<path d="M67.9213 23.2095C67.4721 23.2095 67.1074 22.8457 67.1074 22.3956V15.8842C67.1074 15.4341 67.4721 15.0703 67.9213 15.0703C68.3706 15.0703 68.7353 15.4341 68.7353 15.8842V22.3956C68.7353 22.8457 68.3706 23.2095 67.9213 23.2095Z" fill="#788181"/>
<path d="M67.9213 39.4888C67.4721 39.4888 67.1074 39.125 67.1074 38.6749V32.1635C67.1074 31.7134 67.4721 31.3496 67.9213 31.3496C68.3706 31.3496 68.7353 31.7134 68.7353 32.1635V38.6749C68.7353 39.125 68.3706 39.4888 67.9213 39.4888Z" fill="#788181"/>
<path d="M65.4795 22.3945H70.363V32.1615H65.4795V22.3945Z" fill="#95A5A5"/>
<path d="M70.363 29.7198V32.1615H65.4795V22.3945H67.9212V27.278C67.9212 28.6291 69.0119 29.7198 70.363 29.7198Z" fill="#788181"/>
<path d="M35.9558 42.7114C35.5065 42.7114 35.1418 42.3476 35.1418 41.8975V35.3862C35.1418 34.9361 35.5065 34.5723 35.9558 34.5723C36.405 34.5723 36.7697 34.9361 36.7697 35.3862V41.8975C36.7697 42.3476 36.405 42.7114 35.9558 42.7114Z" fill="#285680"/>
<path d="M35.9558 58.9904C35.5065 58.9904 35.1418 58.5148 35.1418 57.9263V49.4137C35.1418 48.8253 35.5065 48.3496 35.9558 48.3496C36.405 48.3496 36.7697 48.8253 36.7697 49.4137V57.9263C36.7697 58.5148 36.405 58.9904 35.9558 58.9904Z" fill="#285680"/>
<path d="M33.5142 40.1523H38.3977V49.9194H33.5142V40.1523Z" fill="#2980BA"/>
<path d="M38.3977 49.1421V52.1387H33.5142V40.1523H35.9559V46.1455C35.9559 47.8036 37.0466 49.1421 38.3977 49.1421Z" fill="#285680"/>
<path d="M48.7419 28.7446C48.2926 28.7446 47.928 28.3808 47.928 27.9307V21.4194C47.928 20.9693 48.2926 20.6055 48.7419 20.6055C49.1912 20.6055 49.5558 20.9693 49.5558 21.4194V27.9307C49.5558 28.3808 49.1912 28.7446 48.7419 28.7446Z" fill="#285680"/>
<path d="M48.7419 48.2351C48.2926 48.2351 47.928 47.7277 47.928 47.1V38.0198C47.928 37.3921 48.2926 36.8848 48.7419 36.8848C49.1912 36.8848 49.5558 37.3921 49.5558 38.0198V47.1C49.5558 47.7277 49.1912 48.2351 48.7419 48.2351Z" fill="#285680"/>
<path d="M46.3003 23.5273H51.1838V44.8006H46.3003V23.5273Z" fill="#2980BA"/>
<path d="M51.1838 39.6498V45.024H46.3003V23.5273H48.742V34.2757C48.742 37.2494 49.8327 39.6498 51.1838 39.6498Z" fill="#285680"/>
<path d="M61.5283 19.1392C61.079 19.1392 60.7144 18.7754 60.7144 18.3253V11.8139C60.7144 11.3638 61.079 11 61.5283 11C61.9776 11 62.3422 11.3638 62.3422 11.8139V18.3253C62.3422 18.7754 61.9776 19.1392 61.5283 19.1392Z" fill="#285680"/>
<path d="M61.5283 35.4185C61.079 35.4185 60.7144 35.0546 60.7144 34.6046V28.0932C60.7144 27.6431 61.079 27.2793 61.5283 27.2793C61.9776 27.2793 62.3422 27.6431 62.3422 28.0932V34.6046C62.3422 35.0546 61.9776 35.4185 61.5283 35.4185Z" fill="#285680"/>
<path d="M59.0864 13.0879H63.9699V29.8136H59.0864V13.0879Z" fill="#2980BA"/>
<path d="M63.9699 25.6321V29.8136H59.0864V13.0879H61.5282V21.4507C61.5282 23.7644 62.6188 25.6321 63.9699 25.6321Z" fill="#285680"/>
<path d="M12.4414 40.0869C33.1584 40.0868 37.5407 21.9902 49.0504 21.9902C60.56 21.9902 64.122 31.1271 73.5584 31.1271" stroke="#018C81"/>
<path d="M33.7279 67.6755C33.6711 67.1436 33.4315 66.7295 33.0093 66.4331C32.5911 66.1367 32.047 65.9885 31.3771 65.9885C30.9061 65.9885 30.5021 66.0596 30.1651 66.2017C29.8281 66.3438 29.5703 66.5366 29.3917 66.7803C29.213 67.0239 29.1217 67.302 29.1176 67.6146C29.1176 67.8745 29.1765 68.0998 29.2942 68.2906C29.416 68.4815 29.5805 68.6439 29.7875 68.7779C29.9946 68.9078 30.224 69.0174 30.4757 69.1067C30.7275 69.1961 30.9812 69.2712 31.237 69.3321L32.4063 69.6244C32.8773 69.734 33.33 69.8822 33.7645 70.069C34.203 70.2558 34.5948 70.4913 34.9399 70.7755C35.2891 71.0597 35.5652 71.4028 35.7682 71.8047C35.9712 72.2067 36.0727 72.6777 36.0727 73.2177C36.0727 73.9485 35.8859 74.592 35.5124 75.1483C35.1388 75.7005 34.5988 76.1329 33.8924 76.4455C33.19 76.7541 32.3393 76.9084 31.3405 76.9084C30.3702 76.9084 29.5277 76.7581 28.8131 76.4577C28.1026 76.1572 27.5463 75.7187 27.1443 75.1422C26.7465 74.5656 26.5313 73.8632 26.4988 73.035H28.7217C28.7542 73.4694 28.8882 73.8308 29.1237 74.119C29.3592 74.4073 29.6657 74.6225 30.0433 74.7646C30.425 74.9067 30.8513 74.9778 31.3223 74.9778C31.8136 74.9778 32.2439 74.9047 32.6134 74.7585C32.9869 74.6083 33.2793 74.4012 33.4904 74.1373C33.7015 73.8693 33.8091 73.5567 33.8132 73.1994C33.8091 72.8746 33.7137 72.6066 33.5269 72.3955C33.3402 72.1803 33.0783 72.0016 32.7413 71.8595C32.4084 71.7134 32.0186 71.5834 31.572 71.4698L30.1529 71.1043C29.1257 70.8404 28.3137 70.4405 27.7168 69.9046C27.124 69.3646 26.8277 68.6479 26.8277 67.7547C26.8277 67.0198 27.0266 66.3763 27.4245 65.8241C27.8265 65.2719 28.3726 64.8435 29.0628 64.539C29.753 64.2305 30.5346 64.0762 31.4075 64.0762C32.2927 64.0762 33.0681 64.2305 33.734 64.539C34.4039 64.8435 34.9297 65.2678 35.3114 65.8119C35.6931 66.3519 35.89 66.9731 35.9022 67.6755H33.7279Z" fill="#018C81"/>
<path d="M38.43 64.2467H41.195L44.8979 73.2847H45.0441L48.747 64.2467H51.5119V76.7196H49.3438V68.1506H49.2281L45.781 76.683H44.161L40.7139 68.1323H40.5982V76.7196H38.43V64.2467Z" fill="#018C81"/>
<path d="M55.9171 76.7196H53.5054L57.8965 64.2467H60.6858L65.083 76.7196H62.6713L59.3399 66.8046H59.2424L55.9171 76.7196ZM55.9963 71.8291H62.5738V73.644H55.9963V71.8291Z" fill="#018C81"/>
</svg>
