<svg width="88" height="88" viewBox="0 0 88 88" fill="none" xmlns="http://www.w3.org/2000/svg">
<rect width="88" height="88" rx="8" fill="#F8F9FC"/>
<path d="M18.5376 69.4453C18.4912 69.0111 18.2957 68.6731 17.951 68.4311C17.6096 68.1892 17.1655 68.0682 16.6186 68.0682C16.2341 68.0682 15.9044 68.1262 15.6293 68.2422C15.3542 68.3582 15.1437 68.5156 14.9979 68.7145C14.852 68.9134 14.7775 69.1404 14.7741 69.3956C14.7741 69.6077 14.8222 69.7917 14.9183 69.9474C15.0178 70.1032 15.152 70.2358 15.321 70.3452C15.4901 70.4512 15.6773 70.5407 15.8828 70.6136C16.0883 70.6866 16.2955 70.7479 16.5043 70.7976L17.4588 71.0362C17.8433 71.1257 18.2128 71.2467 18.5675 71.3991C18.9254 71.5516 19.2453 71.7438 19.527 71.9759C19.812 72.2079 20.0374 72.4879 20.2031 72.8161C20.3688 73.1442 20.4517 73.5286 20.4517 73.9695C20.4517 74.5661 20.2992 75.0914 19.9943 75.5455C19.6894 75.9962 19.2486 76.3492 18.6719 76.6044C18.0985 76.8563 17.4041 76.9822 16.5888 76.9822C15.7966 76.9822 15.1089 76.8596 14.5256 76.6143C13.9455 76.3691 13.4915 76.0111 13.1634 75.5405C12.8385 75.0698 12.6629 74.4964 12.6364 73.8203H14.451C14.4775 74.175 14.5869 74.4699 14.7791 74.7053C14.9714 74.9406 15.2216 75.1162 15.5298 75.2322C15.8414 75.3482 16.1894 75.4062 16.5739 75.4062C16.9749 75.4062 17.3262 75.3466 17.6278 75.2273C17.9328 75.1046 18.1714 74.9356 18.3438 74.7202C18.5161 74.5014 18.6039 74.2462 18.6072 73.9545C18.6039 73.6894 18.526 73.4706 18.3736 73.2983C18.2211 73.1226 18.0073 72.9768 17.7322 72.8608C17.4605 72.7415 17.1423 72.6354 16.7777 72.5426L15.6193 72.2443C14.7808 72.0289 14.1179 71.7024 13.6307 71.2649C13.1468 70.8241 12.9048 70.2391 12.9048 69.5099C12.9048 68.91 13.0672 68.3847 13.392 67.9339C13.7202 67.4832 14.166 67.1335 14.7294 66.8849C15.2929 66.633 15.9309 66.5071 16.6435 66.5071C17.366 66.5071 17.9991 66.633 18.5426 66.8849C19.0895 67.1335 19.5187 67.4799 19.8303 67.924C20.1418 68.3648 20.3026 68.8719 20.3125 69.4453H18.5376ZM21.6486 68.1925V66.6463H29.7722V68.1925H26.6252V76.8281H24.7956V68.1925H21.6486ZM39.9851 71.7372C39.9851 72.8343 39.7796 73.7739 39.3686 74.5561C38.9609 75.335 38.4041 75.9316 37.6982 76.3459C36.9955 76.7602 36.1984 76.9673 35.3068 76.9673C34.4152 76.9673 33.6165 76.7602 32.9105 76.3459C32.2079 75.9283 31.651 75.33 31.2401 74.5511C30.8324 73.7689 30.6286 72.831 30.6286 71.7372C30.6286 70.6402 30.8324 69.7022 31.2401 68.9233C31.651 68.1411 32.2079 67.5429 32.9105 67.1286C33.6165 66.7143 34.4152 66.5071 35.3068 66.5071C36.1984 66.5071 36.9955 66.7143 37.6982 67.1286C38.4041 67.5429 38.9609 68.1411 39.3686 68.9233C39.7796 69.7022 39.9851 70.6402 39.9851 71.7372ZM38.1307 71.7372C38.1307 70.965 38.0097 70.3137 37.7678 69.7834C37.5291 69.2498 37.1977 68.8471 36.7734 68.5753C36.3492 68.3002 35.8603 68.1626 35.3068 68.1626C34.7533 68.1626 34.2644 68.3002 33.8402 68.5753C33.416 68.8471 33.0829 69.2498 32.8409 69.7834C32.6023 70.3137 32.483 70.965 32.483 71.7372C32.483 72.5095 32.6023 73.1624 32.8409 73.696C33.0829 74.2263 33.416 74.629 33.8402 74.9041C34.2644 75.1759 34.7533 75.3118 35.3068 75.3118C35.8603 75.3118 36.3492 75.1759 36.7734 74.9041C37.1977 74.629 37.5291 74.2263 37.7678 73.696C38.0097 73.1624 38.1307 72.5095 38.1307 71.7372ZM50.4441 70.0817H48.5847C48.5317 69.7768 48.4339 69.5066 48.2914 69.2713C48.1489 69.0327 47.9715 68.8305 47.7594 68.6648C47.5473 68.4991 47.3053 68.3748 47.0336 68.2919C46.7651 68.2057 46.4751 68.1626 46.1635 68.1626C45.61 68.1626 45.1195 68.3018 44.6919 68.5803C44.2644 68.8553 43.9296 69.2597 43.6877 69.7933C43.4457 70.3236 43.3248 70.9716 43.3248 71.7372C43.3248 72.5161 43.4457 73.1723 43.6877 73.706C43.9329 74.2363 44.2677 74.6373 44.6919 74.9091C45.1195 75.1776 45.6084 75.3118 46.1586 75.3118C46.4635 75.3118 46.7485 75.272 47.0137 75.1925C47.2821 75.1096 47.5224 74.9886 47.7346 74.8295C47.95 74.6705 48.1306 74.4749 48.2765 74.2429C48.4256 74.0109 48.5284 73.7457 48.5847 73.4474L50.4441 73.4574C50.3745 73.9413 50.2237 74.3954 49.9917 74.8196C49.763 75.2438 49.463 75.6184 49.0918 75.9432C48.7206 76.2647 48.2864 76.5166 47.7892 76.6989C47.2921 76.8778 46.7402 76.9673 46.1337 76.9673C45.2388 76.9673 44.44 76.7602 43.7374 76.3459C43.0347 75.9316 42.4812 75.3333 42.0769 74.5511C41.6725 73.7689 41.4703 72.831 41.4703 71.7372C41.4703 70.6402 41.6742 69.7022 42.0819 68.9233C42.4895 68.1411 43.0447 67.5429 43.7473 67.1286C44.45 66.7143 45.2454 66.5071 46.1337 66.5071C46.7005 66.5071 47.2275 66.5866 47.7147 66.7457C48.2019 66.9048 48.6361 67.1385 49.0172 67.4467C49.3984 67.7517 49.7116 68.1262 49.9569 68.5703C50.2054 69.0111 50.3678 69.5149 50.4441 70.0817ZM52.1332 76.8281V66.6463H53.9776V70.9567H58.6957V66.6463H60.5451V76.8281H58.6957V72.5028H53.9776V76.8281H52.1332ZM75.1218 71.7372C75.1218 72.8343 74.9163 73.7739 74.5053 74.5561C74.0977 75.335 73.5408 75.9316 72.8349 76.3459C72.1322 76.7602 71.3351 76.9673 70.4435 76.9673C69.552 76.9673 68.7532 76.7602 68.0472 76.3459C67.3446 75.9283 66.7878 75.33 66.3768 74.5511C65.9691 73.7689 65.7653 72.831 65.7653 71.7372C65.7653 70.6402 65.9691 69.7022 66.3768 68.9233C66.7878 68.1411 67.3446 67.5429 68.0472 67.1286C68.7532 66.7143 69.552 66.5071 70.4435 66.5071C71.3351 66.5071 72.1322 66.7143 72.8349 67.1286C73.5408 67.5429 74.0977 68.1411 74.5053 68.9233C74.9163 69.7022 75.1218 70.6402 75.1218 71.7372ZM73.2674 71.7372C73.2674 70.965 73.1464 70.3137 72.9045 69.7834C72.6658 69.2498 72.3344 68.8471 71.9102 68.5753C71.4859 68.3002 70.997 68.1626 70.4435 68.1626C69.89 68.1626 69.4012 68.3002 68.9769 68.5753C68.5527 68.8471 68.2196 69.2498 67.9776 69.7834C67.739 70.3137 67.6197 70.965 67.6197 71.7372C67.6197 72.5095 67.739 73.1624 67.9776 73.696C68.2196 74.2263 68.5527 74.629 68.9769 74.9041C69.4012 75.1759 69.89 75.3118 70.4435 75.3118C70.997 75.3118 71.4859 75.1759 71.9102 74.9041C72.3344 74.629 72.6658 74.2263 72.9045 73.696C73.1464 73.1624 73.2674 72.5095 73.2674 71.7372ZM77.2521 76.9375C76.9505 76.9375 76.692 76.8314 76.4766 76.6193C76.2611 76.4072 76.1551 76.1487 76.1584 75.8438C76.1551 75.5455 76.2611 75.2902 76.4766 75.0781C76.692 74.866 76.9505 74.7599 77.2521 74.7599C77.5438 74.7599 77.7973 74.866 78.0128 75.0781C78.2315 75.2902 78.3426 75.5455 78.3459 75.8438C78.3426 76.0459 78.2895 76.2299 78.1868 76.3956C78.0874 76.5613 77.9548 76.6939 77.7891 76.7933C77.6267 76.8894 77.4477 76.9375 77.2521 76.9375Z" fill="#018C81"/>
<line x1="10.2001" y1="29.0562" x2="67.65" y2="29.0562" stroke="#788181" stroke-width="0.7" stroke-linecap="round"/>
<line x1="10.0616" y1="48.7025" x2="67.9711" y2="48.7025" stroke="#95A5A5" stroke-width="0.423077" stroke-linecap="round"/>
<path d="M72.7044 31.0483C72.282 31.0483 71.907 30.9773 71.5794 30.8352C71.2536 30.6932 70.9979 30.4991 70.8123 30.2528C70.6286 30.0047 70.5377 29.7235 70.5396 29.4091C70.5377 29.1648 70.5907 28.9403 70.6987 28.7358C70.8066 28.5312 70.9525 28.3608 71.1362 28.2244C71.3218 28.0862 71.5282 27.9981 71.7555 27.9602V27.9205C71.4563 27.8542 71.2138 27.7017 71.0282 27.4631C70.8445 27.2225 70.7536 26.9451 70.7555 26.6307C70.7536 26.3314 70.8369 26.0644 71.0055 25.8295C71.1741 25.5947 71.4051 25.41 71.6987 25.2756C71.9922 25.1392 72.3275 25.071 72.7044 25.071C73.0775 25.071 73.4099 25.1392 73.7015 25.2756C73.9951 25.41 74.2261 25.5947 74.3947 25.8295C74.5652 26.0644 74.6504 26.3314 74.6504 26.6307C74.6504 26.9451 74.5566 27.2225 74.3691 27.4631C74.1835 27.7017 73.944 27.8542 73.6504 27.9205V27.9602C73.8777 27.9981 74.0822 28.0862 74.264 28.2244C74.4477 28.3608 74.5936 28.5312 74.7015 28.7358C74.8114 28.9403 74.8663 29.1648 74.8663 29.4091C74.8663 29.7235 74.7735 30.0047 74.5879 30.2528C74.4023 30.4991 74.1466 30.6932 73.8208 30.8352C73.497 30.9773 73.1248 31.0483 72.7044 31.0483ZM72.7044 30.2358C72.9222 30.2358 73.1116 30.1989 73.2725 30.125C73.4335 30.0492 73.5585 29.9432 73.6475 29.8068C73.7366 29.6705 73.782 29.5133 73.7839 29.3352C73.782 29.1496 73.7337 28.9858 73.639 28.8438C73.5462 28.6998 73.4184 28.5871 73.2555 28.5057C73.0945 28.4242 72.9108 28.3835 72.7044 28.3835C72.496 28.3835 72.3104 28.4242 72.1475 28.5057C71.9847 28.5871 71.8559 28.6998 71.7612 28.8438C71.6684 28.9858 71.6229 29.1496 71.6248 29.3352C71.6229 29.5133 71.6665 29.6705 71.7555 29.8068C71.8445 29.9413 71.9695 30.0464 72.1305 30.1222C72.2934 30.1979 72.4847 30.2358 72.7044 30.2358ZM72.7044 27.5852C72.8824 27.5852 73.0396 27.5492 73.176 27.4773C73.3142 27.4053 73.4231 27.3049 73.5027 27.1761C73.5822 27.0473 73.6229 26.8987 73.6248 26.7301C73.6229 26.5634 73.5832 26.4176 73.5055 26.2926C73.4279 26.1657 73.3199 26.0682 73.1816 26C73.0434 25.9299 72.8843 25.8949 72.7044 25.8949C72.5207 25.8949 72.3587 25.9299 72.2186 26C72.0803 26.0682 71.9724 26.1657 71.8947 26.2926C71.819 26.4176 71.782 26.5634 71.7839 26.7301C71.782 26.8987 71.8199 27.0473 71.8975 27.1761C71.9771 27.303 72.086 27.4034 72.2243 27.4773C72.3644 27.5492 72.5244 27.5852 72.7044 27.5852ZM77.9508 31.0795C77.483 31.0795 77.0815 30.9612 76.7463 30.7244C76.4129 30.4858 76.1563 30.142 75.9764 29.6932C75.7984 29.2424 75.7093 28.6998 75.7093 28.0653C75.7112 27.4309 75.8012 26.8911 75.9792 26.446C76.1592 25.9991 76.4158 25.6581 76.7491 25.4233C77.0843 25.1884 77.4849 25.071 77.9508 25.071C78.4167 25.071 78.8173 25.1884 79.1525 25.4233C79.4877 25.6581 79.7444 25.9991 79.9224 26.446C80.1023 26.893 80.1923 27.4328 80.1923 28.0653C80.1923 28.7017 80.1023 29.2453 79.9224 29.696C79.7444 30.1449 79.4877 30.4877 79.1525 30.7244C78.8192 30.9612 78.4186 31.0795 77.9508 31.0795ZM77.9508 30.1903C78.3145 30.1903 78.6014 30.0114 78.8116 29.6534C79.0237 29.2936 79.1298 28.7642 79.1298 28.0653C79.1298 27.6032 79.0815 27.215 78.9849 26.9006C78.8883 26.5862 78.752 26.3494 78.5758 26.1903C78.3997 26.0294 78.1913 25.9489 77.9508 25.9489C77.5891 25.9489 77.3031 26.1288 77.0929 26.4886C76.8826 26.8466 76.7766 27.3722 76.7747 28.0653C76.7728 28.5294 76.8192 28.9195 76.9139 29.2358C77.0105 29.5521 77.1468 29.7907 77.323 29.9517C77.4991 30.1108 77.7084 30.1903 77.9508 30.1903Z" fill="#018C81"/>
<path d="M70.6362 50.9688V50.2074L72.6561 48.2273C72.8493 48.0322 73.0102 47.8589 73.139 47.7074C73.2678 47.5559 73.3644 47.4091 73.4288 47.267C73.4932 47.125 73.5254 46.9735 73.5254 46.8125C73.5254 46.6288 73.4837 46.4716 73.4004 46.3409C73.3171 46.2083 73.2025 46.1061 73.0566 46.0341C72.9108 45.9621 72.7451 45.9261 72.5595 45.9261C72.3682 45.9261 72.2006 45.9659 72.0566 46.0455C71.9127 46.1231 71.801 46.2339 71.7214 46.3778C71.6438 46.5218 71.6049 46.6932 71.6049 46.892H70.6021C70.6021 46.5227 70.6864 46.2017 70.8549 45.929C71.0235 45.6562 71.2555 45.4451 71.551 45.2955C71.8483 45.1458 72.1892 45.071 72.5737 45.071C72.9638 45.071 73.3066 45.1439 73.6021 45.2898C73.8975 45.4356 74.1267 45.6354 74.2896 45.8892C74.4544 46.143 74.5368 46.4328 74.5368 46.7585C74.5368 46.9763 74.4951 47.1903 74.4118 47.4006C74.3284 47.6108 74.1816 47.8437 73.9714 48.0994C73.7631 48.3551 73.4705 48.6648 73.0936 49.0284L72.0907 50.0483V50.0881H74.6248V50.9688H70.6362ZM77.7555 51.0795C77.2877 51.0795 76.8862 50.9612 76.551 50.7244C76.2176 50.4858 75.961 50.142 75.7811 49.6932C75.603 49.2424 75.514 48.6998 75.514 48.0653C75.5159 47.4309 75.6059 46.8911 75.7839 46.446C75.9638 45.9991 76.2205 45.6581 76.5538 45.4233C76.889 45.1884 77.2896 45.071 77.7555 45.071C78.2214 45.071 78.622 45.1884 78.9572 45.4233C79.2924 45.6581 79.5491 45.9991 79.7271 46.446C79.907 46.893 79.997 47.4328 79.997 48.0653C79.997 48.7017 79.907 49.2453 79.7271 49.696C79.5491 50.1449 79.2924 50.4877 78.9572 50.7244C78.6239 50.9612 78.2233 51.0795 77.7555 51.0795ZM77.7555 50.1903C78.1191 50.1903 78.4061 50.0114 78.6163 49.6534C78.8284 49.2936 78.9345 48.7642 78.9345 48.0653C78.9345 47.6032 78.8862 47.215 78.7896 46.9006C78.693 46.5862 78.5566 46.3494 78.3805 46.1903C78.2044 46.0294 77.996 45.9489 77.7555 45.9489C77.3938 45.9489 77.1078 46.1288 76.8975 46.4886C76.6873 46.8466 76.5813 47.3722 76.5794 48.0653C76.5775 48.5294 76.6239 48.9195 76.7186 49.2358C76.8152 49.5521 76.9515 49.7907 77.1277 49.9517C77.3038 50.1108 77.5131 50.1903 77.7555 50.1903Z" fill="#018C81"/>
<path d="M9.57373 41.7116C15.0967 35.5431 14.06 32 23.4608 30.1678C36.0384 27.7165 41.3838 63.6237 66.3942 40.8019" stroke="#285680" stroke-linecap="round" stroke-dasharray="2 2"/>
<path d="M9.771 43.8223C11.3087 41.8049 13.2373 37.4233 20.8643 37.4219C28.4914 37.4204 33.5605 49.5426 66.73 43.8223" stroke="#2980BA" stroke-linecap="round"/>
</svg>
