<svg width="88" height="88" viewBox="0 0 88 88" fill="none" xmlns="http://www.w3.org/2000/svg">
<rect width="88" height="88" rx="8" fill="#F8F9FC"/>
<path d="M30.2628 47.0664V55.8681L26.3247 56.9117V47.0664C26.9548 47.1156 27.6144 47.1452 28.2938 47.1452C28.9731 47.1452 29.6327 47.1156 30.2628 47.0664Z" fill="#285680"/>
<path d="M27.7561 49.8516C27.7561 49.2993 28.2038 48.8516 28.7561 48.8516H30.4161V55.5811H27.7561V49.8516Z" fill="#2980BA"/>
<path d="M67.6744 37.0664V45.8779L63.7363 46.9117V37.0664C64.3664 37.1156 65.0261 37.1452 65.7054 37.1452C66.3847 37.1452 67.0443 37.1156 67.6744 37.0664Z" fill="#285680"/>
<path d="M65.0178 39.8516C65.0178 39.2993 65.4655 38.8516 66.0178 38.8516H67.6746V45.5811H65.0178V39.8516Z" fill="#2980BA"/>
<path d="M44.8555 55.5342L44.6882 55.5736L22.113 61.53C21.9167 61.5803 21.715 61.6068 21.5124 61.6087C20.4028 61.6015 19.4388 60.8441 19.1692 59.7677C18.8295 58.4614 19.601 57.1243 20.902 56.7649L26.9667 55.1699L30.9048 54.1263L44.3534 50.582C43.9274 51.2239 43.7013 51.9776 43.7036 52.748C43.7055 53.7922 44.1195 54.7935 44.8555 55.5342Z" fill="#285680"/>
<path d="M44.8552 55.5336L44.6879 55.573L22.1127 61.5294C21.9164 61.5797 21.7148 61.6062 21.5121 61.6081C20.4025 61.6009 19.4385 60.8435 19.169 59.7671C18.9982 59.1298 19.3673 58.145 21.2325 57.8577L27.1945 56.2604L31.1691 55.1955L43.809 51.8086C43.8058 51.9019 43.7349 51.9694 43.7034 52.7474C43.7052 53.7916 44.1192 54.7929 44.8552 55.5336Z" fill="#2980BA"/>
<path d="M73.738 47.941L50.7887 53.9958C50.888 53.6535 50.9377 53.2988 50.9364 52.9424C50.9402 51.4598 50.1053 50.1026 48.7803 49.4375L63.7352 45.4895L67.6733 44.4558L72.5271 43.1759C73.1512 43.0175 73.8127 43.1145 74.3652 43.4452C74.9177 43.776 75.3156 44.3133 75.4708 44.9382C75.8106 46.2444 75.039 47.5815 73.738 47.941Z" fill="#285680"/>
<path d="M73.7385 47.9436L50.7891 53.9984C50.8884 53.6561 50.9382 53.3014 50.9368 52.945C50.9406 51.4624 50.4012 51.1212 49.0762 50.4561L64.0669 46.4393L67.888 45.4155L72.7145 44.1219C73.3387 43.9636 74.1866 43.6461 74.7391 43.9769C75.1785 44.2399 75.316 44.3158 75.4712 44.9408C75.811 46.247 75.0394 47.5841 73.7385 47.9436Z" fill="#2980BA"/>
<path d="M49.9533 55.5117V63.7424H44.0461V55.7382L44.2135 55.6988C44.9542 56.4349 45.9555 56.8488 46.9997 56.8507C48.1313 56.8513 49.208 56.3632 49.9533 55.5117Z" fill="#285680"/>
<path d="M45.9429 56.3867C45.9429 55.8344 46.3906 55.3867 46.9429 55.3867H49.9532V63.7402H45.9429V56.3867Z" fill="#2980BA"/>
<path d="M38.139 44.1134V46.0825C38.139 47.0276 34.7621 48.5832 30.2628 48.9573C29.6327 49.0065 28.973 49.0361 28.2937 49.0361C27.6144 49.0361 26.9548 49.0065 26.3247 48.9573C21.8254 48.5832 18.4485 47.0276 18.4485 46.0825V44.1134C18.4374 43.5843 18.8547 43.145 19.3838 43.1289H37.2037C37.7327 43.145 38.15 43.5843 38.139 44.1134Z" fill="#788181"/>
<path d="M38.1391 44.9237V46.1259C38.1391 46.9151 35.1108 48.656 31.0759 48.9683C30.5109 49.0094 29.9193 49.0341 29.3101 49.0341C28.7009 49.0341 28.1094 49.0094 27.5443 48.9683C23.5095 48.656 20.4811 47.357 20.4811 46.5678V44.9237C20.4712 44.4818 20.8455 44.115 21.3199 44.1016H37.3004C37.7748 44.115 38.149 44.4818 38.1391 44.9237Z" fill="#95A5A5"/>
<path d="M75.5511 34.1134V36.0825C75.5511 37.0276 72.1742 38.5832 67.6749 38.9573C67.0448 39.0065 66.3852 39.0361 65.7058 39.0361C65.0265 39.0361 64.3669 39.0065 63.7368 38.9573C59.2375 38.5832 55.8606 37.0276 55.8606 36.0825V34.1134C55.8495 33.5843 56.2668 33.145 56.7959 33.1289H74.6158C75.1448 33.145 75.5621 33.5843 75.5511 34.1134Z" fill="#788181"/>
<path d="M75.5512 34.9237V36.1259C75.5512 36.9151 72.5229 38.656 68.488 38.9683C67.923 39.0094 67.3314 39.0341 66.7222 39.0341C66.113 39.0341 65.5215 39.0094 64.9565 38.9683C60.9216 38.656 57.8933 37.357 57.8933 36.5678V34.9237C57.8834 34.4818 58.2576 34.115 58.732 34.1016H74.7125C75.1869 34.115 75.5611 34.4818 75.5512 34.9237Z" fill="#95A5A5"/>
<path d="M50.9382 52.9108C50.9333 53.8673 50.5837 54.7901 49.9537 55.5099C49.2084 56.3614 48.1317 56.8495 47.0001 56.8489C45.9553 56.8502 44.9528 56.4357 44.214 55.6969C43.4752 54.958 43.0607 53.9556 43.062 52.9108C43.062 50.7358 44.8252 48.9727 47.0001 48.9727C49.1751 48.9727 50.9382 50.7358 50.9382 52.9108Z" fill="#788181"/>
<path d="M50.9382 52.9147C50.9341 53.8713 50.6411 54.794 50.1131 55.5138C49.4885 56.3653 48.5861 56.8534 47.6377 56.8528C46.762 56.8541 45.9219 56.4396 45.3027 55.7008C44.6834 54.962 44.3361 53.9595 44.3372 52.9147C44.3372 50.7397 45.8149 48.9766 47.6377 48.9766C49.4605 48.9766 50.9382 50.7397 50.9382 52.9147Z" fill="#95A5A5"/>
<path d="M57.8294 70.6339H36.1698C35.8174 70.6353 35.4911 70.4482 35.3143 70.1433C35.1375 69.8384 35.1371 69.4623 35.3133 69.1571L35.5791 68.7042C37.3151 65.6591 40.541 63.7686 44.0461 63.7422H49.9532C53.4583 63.7686 56.6842 65.6591 58.4201 68.7042L58.686 69.1571C58.8622 69.4623 58.8618 69.8384 58.685 70.1433C58.5082 70.4482 58.1819 70.6353 57.8294 70.6339Z" fill="#788181"/>
<path d="M58.0487 70.633H41.1949C40.9207 70.6342 40.6668 70.4728 40.5292 70.2098C40.3916 69.9468 40.3913 69.6223 40.5284 69.359L40.7353 68.9683C42.0861 66.3413 44.5962 64.7103 47.3236 64.6875H51.9201C54.6474 64.7103 57.1576 66.3413 58.5084 68.9683L58.7152 69.359C58.8524 69.6223 58.8521 69.9468 58.7145 70.2098C58.5769 70.4728 58.323 70.6342 58.0487 70.633Z" fill="#95A5A5"/>
<path d="M8.32886 37.9876V30.7148H11.0561C11.6148 30.7148 12.0836 30.8119 12.4624 31.006C12.8435 31.2002 13.1312 31.4724 13.3253 31.8228C13.5218 32.1708 13.6201 32.5768 13.6201 33.0408C13.6201 33.5072 13.5206 33.9121 13.3218 34.2553C13.1253 34.5962 12.8352 34.8602 12.4517 35.0472C12.0682 35.2319 11.5971 35.3242 11.0384 35.3242H9.0959V34.2305H10.8608C11.1875 34.2305 11.455 34.1855 11.6634 34.0955C11.8717 34.0032 12.0256 33.8694 12.125 33.6942C12.2268 33.5167 12.2777 33.2989 12.2777 33.0408C12.2777 32.7828 12.2268 32.5626 12.125 32.3803C12.0232 32.1957 11.8682 32.056 11.6598 31.9613C11.4515 31.8642 11.1828 31.8157 10.8537 31.8157H9.64633V37.9876H8.32886ZM12.086 34.6921L13.8864 37.9876H12.4162L10.6477 34.6921H12.086Z" fill="#2980BA"/>
<path d="M14.8328 37.9876V30.7148H19.5629V31.8192H16.1502V33.7937H19.3179V34.8981H16.1502V36.8832H19.5913V37.9876H14.8328Z" fill="#2980BA"/>
<path d="M22.4375 37.9876L20.385 30.7148H21.8019L23.1122 36.0593H23.1797L24.5789 30.7148H25.8679L27.2706 36.0629H27.3345L28.6449 30.7148H30.0618L28.0093 37.9876H26.7095L25.2536 32.8846H25.1968L23.7372 37.9876H22.4375Z" fill="#2980BA"/>
<path d="M31.2257 37.9876H29.8194L32.3798 30.7148H34.0062L36.5702 37.9876H35.1639L33.2214 32.2063H33.1646L31.2257 37.9876ZM31.2719 35.136H35.1071V36.1942H31.2719V35.136Z" fill="#2980BA"/>
<path d="M37.5281 37.9876V30.7148H40.2554C40.8141 30.7148 41.2828 30.8119 41.6616 31.006C42.0428 31.2002 42.3304 31.4724 42.5245 31.8228C42.721 32.1708 42.8193 32.5768 42.8193 33.0408C42.8193 33.5072 42.7198 33.9121 42.521 34.2553C42.3245 34.5962 42.0345 34.8602 41.6509 35.0472C41.2674 35.2319 40.7963 35.3242 40.2376 35.3242H38.2951V34.2305H40.06C40.3867 34.2305 40.6543 34.1855 40.8626 34.0955C41.0709 34.0032 41.2248 33.8694 41.3242 33.6942C41.426 33.5167 41.4769 33.2989 41.4769 33.0408C41.4769 32.7828 41.426 32.5626 41.3242 32.3803C41.2224 32.1957 41.0674 32.056 40.859 31.9613C40.6507 31.8642 40.382 31.8157 40.0529 31.8157H38.8455V37.9876H37.5281ZM41.2852 34.6921L43.0856 37.9876H41.6154L39.847 34.6921H41.2852Z" fill="#2980BA"/>
<path d="M46.4965 37.9876H44.032V30.7148H46.5462C47.2682 30.7148 47.8885 30.8604 48.407 31.1516C48.9278 31.4405 49.3279 31.8559 49.6073 32.3981C49.8866 32.9402 50.0263 33.5889 50.0263 34.3441C50.0263 35.1017 49.8854 35.7527 49.6037 36.2972C49.3244 36.8417 48.9207 37.2596 48.3928 37.5508C47.8672 37.842 47.2351 37.9876 46.4965 37.9876ZM45.3495 36.8477H46.4325C46.9392 36.8477 47.3618 36.7553 47.7003 36.5707C48.0388 36.3836 48.2933 36.1055 48.4638 35.7362C48.6343 35.3645 48.7195 34.9004 48.7195 34.3441C48.7195 33.7878 48.6343 33.3261 48.4638 32.9592C48.2933 32.5898 48.0412 32.314 47.7074 32.1317C47.376 31.9471 46.964 31.8548 46.4716 31.8548H45.3495V36.8477Z" fill="#2980BA"/>
<path d="M55.1682 28.4659V21.1932H57.8955C58.4542 21.1932 58.9229 21.2902 59.3017 21.4844C59.6829 21.6785 59.9705 21.9508 60.1647 22.3011C60.3612 22.6491 60.4594 23.0552 60.4594 23.5192C60.4594 23.9856 60.36 24.3904 60.1611 24.7337C59.9646 25.0746 59.6746 25.3385 59.2911 25.5256C58.9076 25.7102 58.4364 25.8026 57.8777 25.8026H55.9353V24.7088H57.7002C58.0269 24.7088 58.2944 24.6638 58.5027 24.5739C58.7111 24.4815 58.8649 24.3478 58.9644 24.1726C59.0662 23.995 59.1171 23.7772 59.1171 23.5192C59.1171 23.2611 59.0662 23.041 58.9644 22.8587C58.8626 22.674 58.7075 22.5343 58.4992 22.4396C58.2908 22.3426 58.0221 22.294 57.6931 22.294H56.4857V28.4659H55.1682ZM58.9253 25.1705L60.7257 28.4659H59.2556L57.4871 25.1705H58.9253Z" fill="#018C81"/>
<path d="M62.9896 21.1932V28.4659H61.6721V21.1932H62.9896Z" fill="#018C81"/>
<path d="M68.3687 23.1925C68.3355 22.8823 68.1959 22.6409 67.9496 22.468C67.7058 22.2952 67.3886 22.2088 66.9979 22.2088C66.7233 22.2088 66.4878 22.2502 66.2913 22.3331C66.0948 22.416 65.9444 22.5284 65.8403 22.6705C65.7361 22.8125 65.6828 22.9747 65.6805 23.157C65.6805 23.3085 65.7148 23.4399 65.7834 23.5511C65.8545 23.6624 65.9503 23.7571 66.0711 23.8352C66.1918 23.911 66.3256 23.9749 66.4724 24.027C66.6191 24.0791 66.7671 24.1229 66.9163 24.1584L67.5981 24.3288C67.8727 24.3928 68.1367 24.4792 68.39 24.5881C68.6457 24.697 68.8741 24.8343 69.0754 25C69.2789 25.1657 69.4399 25.3658 69.5583 25.6001C69.6767 25.8345 69.7359 26.1091 69.7359 26.424C69.7359 26.8501 69.627 27.2254 69.4092 27.5497C69.1914 27.8717 68.8765 28.1238 68.4646 28.3061C68.055 28.486 67.559 28.576 66.9766 28.576C66.4108 28.576 65.9196 28.4884 65.5029 28.3132C65.0886 28.138 64.7643 27.8823 64.5299 27.5462C64.2979 27.21 64.1724 26.8004 64.1535 26.3175H65.4496C65.4686 26.5708 65.5467 26.7815 65.684 26.9496C65.8213 27.1177 66.0001 27.2431 66.2202 27.326C66.4428 27.4089 66.6914 27.4503 66.966 27.4503C67.2524 27.4503 67.5034 27.4077 67.7188 27.3224C67.9366 27.2348 68.1071 27.1141 68.2302 26.9602C68.3533 26.804 68.416 26.6217 68.4184 26.4134C68.416 26.224 68.3604 26.0677 68.2515 25.9446C68.1426 25.8191 67.9899 25.715 67.7934 25.6321C67.5993 25.5469 67.372 25.4711 67.1116 25.4048L66.2842 25.1918C65.6852 25.0379 65.2117 24.8047 64.8637 24.4922C64.5181 24.1773 64.3452 23.7595 64.3452 23.2386C64.3452 22.8101 64.4612 22.4349 64.6932 22.1129C64.9276 21.791 65.246 21.5412 65.6485 21.3636C66.051 21.1837 66.5067 21.0938 67.0157 21.0938C67.5318 21.0938 67.984 21.1837 68.3722 21.3636C68.7629 21.5412 69.0694 21.7886 69.292 22.1058C69.5145 22.4207 69.6293 22.7829 69.6364 23.1925H68.3687Z" fill="#018C81"/>
<path d="M70.9104 28.4659V21.1932H72.2279V24.5348H72.3167L75.154 21.1932H76.7627L73.9502 24.4567L76.7875 28.4659H75.2037L73.034 25.348L72.2279 26.2997V28.4659H70.9104Z" fill="#018C81"/>
</svg>
