<svg width="88" height="88" viewBox="0 0 88 88" fill="none" xmlns="http://www.w3.org/2000/svg">
<rect width="88" height="88" rx="8" fill="#F8F9FC"/>
<path d="M18.3794 64.1347C18.0693 63.813 18.0783 63.3014 18.3994 62.9914L64.4967 18.4963C64.8183 18.1863 65.3305 18.1952 65.64 18.5163C65.95 18.8379 65.9411 19.3496 65.62 19.6596L19.5227 64.1547C19.2019 64.4646 18.6894 64.456 18.3794 64.1347Z" fill="#788181"/>
<path d="M69.0381 64.2959C68.5874 64.2959 68.2217 63.9302 68.2217 63.4794V59.9102C68.2217 59.4594 68.5874 59.0938 69.0381 59.0938C69.4889 59.0938 69.8545 59.4594 69.8545 59.9102V63.4794C69.8545 63.9302 69.4889 64.2959 69.0381 64.2959Z" fill="#95A5A5"/>
<path d="M61.7972 59.9102V63.4807C61.7972 63.9379 61.427 64.2971 60.9807 64.2971C60.5345 64.2971 60.1643 63.9379 60.1643 63.4807V59.9102C60.1643 59.4638 60.5345 59.0938 60.9807 59.0938C61.427 59.0938 61.7972 59.4638 61.7972 59.9102Z" fill="#95A5A5"/>
<path d="M53.5567 59.9102V63.4807C53.5567 63.9379 53.1866 64.2971 52.7403 64.2971C52.2831 64.2971 51.9238 63.9379 51.9238 63.4807V59.9102C51.9238 59.4638 52.2831 59.0938 52.7403 59.0938C53.1866 59.0938 53.5567 59.4638 53.5567 59.9102Z" fill="#95A5A5"/>
<path d="M45.3052 59.9102V63.4807C45.3052 63.9379 44.946 64.2971 44.4888 64.2971C44.0425 64.2971 43.6724 63.9379 43.6724 63.4807V59.9102C43.6724 59.4638 44.0425 59.0938 44.4888 59.0938C44.946 59.0938 45.3052 59.4638 45.3052 59.9102Z" fill="#95A5A5"/>
<path d="M37.065 59.9102V63.4807C37.065 63.9379 36.7057 64.2971 36.2486 64.2971C35.8022 64.2971 35.4321 63.9379 35.4321 63.4807V59.9102C35.4321 59.4638 35.8022 59.0938 36.2486 59.0938C36.7057 59.0938 37.065 59.4638 37.065 59.9102Z" fill="#95A5A5"/>
<path d="M28.8243 59.9102V63.4807C28.8243 63.9379 28.4541 64.2971 28.0078 64.2971C27.5506 64.2971 27.1914 63.9379 27.1914 63.4807V59.9102C27.1914 59.4638 27.5506 59.0938 28.0078 59.0938C28.4541 59.0938 28.8243 59.4638 28.8243 59.9102Z" fill="#95A5A5"/>
<path d="M23.3489 54.3477C23.3489 54.794 22.9896 55.1641 22.5325 55.1641H18.9619C18.5156 55.1641 18.1455 54.794 18.1455 54.3477C18.1455 53.8904 18.5156 53.5312 18.9619 53.5312H22.5325C22.9896 53.5312 23.3489 53.8904 23.3489 54.3477Z" fill="#95A5A5"/>
<path d="M23.3489 46.1016C23.3489 46.5479 22.9896 46.918 22.5325 46.918H18.9619C18.5156 46.918 18.1455 46.5479 18.1455 46.1016C18.1455 45.6443 18.5156 45.2852 18.9619 45.2852H22.5325C22.9896 45.2852 23.3489 45.6443 23.3489 46.1016Z" fill="#95A5A5"/>
<path d="M23.3489 37.8438C23.3489 38.301 22.9896 38.6602 22.5325 38.6602H18.9619C18.5156 38.6602 18.1455 38.301 18.1455 37.8438C18.1455 37.3975 18.5156 37.0273 18.9619 37.0273H22.5325C22.9896 37.0273 23.3489 37.3975 23.3489 37.8438Z" fill="#95A5A5"/>
<path d="M23.3486 29.6055C23.3486 30.0519 22.9894 30.4219 22.5322 30.4219H18.9617C18.5153 30.4219 18.1453 30.0519 18.1453 29.6055C18.1453 29.1592 18.5153 28.7891 18.9617 28.7891H22.5322C22.9894 28.7891 23.3486 29.1592 23.3486 29.6055Z" fill="#95A5A5"/>
<path d="M23.3486 21.3789C23.3486 21.8253 22.9894 22.1954 22.5322 22.1954H18.9617C18.5153 22.1954 18.1453 21.8253 18.1453 21.3789C18.1453 20.9217 18.5153 20.5625 18.9617 20.5625H22.5322C22.9894 20.5625 23.3486 20.9217 23.3486 21.3789Z" fill="#95A5A5"/>
<path d="M18.9617 20.5508H20.8667V22.1837H18.9617C18.5153 22.1837 18.1453 21.8136 18.1453 21.3672C18.1453 20.91 18.5153 20.5508 18.9617 20.5508Z" fill="#788181"/>
<path d="M18.9617 28.7812H20.8667V30.4141H18.9617C18.5153 30.4141 18.1453 30.044 18.1453 29.5977C18.1453 29.1514 18.5153 28.7812 18.9617 28.7812Z" fill="#788181"/>
<path d="M18.9617 37.0234H20.8667V38.6563H18.9617C18.5153 38.6563 18.1453 38.2971 18.1453 37.8399C18.1453 37.3936 18.5153 37.0234 18.9617 37.0234Z" fill="#788181"/>
<path d="M18.9617 45.2773H20.8667V46.9102H18.9617C18.5153 46.9102 18.1453 46.5401 18.1453 46.0938C18.1453 45.6365 18.5153 45.2773 18.9617 45.2773Z" fill="#788181"/>
<path d="M18.9617 53.5195H20.8667V55.1524H18.9617C18.5153 55.1524 18.1453 54.7823 18.1453 54.336C18.1453 53.8787 18.5153 53.5195 18.9617 53.5195Z" fill="#788181"/>
<path d="M27.1914 61.6914H28.8243V63.4767C28.8243 63.9339 28.4541 64.2931 28.0078 64.2931C27.5506 64.2931 27.1914 63.9339 27.1914 63.4767V61.6914Z" fill="#788181"/>
<path d="M35.4319 61.6914H37.0648V63.4767C37.0648 63.9339 36.7055 64.2931 36.2483 64.2931C35.802 64.2931 35.4319 63.9339 35.4319 63.4767V61.6914Z" fill="#788181"/>
<path d="M43.6726 61.6914H45.3055V63.4767C45.3055 63.9339 44.9463 64.2931 44.489 64.2931C44.0428 64.2931 43.6726 63.9339 43.6726 63.4767V61.6914Z" fill="#788181"/>
<path d="M51.9241 61.6914H53.5569V63.4767C53.5569 63.9339 53.1869 64.2931 52.7405 64.2931C52.2833 64.2931 51.9241 63.9339 51.9241 63.4767V61.6914Z" fill="#788181"/>
<path d="M61.7972 61.6914V63.4767C61.7972 63.9339 61.427 64.2931 60.9807 64.2931C60.5345 64.2931 60.1643 63.9339 60.1643 63.4767V61.6914H61.7972Z" fill="#788181"/>
<path d="M69.0386 64.4107H18.9639C18.5132 64.4107 18.1475 64.045 18.1475 63.5942V13.5196C18.1475 13.0688 18.5132 12.7031 18.9639 12.7031H22.5337C22.9844 12.7031 23.3501 13.0688 23.3501 13.5196C23.3501 13.9703 22.9844 14.336 22.5337 14.336H19.7803V62.7778H69.0386C69.4893 62.7778 69.855 63.1435 69.855 63.5942C69.855 64.045 69.4893 64.4107 69.0386 64.4107Z" fill="#95A5A5"/>
<path d="M30.2985 55.7914C32.1222 55.7914 33.6005 54.3131 33.6005 52.4895C33.6005 50.6658 32.1222 49.1875 30.2985 49.1875C28.4749 49.1875 26.9966 50.6658 26.9966 52.4895C26.9966 54.3131 28.4749 55.7914 30.2985 55.7914Z" fill="#2980BA"/>
<path d="M42.01 44.6196C43.8336 44.6196 45.3119 43.1412 45.3119 41.3176C45.3119 39.494 43.8336 38.0156 42.01 38.0156C40.1863 38.0156 38.708 39.494 38.708 41.3176C38.708 43.1412 40.1863 44.6196 42.01 44.6196Z" fill="#2980BA"/>
<path d="M53.7207 33.4438C55.5443 33.4438 57.0226 31.9654 57.0226 30.1418C57.0226 28.3182 55.5443 26.8398 53.7207 26.8398C51.897 26.8398 50.4187 28.3182 50.4187 30.1418C50.4187 31.9654 51.897 33.4438 53.7207 33.4438Z" fill="#2980BA"/>
<path d="M65.4321 22.2758C67.2557 22.2758 68.7341 20.7975 68.7341 18.9738C68.7341 17.1502 67.2557 15.6719 65.4321 15.6719C63.6085 15.6719 62.1301 17.1502 62.1301 18.9738C62.1301 20.7975 63.6085 22.2758 65.4321 22.2758Z" fill="#2980BA"/>
<path d="M33.0097 54.3739C31.1768 57.0067 26.9944 55.7179 26.9944 52.4874C26.9944 51.0968 27.846 49.9109 29.0642 49.4258C27.2335 52.0646 29.9437 55.6003 33.0097 54.3739Z" fill="#285680"/>
<path d="M44.717 43.2167C44.1241 44.0683 43.1323 44.6289 42.0111 44.6289C40.1893 44.6289 38.7124 43.1521 38.7124 41.3302C38.7124 39.9395 39.564 38.7537 40.7822 38.2578C38.9425 40.8861 41.6297 44.4519 44.717 43.2167Z" fill="#285680"/>
<path d="M56.435 32.0302C55.8313 32.8926 54.8396 33.4531 53.7184 33.4531C51.8966 33.4531 50.4197 31.9762 50.4197 30.1436C50.4197 28.7529 51.2821 27.5672 52.5002 27.082C50.6224 29.7648 53.3951 33.2458 56.435 32.0302Z" fill="#285680"/>
<path d="M41.5252 31.1031C43.9882 31.1031 45.9849 29.1064 45.9849 26.6433C45.9849 24.1803 43.9882 22.1836 41.5252 22.1836C39.0621 22.1836 37.0654 24.1803 37.0654 26.6433C37.0654 29.1064 39.0621 31.1031 41.5252 31.1031Z" fill="#2980BA"/>
<path d="M45.1913 29.1803C44.3758 30.3453 43.0361 31.1026 41.5216 31.1026C39.0605 31.1026 37.0654 29.1074 37.0654 26.6319C37.0654 24.7533 38.2305 23.1514 39.876 22.4961C37.3393 26.1202 41.0848 30.8225 45.1913 29.1803Z" fill="#285680"/>
<path d="M60.981 47.1773C63.444 47.1773 65.4407 45.1806 65.4407 42.7176C65.4407 40.2545 63.444 38.2578 60.981 38.2578C58.5179 38.2578 56.5212 40.2545 56.5212 42.7176C56.5212 45.1806 58.5179 47.1773 60.981 47.1773Z" fill="#2980BA"/>
<path d="M64.6476 45.2545C63.8321 46.4195 62.4924 47.1768 60.9778 47.1768C58.5168 47.1768 56.5217 45.1817 56.5217 42.7061C56.5217 40.8275 57.6868 39.2256 59.3323 38.5703C56.7956 42.1944 60.5411 46.8967 64.6476 45.2545Z" fill="#285680"/>
<path d="M48.132 57.0667C50.3563 57.0667 52.1594 55.2635 52.1594 53.0392C52.1594 50.8149 50.3563 49.0117 48.132 49.0117C45.9077 49.0117 44.1045 50.8149 44.1045 53.0392C44.1045 55.2635 45.9077 57.0667 48.132 57.0667Z" fill="#2980BA"/>
<path d="M51.444 55.3416C50.7075 56.3938 49.4975 57.0777 48.1296 57.0777C45.9068 57.0777 44.105 55.2758 44.105 53.04C44.105 51.3433 45.1572 49.8966 46.6434 49.3047C44.3523 52.5778 47.7351 56.8248 51.444 55.3416Z" fill="#285680"/>
<path d="M30.9722 44.2476C33.4353 44.2476 35.432 42.2509 35.432 39.7879C35.432 37.3248 33.4353 35.3281 30.9722 35.3281C28.5092 35.3281 26.5125 37.3248 26.5125 39.7879C26.5125 42.2509 28.5092 44.2476 30.9722 44.2476Z" fill="#2980BA"/>
<path d="M34.6388 42.3366C33.8233 43.5016 32.4836 44.2588 30.9691 44.2588C28.508 44.2588 26.5129 42.2637 26.5129 39.7881C26.5129 37.9095 27.678 36.3077 29.3235 35.6523C26.7868 39.2764 30.5323 43.9788 34.6388 42.3366Z" fill="#285680"/>
<path d="M68.1422 20.8621C66.309 23.4955 62.127 22.2056 62.127 18.9756C62.127 17.585 62.9894 16.3992 64.2075 15.9141C62.3616 18.5508 65.0691 22.0916 68.1422 20.8621Z" fill="#285680"/>
<path d="M15.4152 73.1822H14.087C14.0492 72.9644 13.9793 72.7714 13.8775 72.6033C13.7757 72.4329 13.6491 72.2885 13.4976 72.1701C13.346 72.0517 13.1732 71.9629 12.9791 71.9038C12.7873 71.8422 12.5802 71.8114 12.3576 71.8114C11.9623 71.8114 11.6119 71.9109 11.3065 72.1097C11.0011 72.3062 10.762 72.5951 10.5892 72.9762C10.4164 73.355 10.3299 73.8178 10.3299 74.3647C10.3299 74.921 10.4164 75.3898 10.5892 75.771C10.7644 76.1497 11.0035 76.4362 11.3065 76.6303C11.6119 76.8221 11.9611 76.918 12.3541 76.918C12.5719 76.918 12.7755 76.8896 12.9649 76.8327C13.1566 76.7736 13.3283 76.6871 13.4798 76.5735C13.6337 76.4599 13.7627 76.3202 13.8669 76.1545C13.9734 75.9888 14.0468 75.7994 14.087 75.5863L15.4152 75.5934C15.3655 75.939 15.2577 76.2634 15.092 76.5664C14.9287 76.8694 14.7144 77.137 14.4493 77.369C14.1841 77.5986 13.874 77.7785 13.5189 77.9087C13.1638 78.0366 12.7696 78.1005 12.3363 78.1005C11.6971 78.1005 11.1266 77.9525 10.6247 77.6566C10.1228 77.3607 9.72744 76.9334 9.43861 76.3746C9.14978 75.8159 9.00537 75.146 9.00537 74.3647C9.00537 73.5811 9.15097 72.9111 9.44216 72.3548C9.73335 71.796 10.1299 71.3687 10.6318 71.0728C11.1337 70.7769 11.7019 70.6289 12.3363 70.6289C12.7412 70.6289 13.1176 70.6857 13.4656 70.7994C13.8136 70.913 14.1237 71.0799 14.396 71.3001C14.6683 71.5179 14.892 71.7854 15.0672 72.1026C15.2447 72.4175 15.3607 72.7773 15.4152 73.1822Z" fill="#018C81"/>
<path d="M23.2203 74.3647C23.2203 75.1483 23.0735 75.8195 22.7799 76.3782C22.4887 76.9345 22.091 77.3607 21.5867 77.6566C21.0848 77.9525 20.5155 78.1005 19.8786 78.1005C19.2418 78.1005 18.6712 77.9525 18.167 77.6566C17.6651 77.3583 17.2674 76.931 16.9738 76.3746C16.6826 75.8159 16.537 75.146 16.537 74.3647C16.537 73.5811 16.6826 72.9111 16.9738 72.3548C17.2674 71.796 17.6651 71.3687 18.167 71.0728C18.6712 70.7769 19.2418 70.6289 19.8786 70.6289C20.5155 70.6289 21.0848 70.7769 21.5867 71.0728C22.091 71.3687 22.4887 71.796 22.7799 72.3548C23.0735 72.9111 23.2203 73.5811 23.2203 74.3647ZM21.8957 74.3647C21.8957 73.8131 21.8093 73.3479 21.6364 72.9691C21.466 72.588 21.2292 72.3003 20.9262 72.1062C20.6232 71.9097 20.274 71.8114 19.8786 71.8114C19.4833 71.8114 19.1341 71.9097 18.831 72.1062C18.528 72.3003 18.2901 72.588 18.1173 72.9691C17.9468 73.3479 17.8616 73.8131 17.8616 74.3647C17.8616 74.9163 17.9468 75.3827 18.1173 75.7638C18.2901 76.1426 18.528 76.4303 18.831 76.6268C19.1341 76.8209 19.4833 76.918 19.8786 76.918C20.274 76.918 20.6232 76.8209 20.9262 76.6268C21.2292 76.4303 21.466 76.1426 21.6364 75.7638C21.8093 75.3827 21.8957 74.9163 21.8957 74.3647Z" fill="#018C81"/>
<path d="M24.5658 78.0011V70.7283H27.2931C27.8518 70.7283 28.3205 70.8254 28.6993 71.0195C29.0805 71.2137 29.3681 71.4859 29.5623 71.8363C29.7588 72.1843 29.857 72.5903 29.857 73.0543C29.857 73.5207 29.7576 73.9255 29.5587 74.2688C29.3622 74.6097 29.0722 74.8737 28.6887 75.0607C28.3052 75.2454 27.834 75.3377 27.2753 75.3377H25.3329V74.244H27.0978C27.4245 74.244 27.692 74.199 27.9003 74.109C28.1087 74.0167 28.2625 73.8829 28.362 73.7077C28.4638 73.5302 28.5147 73.3124 28.5147 73.0543C28.5147 72.7963 28.4638 72.5761 28.362 72.3938C28.2602 72.2092 28.1051 72.0695 27.8968 71.9748C27.6884 71.8777 27.4197 71.8292 27.0907 71.8292H25.8833V78.0011H24.5658ZM28.3229 74.7056L30.1233 78.0011H28.6532L26.8847 74.7056H28.3229Z" fill="#018C81"/>
<path d="M31.1697 78.0011V70.7283H33.897C34.4557 70.7283 34.9245 70.8254 35.3032 71.0195C35.6844 71.2137 35.972 71.4859 36.1662 71.8363C36.3627 72.1843 36.4609 72.5903 36.4609 73.0543C36.4609 73.5207 36.3615 73.9255 36.1626 74.2688C35.9661 74.6097 35.6761 74.8737 35.2926 75.0607C34.9091 75.2454 34.4379 75.3377 33.8792 75.3377H31.9368V74.244H33.7017C34.0284 74.244 34.2959 74.199 34.5042 74.109C34.7126 74.0167 34.8664 73.8829 34.9659 73.7077C35.0677 73.5302 35.1186 73.3124 35.1186 73.0543C35.1186 72.7963 35.0677 72.5761 34.9659 72.3938C34.8641 72.2092 34.709 72.0695 34.5007 71.9748C34.2923 71.8777 34.0236 71.8292 33.6946 71.8292H32.4872V78.0011H31.1697ZM34.9268 74.7056L36.7272 78.0011H35.2571L33.4886 74.7056H34.9268Z" fill="#018C81"/>
<path d="M37.7736 78.0011V70.7283H42.5037V71.8327H39.0911V73.8072H42.2587V74.9116H39.0911V76.8967H42.5321V78.0011H37.7736Z" fill="#018C81"/>
<path d="M43.9478 78.0011V70.7283H45.2653V76.8967H48.4684V78.0011H43.9478Z" fill="#018C81"/>
<path d="M50.9193 78.0011H49.513L52.0734 70.7283H53.6998L56.2638 78.0011H54.8575L52.915 72.2198H52.8582L50.9193 78.0011ZM50.9655 75.1495H54.8007V76.2077H50.9655V75.1495Z" fill="#018C81"/>
<path d="M56.1232 71.8327V70.7283H61.9257V71.8327H59.6779V78.0011H58.371V71.8327H56.1232Z" fill="#018C81"/>
<path d="M64.4618 70.7283V78.0011H63.1443V70.7283H64.4618Z" fill="#018C81"/>
<path d="M72.4871 74.3647C72.4871 75.1483 72.3403 75.8195 72.0467 76.3782C71.7555 76.9345 71.3578 77.3607 70.8535 77.6566C70.3516 77.9525 69.7823 78.1005 69.1454 78.1005C68.5086 78.1005 67.938 77.9525 67.4338 77.6566C66.9319 77.3583 66.5342 76.931 66.2406 76.3746C65.9494 75.8159 65.8038 75.146 65.8038 74.3647C65.8038 73.5811 65.9494 72.9111 66.2406 72.3548C66.5342 71.796 66.9319 71.3687 67.4338 71.0728C67.938 70.7769 68.5086 70.6289 69.1454 70.6289C69.7823 70.6289 70.3516 70.7769 70.8535 71.0728C71.3578 71.3687 71.7555 71.796 72.0467 72.3548C72.3403 72.9111 72.4871 73.5811 72.4871 74.3647ZM71.1625 74.3647C71.1625 73.8131 71.0761 73.3479 70.9032 72.9691C70.7328 72.588 70.496 72.3003 70.193 72.1062C69.89 71.9097 69.5408 71.8114 69.1454 71.8114C68.7501 71.8114 68.4009 71.9097 68.0978 72.1062C67.7948 72.3003 67.5569 72.588 67.3841 72.9691C67.2136 73.3479 67.1284 73.8131 67.1284 74.3647C67.1284 74.9163 67.2136 75.3827 67.3841 75.7638C67.5569 76.1426 67.7948 76.4303 68.0978 76.6268C68.4009 76.8209 68.7501 76.918 69.1454 76.918C69.5408 76.918 69.89 76.8209 70.193 76.6268C70.496 76.4303 70.7328 76.1426 70.9032 75.7638C71.0761 75.3827 71.1625 74.9163 71.1625 74.3647Z" fill="#018C81"/>
<path d="M79.8092 70.7283V78.0011H78.6373L75.2104 73.0472H75.1501V78.0011H73.8326V70.7283H75.0116L78.4349 75.6857H78.4988V70.7283H79.8092Z" fill="#018C81"/>
</svg>
