<svg width="88" height="88" viewBox="0 0 88 88" fill="none" xmlns="http://www.w3.org/2000/svg">
<rect width="88" height="88" rx="8" fill="#F8F9FC"/>
<path d="M52.0862 30.959V33.6675L54.0831 33.2718V30.959H52.0862Z" fill="#EFE7E4"/>
<path d="M66.958 40.5822L65.9307 22.8002C65.8789 21.9036 65.4953 21.0976 64.9004 20.5027C64.3056 19.9079 63.4995 19.5243 62.603 19.4725L44.821 18.4452C44.1788 18.4081 43.5513 18.647 43.0964 19.1019L16.6839 45.5143C15.5624 46.6358 15.5624 48.4539 16.6839 49.5753L26.2558 59.1473L35.8277 68.7192C36.9492 69.8407 38.7673 69.8407 39.8888 68.7192L66.3013 42.3067C66.7562 41.8519 66.9951 41.2244 66.958 40.5822ZM56.2401 33.6665C53.7059 33.6665 51.7367 31.7935 51.7367 29.1631C51.7367 26.5301 53.871 24.3958 56.504 24.3958C59.066 24.3958 61.0074 26.2986 61.0074 28.8992C61.0074 31.532 58.8729 33.6665 56.2401 33.6665Z" fill="#2980BA"/>
<path d="M61.3985 20.535L61.876 28.7996L64.2265 32.3132L66.53 33.1693L65.931 22.8012C65.8274 21.0079 64.3964 19.577 62.6031 19.4734L61.1372 19.3887C61.2844 19.7449 61.3752 20.1308 61.3985 20.535Z" fill="#285680"/>
<path d="M66.3014 42.3077C66.7563 41.8528 66.9952 41.2253 66.9581 40.583L66.9075 39.7071C65.8465 37.2055 63.8334 32.5215 63.8334 32.5215H62.0909L62.4257 38.3168C62.4628 38.9591 62.2239 39.5865 61.7689 40.0415L35.3565 66.454C35.0344 66.7761 34.6547 67.0057 34.2505 67.1428L35.8278 68.7202C36.9493 69.8416 38.7674 69.8416 39.8889 68.7202L66.3014 42.3077Z" fill="#285680"/>
<path d="M71.054 42.9151C68.3813 32.9404 61.8543 26.315 56.1947 27.831C54.5453 28.2729 53.1513 29.3462 52.0862 30.9564C52.4816 31.9286 53.1886 32.7409 54.0831 33.2693C54.8207 31.854 55.8062 30.9259 56.9424 30.6214C57.2275 30.545 57.5239 30.5074 57.8295 30.5074C59.4059 30.5074 61.222 31.5098 62.9479 33.3639C65.2624 35.8503 67.15 39.5079 68.2633 43.6627C69.3766 47.8176 69.5706 51.9291 68.8094 55.2397C68.1318 58.1868 66.7359 60.147 64.9797 60.6175C63.2236 61.0879 61.0346 60.0884 58.9742 57.875C57.728 56.5362 56.6055 54.8579 55.6611 52.9453L53.5156 55.0907C56.3321 60.3312 60.2953 63.6238 64.0807 63.6238C64.6349 63.6238 65.1851 63.5533 65.7275 63.408C71.3871 61.8917 73.7268 52.8901 71.054 42.9151Z" fill="#95A5A5"/>
<path d="M21.5654 47.0439C21.2881 47.3212 21.2881 47.7708 21.5654 48.0482L37.3564 63.8393C37.6337 64.1166 38.0834 64.1166 38.3608 63.8393L57.6928 44.5072C57.9701 44.23 57.9701 43.7803 57.6928 43.5029L41.9016 27.7119C41.6244 27.4346 41.1747 27.4346 40.8973 27.7119L21.5654 47.0439Z" fill="white"/>
<path d="M57.6925 44.5071C57.9698 44.2299 57.9698 43.7802 57.6925 43.5028L41.9014 27.7119C41.6241 27.4346 41.1745 27.4346 40.8971 27.7119L40.2661 28.3429L51.6225 39.6993C52.7489 40.8257 52.7489 42.6521 51.6225 43.7785L34.459 60.9421L37.3561 63.8392C37.6334 64.1165 38.083 64.1165 38.3604 63.8392L57.6925 44.5071Z" fill="#F9F6F6"/>
<path d="M47.4527 37.95C46.8995 37.3969 46.0028 37.3969 45.4496 37.95L44.3524 39.0473C42.4811 37.6507 39.8121 37.8019 38.1137 39.5003C36.2494 41.3647 36.2494 44.3982 38.1137 46.2625L39.1402 47.289C39.9019 48.0506 39.902 49.2833 39.1402 50.0451C38.3787 50.8068 37.1459 50.8069 36.3841 50.0451L35.3576 49.0187C34.8926 48.5538 34.6942 47.8906 34.827 47.245C34.9845 46.4788 34.491 45.73 33.7248 45.5725C32.9584 45.4149 32.2097 45.9085 32.0523 46.6747C31.7742 48.0276 32.0903 49.4122 32.9015 50.4983L31.8043 51.5955C31.2511 52.1486 31.2511 53.0455 31.8043 53.5985C32.3573 54.1517 33.2541 54.1517 33.8073 53.5985L34.9042 52.5016C36.7424 53.8778 39.4132 53.7784 41.1433 52.0481C43.012 50.1795 43.0124 47.1548 41.1433 45.286L40.1169 44.2593C39.3571 43.4995 39.3571 42.2631 40.1169 41.5032C40.8767 40.7434 42.1132 40.7434 42.873 41.5032L43.8995 42.5296C44.3645 42.9947 44.5628 43.6578 44.43 44.3033C44.2725 45.0695 44.766 45.8183 45.5322 45.9759C46.298 46.133 47.0474 45.64 47.2049 44.8737C47.4829 43.521 47.1669 42.1362 46.3557 41.0501L47.4529 39.9529C48.0058 39.4 48.0058 38.5031 47.4527 37.95Z" fill="#018C81"/>
</svg>
