<svg width="88" height="88" viewBox="0 0 88 88" fill="none" xmlns="http://www.w3.org/2000/svg">
<rect width="88" height="88" rx="8" fill="#F8F9FC"/>
<path d="M23.6913 42.6465C22.944 42.6465 22.3374 42.0413 22.3374 41.2926V30.4613C22.3374 29.7126 22.944 29.1074 23.6913 29.1074C24.4387 29.1074 25.0452 29.7126 25.0452 30.4613V41.2926C25.0452 42.0413 24.4387 42.6465 23.6913 42.6465Z" fill="#788181"/>
<path d="M23.6913 69.7247C22.944 69.7247 22.3374 69.1195 22.3374 68.3708V57.5395C22.3374 56.7907 22.944 56.1855 23.6913 56.1855C24.4387 56.1855 25.0452 56.7907 25.0452 57.5395V68.3708C25.0452 69.1195 24.4387 69.7247 23.6913 69.7247Z" fill="#788181"/>
<path d="M37.2306 35.877C36.4833 35.877 35.8767 35.2718 35.8767 34.5231V23.6918C35.8767 22.9431 36.4833 22.3379 37.2306 22.3379C37.978 22.3379 38.5845 22.9431 38.5845 23.6918V34.5231C38.5845 35.2718 37.978 35.877 37.2306 35.877Z" fill="#285680"/>
<path d="M37.2306 62.9551C36.4833 62.9551 35.8767 62.3499 35.8767 61.6012V50.7699C35.8767 50.0212 36.4833 49.416 37.2306 49.416C37.978 49.416 38.5845 50.0212 38.5845 50.7699V61.6012C38.5845 62.3499 37.978 62.9551 37.2306 62.9551Z" fill="#285680"/>
<path d="M50.7697 44.0001C50.0223 44.0001 49.4158 43.3949 49.4158 42.6462V31.8149C49.4158 31.0661 50.0223 30.4609 50.7697 30.4609C51.517 30.4609 52.1236 31.0661 52.1236 31.8149V42.6462C52.1236 43.3949 51.517 44.0001 50.7697 44.0001Z" fill="#788181"/>
<path d="M50.7697 71.0782C50.0223 71.0782 49.4158 70.473 49.4158 69.7243V58.893C49.4158 58.1443 50.0223 57.5391 50.7697 57.5391C51.517 57.5391 52.1236 58.1443 52.1236 58.893V69.7243C52.1236 70.473 51.517 71.0782 50.7697 71.0782Z" fill="#788181"/>
<path d="M64.3087 30.461C63.5614 30.461 62.9548 29.8558 62.9548 29.1071V18.2758C62.9548 17.5271 63.5614 16.9219 64.3087 16.9219C65.0561 16.9219 65.6627 17.5271 65.6627 18.2758V29.1071C65.6627 29.8558 65.0561 30.461 64.3087 30.461Z" fill="#285680"/>
<path d="M64.3087 57.5391C63.5614 57.5391 62.9548 56.9339 62.9548 56.1852V45.3539C62.9548 44.6052 63.5614 44 64.3087 44C65.0561 44 65.6627 44.6052 65.6627 45.3539V56.1852C65.6627 56.9339 65.0561 57.5391 64.3087 57.5391Z" fill="#285680"/>
<path d="M19.6294 41.291H27.7529V57.538H19.6294V41.291Z" fill="#95A5A5"/>
<path d="M33.1687 34.5234H41.2922V50.7704H33.1687V34.5234Z" fill="#2980BA"/>
<path d="M46.7078 42.6445H54.8312V58.8915H46.7078V42.6445Z" fill="#95A5A5"/>
<path d="M60.2471 29.1074H68.3705V45.3544H60.2471V29.1074Z" fill="#2980BA"/>
<path d="M27.7529 53.4762V57.538H19.6294V41.291H23.6911V49.4145C23.6911 51.662 25.5054 53.4762 27.7529 53.4762Z" fill="#788181"/>
<path d="M41.2922 46.7087V50.7704H33.1687V34.5234H37.2304V42.6469C37.2304 44.8944 39.0447 46.7087 41.2922 46.7087Z" fill="#285680"/>
<path d="M54.8312 54.8297V58.8915H46.7078V42.6445H50.7695V50.768C50.7695 53.0155 52.5837 54.8297 54.8312 54.8297Z" fill="#788181"/>
<path d="M68.3705 41.2926V45.3544H60.2471V29.1074H64.3088V37.2309C64.3088 39.4784 66.1231 41.2926 68.3705 41.2926Z" fill="#285680"/>
</svg>
