<svg width="58" height="52" viewBox="0 0 58 52" fill="none" xmlns="http://www.w3.org/2000/svg">
<path d="M37.0862 12.959V15.6675L39.0831 15.2718V12.959H37.0862Z" fill="#EFE7E4"/>
<path d="M51.958 22.5822L50.9307 4.80019C50.8789 3.90355 50.4953 3.09755 49.9004 2.50273C49.3056 1.90791 48.4995 1.52426 47.603 1.47246L29.821 0.445159C29.1788 0.408092 28.5513 0.646989 28.0964 1.10191L1.68386 27.5143C0.562411 28.6358 0.562411 30.4539 1.68386 31.5753L11.2558 41.1473L20.8277 50.7192C21.9492 51.8407 23.7673 51.8407 24.8888 50.7192L51.3013 24.3067C51.7562 23.8519 51.9951 23.2244 51.958 22.5822V22.5822ZM41.2401 15.6665C38.7059 15.6665 36.7367 13.7935 36.7367 11.1631C36.7367 8.53015 38.871 6.3958 41.504 6.3958C44.066 6.3958 46.0074 8.29862 46.0074 10.8992C46.0074 13.532 43.8729 15.6665 41.2401 15.6665Z" fill="#2980BA"/>
<path d="M46.3985 2.53498L46.876 10.7996L49.2265 14.3132L51.53 15.1693L50.931 4.8012C50.8274 3.00794 49.3964 1.57697 47.6031 1.47336L46.1372 1.38867C46.2844 1.74493 46.3752 2.13077 46.3985 2.53498V2.53498Z" fill="#285680"/>
<path d="M51.3014 24.3077C51.7563 23.8528 51.9952 23.2253 51.9581 22.583L51.9075 21.7071C50.8465 19.2055 48.8334 14.5215 48.8334 14.5215H47.0909L47.4257 20.3168C47.4628 20.9591 47.2239 21.5865 46.7689 22.0415L20.3565 48.454C20.0344 48.7761 19.6547 49.0057 19.2505 49.1428L20.8278 50.7202C21.9493 51.8416 23.7674 51.8416 24.8889 50.7202L51.3014 24.3077Z" fill="#285680"/>
<path d="M56.054 24.9151C53.3813 14.9404 46.8543 8.315 41.1947 9.83098C39.5453 10.2729 38.1513 11.3462 37.0862 12.9564C37.4816 13.9286 38.1886 14.7409 39.0831 15.2693C39.8207 13.854 40.8062 12.9259 41.9424 12.6214C42.2275 12.545 42.5239 12.5074 42.8295 12.5074C44.4059 12.5074 46.222 13.5098 47.9479 15.3639C50.2624 17.8503 52.15 21.5079 53.2633 25.6627C54.3766 29.8176 54.5706 33.9291 53.8094 37.2397C53.1318 40.1868 51.7359 42.147 49.9797 42.6175C48.2236 43.0879 46.0346 42.0884 43.9742 39.875C42.728 38.5362 41.6055 36.8579 40.6611 34.9453L38.5156 37.0907C41.3321 42.3312 45.2953 45.6238 49.0807 45.6238C49.6349 45.6238 50.1851 45.5533 50.7275 45.408C56.3871 43.8917 58.7268 34.8901 56.054 24.9151V24.9151Z" fill="#95A5A5"/>
<path d="M6.56538 29.0439C6.2881 29.3212 6.2881 29.7708 6.56538 30.0482L22.3564 45.8393C22.6337 46.1166 23.0834 46.1166 23.3608 45.8393L42.6928 26.5072C42.9701 26.23 42.9701 25.7803 42.6928 25.5029L26.9016 9.71187C26.6244 9.43459 26.1747 9.43459 25.8973 9.71187L6.56538 29.0439Z" fill="white"/>
<path d="M42.6925 26.5071C42.9698 26.2299 42.9698 25.7802 42.6925 25.5028L26.9014 9.71187C26.6241 9.43459 26.1745 9.43459 25.8971 9.71187L25.2661 10.3429L36.6225 21.6993C37.7489 22.8257 37.7489 24.6521 36.6225 25.7785L19.459 42.9421L22.3561 45.8392C22.6334 46.1165 23.083 46.1165 23.3604 45.8392L42.6925 26.5071Z" fill="#F9F6F6"/>
<path d="M32.4527 19.95C31.8995 19.3969 31.0028 19.3969 30.4496 19.95L29.3524 21.0473C27.4811 19.6507 24.8121 19.8019 23.1137 21.5003C21.2494 23.3647 21.2494 26.3982 23.1137 28.2625L24.1402 29.289C24.9019 30.0506 24.902 31.2833 24.1402 32.0451C23.3787 32.8068 22.1459 32.8069 21.3841 32.0451L20.3576 31.0187C19.8926 30.5538 19.6942 29.8906 19.827 29.245C19.9845 28.4788 19.491 27.73 18.7248 27.5725C17.9584 27.4149 17.2097 27.9085 17.0523 28.6747C16.7742 30.0276 17.0903 31.4122 17.9015 32.4983L16.8043 33.5955C16.2511 34.1486 16.2511 35.0455 16.8043 35.5985C17.3573 36.1517 18.2541 36.1517 18.8073 35.5985L19.9042 34.5016C21.7424 35.8778 24.4132 35.7784 26.1433 34.0481C28.012 32.1795 28.0124 29.1548 26.1433 27.286L25.1169 26.2593C24.3571 25.4995 24.3571 24.2631 25.1169 23.5032C25.8767 22.7434 27.1132 22.7434 27.873 23.5032L28.8995 24.5296C29.3645 24.9947 29.5628 25.6578 29.43 26.3033C29.2725 27.0695 29.766 27.8183 30.5322 27.9759C31.298 28.133 32.0474 27.64 32.2049 26.8737C32.4829 25.521 32.1669 24.1362 31.3557 23.0501L32.4529 21.9529C33.0058 21.4 33.0058 20.5031 32.4527 19.95V19.95Z" fill="#018C81"/>
</svg>
