<svg width="88" height="88" viewBox="0 0 88 88" fill="none" xmlns="http://www.w3.org/2000/svg">
<rect width="88" height="88" rx="8" fill="#F8F9FC"/>
<path opacity="0.1" d="M64.6429 35.1576L22.1768 18.9414L23.4444 52.4281L64.6429 35.1576Z" fill="url(#paint0_linear_793_71153)"/>
<path d="M19.3977 61.8317V60.7273H25.2003V61.8317H22.9524V68H21.6456V61.8317H19.3977ZM26.3189 68V60.7273H29.0462C29.6049 60.7273 30.0736 60.8243 30.4524 61.0185C30.8336 61.2126 31.1212 61.4848 31.3153 61.8352C31.5118 62.1832 31.6101 62.5893 31.6101 63.0533C31.6101 63.5196 31.5107 63.9245 31.3118 64.2678C31.1153 64.6087 30.8253 64.8726 30.4418 65.0597C30.0582 65.2443 29.5871 65.3366 29.0284 65.3366H27.0859V64.2429H28.8509C29.1776 64.2429 29.4451 64.1979 29.6534 64.108C29.8617 64.0156 30.0156 63.8819 30.1151 63.7067C30.2169 63.5291 30.2678 63.3113 30.2678 63.0533C30.2678 62.7952 30.2169 62.575 30.1151 62.3928C30.0133 62.2081 29.8582 62.0684 29.6499 61.9737C29.4415 61.8767 29.1728 61.8281 28.8438 61.8281H27.6364V68H26.3189ZM30.076 64.7045L31.8764 68H30.4062L28.6378 64.7045H30.076ZM34.1403 60.7273V68H32.8228V60.7273H34.1403ZM36.5009 68H35.0946L37.655 60.7273H39.2814L41.8453 68H40.4391L38.4966 62.2188H38.4398L36.5009 68ZM36.5471 65.1484H40.3823V66.2067H36.5471V65.1484ZM48.7798 60.7273V68H47.608L44.1811 63.0462H44.1207V68H42.8033V60.7273H43.9822L47.4055 65.6847H47.4695V60.7273H48.7798ZM55.0875 63.0497C55.0284 62.858 54.9467 62.6863 54.8425 62.5348C54.7407 62.3809 54.6176 62.2495 54.4732 62.1406C54.3311 62.0317 54.1678 61.95 53.9831 61.8956C53.7985 61.8388 53.5972 61.8104 53.3794 61.8104C52.9888 61.8104 52.6408 61.9086 52.3354 62.1051C52.03 62.3016 51.7897 62.5904 51.6145 62.9716C51.4417 63.3504 51.3553 63.812 51.3553 64.3565C51.3553 64.9058 51.4417 65.371 51.6145 65.7521C51.7873 66.1333 52.0276 66.4233 52.3354 66.6222C52.6432 66.8187 53.0007 66.9169 53.4078 66.9169C53.7772 66.9169 54.0968 66.8459 54.3667 66.7038C54.6389 66.5618 54.8484 66.3606 54.9952 66.1001C55.142 65.8374 55.2154 65.5296 55.2154 65.1768L55.5137 65.223H53.5392V64.1932H56.4902V65.0668C56.4902 65.6894 56.3577 66.228 56.0925 66.6825C55.8274 67.1371 55.4628 67.4875 54.9988 67.7337C54.5347 67.9775 54.0021 68.0994 53.4007 68.0994C52.7308 68.0994 52.1425 67.9491 51.6358 67.6484C51.1316 67.3454 50.7374 66.9157 50.4533 66.3594C50.1716 65.8007 50.0307 65.1378 50.0307 64.3707C50.0307 63.7836 50.1136 63.2592 50.2793 62.7976C50.4474 62.3359 50.6818 61.9441 50.9824 61.6222C51.2831 61.2978 51.6358 61.0516 52.0407 60.8835C52.4455 60.7131 52.8858 60.6278 53.3617 60.6278C53.7641 60.6278 54.1394 60.687 54.4874 60.8054C54.8354 60.9214 55.1444 61.0871 55.4142 61.3026C55.6865 61.518 55.9102 61.7737 56.0854 62.0696C56.2606 62.3655 56.3754 62.6922 56.4299 63.0497H55.0875ZM57.7642 68V60.7273H59.0817V66.8956H62.2848V68H57.7642ZM63.4283 68V60.7273H68.1584V61.8317H64.7457V63.8061H67.9134V64.9105H64.7457V66.8956H68.1868V68H63.4283Z" fill="#018C81"/>
<path d="M22.9001 19.1172L66.3901 35.058L23.9963 52.0017" stroke="#2980BA" stroke-width="1.5" stroke-linecap="round" stroke-linejoin="round"/>
<path d="M13.123 50L24.9646 21.2043L30.0001 48.2532L35.559 25.1075L42.1822 43.3507L46.3866 29.0705L53.6889 38.8404L67.4984 20L72.5792 25.9341" stroke="#36D39F" stroke-linecap="round" stroke-linejoin="round"/>
<path d="M24.959 21.207L30 48.2491" stroke="#EF4352" stroke-linecap="round"/>
<path d="M35.5659 25.1211L42.1877 43.3523" stroke="#EF4352" stroke-linecap="round"/>
<path d="M46.3901 29.0625L53.6911 38.8446" stroke="#EF4352" stroke-linecap="round"/>
<path d="M22.2173 78V70.7273H24.9446C25.5033 70.7273 25.9721 70.8314 26.3509 71.0398C26.732 71.2481 27.0196 71.5346 27.2138 71.8991C27.4103 72.2614 27.5085 72.6733 27.5085 73.1349C27.5085 73.6013 27.4103 74.0156 27.2138 74.3778C27.0173 74.7401 26.7273 75.0253 26.3438 75.2337C25.9602 75.4396 25.4879 75.5426 24.9268 75.5426H23.1193V74.4595H24.7493C25.076 74.4595 25.3435 74.4027 25.5518 74.2891C25.7602 74.1754 25.9141 74.0192 26.0135 73.8203C26.1153 73.6214 26.1662 73.393 26.1662 73.1349C26.1662 72.8769 26.1153 72.6496 26.0135 72.4531C25.9141 72.2566 25.759 72.1039 25.5483 71.995C25.34 71.8838 25.0713 71.8281 24.7422 71.8281H23.5348V78H22.2173ZM28.7763 78H27.37L29.9304 70.7273H31.5568L34.1207 78H32.7145L30.772 72.2188H30.7152L28.7763 78ZM28.8224 75.1484H32.6577V76.2067H28.8224V75.1484ZM33.8801 71.8317V70.7273H39.6827V71.8317H37.4348V78H36.128V71.8317H33.8801ZM40.4817 71.8317V70.7273H46.2843V71.8317H44.0364V78H42.7296V71.8317H40.4817ZM47.4029 78V70.7273H52.133V71.8317H48.7203V73.8061H51.888V74.9105H48.7203V76.8956H52.1614V78H47.4029ZM53.4771 78V70.7273H56.2044C56.7631 70.7273 57.2318 70.8243 57.6106 71.0185C57.9918 71.2126 58.2794 71.4848 58.4735 71.8352C58.67 72.1832 58.7683 72.5893 58.7683 73.0533C58.7683 73.5196 58.6689 73.9245 58.47 74.2678C58.2735 74.6087 57.9835 74.8726 57.6 75.0597C57.2164 75.2443 56.7453 75.3366 56.1866 75.3366H54.2441V74.2429H56.0091C56.3358 74.2429 56.6033 74.1979 56.8116 74.108C57.0199 74.0156 57.1738 73.8819 57.2733 73.7067C57.3751 73.5291 57.426 73.3113 57.426 73.0533C57.426 72.7952 57.3751 72.575 57.2733 72.3928C57.1715 72.2081 57.0164 72.0684 56.8081 71.9737C56.5997 71.8767 56.331 71.8281 56.002 71.8281H54.7946V78H53.4771ZM57.2342 74.7045L59.0346 78H57.5645L55.796 74.7045H57.2342ZM65.9576 70.7273V78H64.7857L61.3588 73.0462H61.2985V78H59.981V70.7273H61.16L64.5833 75.6847H64.6472V70.7273H65.9576Z" fill="#018C81"/>
<defs>
<linearGradient id="paint0_linear_793_71153" x1="24.1962" y1="18.9414" x2="39.0918" y2="81.5579" gradientUnits="userSpaceOnUse">
<stop stop-color="#285680"/>
<stop offset="1" stop-color="#285680" stop-opacity="0"/>
</linearGradient>
</defs>
</svg>
