<svg width="88" height="88" viewBox="0 0 88 88" fill="none" xmlns="http://www.w3.org/2000/svg">
<rect width="88" height="88" rx="8" fill="#F8F9FC"/>
<path d="M12.825 62.0547H16.0343V75.7156H12.825V62.0547Z" fill="#2980BA"/>
<path d="M16.0343 72.3004V75.7156H12.825V62.0547H14.4296V68.8852C14.4296 70.7749 15.1464 72.3004 16.0343 72.3004Z" fill="#285680"/>
<path d="M17.0342 64.3398H20.2436V78.6624H17.0342V64.3398Z" fill="#2980BA"/>
<path d="M20.2436 76.085V80H17.0342V64.3398H18.6389V72.1699C18.6389 74.3362 19.3556 76.085 20.2436 76.085Z" fill="#285680"/>
<path d="M21.2437 65.5664H24.453V74.7156H21.2437V65.5664Z" fill="#2980BA"/>
<path d="M24.453 72.4283V74.7156H21.2437V65.5664H22.8483V70.141C22.8483 71.4067 23.5651 72.4283 24.453 72.4283Z" fill="#285680"/>
<path d="M25.4531 62.5664H28.6625V68.9852H25.4531V62.5664Z" fill="#2980BA"/>
<path d="M28.6625 68.4744V70.4437H25.4531V62.5664H27.0578V66.505C27.0578 67.5947 27.7746 68.4744 28.6625 68.4744Z" fill="#285680"/>
<path d="M31.2673 70.5326C30.9721 70.5326 30.7324 70.2935 30.7324 69.9977V65.7185C30.7324 65.4227 30.9721 65.1836 31.2673 65.1836C31.5626 65.1836 31.8022 65.4227 31.8022 65.7185V69.9977C31.8022 70.2935 31.5626 70.5326 31.2673 70.5326Z" fill="#285680"/>
<path d="M29.6626 65.1836H32.872V71.8254H29.6626V65.1836Z" fill="#2980BA"/>
<path d="M32.872 70.1649V71.8254H29.6626V65.1836H31.2673V68.5045C31.2673 69.4233 31.984 70.1649 32.872 70.1649Z" fill="#285680"/>
<path d="M33.8721 58.4414H37.0814V68.898H33.8721V58.4414Z" fill="#2980BA"/>
<path d="M37.0814 66.3662V69.0078H33.8721V58.4414H35.4768V63.7246C35.4768 65.1863 36.1935 66.3662 37.0814 66.3662Z" fill="#285680"/>
<path d="M38.0813 57.3359H41.2907V67.3016H38.0813V57.3359Z" fill="#2980BA"/>
<path d="M41.2907 64.8887V67.4062H38.0813V57.3359H39.686V62.3711C39.686 63.7642 40.4027 64.8887 41.2907 64.8887Z" fill="#285680"/>
<path d="M44.2905 13.5117H47.4999V32.1482H44.2905V13.5117Z" fill="#2980BA"/>
<path d="M47.4999 27.489V32.1482H44.2905V13.5117H45.8952V22.8299C45.8952 25.408 46.612 27.489 47.4999 27.489Z" fill="#285680"/>
<path d="M48.7095 6.73047H51.9189V26.9688H48.7095V6.73047Z" fill="#2980BA"/>
<path d="M51.9189 21.9092V26.9688H48.7095V6.73047H50.3142V16.8496C50.3142 19.6492 51.0309 21.9092 51.9189 21.9092Z" fill="#285680"/>
<path d="M52.9189 16.543H56.1283V24.5828H52.9189V16.543Z" fill="#2980BA"/>
<path d="M56.1283 23.136V25.3336H52.9189V16.543H54.5236V20.9383C54.5236 22.1543 55.2404 23.136 56.1283 23.136Z" fill="#285680"/>
<path d="M57.1282 17.7305H60.3376V32.1484H57.1282V17.7305Z" fill="#2980BA"/>
<path d="M60.3376 28.5439V32.1484H57.1282V17.7305H58.7329V24.9395C58.7329 26.9339 59.4496 28.5439 60.3376 28.5439Z" fill="#285680"/>
<path d="M61.3374 20H64.5468V28.0484H61.3374V20Z" fill="#2980BA"/>
<path d="M64.5468 27.408V29.8773H61.3374V20H62.9421V24.9386C62.9421 26.305 63.6589 27.408 64.5468 27.408Z" fill="#285680"/>
<path d="M65.5469 17H68.7563V23.4188H65.5469V17Z" fill="#2980BA"/>
<path d="M68.7563 22.908V24.8773H65.5469V17H67.1516V20.9386C67.1516 22.0283 67.8683 22.908 68.7563 22.908Z" fill="#285680"/>
<path d="M69.7563 19.7305H72.9657V26.1492H69.7563V19.7305Z" fill="#2980BA"/>
<path d="M72.9657 24.5445V26.1492H69.7563V19.7305H71.361V22.9398C71.361 23.8278 72.0778 24.5445 72.9657 24.5445Z" fill="#285680"/>
<path d="M73.9658 25.7305H77.1752V32.1492H73.9658V25.7305Z" fill="#2980BA"/>
<path d="M77.1752 30.5445V32.1492H73.9658V25.7305H75.5705V28.9398C75.5705 29.8278 76.2873 30.5445 77.1752 30.5445Z" fill="#285680"/>
<path d="M39.7788 56.4062L42.6656 51.4063L36.8921 51.4062L39.7788 56.4062ZM39.7788 29.8789L36.8921 34.8789L42.6656 34.8789L39.7788 29.8789ZM40.2788 51.9063L40.2788 34.3789L39.2788 34.3789L39.2788 51.9062L40.2788 51.9063Z" fill="#788181"/>
<path d="M24.8718 50C20.4537 50 16.8718 46.4182 16.8718 42C16.8718 37.5818 20.4537 34 24.8718 34C29.29 34 32.8718 37.5818 32.8718 42C32.8718 46.4182 29.29 50 24.8718 50Z" fill="#FA6450"/>
<path d="M18.1026 42C18.1026 37.7889 21.3567 34.3403 25.4872 34.0258C25.2838 34.0105 25.0792 34 24.8718 34C20.4537 34 16.8718 37.5818 16.8718 42C16.8718 46.4182 20.4537 50 24.8718 50C25.0792 50 25.2838 49.9895 25.4872 49.9742C21.3567 49.6597 18.1026 46.2111 18.1026 42Z" fill="#DC4632"/>
<path d="M24.8719 43.8495C24.1922 43.8495 23.6411 43.2984 23.6411 42.6187V37.6956C23.6411 37.0159 24.1922 36.4648 24.8719 36.4648C25.5516 36.4648 26.1027 37.0159 26.1027 37.6956V42.6187C26.1027 43.2984 25.5516 43.8495 24.8719 43.8495Z" fill="#F0F0F0"/>
<path d="M24.8719 47.5397C24.1922 47.5397 23.6411 46.9886 23.6411 46.3089C23.6411 45.6292 24.1922 45.0781 24.8719 45.0781C25.5516 45.0781 26.1027 45.6292 26.1027 46.3089C26.1027 46.9886 25.5516 47.5397 24.8719 47.5397Z" fill="#F0F0F0"/>
</svg>
