<svg width="88" height="88" viewBox="0 0 88 88" fill="none" xmlns="http://www.w3.org/2000/svg">
<rect width="88" height="88" rx="8" fill="#F8F9FC"/>
<path d="M45.025 51.9258C44.5122 51.9258 44.0962 52.3417 44.0962 52.8546V69.5074C44.0962 69.9768 44.4767 70.3573 44.9461 70.3573H53.913C54.3824 70.3573 54.7629 69.9768 54.7629 69.5074V52.7757C54.7629 52.3063 54.3824 51.9258 53.913 51.9258H45.025Z" fill="#2980BA"/>
<path d="M34.358 46.4492C33.8452 46.4492 33.4292 46.9888 33.4292 47.654V69.5073C33.4292 69.9767 33.8097 70.3573 34.2791 70.3573H43.246C43.7154 70.3573 44.0959 69.9767 44.0959 69.5073V47.2992C44.0959 46.8298 43.7154 46.4492 43.246 46.4492H34.358Z" fill="#2980BA"/>
<path d="M13.4093 49.5938C12.8964 49.5938 12.4805 50.0623 12.4805 50.64V69.5052C12.4805 69.9746 12.861 70.3552 13.3304 70.3552H22.2972C22.7666 70.3552 23.1472 69.9746 23.1472 69.5052V50.4437C23.1472 49.9743 22.7666 49.5938 22.2972 49.5938H13.4093Z" fill="#2980BA"/>
<path d="M47.9068 51.9258H45.025C44.5122 51.9258 44.0962 52.3417 44.0962 52.8546V70.3573H46.9784V52.8546C46.9784 52.3417 47.394 51.9258 47.9068 51.9258Z" fill="#285680"/>
<path d="M37.2399 46.4492H34.358C33.8452 46.4492 33.4292 46.9888 33.4292 47.654V70.3573H36.3114V47.654C36.3114 46.9888 36.727 46.4492 37.2399 46.4492Z" fill="#285680"/>
<path d="M16.2911 49.5938H13.4093C12.8964 49.5938 12.4805 50.0623 12.4805 50.64V70.3552H15.3627V50.64C15.3627 50.0623 15.7783 49.5938 16.2911 49.5938Z" fill="#285680"/>
<path d="M55.4991 42.7109C54.9863 42.7109 54.5703 43.1269 54.5703 43.6397V69.5081C54.5703 69.9775 54.9508 70.3581 55.4203 70.3581H64.3871C64.8565 70.3581 65.237 69.9775 65.237 69.5081V43.5609C65.237 43.0915 64.8565 42.7109 64.3871 42.7109H55.4991Z" fill="#2980BA"/>
<path d="M23.8839 42.7109C23.371 42.7109 22.9551 43.1269 22.9551 43.6397V69.5081C22.9551 69.9775 23.3356 70.3581 23.805 70.3581H32.7718C33.2413 70.3581 33.6218 69.9775 33.6218 69.5081V43.5609C33.6218 43.0915 33.2413 42.7109 32.7718 42.7109H23.8839Z" fill="#2980BA"/>
<path d="M58.381 42.7109H55.4991C54.9863 42.7109 54.5703 43.1269 54.5703 43.6394V70.3581H57.4525V43.6394C57.4525 43.1265 57.8681 42.7109 58.381 42.7109Z" fill="#285680"/>
<path d="M26.7657 42.7109H23.8839C23.371 42.7109 22.9551 43.1269 22.9551 43.6394V70.3581H25.8373V43.6394C25.8373 43.1265 26.2529 42.7109 26.7657 42.7109Z" fill="#285680"/>
<path d="M74.5905 33.4941H65.9734C65.4605 33.4941 65.0449 33.9101 65.0449 34.4229V70.3572H74.5905C75.1034 70.3572 75.5193 69.9413 75.5193 69.4284V34.4229C75.5193 33.9101 75.1034 33.4941 74.5905 33.4941Z" fill="#2980BA"/>
<path d="M68.8552 33.4941H65.9734C65.4605 33.4941 65.0449 33.9101 65.0449 34.4229V70.3572H67.9268V34.4229C67.9268 33.9101 68.3424 33.4941 68.8552 33.4941Z" fill="#285680"/>
<path d="M74.4136 16.7656L63.9182 19.0061L71.1062 26.9752L74.4136 16.7656ZM13.6451 37.5683C17.6042 35.1996 20.861 34.0654 23.6956 33.6603C26.5248 33.2559 28.9896 33.5697 31.3853 34.1754C32.5892 34.4798 33.7717 34.8567 34.9835 35.2558C36.187 35.6521 37.428 36.0733 38.7069 36.4485C41.2788 37.2029 44.0616 37.7898 47.3094 37.6998L47.2579 35.8417C44.275 35.9243 41.6982 35.3888 39.2302 34.6648C37.9892 34.3008 36.7903 33.8938 35.5649 33.4902C34.3479 33.0894 33.1126 32.6948 31.8409 32.3733C29.2856 31.7272 26.5679 31.372 23.4325 31.8201C20.3024 32.2675 16.8122 33.5073 12.6908 35.9732L13.6451 37.5683ZM47.3094 37.6998C52.3148 37.5611 56.2099 35.4667 59.5944 32.6282C62.9331 29.8281 65.8874 26.194 68.8808 23.0034L67.5252 21.7316C64.401 25.0616 61.6262 28.4981 58.3999 31.2039C55.2195 33.8713 51.7136 35.7182 47.2579 35.8417L47.3094 37.6998Z" fill="#018C81"/>
</svg>
