<svg width="76" height="68" viewBox="0 0 76 68" fill="none" xmlns="http://www.w3.org/2000/svg">
<path d="M5.80322 63.5586H7.52793V67.008H5.80322V63.5586Z" fill="#2980BA"/>
<path d="M7.52793 66.1457V67.008H5.80322V63.5586H6.66558V65.2833C6.66558 65.7605 7.05076 66.1457 7.52793 66.1457Z" fill="#285680"/>
<path d="M0.35376 52.5586H2.07847V59.7422H0.35376V52.5586Z" fill="#2980BA"/>
<path d="M2.07847 57.9463V59.7422H0.35376V52.5586H1.21611V56.1504C1.21611 57.1441 1.6013 57.9463 2.07847 57.9463Z" fill="#285680"/>
<path d="M8.52783 55.5312H10.2525V65.008H8.52783V55.5312Z" fill="#2980BA"/>
<path d="M10.2525 62.6388V65.008H8.52783V55.5312H9.39019V60.2696C9.39019 61.5806 9.77537 62.6388 10.2525 62.6388Z" fill="#285680"/>
<path d="M3.07861 57.5586H4.80332V64.7578H3.07861V57.5586Z" fill="#2980BA"/>
<path d="M4.80332 62.958V64.7578H3.07861V57.5586H3.94097V61.1582C3.94097 62.1541 4.32615 62.958 4.80332 62.958Z" fill="#285680"/>
<path d="M54.8484 23.1445H56.5731V35.5586H54.8484V23.1445Z" fill="#2980BA"/>
<path d="M56.5731 32.4551V35.5586H54.8484V23.1445H55.7107V29.3516C55.7107 31.0688 56.0959 32.4551 56.5731 32.4551Z" fill="#285680"/>
<path d="M57.5732 32.1445H59.298V47.7227H57.5732V32.1445Z" fill="#2980BA"/>
<path d="M59.298 43.8281V47.7227H57.5732V32.1445H58.4356V39.9336C58.4356 42.0886 58.8208 43.8281 59.298 43.8281Z" fill="#285680"/>
<path d="M11.2527 47.5078H12.9774V59.2236H11.2527V47.5078Z" fill="#2980BA"/>
<path d="M12.9774 57.1153V60.3178H11.2527V47.5078H12.115V53.9128C12.115 55.6849 12.5002 57.1153 12.9774 57.1153Z" fill="#285680"/>
<path d="M13.9775 26.75H15.7022V47.2996H13.9775V26.75Z" fill="#2980BA"/>
<path d="M15.7022 43.6016V49.2188H13.9775V26.75H14.8399V37.9844C14.8399 41.0926 15.2251 43.6016 15.7022 43.6016Z" fill="#285680"/>
<path d="M60.2979 46.2188H62.0226V50.5393H60.2979V46.2188Z" fill="#2980BA"/>
<path d="M62.0226 49.7618V50.9428H60.2979V46.2188H61.1602V48.5808C61.1602 49.2343 61.5454 49.7618 62.0226 49.7618Z" fill="#285680"/>
<path d="M63.0225 49.2188H64.7472V53.5393H63.0225V49.2188Z" fill="#2980BA"/>
<path d="M64.7472 52.7618V53.9428H63.0225V49.2188H63.8848V51.5808C63.8848 52.2343 64.27 52.7618 64.7472 52.7618Z" fill="#285680"/>
<path d="M16.7021 11H18.4269V39.0432H16.7021V11Z" fill="#2980BA"/>
<path d="M18.4269 32.0324V39.0432H16.7021V11H17.5645V25.0216C17.5645 28.9009 17.9497 32.0324 18.4269 32.0324Z" fill="#285680"/>
<path d="M19.4268 0.59375H21.1515V19.6328H19.4268V0.59375Z" fill="#2980BA"/>
<path d="M21.1515 14.873V19.6328H19.4268V0.59375H20.2891V10.1133C20.2891 12.747 20.6743 14.873 21.1515 14.873Z" fill="#285680"/>
<path d="M65.7473 47.5586H67.472V51.008H65.7473V47.5586Z" fill="#2980BA"/>
<path d="M67.472 50.1457V51.008H65.7473V47.5586H66.6097V49.2833C66.6097 49.7605 66.9949 50.1457 67.472 50.1457Z" fill="#285680"/>
<path d="M68.4722 35.5586H70.1969V49.2188H68.4722V35.5586Z" fill="#2980BA"/>
<path d="M70.1969 45.8037V49.2188H68.4722V35.5586H69.3345V42.3887C69.3345 44.2783 69.7197 45.8037 70.1969 45.8037Z" fill="#285680"/>
<path d="M28.4635 38.8283C28.3048 38.8283 28.176 38.2597 28.176 37.5564V27.3813C28.176 26.6779 28.3048 26.1094 28.4635 26.1094C28.6222 26.1094 28.7509 26.6779 28.7509 27.3813V37.5564C28.7509 38.2597 28.6222 38.8283 28.4635 38.8283Z" fill="#285680"/>
<path d="M27.6011 26.1094H29.3258V41.9023H27.6011V26.1094Z" fill="#2980BA"/>
<path d="M29.3258 37.9541V41.9023H27.6011V26.1094H28.4634V34.0059C28.4634 36.1906 28.8486 37.9541 29.3258 37.9541Z" fill="#285680"/>
<path d="M31.1881 50.7838C31.0294 50.7838 30.9006 50.262 30.9006 49.6164V40.2768C30.9006 39.6312 31.0294 39.1094 31.1881 39.1094C31.3468 39.1094 31.4755 39.6312 31.4755 40.2768V49.6164C31.4755 50.262 31.3468 50.7838 31.1881 50.7838Z" fill="#285680"/>
<path d="M30.3257 39.1094H32.0504V53.6055H30.3257V39.1094Z" fill="#2980BA"/>
<path d="M32.0504 49.9814V53.6055H30.3257V39.1094H31.188V46.3574C31.188 48.3627 31.5732 49.9814 32.0504 49.9814Z" fill="#285680"/>
<path d="M38.5 51.1445H40.2247V59.7812H38.5V51.1445Z" fill="#2980BA"/>
<path d="M40.2247 57.6221V59.7812H38.5V51.1445H39.3624V55.4629C39.3624 56.6576 39.7475 57.6221 40.2247 57.6221Z" fill="#285680"/>
<path d="M41.2246 52.1445H42.9493V55.594H41.2246V52.1445Z" fill="#2980BA"/>
<path d="M42.9493 54.7316V55.594H41.2246V52.1445H42.087V53.8692C42.087 54.3464 42.4721 54.7316 42.9493 54.7316Z" fill="#285680"/>
<path d="M49.3989 11H51.1236V20.594H49.3989V11Z" fill="#2980BA"/>
<path d="M51.1236 18.1955V20.594H49.3989V11H50.2613V15.797C50.2613 17.1241 50.6465 18.1955 51.1236 18.1955Z" fill="#285680"/>
<path d="M52.1235 13.1445H53.8482V26.1094H52.1235V13.1445Z" fill="#2980BA"/>
<path d="M53.8482 22.8682V26.1094H52.1235V13.1445H52.9859V19.627C52.9859 21.4204 53.3711 22.8682 53.8482 22.8682Z" fill="#285680"/>
<path d="M22.1516 2.59375H23.8763V19.6545H22.1516V2.59375Z" fill="#2980BA"/>
<path d="M23.8763 18.2969V23.5312H22.1516V2.59375H23.014V13.0625C23.014 15.9589 23.3992 18.2969 23.8763 18.2969Z" fill="#285680"/>
<path d="M24.8765 7.59375H26.6012V24.2503H24.8765V7.59375Z" fill="#2980BA"/>
<path d="M26.6012 22.9248V28.0352H24.8765V7.59375H25.7388V17.8145C25.7388 20.6422 26.124 22.9248 26.6012 22.9248Z" fill="#285680"/>
<path d="M71.1968 16.2695H72.9215V33.288H71.1968V16.2695Z" fill="#2980BA"/>
<path d="M72.9215 31.9337V37.1551H71.1968V16.2695H72.0591V26.7123C72.0591 29.6015 72.4443 31.9337 72.9215 31.9337Z" fill="#285680"/>
<path d="M73.9214 33.9219H75.6461V42.535H73.9214V33.9219Z" fill="#2980BA"/>
<path d="M75.6461 41.8496V44.4922H73.9214V33.9219H74.7837V39.207C74.7837 40.6693 75.1689 41.8496 75.6461 41.8496Z" fill="#285680"/>
<path d="M33.0505 49.7227H34.7752V57.2357H33.0505V49.7227Z" fill="#2980BA"/>
<path d="M34.7752 55.4166V57.3146H33.0505V49.7227H33.9129V53.5186C33.9129 54.5689 34.2981 55.4166 34.7752 55.4166Z" fill="#285680"/>
<path d="M35.7754 47.7227H37.5001V52.748H35.7754V47.7227Z" fill="#2980BA"/>
<path d="M37.5001 51.5312V52.8008H35.7754V47.7227H36.6377V50.2617C36.6377 50.9642 37.0229 51.5312 37.5001 51.5312Z" fill="#285680"/>
<path d="M43.9495 37.5391H45.6742V51H43.9495V37.5391Z" fill="#2980BA"/>
<path d="M45.6742 47.6348V51H43.9495V37.5391H44.8118V44.2695C44.8118 46.1316 45.197 47.6348 45.6742 47.6348Z" fill="#285680"/>
<path d="M46.6743 17.6758H48.399V41.9023H46.6743V17.6758Z" fill="#2980BA"/>
<path d="M48.399 35.8457V41.9023H46.6743V17.6758H47.5367V29.7891C47.5367 33.1404 47.9219 35.8457 48.399 35.8457Z" fill="#285680"/>
</svg>
