<svg width="88" height="88" viewBox="0 0 88 88" fill="none" xmlns="http://www.w3.org/2000/svg">
<rect width="88" height="88" rx="8" fill="#F8F9FC"/>
<path d="M11.8032 72.5586H13.5279V76.008H11.8032V72.5586Z" fill="#2980BA"/>
<path d="M13.5279 75.1457V76.008H11.8032V72.5586H12.6656V74.2833C12.6656 74.7605 13.0508 75.1457 13.5279 75.1457Z" fill="#285680"/>
<path d="M6.35376 61.5586H8.07847V68.7422H6.35376V61.5586Z" fill="#2980BA"/>
<path d="M8.07847 66.9463V68.7422H6.35376V61.5586H7.21611V65.1504C7.21611 66.1441 7.6013 66.9463 8.07847 66.9463Z" fill="#285680"/>
<path d="M14.5278 64.5312H16.2525V74.008H14.5278V64.5312Z" fill="#2980BA"/>
<path d="M16.2525 71.6388V74.008H14.5278V64.5312H15.3902V69.2696C15.3902 70.5806 15.7754 71.6388 16.2525 71.6388Z" fill="#285680"/>
<path d="M9.07861 66.5586H10.8033V73.7578H9.07861V66.5586Z" fill="#2980BA"/>
<path d="M10.8033 71.958V73.7578H9.07861V66.5586H9.94097V70.1582C9.94097 71.1541 10.3262 71.958 10.8033 71.958Z" fill="#285680"/>
<path d="M60.8484 32.1445H62.5731V44.5586H60.8484V32.1445Z" fill="#2980BA"/>
<path d="M62.5731 41.4551V44.5586H60.8484V32.1445H61.7107V38.3516C61.7107 40.0688 62.0959 41.4551 62.5731 41.4551Z" fill="#285680"/>
<path d="M63.5732 41.1445H65.298V56.7227H63.5732V41.1445Z" fill="#2980BA"/>
<path d="M65.298 52.8281V56.7227H63.5732V41.1445H64.4356V48.9336C64.4356 51.0886 64.8208 52.8281 65.298 52.8281Z" fill="#285680"/>
<path d="M17.2527 56.5078H18.9774V68.2236H17.2527V56.5078Z" fill="#2980BA"/>
<path d="M18.9774 66.1153V69.3178H17.2527V56.5078H18.115V62.9128C18.115 64.6849 18.5002 66.1153 18.9774 66.1153Z" fill="#285680"/>
<path d="M19.9775 35.75H21.7022V56.2996H19.9775V35.75Z" fill="#2980BA"/>
<path d="M21.7022 52.6016V58.2188H19.9775V35.75H20.8399V46.9844C20.8399 50.0926 21.2251 52.6016 21.7022 52.6016Z" fill="#285680"/>
<path d="M66.2979 55.2188H68.0226V59.5393H66.2979V55.2188Z" fill="#2980BA"/>
<path d="M68.0226 58.7618V59.9428H66.2979V55.2188H67.1602V57.5808C67.1602 58.2343 67.5454 58.7618 68.0226 58.7618Z" fill="#285680"/>
<path d="M69.0225 58.2188H70.7472V62.5393H69.0225V58.2188Z" fill="#2980BA"/>
<path d="M70.7472 61.7618V62.9428H69.0225V58.2188H69.8848V60.5808C69.8848 61.2343 70.27 61.7618 70.7472 61.7618Z" fill="#285680"/>
<path d="M22.7021 20H24.4269V48.0432H22.7021V20Z" fill="#2980BA"/>
<path d="M24.4269 41.0324V48.0432H22.7021V20H23.5645V34.0216C23.5645 37.9009 23.9497 41.0324 24.4269 41.0324Z" fill="#285680"/>
<path d="M25.4268 9.59375H27.1515V28.6328H25.4268V9.59375Z" fill="#2980BA"/>
<path d="M27.1515 23.873V28.6328H25.4268V9.59375H26.2891V19.1133C26.2891 21.747 26.6743 23.873 27.1515 23.873Z" fill="#285680"/>
<path d="M71.7473 56.5586H73.472V60.008H71.7473V56.5586Z" fill="#2980BA"/>
<path d="M73.472 59.1457V60.008H71.7473V56.5586H72.6097V58.2833C72.6097 58.7605 72.9949 59.1457 73.472 59.1457Z" fill="#285680"/>
<path d="M74.4722 44.5586H76.1969V58.2187H74.4722V44.5586Z" fill="#2980BA"/>
<path d="M76.1969 54.8037V58.2187H74.4722V44.5586H75.3345V51.3887C75.3345 53.2783 75.7197 54.8037 76.1969 54.8037Z" fill="#285680"/>
<path d="M34.4635 47.8283C34.3048 47.8283 34.176 47.2597 34.176 46.5564V36.3813C34.176 35.6779 34.3048 35.1094 34.4635 35.1094C34.6222 35.1094 34.7509 35.6779 34.7509 36.3813V46.5564C34.7509 47.2597 34.6222 47.8283 34.4635 47.8283Z" fill="#285680"/>
<path d="M33.6011 35.1094H35.3258V50.9023H33.6011V35.1094Z" fill="#2980BA"/>
<path d="M35.3258 46.9541V50.9023H33.6011V35.1094H34.4634V43.0059C34.4634 45.1906 34.8486 46.9541 35.3258 46.9541Z" fill="#285680"/>
<path d="M37.1881 59.7838C37.0294 59.7838 36.9006 59.262 36.9006 58.6164V49.2768C36.9006 48.6312 37.0294 48.1094 37.1881 48.1094C37.3468 48.1094 37.4755 48.6312 37.4755 49.2768V58.6164C37.4755 59.262 37.3468 59.7838 37.1881 59.7838Z" fill="#285680"/>
<path d="M36.3257 48.1094H38.0504V62.6055H36.3257V48.1094Z" fill="#2980BA"/>
<path d="M38.0504 58.9814V62.6055H36.3257V48.1094H37.188V55.3574C37.188 57.3627 37.5732 58.9814 38.0504 58.9814Z" fill="#285680"/>
<path d="M44.5 60.1445H46.2247V68.7812H44.5V60.1445Z" fill="#2980BA"/>
<path d="M46.2247 66.6221V68.7812H44.5V60.1445H45.3624V64.4629C45.3624 65.6576 45.7475 66.6221 46.2247 66.6221Z" fill="#285680"/>
<path d="M47.2246 61.1445H48.9493V64.594H47.2246V61.1445Z" fill="#2980BA"/>
<path d="M48.9493 63.7316V64.594H47.2246V61.1445H48.087V62.8692C48.087 63.3464 48.4721 63.7316 48.9493 63.7316Z" fill="#285680"/>
<path d="M55.3989 20H57.1236V29.594H55.3989V20Z" fill="#2980BA"/>
<path d="M57.1236 27.1955V29.594H55.3989V20H56.2613V24.797C56.2613 26.1241 56.6465 27.1955 57.1236 27.1955Z" fill="#285680"/>
<path d="M58.1235 22.1445H59.8482V35.1094H58.1235V22.1445Z" fill="#2980BA"/>
<path d="M59.8482 31.8682V35.1094H58.1235V22.1445H58.9859V28.627C58.9859 30.4204 59.3711 31.8682 59.8482 31.8682Z" fill="#285680"/>
<path d="M28.1516 11.5938H29.8763V28.6545H28.1516V11.5938Z" fill="#2980BA"/>
<path d="M29.8763 27.2969V32.5312H28.1516V11.5938H29.014V22.0625C29.014 24.9589 29.3992 27.2969 29.8763 27.2969Z" fill="#285680"/>
<path d="M30.8765 16.5938H32.6012V33.2503H30.8765V16.5938Z" fill="#2980BA"/>
<path d="M32.6012 31.9248V37.0352H30.8765V16.5938H31.7388V26.8145C31.7388 29.6422 32.124 31.9248 32.6012 31.9248Z" fill="#285680"/>
<path d="M77.1968 25.2695H78.9215V42.288H77.1968V25.2695Z" fill="#2980BA"/>
<path d="M78.9215 40.9337V46.1551H77.1968V25.2695H78.0591V35.7123C78.0591 38.6015 78.4443 40.9337 78.9215 40.9337Z" fill="#285680"/>
<path d="M79.9214 42.9219H81.6461V51.535H79.9214V42.9219Z" fill="#2980BA"/>
<path d="M81.6461 50.8496V53.4922H79.9214V42.9219H80.7837V48.207C80.7837 49.6693 81.1689 50.8496 81.6461 50.8496Z" fill="#285680"/>
<path d="M39.0505 58.7227H40.7752V66.2357H39.0505V58.7227Z" fill="#2980BA"/>
<path d="M40.7752 64.4166V66.3146H39.0505V58.7227H39.9129V62.5186C39.9129 63.5689 40.2981 64.4166 40.7752 64.4166Z" fill="#285680"/>
<path d="M41.7754 56.7227H43.5001V61.748H41.7754V56.7227Z" fill="#2980BA"/>
<path d="M43.5001 60.5313V61.8008H41.7754V56.7227H42.6377V59.2617C42.6377 59.9642 43.0229 60.5313 43.5001 60.5313Z" fill="#285680"/>
<path d="M49.9495 46.5391H51.6742V60H49.9495V46.5391Z" fill="#2980BA"/>
<path d="M51.6742 56.6348V60H49.9495V46.5391H50.8118V53.2695C50.8118 55.1316 51.197 56.6348 51.6742 56.6348Z" fill="#285680"/>
<path d="M52.6743 26.6758H54.399V50.9023H52.6743V26.6758Z" fill="#2980BA"/>
<path d="M54.399 44.8457V50.9023H52.6743V26.6758H53.5367V38.7891C53.5367 42.1404 53.9219 44.8457 54.399 44.8457Z" fill="#285680"/>
</svg>
