<?xml version="1.0" encoding="iso-8859-1"?>
<!-- Generator: Adobe Illustrator 19.1.0, SVG Export Plug-In . SVG Version: 6.00 Build 0)  -->
<svg class="algo-icon" xmlns="http://www.w3.org/2000/svg" xmlns:xlink="http://www.w3.org/1999/xlink" version="1.1" id="Capa_1" x="0px" y="0px" viewBox="0 0 456.333 456.333" style="enable-background:new 0 0 456.333 456.333;" xml:space="preserve" width="512px" height="512px">
<g>
	<path d="M428.676,0c-15.252,0-27.656,12.404-27.656,27.657c0,8.594,4.038,16.552,10.682,21.703L294.711,318.437   c-1.646-0.29-3.298-0.449-4.93-0.38c-1.736,0.041-3.457,0.256-5.158,0.636L191.026,131.5c5.967-5.172,9.486-12.701,9.486-20.874   c0-15.253-12.404-27.657-27.657-27.657c-15.253,0-27.657,12.404-27.657,27.657c0,8.394,3.885,16.241,10.281,21.406L32.525,401.448   c-1.591-0.284-3.222-0.429-4.868-0.429C12.404,401.019,0,413.423,0,428.676s12.404,27.657,27.657,27.657   c15.252,0,27.656-12.404,27.656-27.657c0-8.414-3.865-16.275-10.219-21.461L168.02,137.861c3.471,0.608,7.135,0.553,10.627-0.187   l93.624,187.235c-6.002,5.172-9.535,12.674-9.535,20.798c0,15.253,12.404,27.657,27.657,27.657s27.657-12.404,27.657-27.657   c0-8.546-4.045-16.49-10.703-21.648L424.362,54.933c16.829,2.897,31.971-10.592,31.971-27.276C456.333,12.404,443.929,0,428.676,0z    M27.657,442.504c-7.626,0-13.828-6.202-13.828-13.828s6.202-13.828,13.828-13.828c2.012,0,3.948,0.422,5.759,1.251   c4.902,2.254,8.069,7.191,8.069,12.577C41.485,436.302,35.283,442.504,27.657,442.504z M179.076,122.982   c-0.042,0.02-0.076,0.041-0.111,0.055l-0.712,0.332c-3.257,1.362-6.983,1.438-10.226,0.221c-0.283-0.173-0.574-0.339-0.884-0.477   c-5.006-2.282-8.117-7.066-8.117-12.487c0-7.626,6.202-13.828,13.828-13.828s13.828,6.202,13.828,13.828   C186.682,115.86,183.798,120.569,179.076,122.982z M290.394,359.534c-7.626,0-13.828-6.202-13.828-13.828   c0-5.199,2.952-9.914,7.695-12.286c3.713-1.86,7.059-2.205,11.567-0.242c5.096,2.24,8.394,7.156,8.394,12.528   C304.222,353.332,298.02,359.534,290.394,359.534z M428.676,41.484c-1.721,0-3.505-0.414-5.448-1.258   c-0.007-0.006-0.014-0.006-0.021-0.014c-5.075-2.199-8.359-7.128-8.359-12.556c0-7.626,6.202-13.828,13.828-13.828   s13.828,6.202,13.828,13.828S436.302,41.484,428.676,41.484z" fill="white"/>
</g>
</svg>
