<?xml version="1.0" encoding="iso-8859-1"?>
<!-- Generator: Adobe Illustrator 18.1.1, SVG Export Plug-In . SVG Version: 6.00 Build 0)  -->
<svg class="algo-icon" xmlns="http://www.w3.org/2000/svg" xmlns:xlink="http://www.w3.org/1999/xlink" version="1.1" id="Capa_1" x="0px" y="0px" viewBox="0 0 509.632 509.632" style="enable-background:new 0 0 509.632 509.632;" xml:space="preserve" width="512px" height="512px">
<g>
	<g>
		<path d="M495.111,58.077c-14-9-32-4-41,10l-141,230l-53-69c-13-17-38-16-49,2l-61,102l-28-37    c-13-17-39-16-50,2l-68,113c-11,19,1,45,25,45c10,0,20-5,26-14l45-75l28,38c13,17,39,16,50-2l61-103l53,69c13,17,38,15,49-2    l164-268C514.111,85.077,509.111,67.077,495.111,58.077z" fill="white"/>
	</g>
</g>

</svg>
