<?xml version="1.0" encoding="iso-8859-1"?>
<!-- Generator: Adobe Illustrator 18.1.1, SVG Export Plug-In . SVG Version: 6.00 Build 0)  -->
<svg class="algo-icon" xmlns="http://www.w3.org/2000/svg" xmlns:xlink="http://www.w3.org/1999/xlink" version="1.1" id="Capa_1" x="0px" y="0px" viewBox="0 0 22.246 22.246" style="enable-background:new 0 0 22.246 22.246;" xml:space="preserve" width="512px" height="512px">
<g>
	<g>
		<path d="M14.869,0.028c0.937-0.184,1.887,0.563,1.802,1.633c-0.074,1.009-1.563,1.551-2.421,2.027    C11.689,5.126,9.611,6.287,7.097,7.69c-0.52,0.287-0.99,0.665-1.574,0.62C4.677,8.243,4.085,7.378,4.17,6.563    c0.094-0.92,1.396-1.376,2.36-1.914c2.034-1.13,3.508-1.999,5.465-3.097C12.867,1.064,13.908,0.221,14.869,0.028z" fill="white"/>
		<path d="M5.748,9.548C7.342,9.39,9.773,9.495,11.72,9.492c1.106-0.003,4.762-0.357,5.739,0.226    c0.668,0.396,0.868,1.695,0.337,2.308c-0.75,0.883-5.112,0.451-6.703,0.451c-1.125,0-2.368,0-3.604,0    c-1.251,0-2.526,0.065-2.984-0.562c-0.232-0.324-0.29-1.232-0.164-1.577C4.529,9.793,4.951,9.626,5.748,9.548z" fill="white"/>
		<path d="M5.353,13.94c0.983-0.174,2.418,0.999,3.152,1.41c2.105,1.172,3.455,1.87,5.744,3.154    c0.813,0.454,2.313,1.122,2.421,2.027c0.101,0.854-0.521,1.576-1.068,1.689c-1.054,0.216-2.514-0.983-3.154-1.352    c-2.034-1.177-3.612-1.99-5.802-3.21c-0.762-0.426-2.33-1.043-2.476-1.971C4.026,14.788,4.541,14.085,5.353,13.94z" fill="white"/>
	</g>
</g>
</svg>
