<?xml version="1.0" encoding="iso-8859-1"?>
<!-- Generator: Adobe Illustrator 19.0.0, SVG Export Plug-In . SVG Version: 6.00 Build 0)  -->
<svg version="1.1" id="Layer_1" xmlns="http://www.w3.org/2000/svg" xmlns:xlink="http://www.w3.org/1999/xlink" x="0px" y="0px"
	 viewBox="0 0 512.295 512.295" style="enable-background:new 0 0 512.295 512.295;" xml:space="preserve">
<g>
	<g>
		<path d="M459.798,2.355c-5.653-1.493-11.52-2.24-17.493-2.24c-38.507,0-69.867,31.147-69.867,69.76
			c0,24.107,12.373,46.507,32.853,59.307l-39.253,127.573c-21.76-2.773-43.52,5.013-58.56,21.013l-57.493-40.96
			c15.893-34.88,0.427-75.947-34.347-91.84c-34.773-15.893-75.947-0.427-91.84,34.347c-13.547,29.867-4.373,65.067,21.973,84.48
			l-56.32,112.533c-36.693-11.093-75.52,9.707-86.507,46.4c-10.987,36.693,9.707,75.52,46.4,86.507
			c36.693,10.987,75.52-9.707,86.507-46.4c8.747-28.907-2.24-60.267-27.2-77.333l55.893-111.893c26.133,8.96,55.147,1.387,73.6-19.2
			l56.96,40.747c-16.747,34.453-2.347,75.947,32.107,92.693c34.453,16.747,75.947,2.347,92.693-32.107
			c16.747-34.453,2.347-75.947-32.107-92.693c-0.427-0.213-0.853-0.427-1.28-0.64l38.4-124.907c37.333,9.6,75.413-12.8,85.12-50.133
			C519.745,50.035,497.238,11.955,459.798,2.355z M117.612,442.782c0,26.453-21.547,48-48,48c-26.56,0-48-21.44-48-48
			s21.44-48,48-48S117.612,416.222,117.612,442.782z M186.945,256.115c-26.56,0-48-21.44-48-48s21.44-48,48-48s48,21.44,48,48
			S213.399,256.115,186.945,256.115z M405.612,325.448c0,26.56-21.44,48-48,48s-48-21.44-48-48s21.44-48,48-48
			S405.612,298.888,405.612,325.448z M442.199,118.515c-27.413,0-49.6-22.72-48.533-50.453c0.96-25.173,21.44-45.653,46.613-46.613
			c27.627-1.067,50.453,21.12,50.453,48.533C490.732,96.755,468.972,118.515,442.199,118.515z"/>
	</g>
</g>
<g>
</g>
<g>
</g>
<g>
</g>
<g>
</g>
<g>
</g>
<g>
</g>
<g>
</g>
<g>
</g>
<g>
</g>
<g>
</g>
<g>
</g>
<g>
</g>
<g>
</g>
<g>
</g>
<g>
</g>
</svg>
