<?xml version="1.0" encoding="iso-8859-1"?>
<!-- Generator: Adobe Illustrator 16.0.0, SVG Export Plug-In . SVG Version: 6.00 Build 0)  -->
<!DOCTYPE svg PUBLIC "-//W3C//DTD SVG 1.1//EN" "http://www.w3.org/Graphics/SVG/1.1/DTD/svg11.dtd">
<svg  class="algo-icon" version="1.1" id="Capa_1" xmlns="http://www.w3.org/2000/svg" xmlns:xlink="http://www.w3.org/1999/xlink" x="0px" y="0px"
	 width="47px" height="47px" viewBox="0 0 47 47" style="enable-background:new 0 0 47 47;" xml:space="preserve">

		<g>
			<path d="M1,38.844c-0.55,0-1,0.45-1,1v2.7c0,0.55,0.45,1,1,1h45c0.55,0,1-0.45,1-1v-2.7c0-0.55-0.45-1-1-1H1z"/>

			<path d="M19.228,37.217c0.55,0,1.206-0.4,1.456-0.89l2.018-3.937c0.252-0.489,0.057-1.095-0.433-1.346l-1.917-0.983
				c-0.489-0.251-1.095-0.056-1.346,0.435l-0.169,0.33c-0.251,0.489-0.661,0.489-0.912,0L4.195,4.053
				C3.945,3.563,3.339,3.368,2.85,3.619L0.93,4.602C0.439,4.853,0.244,5.458,0.496,5.947l15.578,30.38
				c0.252,0.488,0.907,0.89,1.457,0.89H19.228z"/>

			<path d="M46.675,5.613c0.157-0.306-0.114-0.761-0.604-1.012l-1.92-0.983c-0.49-0.251-1.019-0.207-1.174,0.098
				c-0.156,0.305,0.116,0.76,0.605,1.011L45.5,5.711C45.988,5.962,46.518,5.918,46.675,5.613z"/>

			<path d="M31.338,26.413c-0.251,0.489-0.056,1.095,0.434,1.346l1.92,0.982c0.49,0.252,1.097,0.057,1.348-0.434l0.268-0.521
				c0.252-0.49,0.057-1.097-0.434-1.348l-1.92-0.983c-0.489-0.251-1.096-0.057-1.346,0.434L31.338,26.413z"/>

			<path d="M37.666,23.179c0.252-0.489,0.057-1.095-0.434-1.346l-1.918-0.983c-0.488-0.251-1.094-0.056-1.346,0.434L33.7,21.807
				c-0.251,0.49-0.056,1.096,0.434,1.347l1.917,0.982c0.489,0.251,1.096,0.056,1.348-0.433L37.666,23.179z"/>

			<path d="M44.753,9.36c0.251-0.49,0.056-1.096-0.435-1.347L42.4,7.03c-0.488-0.251-1.094-0.056-1.346,0.433l-0.271,0.525
				c-0.25,0.489-0.056,1.095,0.434,1.346l1.921,0.983c0.489,0.251,1.096,0.056,1.346-0.434L44.753,9.36z"/>

			<path d="M42.391,13.966c0.25-0.489,0.057-1.095-0.434-1.346l-1.918-0.984c-0.489-0.251-1.096-0.056-1.346,0.434l-0.27,0.523
				c-0.251,0.49-0.056,1.095,0.434,1.346l1.918,0.983c0.49,0.251,1.096,0.056,1.348-0.434L42.391,13.966z"/>

			<path d="M38.416,19.53c0.488,0.251,1.096,0.056,1.346-0.434l0.268-0.523c0.252-0.49,0.057-1.095-0.434-1.346l-1.918-0.984
				c-0.49-0.251-1.096-0.056-1.348,0.434l-0.268,0.521c-0.252,0.489-0.058,1.095,0.433,1.346L38.416,19.53z"/>

			<path d="M36.438,5.613c0.156-0.306-0.115-0.761-0.604-1.012l-1.919-0.983c-0.49-0.251-1.02-0.207-1.176,0.098
				c-0.156,0.305,0.115,0.76,0.604,1.011l1.919,0.984C35.752,5.962,36.279,5.918,36.438,5.613z"/>

			<path d="M20.904,26.793c-0.145,0.278,0.057,0.671,0.445,0.871c0.388,0.199,0.912,0.763,1.164,1.252l3.801,7.411
				c0.252,0.488,0.906,0.89,1.457,0.89h1.696c0.55,0,1.205-0.4,1.456-0.89l2.018-3.937c0.252-0.489,0.057-1.095-0.434-1.346
				l-1.919-0.983c-0.489-0.251-1.096-0.056-1.346,0.434l-0.17,0.331c-0.25,0.488-0.661,0.488-0.912,0l-3.358-6.552
				c-0.25-0.488-0.056-0.685,0.434-0.434l0.576,0.295c0.488,0.251,1.096,0.056,1.346-0.434l0.27-0.524
				c0.25-0.489,0.057-1.095-0.434-1.346l-1.918-0.983c-0.489-0.251-1.045-0.155-1.233,0.213c-0.188,0.369-0.55,0.27-0.8-0.22
				l-8.611-16.79c-0.25-0.489-0.856-0.685-1.346-0.434l-1.918,0.983c-0.49,0.251-0.686,0.856-0.434,1.346l9.975,19.448
				C20.959,25.884,21.047,26.514,20.904,26.793z"/>

			<path d="M34.516,9.36c0.25-0.49,0.055-1.096-0.435-1.347L32.164,7.03c-0.489-0.251-1.096-0.056-1.346,0.433l-0.271,0.525
				c-0.252,0.489-0.057,1.095,0.435,1.346l1.918,0.983c0.49,0.251,1.096,0.056,1.347-0.434L34.516,9.36z"/>

			<path d="M29.791,18.574c0.251-0.49,0.057-1.096-0.434-1.347l-1.918-0.984c-0.488-0.251-1.094-0.056-1.347,0.433l-0.27,0.523
				c-0.253,0.489-0.058,1.095,0.433,1.346l1.92,0.985c0.489,0.251,1.096,0.056,1.346-0.433L29.791,18.574z"/>

			<path d="M32.154,13.966c0.252-0.489,0.057-1.094-0.434-1.345L29.8,11.637c-0.489-0.251-1.095-0.056-1.346,0.434l-0.269,0.523
				c-0.252,0.49-0.057,1.095,0.434,1.346l1.918,0.983c0.488,0.251,1.095,0.056,1.347-0.433L32.154,13.966z"/>
		</g>

</svg>
