<?xml version="1.0" encoding="iso-8859-1"?>
<!-- Generator: Adobe Illustrator 16.0.0, SVG Export Plug-In . SVG Version: 6.00 Build 0)  -->
<!DOCTYPE svg PUBLIC "-//W3C//DTD SVG 1.1//EN" "http://www.w3.org/Graphics/SVG/1.1/DTD/svg11.dtd">
<svg  class="algo-icon" version="1.1" id="Capa_1" xmlns="http://www.w3.org/2000/svg" xmlns:xlink="http://www.w3.org/1999/xlink" x="0px" y="0px"
	 width="447.637px" height="447.636px" viewBox="0 0 447.637 447.636" style="enable-background:new 0 0 447.637 447.636;"
	 xml:space="preserve">
<g>
	<path d="M419.455,105.504c2.725-12.278-2.783-15.568-12.307-7.354l-70.391,60.731c-9.523,8.214-22.021,5.661-30.887-3.261
		C225.309,74.598,32.289,79.389,0.245,244.686c-2.391,12.346,13.34,29.443,21.238,39.226
		c100.052,123.797,239.953,54.631,282.638,11.504c8.846-8.94,24.719-12.68,36.232-7.611l94.029,41.319
		c11.512,5.059,16.467-0.048,11.072-11.408l-40.086-84.312c-5.402-11.36-7.564-30.523-4.838-42.802L419.455,105.504z"/>
</g>
</svg>
