<?xml version="1.0" encoding="iso-8859-1"?>
<!-- Generator: Adobe Illustrator 19.0.0, SVG Export Plug-In . SVG Version: 6.00 Build 0)  -->
<svg class="algo-icon" version="1.1" id="Capa_1" xmlns="http://www.w3.org/2000/svg" xmlns:xlink="http://www.w3.org/1999/xlink" x="0px" y="0px"
	 viewBox="0 0 297.167 297.167" style="enable-background:new 0 0 297.167 297.167;" xml:space="preserve">
<g>
	<path d="M293.785,185.165L160.584,90.968c-0.151-0.107-0.306-0.209-0.462-0.304c-13.437-9.436-29.206-14.419-45.646-14.419
		c-17.652,0-33.974,5.789-47.183,15.557C65.392,74.979,51.08,61.861,33.756,61.861C15.143,61.861,0,77.004,0,95.619
		c0,18.614,15.143,33.758,33.756,33.758c2.01,0,3.976-0.187,5.891-0.525c-3.037,8.414-4.701,17.48-4.701,26.928
		c0,43.852,35.678,79.527,79.531,79.527c16.838,0,34.601-4.115,53.406-8.473c19.262-4.462,39.179-9.077,58.35-9.077
		c17.248,0,31.907,3.801,44.816,11.619c1.957,1.186,4.329,1.478,6.512,0.799c2.185-0.677,3.976-2.256,4.92-4.34l13.973-30.836
		C298.036,191.505,296.917,187.379,293.785,185.165z M16,95.619c0-9.792,7.965-17.758,17.756-17.758
		c9.793,0,17.76,7.966,17.76,17.758c0,9.792-7.967,17.758-17.76,17.758C23.965,113.377,16,105.411,16,95.619z"/>
</g>
</svg>
